<svg xmlns="http://www.w3.org/2000/svg" width="193.73" height="171.67" viewBox="0 0 51.26 45.42">
  <path fill="#2e2e2e" d="M12.87 45.37c-.09-.06-.1-.1-.1-.52 0-.42-.04-.69-.12-.78-.02-.02-.16.09-.32.24-.5.46-.86.6-1.18.47-.38-.16-.34-.44.14-1 .87-1.01 1.66-1.6 1.89-1.37.11.12.07.18-.3.42-.19.12-.39.29-.45.37-.05.08-.21.25-.35.38-.7.66-.72 1.09-.03.5.38-.33.47-.38.57-.34.06.02.13 0 .21-.06.18-.13.26-.05.27.24 0 .12.02.35.05.51.03.16.04.33.03.38-.07.21.2.27.45.09.2-.14.23-.19.27-.5.06-.5.28-.6.42-.22.1.3-.11.81-.4.94-.08.04-.19.1-.23.15a.6.6 0 0 1-.28.1c-.1 0-.25.03-.32.04a.27.27 0 0 1-.22-.04zm-9.5-.43c-.27-.2-.49-.47-.6-.72-.1-.21-.27-.18-.38.05-.08.18-.32.36-.58.44a8.5 8.5 0 0 0-.36.11c-.6.22-.99.07-.93-.35.02-.1.07-.26.11-.33l.2-.36c.07-.12.18-.27.24-.33.13-.12.13-.18.03-.33a2.4 2.4 0 0 1-.2-.46 6.68 6.68 0 0 0-.24-.6 4.94 4.94 0 0 1-.23-.66 4.36 4.36 0 0 0-.16-.5A3.3 3.3 0 0 1 0 39.35c.02-.34.05-.68.07-.76l.1-.36c.09-.36.67-.91.97-.91.03 0 .08-.02.1-.04.03-.03.23-.06.47-.07.23-.01.54-.05.69-.09.32-.07.67-.03.9.1.43.27.54-.03.33-.9a4.55 4.55 0 0 1-.1-.76c0-.35-.02-.45-.1-.58a1.83 1.83 0 0 1-.16-.43c-.07-.3-.2-.6-.27-.64-.03-.02-.03-.15-.02-.34.03-.33-.04-.78-.18-1.12-.07-.18-.18-.7-.18-.86 0-.09.03-.13.11-.17.07-.02.2-.1.3-.17.17-.12.39-.14.42-.04.01.02-.1.15-.22.28-.18.18-.24.26-.21.31l.16.54.18.62c.03.08.07.32.08.53.03.37.06.54.18.82.06.14.06.14.29.11.12-.01.25-.03.29-.05.09-.03.28-.49.28-.67 0-.08.04-.23.09-.32.07-.16.08-.2.04-.45-.07-.48 0-.7.18-.5.25.26.34.77.18.94-.07.08-.07.13-.05.35.03.25.03.26-.12.43-.08.09-.15.2-.15.26 0 .18-.1.24-.34.26-.38.02-.48.08-.45.25.02.07.06.36.09.64s.1.67.16.87c.08.28.1.4.06.57a.83.83 0 0 0 .01.32c.02.06.05.17.06.26.02.09.07.24.12.35.15.36-.1.5-.41.23-.69-.6-1.05-.74-1.61-.61-.16.04-.46.08-.66.1-.7.04-.97.28-1.13 1-.17.77-.15.89.35 2.67.03.11.13.38.23.6.1.2.2.5.23.64.08.33.1.35.26.35.19 0 .27.09.18.22a.84.84 0 0 0-.09.21.9.9 0 0 1-.18.29c-.2.22-.5.8-.44.84.12.07.81-.22.93-.4l.22-.25c.08-.1.19-.24.23-.32.17-.33.41-.3.53.06.1.33.4.85.57 1 .25.24.29.17.26-.51l-.03-.64c0-.12.14-.25.28-.25.06 0 .2.1.38.27.3.28.61.46.87.5.23.05.27-.16.07-.43a.6.6 0 0 1-.14-.4c0-.33-.08-.4-.53-.5-.22-.06-.49-.37-.59-.7a1.12 1.12 0 0 1-.07-.35c.02-.02.06-.26.1-.53.1-.87.28-1.11.8-1.15l.26-.02.2.25c.12.15.28.37.36.5.08.13.26.35.4.48.12.13.25.28.28.35.03.07.17.2.37.32l.33.21.65.05c.36.02.95.04 1.3.04.72 0 .81.03.76.23-.03.13-.22.22-.48.21-.99 0-2.23-.08-2.44-.16a2.33 2.33 0 0 1-.97-.84l-.34-.43-.42-.54c-.21-.3-.38-.37-.44-.2l-.1.24c-.05.1-.08.26-.09.36l-.03.46c-.05.34.13.83.33.87.1.03.35.12.47.18.1.06.21.24.26.43.02.1.1.27.19.38.15.2.15.2.12.51-.04.5-.19.64-.6.55a2.9 2.9 0 0 1-.83-.32c-.2-.12-.2-.1-.23.3-.02.59-.13.8-.46.84-.16.03-.2.01-.44-.17zm11.96.04c-.16-.07-.4-.32-.4-.41 0-.03-.05-.1-.11-.15-.3-.24-.53-.55-.48-.66.08-.18.38-.1.56.16a.9.9 0 0 0 .22.2c.07.05.17.17.23.28.14.25.22.3.38.25.2-.07.18-.2-.08-.77-.08-.16-.12-.3-.1-.35.02-.08.25-.19.32-.15.05.04.2.36.2.43 0 .04.05.13.1.21.12.2.15.58.06.72-.15.22-.66.36-.9.24zm1.4-1.4c-.47-.1-.9-.35-.84-.5.05-.1.27-.14.45-.05.17.08.62.2.9.23.37.05.53-.37.27-.68-.13-.15-.14-.16-.34-.13a.54.54 0 0 1-.37-.06.9.9 0 0 0-.72-.03c-.28.1-.55.09-.7-.03-.2-.17-.08-.26.31-.25.19.01.37 0 .5-.05.24-.08.5-.08.71 0 .1.03.32.07.5.08l.34.03.16.26c.27.41.2.88-.18 1.08-.2.11-.7.16-.99.1zm-6.7-1.09c-.04-.04-.05-.08-.01-.12.06-.07.48-.27.65-.3l.36-.13c.28-.13.68-.2.83-.17.28.07.14.4-.16.4-.15 0-.36.07-.67.21-.37.17-.9.23-1 .11zm2.82-.46a.73.73 0 0 1-.07-.24c0-.06-.03-.22-.07-.36-.05-.2-.05-.27-.01-.34.04-.08.03-.12-.07-.26a2.1 2.1 0 0 1-.26-.77l-.06-.37a.9.9 0 0 1-.02-.31c.02-.03 0-.08-.04-.12-.18-.2-.3-1.38-.15-1.55.15-.19.36.02.4.4.02.15.06.38.1.5l.11.62.1.55c.14.54.23 1.06.2 1.17a.4.4 0 0 0 .04.25c.04.07.06.16.06.2 0 .05.05.18.11.29.17.32.14.46-.11.48-.19 0-.2 0-.26-.14zm23.84-.23c-.38-.08-.41-.14-.44-.84-.02-.66 0-.73.21-.73.14 0 .14 0 .22.6.08.62.11.67.36.58.23-.08.29-.2.29-.54 0-.72.53-1.06.72-.45.13.43.3.65.53.73.26.08.12.35-.2.35-.14 0-.2-.03-.38-.2-.16-.15-.22-.19-.24-.14-.02.08-.46.5-.6.57-.15.08-.3.1-.47.07zm-21.68-.08c-.02-.01-.03-.08-.03-.16a.3.3 0 0 0-.08-.2c-.06-.06-.09-.16-.11-.42-.02-.2-.06-.38-.09-.42-.04-.04-.04-.1-.01-.28.04-.2.03-.24-.05-.4a.8.8 0 0 1-.09-.24 8.7 8.7 0 0 1-.42-1.8c0-.17.04-.24.15-.24.13 0 .22.14.3.45.03.14.1.35.14.46.06.13.1.34.11.55l.06.49.06.36c.05.38.2 1.14.25 1.26.08.22-.08.71-.2.6zm19.3-.27c-.16-.15-.21-.28-.18-.52.06-.51.37-1.18.78-1.67l.2-.23-.08-.47-.14-.8c-.22-1.28-.21-1.47.04-1.47.17 0 .19.03.24.45.02.17.08.42.13.57.05.16.1.42.1.73.02.26.05.5.07.54.04.08.16.43.17.47 0 .02-.16.2-.36.38-.4.4-.57.69-.68 1.14-.08.34-.06.56.07.58.18.04.7-.28.93-.56.24-.3.27-.33.34-.16.03.09.02.13-.05.23a.44.44 0 0 0-.08.2c0 .12-.2.27-.63.49-.46.22-.68.25-.86.1zm-18.1-.15c-.36-.02-.51-.07-.51-.19 0-.14.24-.22.76-.25.27-.02.67-.06.89-.1.32-.05.45-.06.67-.02.16.03.4.04.57.02.64-.06 1.33-.1 1.6-.1.73 0 1-.01 1.16-.05.1-.02.5-.04.88-.03h.7l.35-.17c.42-.21.55-.23.55-.07 0 .08.01.1.07.09.2-.06.55-.07.67-.03.2.07.63.06 1.08-.04 1.34-.3 1.6-.37 2.13-.58.6-.23.64-.26.67-.55.06-.6.32-1.08.67-1.27.65-.34.76-.4.84-.52.16-.22.51-.27.51-.07 0 .1-.4.44-.54.48-.07.03-.21.1-.3.18-.14.1-.2.13-.33.12-.2-.02-.27.02-.27.15l-.1.51c-.13.5-.12.51.27.4.15-.05.42-.11.6-.14.17-.04.45-.11.62-.17.3-.1.5-.13 1.4-.15.36 0 .33-.23-.1-.67-.28-.27-.31-.33-.26-.38.16-.16.95.47 1.02.81l.03.16.43-.02c.28-.01.53-.05.7-.11a.89.89 0 0 1 .4-.07c.08.02.2.03.29.03.13 0 .16.01.17.1.03.16 0 .18-.41.25a4.55 4.55 0 0 0-.84.21c-.16.04-1.8.15-2.2.15-.22 0-.39.03-.54.09-.12.05-.51.15-.86.24a6.06 6.06 0 0 0-1.4.47 10.72 10.72 0 0 1-3.38.85c-.23 0-.96-.15-1.02-.21-.09-.08-.29-.04-.46.1-.22.17-.54.24-1.13.24-.27 0-.72.03-1 .06-.38.05-.58.06-.82.03a2.94 2.94 0 0 0-1.02.04c-.2.03-.79.05-1.31.06-.6 0-1.07.03-1.27.07-.17.03-.46.05-.63.05zm22.58-.3c-.06-.06-.06-.07 0-.17.1-.15.05-.62-.1-.93l-.1-.23.11-.1c.06-.06.13-.1.15-.1.22 0 .53 1.04.4 1.37a.9.9 0 0 1-.37.24.29.29 0 0 1-.09-.07zm1.14-1.52c-.07 0-.31-.05-.55-.1a8.14 8.14 0 0 0-.57-.1c-.19 0-.21-.11-.06-.26.13-.13.27-.13.88.02.52.12.89.12.98 0 .12-.18.08-.36-.1-.48-.19-.13-.88-.36-1.06-.36-.11 0-.13-.02-.13-.1 0-.2.36-.33.58-.21.06.03.25.1.4.14.59.16.87.52.75.96-.11.41-.48.57-1.12.49zm-19.38-1.06c-.1-.08-.03-.16.15-.2.07-.02.25-.15.42-.3.16-.16.3-.27.32-.26.05.05-.04.24-.23.47-.28.34-.51.45-.66.3zm-2.23-.22c-.1-.07-.3-.16-.43-.2-.43-.12-.45-.3-.03-.26.18.02.33.07.53.18.24.14.3.15.39.11.27-.1.47-.13.56-.09.12.07.05.14-.18.22l-.27.1c-.14.1-.37.08-.57-.06zm20.43-.37a5.28 5.28 0 0 1-.07-.63 7.83 7.83 0 0 0-.43-2.45c-.05-.14-.1-.39-.1-.54 0-.16-.07-.46-.14-.68-.28-.87-.3-1.16-.13-1.32.18-.16.27-.08.3.27.01.18.08.51.16.76.1.3.15.56.16.78 0 .18.03.37.06.4.02.05.04.15.04.23 0 .08.03.17.06.22.03.04.07.15.09.24a7.18 7.18 0 0 1 .29 2.73c-.09.08-.26.08-.3-.01zm-17.15-.34l.07-.27c.04-.25.1-.4.25-.62.07-.1.13-.2.13-.24l.08-.17c.07-.1.08-.17.06-.35-.03-.24.05-.33.17-.2.2.2 0 .88-.48 1.64-.16.26-.36.4-.28.2zm-10.62-.09a4.64 4.64 0 0 1-.04-.68c-.01-.58 0-.6.08-.67.1-.07.23-.03.24.07a5.6 5.6 0 0 1-.12 1.26c-.02.11-.12.13-.16.02zm-1.77-.08a.65.65 0 0 0-.27-.14c-.3-.07-.41-.21-.38-.5.03-.37.19-.72.4-.88.52-.44.82-.53 1.32-.4l.4.07c.23.03.3.12.15.24-.12.1-.42.1-.72 0-.26-.1-.3-.1-.73.17-.25.14-.29.18-.29.29 0 .06-.03.21-.08.33-.1.25-.06.43.08.43.05 0 .14.05.2.1.09.1.12.12.32.1.27-.04.43.03.45.17.01.1 0 .1-.08.07-.12-.04-.25-.04-.5 0-.17.03-.2.02-.27-.05zm7.76-.12a1 1 0 0 0-.21-.15.74.74 0 0 1-.17-.19c-.3-.43-.28-1.2.04-1.15.05 0 .06.09.06.37 0 .42.07.58.38.9.3.32.22.49-.1.22zm22.28-.4c-.08-.1-.08-.1.04-.2.07-.06.17-.1.26-.1.08 0 .2-.02.26-.04.13-.05.97-.2 1.21-.2.09 0 .29-.06.44-.12.4-.15.47-.16.54-.1.26.2-.48.63-1.2.7-.2.01-.49.05-.65.08-.44.1-.8.08-.9-.02zm7.14-.64a.86.86 0 0 1-.3-.28c-.12-.31.03-1.08.33-1.7.17-.35.17-.38-.02-1.1-.25-.94-.33-1.03-.41-.41-.02.11-.08.3-.13.4-.07.13-.12.33-.15.6-.06.47-.15.72-.41 1.11-.28.42-.34.45-1.13.73-.12.04-.27.1-.34.14-.36.18-.44.21-.62.26-.1.03-.23.05-.29.05a.42.42 0 0 0-.2.06c-.16.1-.33.06-.35-.08-.02-.17.14-.3.48-.38.17-.04.46-.15.66-.24.2-.1.45-.19.55-.2.3-.07.67-.25.75-.38l.17-.24c.1-.13.33-.83.37-1.15l.1-.5c.05-.17.1-.4.11-.51.14-1 .65-1.17.96-.32l.2.53.1.42.08.56c.05.28.04.31-.04.44-.2.32-.38 1.01-.39 1.4 0 .34.14.54.38.54.13 0 .51-.37.51-.5 0-.04.05-.17.1-.3.07-.12.11-.3.11-.4 0-.42.45-.5.5-.07.05.43.25.6.82.7.14.03.16-.04.17-.55 0-.52.03-.57.38-.55.18.01.3.04.35.1.19.17.77.43.9.4.46-.11-.23-.73-.99-.86-.53-.1-.82-.35-.54-.47.09-.04.15-.04.33.01.12.04.34.1.48.12.6.12 1.29.67 1.29 1.05 0 .24-.35.52-.64.52-.16 0-.58-.16-.82-.3a1.15 1.15 0 0 0-.24-.13c-.05 0-.1.2-.07.25a1 1 0 0 1-.02.3l-.06.41c-.05.38-.28.35-1.3-.17l-.19-.1-.1.11a2.8 2.8 0 0 1-.7.79c-.23.11-.44.08-.73-.1zm-11.77-.32a23 23 0 0 0-.25-1.88c-.22-.98-.22-1.04-.06-1.1.22-.08.22-.07.48.9.1.36.15.72.21 1.28l.07.55c.05.3-.35.52-.45.25zM27.1 35a1.94 1.94 0 0 0-.46-.03c-.41 0-.43 0-.45-.1-.02-.15.13-.2.6-.19l.41.01.1-.16c.09-.13.11-.23.13-.62.04-.54.05-.61.13-.61.07 0 .1.13.12.7.02.4.01.45-.08.64-.17.31-.39.47-.5.36zm-1.82-1.22c-.1-.1-.12-.13-.1-.26a2.63 2.63 0 0 1 .48-1.1c.14-.27.51-.45.77-.39l.3.08c.26.05.56.28.56.43 0 .16-.09.16-.31 0s-.62-.25-.77-.18c-.14.06-.33.47-.34.72 0 .2 0 .2-.14.19-.15 0-.22.11-.23.43-.01.2-.07.22-.22.08zm-4.55-.53c-.38-.36-.41-.42-.2-.42.12 0 .2.04.38.2l.34.29c.16.11.13.23-.06.23-.1 0-.2-.07-.46-.3zM48.8 33a1.9 1.9 0 0 1-.25-.77c0-.05-.08-.32-.17-.6a6.64 6.64 0 0 1-.32-1.36c-.03-.25-.26-1.07-.42-1.5-.33-.89-.87-1.2-1.52-.9-.42.2-.83.9-.9 1.52-.06.6-.58.86-.67.33-.01-.1-.06-.24-.1-.31a1.4 1.4 0 0 1-.1-.37 18.67 18.67 0 0 0-.43-2.03 4.72 4.72 0 0 0-.4-1.17 1.87 1.87 0 0 1-.16-.45l-.1-.41a6.28 6.28 0 0 1-.2-1.04c-.25-1.86-.28-1.99-.55-2.16-.25-.16-.37-.34-.27-.4.08-.05.24-.05.28 0 .01.02.05.04.08.04.1 0 .08-.21-.04-.65-.06-.21-.1-.44-.11-.51 0-.07-.04-.26-.08-.42-.07-.3-.07-.3-.25-.33-.23-.05-.3-.14-.2-.25.06-.06.12-.08.21-.06.22.04.25-.02.23-.34a3.1 3.1 0 0 0-.1-.53 23.9 23.9 0 0 1-.44-2.14c-.02-.09-.05-.25-.05-.36 0-.1-.04-.27-.09-.38-.06-.13-.09-.3-.1-.57l-.02-.46c-.03-.24 0-.4.08-.4.11 0 .26.24.26.42s.1.79.16.93c.1.28.27.94.35 1.44l.13.67c.12.5.17.83.19 1.17 0 .16.04.4.08.53.03.13.08.38.09.55a7.45 7.45 0 0 0 .27 1.72c0 .25.04.64.1.86.04.13.07.3.07.39 0 .08.03.23.06.33.04.1.07.28.06.4 0 .12.02.31.05.43l.09.46c.11.8.2 1.13.28 1.18.08.05.27.43.27.55 0 .05.04.2.1.32.06.12.13.36.17.53l.15.64c.04.18.08.41.08.52 0 .19.15.6.22.6.02 0 .09-.1.15-.22.4-.82 1.35-1.27 2.07-1 .43.16.88.74 1.03 1.32l.32 1.2c.13.46.15.54.15.73 0 .1.02.22.05.26.02.05.08.2.12.35l.17.51c.05.14.08.28.07.3-.02.05.01.22.1.57.09.35-.09.54-.3.32zm-6.58-.2c-.4-.16-.66-.38-.58-.47.09-.1.19-.09.37.06.34.27.6.36.83.28l.22-.07c.07 0 .02.14-.09.23-.15.14-.38.14-.75-.02zm-23.92.01c-.02-.03.04-.21.08-.21l.2-.06c.18-.06.21-.06.27 0 .08.08.04.19-.06.19a.82.82 0 0 0-.23.06c-.18.07-.22.08-.26.02zM3.95 32c-.25-.26-.28-.35-.14-.4.13-.05.23-.02.3.1l.2.23c.3.35-.01.41-.36.07zm39.16.16c-.04-.05-.03-.25.04-.44.1-.28.08-.61-.04-.88a.83.83 0 0 1-.1-.3c.02-.1.15-.11.22-.02l.21.26c.18.21.2.47.09.75-.04.08-.05.17-.04.19.11.18-.23.58-.38.44zm-1.63-1.05c-.05-.06.04-.2.12-.2.07 0 .1.14.04.2-.06.07-.1.07-.16 0zm-3.36-.12a1.22 1.22 0 0 1-.34-.19c-.05-.06-.08-.05-.28.09-.23.15-.51.2-.57.12-.01-.03-.14-.05-.28-.06-.3-.02-.43-.12-.41-.29.01-.14.2-.21.32-.12.04.04.13.08.2.09l.25.07c.12.05.15.05.33-.09l.3-.21c.13-.1.19-.47.1-.68-.16-.37-.58-.8-.78-.8-.13 0-.32.25-.29.37l.05.2c.02.09-.02.15-.24.37-.14.14-.28.32-.32.4-.08.2-.28.2-.3 0-.02-.13.03-.2.33-.57.07-.1.07-.13.03-.26-.06-.2-.02-.34.14-.53.36-.4.84-.39 1.27.04.17.17.28.2.32.09.01-.04.1-.1.2-.15.16-.09.36-.06.75.1.12.04.5.56.5.67 0 .04.07.21.15.38.08.17.15.36.15.42 0 .4-.68.8-.91.55-.1-.1-.06-.15.24-.28.31-.13.39-.27.24-.43a.58.58 0 0 1-.14-.35c-.04-.3-.19-.44-.5-.48-.27-.02-.47.12-.43.31.03.14-.12.6-.23.75l-.1.12.2.06c.2.07.45.32.38.38-.02.02-.17-.02-.33-.09zm-35.9.06v-.16l-.06-.31c-.1-.46-.19-.86-.27-1.32L1.53 27c-.03-.26-.13-.75-.2-1.1a19.48 19.48 0 0 0-.68-2.8c-.06-.1-.07-.2-.05-.51.02-.38 0-.8-.1-1.45-.1-.63-.1-.78-.03-.87.15-.2.3.08.37.65.02.18.05.4.08.51.02.1.04.36.04.56 0 .3.02.4.11.6.06.13.1.3.1.4 0 .23.15.84.34 1.38.12.39.19.67.24 1.06l.11.74c.05.3.08.6.06.67 0 .08 0 .22.04.32.15.47.17.59.3 1.68.03.32.1.67.12.78.13.44.2.9.15 1.02a.51.51 0 0 0-.01.24c.02.09 0 .14-.04.17-.07.04-.24.05-.25 0zm39.42-.73c-.22-.12-.01-.4.3-.4.18 0 .2 0 .2.11.02.1 0 .12-.13.14-.08.02-.17.07-.2.11-.04.1-.07.1-.17.04zm-23.91-.97c-.07-.04-.21-.07-.46-.07-.2 0-.48-.03-.61-.05-.2-.05-.28-.05-.38 0-.2.08-.28-.03-.18-.24.1-.23.22-.26.66-.18.52.1.72.13.72.1 0-.07-.11-.23-.25-.36-.14-.14-.15-.15-.32-.1-.26.08-.83.14-1.03.11-.16-.02-.2-.01-.31.1-.1.1-.19.14-.37.16-.25.03-.47.11-.64.24-.12.09-.35.07-.43-.03-.07-.08.02-.26.2-.37l.25-.19.18-.14a.66.66 0 0 0 .17-.21c.06-.13.1-.15.5-.25a2 2 0 0 0 .72-.3 9.7 9.7 0 0 1 1.95-1.03c.33-.2.48-.24.48-.15 0 .1.13.08.33-.05a11.45 11.45 0 0 1 .64-.4c.3-.19.48-.1.36.17-.06.15.02.54.15.68.02.02.04.08.04.13 0 .08.02.1.13.1.16 0 .16-.02.02-.7-.05-.3-.09-.56-.08-.61.02-.07.36-.21.52-.21.03 0 .09-.03.14-.07.05-.03.12-.04.14-.03.07.05.16.34.13.42-.04.1.05.25.11.19.04-.03.03-.08-.01-.16-.08-.15.05-.27.17-.16.1.09.17.05.17-.09 0-.12.12-.2.22-.14.04.02.08.06.08.09 0 .02.04.08.1.13.1.08.11.1.1.38-.01.48 0 .58.08.58.05 0 .06-.03.04-.16l.01-.37c.02-.17.01-.25-.05-.36-.08-.17-.1-.42-.02-.5.04-.04.04-.07 0-.14-.1-.14.03-.3.25-.3.09 0 .23-.02.3-.06.07-.04.2-.07.28-.07l.51.01c.45 0 .73-.07.89-.25.17-.18.28-.17.35.04.07.24.23.3.85.34.28.02.55.02.6 0a.58.58 0 0 1 .28 0c.1.03.31.05.47.06.21.01.33.04.41.1.43.32.62.35 2.1.37a16.26 16.26 0 0 1 2.06.13c.16 0 .35.04.47.1.11.05.32.1.47.12.25.03.26.04.28.15 0 .07-.02.15-.06.2-.06.06-.05.07.14.12.26.08.4.2.34.3-.06.12-.84.07-1.06-.07-.19-.12-.2-.13-.07-.26.06-.06.08-.1.05-.14a7.3 7.3 0 0 0-1.3-.22c-.33-.04-.4.02-.12.1.27.06.6.21.6.27 0 .02-.03.07-.07.11-.08.1-.05.21.07.21.1 0 .42.3.42.37 0 .15-.2.3-.46.32-.16.01-.35.07-.48.13-.11.06-.23.1-.25.09-.05-.03-.65.27-.9.45-.2.14-.4.16-.51.03-.17-.18-.87 0-1.15.3-.1.09-.13.1-.34.07-.6-.06-.92 0-1.26.25-.16.12-.34.19-.53.2-.12.01-.15.03-.16.1-.03.17-.2.27-.43.25-.29-.04-.47-.1-.47-.17s.24-.23.34-.23c.13 0 .23-.1.18-.2a.87.87 0 0 1-.01-.37c.02-.23.02-.31-.03-.36-.08-.09-.1-.05-.13.27-.04.3-.08.36-.25.36-.07 0-.11.04-.14.1-.04.1-.12.16-.27.16-.08 0-.08 0 .03.06.39.22-.46.5-.89.3-.1-.04-.12-.03-.22.1-.13.15-.24.17-.4.05-.14-.12-.92-.14-1.03-.04-.05.05-.23.1-.46.12l-.58.09c-.4.07-.67 0-.6-.16.06-.18.1-.4.07-.45-.02-.03-.04.01-.05.12-.02.13-.05.18-.15.23l-.24.11a.94.94 0 0 1-.33.06c-.19 0-.24.02-.32.1-.11.12-.43.15-.63.06-.09-.04-.13-.04-.2 0-.16.08-.52.09-.63.01zm3.09-.63c0-.17-.06-.34-.11-.34-.07 0-.08.22-.02.34.06.1.13.1.13 0zm.73.03a.91.91 0 0 1 .23-.08l.13-.02-.08-.1c-.07-.09-.1-.1-.18-.06a.75.75 0 0 1-.17.06c-.06.01-.1.05-.1.13-.02.13.03.15.17.07zm.7-.2c.01-.03 0-.05-.04-.04a.13.13 0 0 0-.07.07c-.01.04 0 .05.04.04a.13.13 0 0 0 .07-.07zm1.25-.22c.02-.11.05-.22.07-.23.03-.02.04-.12.03-.24-.01-.26.02-.28.55-.28h.35l.01-.15c.01-.11.03-.14.14-.15.32-.03.16-.18-.29-.26-.33-.05-.45-.03-.45.08 0 .24-.21.3-.37.12-.08-.1-.1-.1-.27-.07l-.23.04c-.06 0-.03.84.04.93.05.06.11.17.2.33.1.17.2.12.22-.12zm-3.19.07c0-.07-.08-.13-.11-.1v.11c.03.1.11.09.11-.01zm-1.28-.16c-.02-.03-.03-.02-.03.03 0 .04.01.07.02.05.02-.01.02-.05 0-.08zm3.17-.07a.54.54 0 0 1 .04-.28c.04-.1.06-.22.05-.3-.03-.2.03-.27.14-.17.04.04.08.11.08.15 0 .1.05.21.09.21.02 0 .03-.11.03-.25l-.01-.26h-.22c-.27 0-.44.07-.44.18 0 .1.12.6.18.75.05.13.09.11.06-.03zm-1.93-.25c0-.12-.01-.14-.07-.12a.39.39 0 0 1-.1.02c-.06 0-.05.08.03.2.08.13.14.1.14-.1zm-.38-.03c.04-.05.03-.07-.04-.1-.12-.07-.19-.03-.13.08.05.1.1.1.17.02zm7.94-.13c.04-.03.07-.06.06-.07a2.9 2.9 0 0 1-.13-.11c-.15-.13-.3-.07-.3.12 0 .11.02.12.15.12.07 0 .17-.02.22-.06zm-7.13-.09c.13-.1.17-.1.34-.04.05.03.08.01.08-.03 0-.1-.06-.11-.37-.07-.34.06-.4.1-.29.19.1.08.1.08.24-.05zm5.53-.02c.03-.22.08-.23.5-.14.15.03.28-.07.49-.37.16-.23.76-.22.85.01.02.05.04.04.07-.02.03-.04.1-.14.18-.21l.12-.14-.27-.03c-.5-.04-1.1.02-1.23.13a.62.62 0 0 1-.2.12c-.06 0-.27.05-.48.1-.21.05-.46.09-.56.09-.21 0-.23.03-.2.25l.03.17.22-.03c.2-.02.22-.01.3.1.08.13.16.12.18-.03zm-7.66-.15c.21-.07.27-.12.16-.16-.06-.03-.37.08-.5.17l-.1.06h.11c.06 0 .21-.03.33-.07zm10.5-.1c.44-.05.55-.1.45-.21-.08-.08-.1-.08-.32-.01-.67.2-.73.3-.13.22zm-9.55-.2c.04-.04 0-.14-.13-.39-.01-.03-.39.23-.41.29-.07.16.4.24.54.1zm11.05-.23c.3-.11.33-.17.15-.25-.11-.04-.14-.04-.25.04-.19.14-.27.1-.27-.1 0-.1.04-.19.12-.27.14-.15.11-.17-.2-.17a4.3 4.3 0 0 1-.6-.07c-.34-.06-.45-.04-.45.09 0 .07.1.1.32.1.24 0 .27.06.12.22-.11.12-.13.13-.37.1-.2-.02-.3 0-.47.05l-.2.09.33.02c.18.02.4.02.49 0 .12-.02.2 0 .32.08.12.07.17.08.23.04.12-.07.28-.06.34.04.05.1.08.1.4-.01zm-9.24-.3c0-.01-.03-.03-.07-.03-.06 0-.08.05-.03.1.03.03.1 0 .1-.06zm.51-.1c-.02-.2-.16-.4-.3-.4-.03 0-.04.06-.02.23.04.32.04.33.2.32.12-.02.14-.03.12-.14zm.98-.05c.02-.02.01-.1-.01-.18a1.32 1.32 0 0 1-.04-.3c0-.2-.05-.23-.26-.16l-.17.05.02.28c.03.32.1.4.3.37a.42.42 0 0 0 .16-.06zm2.83-.3c-.01-.25 0-.26.09-.25.05 0 .13.07.18.15.11.18.2.18.2 0 0-.41.2-.5.25-.12.03.23.1.34.2.34.04 0 .05-.02.03-.1l-.08-.3a.72.72 0 0 0-.23-.39l-.2-.18-.07.1c-.07.1-.11.11-.2.09a.4.4 0 0 0-.25.03.4.4 0 0 1-.42-.06c-.05-.04-.09-.04-.2 0-.27.1-.63-.2-.47-.37.04-.05.06-.09.03-.09-.02 0-.06.03-.1.07a.19.19 0 0 1-.11.06c-.29 0-.5.15-.39.28.06.06.06.06.09-.03.02-.12.16-.15.3-.08.07.04.08.07.06.23-.04.25.13.49.25.34.06-.08.06-.08.12 0 .05.06.06.05.1-.1.04-.17.05-.17.4-.1.22.03.3.17.32.47v.27c.01.02.03.03.06.02.03 0 .05-.1.04-.28zm-1.5-.08c-.03-.07-.05-.1-.08-.06-.03.03-.02.1.02.2.06.18.1.07.05-.14zm3.7.1c.02-.03.04-.12.03-.2-.01-.13-.03-.14-.2-.18-.22-.04-.23-.03-.17.18.06.23.23.33.33.2zm-.77-.06c0-.15-.1-.49-.16-.5-.06-.03-.04.44.02.54.04.07.14.04.14-.04zm1.54-.07c-.08-.11-.18-.17-.22-.12-.01.01.01.05.06.08l.13.1c.08.08.1.04.03-.06zm-5.2-.24c.03-.14.04-.16.15-.16.15 0 .16-.03.04-.16-.14-.14-.45-.14-.5.01-.07.16-.06.22.04.25.05 0 .12.1.15.18.04.09.08.13.09.1l.03-.22zM10 29.2c-.1-.07-.72-.09-.95-.02a1.2 1.2 0 0 1-.72-.15.76.76 0 0 0-.32-.08c-.3-.02-.39-.05-.44-.15-.05-.09.04-.21.14-.21.23 0 .69.1.95.21.32.13.33.13.68.08.2-.03.47-.04.63-.02.3.03.3.03.56-.14.2-.13.31-.18.45-.18.13 0 .2-.02.27-.1.13-.14.47-.33.54-.3.1.04.06.1-.16.33a.8.8 0 0 1-.5.3 1.3 1.3 0 0 0-.46.19c-.14.1-.5.3-.57.3a.38.38 0 0 1-.1-.06zm-3.03-.75a.66.66 0 0 1-.2-.2.54.54 0 0 0-.2-.19c-.08-.04-.14-.1-.14-.11 0-.02-.06-.1-.13-.18-.19-.22-.13-.41.1-.35.13.03.58.45.58.54 0 .04.06.15.14.25.17.19.19.27.09.3-.1.04-.07.05-.24-.06zm6.38-1.9a1.3 1.3 0 0 1 .06-.42c.11-.4.12-1.2.02-1.47-.07-.16-.06-.48 0-.48.08 0 .2.11.31.27.12.17.13.21.15.74.02.32.02.63 0 .72l-.07.28c-.03.13-.3.45-.4.45-.02 0-.06-.04-.07-.1zm-7.9-.88c-.15-.1-.2-.5-.09-.62.16-.14.24-.07.28.25.04.34-.02.47-.18.37zm31.41-.1c-.1-.11-.8-.29-1.18-.3-.36-.02-.65-.26-.5-.43.06-.08.13-.08.32.02.09.04.3.1.46.14l.75.18.46.12.22-.08c.14-.06.33-.08.58-.09.42 0 .43 0 .69-.35.21-.28.36-.54.36-.66a4.2 4.2 0 0 1 .32-1.14c.08-.28.35-.62.4-.52.04.06-.04.37-.12.47-.02.03-.06.15-.09.28-.02.13-.07.28-.09.34a2.7 2.7 0 0 0-.07.39c-.12.83-.72 1.52-1.28 1.45-.19-.02-.3 0-.53.08-.42.15-.62.18-.7.1zm-31.43-.82c-.4-.1-.68-.32-.86-.7l-.28-.52c-.18-.32-.18-.48-.03-.69a.4.4 0 0 0 .1-.19c0-.1.21-.33.3-.33.04 0 .17-.05.3-.11a2.23 2.23 0 0 1 1.7.06c.06.03.14.04.2.03.23-.06.55.47.4.64-.07.1-.33.08-.33-.02 0-.2-.08-.33-.29-.42-.2-.1-.58-.14-.68-.07-.02.01-.19 0-.37-.03-.36-.05-.3-.07-.78.24-.22.14-.3.55-.15.73.1.13.17.28.22.49.04.18.4.52.57.55.37.06 1.19.08 1.31.03.14-.06.34-.37.34-.54 0-.16.16-.44.24-.4.12.04.1.67-.03.75a.5.5 0 0 0-.1.17c-.11.26-1.18.46-1.78.33zm28.4-.95c-.06-.07-.13-.12-.16-.12-.19 0-.31-.66-.16-.85l.08-.1.07.13c.04.07.07.19.07.26s.03.15.07.18c.1.08.32.54.29.59-.05.08-.17.04-.27-.09zm-.8-1.85c-.12-.04-.2-.29-.25-.8-.05-.52-.05-.55.03-.66.15-.21.24-.06.3.48.02.28.06.5.12.6.15.3.05.49-.2.38zm-26.26-.3c-.06-.11.07-.38.33-.63.24-.24.3-.26.85-.37.32-.07.51-.14.72-.27.24-.15.46-.21.85-.21.22 0 .5-.03.63-.05.29-.05.9.01 1.2.13l.6.23c.23.06.61.66.61.93 0 .1-.2-.02-.29-.18-.05-.1-.13-.2-.17-.2a4.12 4.12 0 0 0-1.19-.6c-.05-.01-.2-.04-.31-.08a.9.9 0 0 0-.5-.02l-.63.06c-.4.02-.5.06-.83.29a1.4 1.4 0 0 1-.6.22c-.47.1-.64.21-.84.56-.16.29-.34.37-.43.2zm32.61-.61c-.19-.3-.17-.77.03-.7.08.03.26.55.24.68-.02.14-.18.15-.27.02zm2.35-.18c-.28-.15-.33-1-.07-1.18.19-.14.34 0 .23.22-.06.11-.06.13.02.9.02.12-.04.14-.18.06zM21.6 19.84c-.05-.05-.03-.18.04-.32.15-.28.04-1.3-.14-1.27l-.16.02c-.17.03-.2.3-.04.54.34.55 0 .73-.36.2-.3-.45-.44-1.46-.26-1.83.12-.23.5-.17.82.14.09.08.23.17.32.2.13.04.15.06.14.16 0 .07.02.17.05.23.06.12.05.73-.01.97-.02.07-.03.22-.02.32.05.43-.19.83-.38.64zm-21.3-.15c-.02-.06 0-.41.04-.8l.1-1.48c.04-.58.07-.8.12-.88.05-.08.06-.16.04-.34a6.57 6.57 0 0 1 .29-3l.18-.63c.13-.51.16-.57.27-.57.12 0 .14.1.09.36l-.16.76c-.06.3-.14.61-.18.68-.14.27-.16.57-.15 1.8 0 .91 0 1.23-.05 1.33a4.2 4.2 0 0 0-.08.8 9.68 9.68 0 0 1-.09 1.19c.04.16-.09.75-.17.82-.12.08-.23.06-.25-.04zm32.81-.36c-.13-.14.22-.85.6-1.2.2-.19.8-.53 1.07-.61a.8.8 0 0 0 .22-.13c.16-.13.48-.18.57-.1.09.1.04.15-.15.19-.08.01-.26.1-.4.17-.13.08-.26.14-.28.14-.02 0-.07.04-.1.08-.05.05-.18.13-.3.2-.32.14-.53.34-.64.6-.18.4-.5.75-.59.66zm-23.52-.2c-.06-.04-.24-.1-.4-.15a5.29 5.29 0 0 1-.63-.26c-.19-.1-.36-.17-.39-.16l-.31-.14a283.96 283.96 0 0 0-1.38-.65c-.31-.13-.5-.19-.8-.23-.47-.06-.75-.25-.6-.39.1-.07-.06-.2-.22-.2-.12 0-.26-.08-.26-.14l.14-.43c.25-.7.37-1.06.41-1.24.03-.12.07-.18.13-.2.04 0 .08-.05.08-.09 0-.03.11-.29.25-.56.15-.27.36-.8.49-1.17.45-1.31 1.11-2.3 1.5-2.21a.9.9 0 0 0 .34-.06c.13-.05.34-.08.47-.08.21 0 .56-.08 1.46-.34.16-.05.4-.1.53-.11.12-.02.3-.06.38-.1.08-.03.25-.08.38-.1.13-.01.44-.07.7-.12.76-.14.75-.14.85-.05.05.05.1.12.11.15.02.03.06 0 .13-.09.15-.18.32-.2.73-.11l.58.1c.36.05.45.1.65.37.19.24.79.82.94.9.05.03.1.12.13.2.03.1.12.23.22.33s.2.22.23.29c.04.07.2.27.36.45.16.19.3.37.3.4 0 .1.15.24.27.24.14 0 .23.1.2.23-.02.09 0 .14.1.21l.12.1v.52c0 .8-.28 1.82-.6 2.16-.1.11-.14.2-.14.3 0 .08-.04.16-.1.22-.07.06-.17.19-.24.3-.06.1-.17.22-.23.26l-.28.24c-.1.1-.2.16-.26.16a.8.8 0 0 0-.3.14c-.12.09-.24.15-.26.15-.03 0-.1.05-.15.1-.05.07-.13.11-.17.11a.39.39 0 0 0-.18.09.4.4 0 0 1-.16.08.57.57 0 0 0-.2.09c-.07.04-.2.1-.29.1a1.9 1.9 0 0 0-.34.12c-.2.08-.33.07-.37-.03-.03-.08.16-.22.37-.28.1-.02.33-.13.5-.24l.54-.25c.13-.03.23-.1.27-.16.04-.06.2-.16.35-.24.49-.24.69-.5 1.07-1.43.15-.34.15-.34.1-.34l-.15.2a3.31 3.31 0 0 1-1.46 1.21c-.35.08-.16-.23.33-.52.26-.16.3-.2.54-.6.15-.25.34-.52.43-.61a.62.62 0 0 0 .2-.32c.01-.08.07-.3.13-.5.17-.56.16-.6-.2-.76a3.33 3.33 0 0 1-1.3-1.49c-.06-.13-.2-.37-.31-.54a8.88 8.88 0 0 1-.38-.63c-.21-.4-.4-.7-.5-.77-.13-.1-.86-.04-1.38.14-.29.1-.55.09-.63-.03-.07-.1-.1-.1-.64.1-.13.04-.33.08-.44.08-.11 0-.22.02-.24.04a.66.66 0 0 1-.2.08l-.35.09-.3.04a.54.54 0 0 0-.25.07.95.95 0 0 1-.31.1l-.43.1c-.45.12-.64.16-.87.16-.26 0-.3.03-.34.34-.02.17-.1.38-.52 1.24-.14.3-.3.8-.41 1.27-.02.07-.1.23-.17.35l-.34.6c-.14.27-.24.41-.31.45a.35.35 0 0 0-.15.14l-.23.67.16.06.24.08c.45.2.78.3 1.02.3.09 0 .33.05.52.1a234.66 234.66 0 0 0 2.67.75c.08.03.39.05.68.06.41 0 .58.03.78.1.2.07.33.09.57.08.41-.01.47.08.14.23-.25.11-.5.11-.83 0-.16-.06-.28-.08-.35-.06A3.54 3.54 0 0 1 9.19 18a3.7 3.7 0 0 0-.63-.21l-.71-.2c-.46-.13-.36.03.16.27.24.1.47.24.53.29.06.05.26.16.44.25s.34.2.36.23c.04.07.45.26.57.26.04 0 .07-.03.07-.08 0-.1.09-.13.3-.08.13.04.25.04.44 0a5.43 5.43 0 0 1 1.45.03c.13.07.24.06.57-.04.44-.15.57-.01.22.22-.25.17-.54.22-.92.15-.3-.06-.96-.06-1.43 0-.15.01-.27 0-.33-.03-.08-.04-.1-.03-.15.02-.07.1-.4.13-.53.05zM5.52 17.2c-.02-.02-.06-.04-.1-.04-.03 0-.05.02-.03.04.01.02.05.04.09.04.03 0 .05-.02.04-.04zm19.1 1.94a2.86 2.86 0 0 0 .23-.71l.12-.49c.08-.36 0-.57-.23-.57-.13 0-.21.35-.17.74.03.29 0 .44-.17.68-.2.28-.27.2-.3-.28-.03-.3-.05-.37-.14-.46-.11-.11-.11-.35.01-.68.04-.08.08-.23.1-.33.03-.1.1-.22.19-.3l.32-.3c.48-.45.92.05.94 1.08.01.45-.06.75-.24.93a.72.72 0 0 0-.16.28c-.05.24-.22.46-.36.46-.07 0-.13-.02-.13-.05zM38.4 19c-.14-.1-.21-.21-.33-.5a.35.35 0 0 0-.2-.22.62.62 0 0 1-.2-.13.21.21 0 0 0-.14-.07c-.13 0-.3-.11-.53-.36-.21-.22-.24-.24-.36-.2-.29.07-.7-.02-.59-.13.02-.02.2-.05.4-.06.44-.02.55.02.87.32.12.12.28.25.36.29.2.1.4.26.43.35.01.04.07.1.13.13.23.12.45.57.32.65-.01.01-.09-.02-.16-.07zm-25.16-.82c-.07-.09 0-.15.3-.27.14-.05.26-.11.28-.13.03-.06.34-.21.41-.21.24 0-.1.37-.52.57-.27.12-.4.13-.47.04zm18.04-1.88a4.1 4.1 0 0 0-.47-.13.96.96 0 0 1-.24-.09c-.14-.06-.2-.07-.24-.04-.12.1-.47-.07-1.15-.55a2.97 2.97 0 0 1-.84-.96.53.53 0 0 0-.13-.16 4.3 4.3 0 0 1-.52-.68.75.75 0 0 0-.35-.35c-.24-.12-.68-.87-.83-1.39-.04-.15-.14-.22-.32-.22-.4 0-.63-.36-.34-.53.12-.08.34-.37.46-.64.17-.38.5-.9.57-.93.04-.01.11 0 .14.03.18.14.54-.47.85-1.44.12-.38.4-.78.65-.92.1-.06.27-.2.37-.31.26-.3.63-.42 1.3-.44a5.25 5.25 0 0 0 1.86-.17c.13-.04.29-.07.37-.07.09 0 .26-.02.4-.05.22-.04.25-.04.35.04l.29.17c.09.05.24.19.33.3l.35.43c.1.13.25.33.32.45.06.12.2.28.28.36.1.08.21.23.26.33.05.1.16.26.23.34.07.08.23.31.34.5.22.37.56.75.83.92.26.16.6.92.57 1.24-.11 1-.35 1.65-.86 2.41-.44.65-.56.83-.65 1.03a3.94 3.94 0 0 1-1.06 1.2c-.3.15-.39-.03-.14-.27.3-.3.7-.83.76-1.05.05-.16-.04-.1-.2.11-.13.21-.26.3-.4.3-.11 0-.2-.12-.16-.19l.27-.37c.12-.18.24-.33.26-.33a5.41 5.41 0 0 1 .72-1.27c0-.1.3-.64.4-.7.08-.05.1-.1.1-.22 0-.09.04-.22.09-.3.04-.09.07-.18.06-.2a.66.66 0 0 1 .04-.26c.11-.3.1-.4-.1-.57a1 1 0 0 0-.33-.2c-.27-.07-.93-.83-1.24-1.42-.2-.4-.31-.57-.98-1.57-.59-.87-.67-.91-1.51-.67-.13.04-.52.11-.87.16-.58.1-1.38.3-1.76.46-.24.1-.44.35-.63.79a40.53 40.53 0 0 1-.45 1c-.06.14-.15.3-.2.35a.98.98 0 0 0-.14.35c-.06.23-.3.78-.45.98-.04.06-.02.13.1.38.09.17.18.39.2.48.13.4.58 1.22.8 1.45.08.08.2.29.3.46.15.33.26.41.88.7.09.05.23.13.3.19.08.06.21.13.3.17.08.03.26.14.39.23.8.53 1.97.76 2.4.46.5-.36.74-.3.34.1-.35.33-.64.4-1 .26-.14-.06-.2-.06-.23-.03-.06.07-.2.06-.34-.01a.66.66 0 0 0-.26-.06.42.42 0 0 1-.21-.07.33.33 0 0 0-.16-.06c-.1 0-.7-.28-.87-.41a13 13 0 0 0-1.22-.67c-.31-.14-.43-.06-.25.15.06.07.1.16.1.2 0 .1.27.3.49.4.15.05.17.07.16.18 0 .16.04.21.33.36.2.1.25.11.31.06.07-.05.1-.05.23 0 .08.04.29.1.46.13l.4.1c.2.11 1.66.08 1.92-.04.1-.05.12-.05.15 0 .17.26-.15.37-1.25.4-.61.02-.64.02-1.03-.1zm4.74-3.46c.1-.2.16-.38.16-.42 0-.05-.02-.02-.06.06-.03.08-.12.23-.2.34-.12.17-.24.42-.24.5 0 .1.21-.2.34-.48zM24.97 15.8c-.24-.12-.2-.2.1-.19.14 0 .33 0 .42-.03.18-.05.32-.02.32.06 0 .2-.57.3-.84.16zM41.1 14.3a.64.64 0 0 1-.05-.17c0-.16-.1-.32-.24-.38-.17-.08-.3-.22-.3-.35a.6.6 0 0 0-.07-.22c-.09-.18-.01-.34.1-.2.02.03.05.1.06.16.03.09.27.28.31.23.02-.02-.04-.43-.16-1.01-.06-.32-.07-.43-.03-.48.07-.08.2-.07.23.02.07.18.15.54.15.7 0 .1.05.36.12.58.1.26.12.4.1.45-.03.05-.01.14.06.28.14.27.1.47-.1.49-.12 0-.15 0-.18-.1zM26 14.3c-.1-.06-.14-.12-.14-.21 0-.12-.33-.6-.44-.66a1 1 0 0 0-.24-.07 8.9 8.9 0 0 1-.4-.07c-.48-.1-.65.09-.6.66.03.36.03.36-.07.36-.17 0-.33-.18-.33-.37l-.02-.32c-.06-.3.53-.7.95-.65.15.02.32.06.75.18.34.1.76.56.8.9.04.26-.06.36-.25.25zm-6.92-1.36c-.18-.09-.22-.24-.13-.48.08-.2.18-.3.18-.17 0 .03.06.18.13.32.17.36.11.48-.18.33zm1-.1c-.06-.06-.02-.16.13-.31s.15-.16.16-.51c0-.25-.02-.41-.07-.55-.05-.1-.1-.24-.11-.31-.05-.2-.5-.49-.77-.49-.23 0-.46.14-.64.4-.12.17-.12.18-.05.38.07.25.05.32-.09.32-.25 0-.45-.51-.3-.8.17-.3.6-.55 1.03-.58l.29-.03.24.23c.14.12.28.3.33.38.04.09.12.17.16.19.23.07.46.63.4 1.03-.04.36-.54.82-.7.65zM1.5 11.45c-.03-.04.15-.4.25-.52.03-.03.1-.19.17-.34.06-.15.17-.38.24-.5a3.96 3.96 0 0 1 1.18-1.32c.11 0 .1.05-.05.24-.11.14-.12.17-.06.23.14.15.12.27-.08.54-.28.39-.49.36-.32-.03.1-.21.1-.3 0-.24-.11.07-.64.94-.64 1.05 0 .1-.38.82-.45.87-.08.06-.2.07-.24.02zm38.78-.57a1.11 1.11 0 0 1-.24-.51 2.9 2.9 0 0 0-.19-.49c-.08-.15-.2-.44-.26-.64a5.5 5.5 0 0 0-.24-.6c-.15-.32-.15-.44 0-.49.17-.06.3 0 .3.14 0 .06.03.14.07.16.05.05.36.72.36.8 0 .02.06.19.14.36.08.18.16.41.17.51l.13.47c.15.42 0 .6-.24.3zM4.36 8.05c-.08-.08-.06-.14.1-.29.16-.16.27-.15.27.02 0 .2-.25.38-.37.27zm34.47-.87a1.34 1.34 0 0 1-.2-.6c.03-.14.21-.2.3-.12.14.13.24.57.15.67-.07.08-.17.1-.25.05zm-33.8-.05l.1-.33c.15-.42.45-.66.48-.4.03.15.16.07.39-.22.16-.2.16-.22.02-.26-.17-.04-.12-.16.14-.36.42-.3.93-.53 1.18-.52.07 0 .16 0 .2-.03a6.56 6.56 0 0 1 1.36-.4c.12-.05.2.01.17.12-.03.06-.42.23-.53.23-.13 0-.34.15-.34.24 0 .14-.2.33-.63.57a.5.5 0 0 0-.13.1c-.05.06-.5.15-.71.13-.18-.02-.21-.01-.31.1-.43.43-.57.54-.77.6a.78.78 0 0 0-.38.27c-.15.19-.24.24-.24.16zM7.59 5.5c.13-.08.23-.17.23-.2 0-.12-.82.06-1 .22-.23.23.41.22.77-.02zm6.84 1.27c-.07-.08-.2-.18-.29-.22a1.8 1.8 0 0 1-.39-.33l-.23-.25v-.3c.02-.75.7-1.33 1.24-1.05.08.05.24.1.33.13.33.09.53.31.63.7.08.32.08.43-.02.49-.2.1-.42-.13-.43-.43 0-.2-.2-.47-.41-.58a.88.88 0 0 1-.22-.15c-.13-.16-.36.02-.6.48-.15.31-.12.63.08.8.07.06.13.13.14.16l.2.2c.17.16.2.17.43.1.11-.02.1.17-.01.29-.15.14-.3.13-.45-.04zm-3.96-1.38a1.3 1.3 0 0 1-.28-.1 1.11 1.11 0 0 0-.29-.1c-.39-.06-.54-.44-.17-.44.04 0 .12.04.18.09.06.04.16.08.22.08s.22.05.34.11c.23.1.34.12.82.1.2-.02.2.06.03.16s-.6.15-.85.1zm1.53-.2c-.1-.07-.16-.22-.08-.23.4-.04.67-.01.68.07.02.18-.38.29-.6.16zm26-.06l-.25-.42c-.1-.17-.26-.41-.36-.53a7.2 7.2 0 0 1-.4-.53c-.29-.43-.51-.65-.75-.74-.3-.1-.33-.14-.24-.24.1-.1.14-.1.42.03.37.16.82.61.9.88 0 .06.09.18.18.27a3.16 3.16 0 0 1 .62.9c.07.12.1.2.1.3-.03.18-.14.22-.23.08zM24.74 4.7c-.29-.22-.5-.74-.42-.98.09-.23.35-.23.31 0-.02.1.16.47.33.7.07.09.11.1.32.1.32 0 .36.1.09.22-.26.14-.41.12-.63-.04zm-11.9.06c-.02-.03.03-.17.12-.31.08-.15.14-.3.14-.34 0-.1.19-.21.28-.18.06.03.07.01.05-.1-.02-.07 0-.26.04-.43.08-.36.08-.38-.13-.46-.36-.13-.44-.12-.8.14a3.6 3.6 0 0 1-.81.45c-.16.11-.78.2-.78.1 0-.09.1-.15.67-.38.27-.11.57-.25.66-.32.43-.31.7-.39 1-.27.12.04.27.05.5.03.3-.02.31-.02.29.06l-.14.48c-.12.45-.22.64-.34.7-.08.03-.13.14-.22.53-.05.2-.46.43-.54.3zm13.31-.15c-.11-.05-.12-.16-.01-.25.16-.15.34-.06.26.13-.06.15-.12.18-.25.12zm3.34-.8a.2.2 0 0 0-.13-.07c-.26 0-1.57-.56-1.57-.67 0-.19.4-.11 1.03.2.83.4 1.1.42 1.42.08.07-.09.37-.18.43-.14.16.1-.01.32-.24.32a.21.21 0 0 0-.2.1c-.13.2-.62.31-.74.17zm2.4-.6c-.06-.06-.03-.14.08-.28.07-.08.11-.18.1-.22 0-.05.04-.13.1-.2.05-.06.16-.21.23-.35.13-.23.2-.29.33-.29.17 0-.14.76-.36.87-.08.04-.13.1-.13.15 0 .16-.27.4-.35.31zM26.6 3a.35.35 0 0 0-.19-.14.7.7 0 0 1-.2-.08.4.4 0 0 0-.19-.06c-.14 0-.3-.2-.18-.24.22-.08.82.15.9.37.1.23-.02.34-.15.15zm8.95-.22a3.03 3.03 0 0 0-.77-.43 3.47 3.47 0 0 1-.58-.3c-.13-.1-.23-.13-.35-.13-.3 0-.52-.18-.3-.26.27-.1.63-.03.94.2.08.05.2.1.28.1.07 0 .15.02.17.04a.8.8 0 0 0 .2.09c.28.08.62.45.62.65 0 .07-.09.08-.2.04zm-8.5-.24c-.1-.13-.27-.83-.24-1.03.1-.67.32-.67.33 0 0 .2.03.4.04.44.09.13.16.53.11.59-.06.07-.18.07-.24 0zm-9.6-.96l-.36-.1a1.53 1.53 0 0 0-.33-.07c-.13 0-.08-.06.14-.17.19-.08.2-.08.45-.02.3.1.67.03 1.24-.21a7.9 7.9 0 0 1 3.27-.64c.14 0 .17.02.18.1.02.12.29.13.5.01 1.06-.55 1.44-.6 2.36-.3.2.08.31.08.72.06.42-.02.53-.01 1.02.09l.54.12.35-.08c.45-.1.84-.07 1.02.05.12.1.37.16.77.23.12.02.31.06.42.1l.6.2c.46.14.68.26.68.35 0 .12-.13.12-.54-.01A5.94 5.94 0 0 0 29.2.94a.47.47 0 0 1-.23-.06.42.42 0 0 0-.22-.06.55.55 0 0 1-.26-.1.77.77 0 0 0-.9.03c-.08.08-.5.2-.58.16-.03-.01-.08-.06-.1-.12-.07-.19-1.13-.38-1.56-.28-.23.06-.5.02-.72-.1-.4-.2-.94-.2-1.36 0a.93.93 0 0 1-.3.11c-.07 0-.12.02-.14.04-.05.08-.56.3-.69.3-.12 0-.46-.09-.68-.18-.07-.02-.18-.01-.36.03-.14.03-.45.08-.68.1-.43.04-.9.18-1.55.44-.77.31-1.15.4-1.42.33zm13.87-.34c.01-.03.04-.05.05-.05.05 0 .04.07-.01.09-.03 0-.04-.01-.04-.04z"/>
</svg>
