<?xml version="1.0" encoding="UTF-8" standalone="no"?>
<!-- Created with Inkscape (http://www.inkscape.org/) -->

<svg
   xmlns:dc="http://purl.org/dc/elements/1.1/"
   xmlns:cc="http://creativecommons.org/ns#"
   xmlns:rdf="http://www.w3.org/1999/02/22-rdf-syntax-ns#"
   xmlns:svg="http://www.w3.org/2000/svg"
   xmlns="http://www.w3.org/2000/svg"
   xmlns:sodipodi="http://sodipodi.sourceforge.net/DTD/sodipodi-0.dtd"
   xmlns:inkscape="http://www.inkscape.org/namespaces/inkscape"
   sodipodi:docname="spacedome.svg"
   inkscape:version="0.92.4 5da689c313, 2019-01-14"
   id="svg102"
   version="1.1"
   viewBox="0 0 204.79352 76.063744"
   height="76.063744mm"
   width="204.79352mm">
  <defs
     id="defs96" />
  <sodipodi:namedview
     id="base"
     pagecolor="#ffffff"
     bordercolor="#666666"
     borderopacity="1.0"
     inkscape:pageopacity="0.0"
     inkscape:pageshadow="2"
     inkscape:zoom="0.82562076"
     inkscape:cx="479.97955"
     inkscape:cy="213.91382"
     inkscape:document-units="mm"
     inkscape:current-layer="layer1"
     showgrid="false"
     inkscape:snap-global="false"
     fit-margin-top="0"
     fit-margin-left="0"
     fit-margin-right="0"
     fit-margin-bottom="0"
     inkscape:window-width="1600"
     inkscape:window-height="841"
     inkscape:window-x="0"
     inkscape:window-y="0"
     inkscape:window-maximized="1" />
  <metadata
     id="metadata99">
    <rdf:RDF>
      <cc:Work
         rdf:about="">
        <dc:format>image/svg+xml</dc:format>
        <dc:type
           rdf:resource="http://purl.org/dc/dcmitype/StillImage" />
        <dc:title />
      </cc:Work>
    </rdf:RDF>
  </metadata>
  <g
     inkscape:label="Layer 1"
     inkscape:groupmode="layer"
     id="layer1"
     transform="translate(-0.49239534,0.32354317)">
    <path
       style="display:inline;opacity:1;fill:#131516;stroke-width:0.17162164;fill-opacity:1"
       d="m 11.204611,75.69115 c -0.27051,-0.16719 -0.2593,-1.71584 0.0161,-2.23052 0.1574,-0.2941 0.13743,-0.42856 -0.10314,-0.69439 -0.23581,-0.26057 -0.26049,-0.41275 -0.11772,-0.7261 0.10973,-0.24082 0.12064,-0.50364 0.0278,-0.66952 -0.0841,-0.1502 -0.15188,-0.45417 -0.15074,-0.6755 0.009,-1.78407 -0.46294,-10.93381 -0.60513,-11.72599 -0.0705,-0.39296 -0.002,-0.58548 0.29796,-0.83118 0.24849,-0.20387 0.2873,-0.28729 0.10709,-0.23015 -0.3933,0.12469 -0.49349,-0.53969 -0.29182,-1.93522 0.21598,-1.49455 0.0382,-2.90695 -0.56238,-4.46853 -0.27145,-0.70579 -0.49359,-1.40086 -0.49363,-1.5446 -5e-5,-0.14374 -0.16269,-0.68611 -0.36142,-1.20526 -0.49592,-1.29553 -0.863,-2.74126 -0.74465,-2.93275 0.054,-0.0873 -0.066,-0.38921 -0.26649,-0.67085 -0.20054,-0.28163 -0.41145,-0.80063 -0.46869,-1.15333 -0.0572,-0.3527 -0.24167,-0.87474 -0.40987,-1.16008 -0.16819,-0.28534 -0.35659,-0.83705 -0.41866,-1.22602 -0.1116,-0.69932 -0.10643,-0.70816 0.4633,-0.79252 0.31689,-0.0469 0.66001,-0.0535 0.7625,-0.0146 0.2369,0.0899 0.75758,1.17149 0.75758,1.57377 0,0.16786 0.16071,0.63782 0.35713,1.04437 0.19642,0.40655 0.37706,0.92605 0.40141,1.15445 0.0243,0.2284 0.13394,0.50495 0.24354,0.61454 0.25513,0.25513 0.25521,0.69252 1.7e-4,0.94756 -0.15104,0.15104 -0.11529,0.27323 0.14814,0.50628 0.19098,0.16896 0.51418,0.8478 0.71821,1.50854 0.74307,2.40633 1.10192,3.43601 1.25604,3.60406 0.19622,0.21395 1.01561,-0.72202 1.58702,-1.81281 0.22561,-0.43069 0.53208,-0.88422 0.68103,-1.00784 0.14895,-0.12362 0.2713,-0.31184 0.27188,-0.41827 5.8e-4,-0.10644 0.11736,-0.41654 0.25952,-0.68913 0.14216,-0.27258 0.24321,-0.5815 0.22456,-0.68648 -0.0542,-0.30503 0.41289,-2.22849 0.60044,-2.47268 0.0939,-0.12228 0.27825,-0.18109 0.40961,-0.13068 0.151,0.0579 0.1933,0.018 0.11501,-0.10872 -0.16553,-0.26784 -0.12089,-1.36972 0.10582,-2.61167 0.22848,-1.25167 0.22528,-1.24664 0.85221,-1.33866 0.90832,-0.13331 0.95913,0.0269 0.53719,1.69385 -0.88424,3.49326 -1.11795,4.28445 -1.38596,4.69187 -0.15523,0.23598 -0.29705,0.65614 -0.31515,0.93369 -0.0181,0.27755 -0.18701,0.66868 -0.37536,0.86917 -0.23065,0.24552 -0.34246,0.60129 -0.34246,1.0897 0,0.82455 -0.56939,2.08447 -0.94202,2.08447 -0.151,0 -0.20959,0.10156 -0.14927,0.25875 0.0546,0.14232 -0.0109,0.43193 -0.1455,0.64358 -0.52898,0.83158 -0.7724,3.07294 -0.56368,5.19023 0.0465,0.47196 0.12003,1.43734 0.16334,2.14527 0.0803,1.31211 0.33792,2.79201 0.5442,3.12579 0.14626,0.23665 0.0972,1.78535 -0.088,2.77639 -0.12099,0.64765 -0.0916,0.81533 0.19305,1.09994 0.28341,0.28341 0.30357,0.39601 0.12923,0.72177 -0.16543,0.30911 -0.16032,0.41457 0.0257,0.52952 0.17187,0.10623 0.23521,0.64708 0.24368,2.08054 0.0103,1.74628 0.11385,2.38148 0.59964,3.67885 0.3364,0.8984 -0.52854,1.71605 -1.60268,1.51506 -0.30415,-0.0569 -0.87346,-0.0313 -1.26514,0.0568 -0.39168,0.0881 -0.81046,0.0995 -0.93062,0.0253 z m 0.13129,-14.19079 c -0.0435,-0.16698 -0.082,-0.0719 -0.0855,0.21126 -0.004,0.28318 0.0321,0.4198 0.0791,0.3036 0.047,-0.11619 0.0499,-0.34788 0.006,-0.51486 z m 0.15515,-0.81155 c 0.0209,-0.14258 -0.0627,-0.20299 -0.2052,-0.1483 -0.25992,0.0998 -0.3081,0.274 -0.12608,0.45602 0.14202,0.14202 0.28472,0.009 0.33128,-0.30772 z m 0.66251,-2.14033 c 0.0543,-0.0879 0.0203,-0.20827 -0.0757,-0.26756 -0.0959,-0.0593 -0.17442,0.0126 -0.17442,0.15976 0,0.30146 0.10298,0.34585 0.2501,0.1078 z m 0.87527,-5.91877 c 0.18308,-0.13387 0.27914,-0.29714 0.21346,-0.36281 -0.0657,-0.0657 -0.32696,0.0438 -0.58064,0.2434 -0.51583,0.40575 -0.17569,0.51636 0.36718,0.11941 z m 26.10546,18.83595 c -0.056,-0.0559 -1.34851,-0.15464 -2.87236,-0.21932 -2.3414,-0.0994 -2.79572,-0.1624 -2.93254,-0.40689 -0.0891,-0.15913 -0.27391,-0.28932 -0.41081,-0.28932 -0.1369,0 -0.26067,-0.13515 -0.27505,-0.30033 -0.034,-0.39028 -0.0733,-0.58632 -0.18074,-0.90102 -0.39655,-1.16147 -0.4951,-1.68676 -0.55763,-2.97229 -0.0394,-0.8092 -0.14478,-1.61061 -0.23427,-1.78091 -0.20134,-0.38316 -0.34316,-1.29506 -0.46187,-2.96977 -0.0502,-0.70794 -0.13939,-1.51885 -0.19825,-1.80203 -0.0589,-0.28317 -0.12488,-0.74655 -0.1467,-1.02973 -0.0218,-0.28317 -0.13018,-1.05547 -0.24078,-1.71621 -0.19303,-1.15324 -0.13865,-2.21425 0.12107,-2.36209 0.0678,-0.0386 0.0275,-0.0469 -0.0895,-0.0186 -0.24548,0.0596 -0.30668,-0.17915 -0.55214,-2.15426 -0.16949,-1.36378 -0.15956,-1.46445 0.17526,-1.77638 0.38228,-0.35615 0.3232,-0.64475 -0.0659,-0.32184 -0.18844,0.15639 -0.27395,0.0641 -0.4332,-0.46741 -0.32685,-1.09092 -0.2511,-1.75003 0.26273,-2.28637 0.25364,-0.26474 0.53792,-0.48135 0.63175,-0.48135 0.24986,0 2.63487,-1.85862 3.03064,-2.36176 0.18624,-0.23676 0.33861,-0.62821 0.33861,-0.8699 0,-0.51027 -0.78085,-1.40212 -1.22762,-1.40212 -0.16794,0 -0.55893,-0.10695 -0.86891,-0.23767 -0.80277,-0.33852 -1.93437,-0.62055 -3.22373,-0.80345 -1.27416,-0.18075 -2.46947,0.10591 -3.0261,0.72571 -0.34609,0.38535 -2.46632,2.04252 -3.43273,2.68301 -0.32693,0.21667 -0.6393,0.51089 -0.69415,0.65382 -0.13901,0.36228 0.72628,1.23584 1.66108,1.67697 0.42477,0.20045 1.01591,0.53821 1.31366,0.7506 0.29775,0.21238 0.66624,0.38614 0.81888,0.38614 0.15264,0 0.58237,0.20174 0.95497,0.44831 0.58763,0.38888 0.67613,0.53108 0.66759,1.07264 -0.011,0.69391 0.14911,2.10977 0.3131,2.76959 0.0587,0.23598 0.0893,0.53132 0.0682,0.65632 -0.0211,0.12499 0.0333,0.31806 0.12094,0.42905 0.18464,0.23383 0.47269,2.16214 0.71363,4.77732 0.0927,1.00627 0.2861,2.08749 0.42977,2.40271 0.14366,0.31521 0.41205,1.42265 0.59641,2.46096 0.18436,1.03831 0.49756,2.62152 0.696,3.51824 0.19844,0.89672 0.44477,2.01106 0.5474,2.4763 0.17014,0.77128 0.1554,0.87117 -0.16718,1.13237 -0.3056,0.24746 -0.71203,0.27657 -2.98419,0.21376 -3.54243,-0.0979 -4.18285,-0.28565 -5.09462,-1.49327 -0.75832,-1.0044 -1.88024,-2.15754 -2.09912,-2.15754 -0.0739,0 -0.30794,-0.30892 -0.52014,-0.68648 -0.21221,-0.37757 -0.44715,-0.68649 -0.5221,-0.68649 -0.16497,0 -2.16041,-2.02346 -3.24396,-3.28951 -1.01742,-1.18878 -1.67702,-2.70404 -1.68174,-3.86341 -0.002,-0.4888 -0.0882,-1.20286 -0.1916,-1.58679 -0.12996,-0.48266 -0.13348,-0.79984 -0.0114,-1.02796 0.0971,-0.18145 0.1311,-0.55722 0.0755,-0.83505 -0.10633,-0.53165 0.18098,-1.25365 0.86874,-2.18309 0.20954,-0.28318 0.52543,-0.90102 0.70198,-1.37298 0.17654,-0.47196 0.45935,-1.09615 0.62845,-1.38709 0.29638,-0.50992 0.34304,-0.52649 1.29432,-0.45975 0.54277,0.0381 1.18162,0.13081 1.41967,0.20607 0.72356,0.22877 2.07626,0.10258 2.25119,-0.21 0.0854,-0.15265 0.26947,-0.39169 0.40897,-0.5312 0.32451,-0.32451 0.32528,-0.6214 0.001,-0.6214 -0.16515,0 -0.21405,0.099 -0.14183,0.28722 0.0835,0.2176 0.0406,0.26051 -0.177,0.17701 -0.19582,-0.0752 -0.28718,-0.0216 -0.28718,0.16843 0,0.24392 -0.044,0.23885 -0.35284,-0.0407 -0.27543,-0.24926 -0.41892,-0.27805 -0.65405,-0.13121 -0.19431,0.12135 -0.71221,0.14556 -1.45941,0.0682 -0.63701,-0.0659 -1.19756,-0.0562 -1.24565,0.0216 -0.0481,0.0778 -0.16606,0.0929 -0.26216,0.0335 -0.11682,-0.0722 -0.11289,-0.1698 0.0119,-0.29456 0.10262,-0.10261 0.18658,-0.32103 0.18658,-0.48536 0,-0.54047 0.3563,-0.53507 0.56148,0.009 0.11014,0.2918 0.31848,0.52937 0.46297,0.52792 0.16887,-0.002 0.19537,-0.0477 0.0742,-0.12872 -0.10368,-0.0693 -0.17398,-0.30702 -0.15622,-0.52817 0.0178,-0.22115 -0.0712,-0.4418 -0.19763,-0.49033 -0.29577,-0.11349 -0.29401,-0.56882 0.004,-1.00014 0.12858,-0.18619 0.28842,-0.72467 0.3552,-1.19663 0.11583,-0.81869 0.62432,-2.50269 0.99143,-3.28337 0.0946,-0.20118 0.12181,-0.59433 0.0605,-0.87366 -0.14159,-0.64462 0.0847,-0.82793 1.19087,-0.96486 0.47196,-0.0584 1.39872,-0.18888 2.05946,-0.28992 0.66074,-0.10104 1.78058,-0.25401 2.48851,-0.33993 3.47278,-0.42148 4.28849,-0.53901 5.32027,-0.76649 2.40912,-0.53115 3.70551,-0.78 4.05245,-0.77789 0.1994,0.001 0.9717,-0.14489 1.7162,-0.32467 0.74452,-0.17977 1.98525,-0.37767 2.7572,-0.43977 1.23891,-0.0997 3.8899,-0.71191 5.50422,-1.2712 0.30677,-0.10628 0.80877,-0.2802 1.11554,-0.38649 0.30677,-0.10628 1.34404,-0.40753 2.30504,-0.66944 2.12657,-0.57957 3.91578,-1.26279 6.02451,-2.3005 0.87637,-0.43126 1.68728,-0.78657 1.80203,-0.78957 0.11474,-0.003 0.35855,-0.11885 0.54176,-0.25743 0.18323,-0.13859 0.54119,-0.25198 0.79546,-0.25198 0.44739,0 0.46791,0.043 0.63497,1.33007 0.0949,0.73154 0.14216,1.83206 0.1049,2.44561 -0.0373,0.61355 0.009,1.57892 0.10311,2.14527 0.094,0.56635 0.20782,1.68618 0.25301,2.48851 0.12263,2.17733 0.36855,3.94754 0.6577,4.73445 0.29889,0.81345 0.22733,2.77058 -0.13126,3.5892 -0.26666,0.60876 -0.58921,1.8716 -0.80458,3.15004 -0.0851,0.50543 -0.27481,1.2005 -0.42149,1.5446 -0.14667,0.3441 -0.33853,1.12763 -0.42637,1.74117 -0.0878,0.61355 -0.30602,1.42446 -0.48487,1.80203 -0.17885,0.37757 -0.43113,1.14424 -0.56063,1.70371 -0.12951,0.55947 -0.31627,1.04415 -0.41504,1.07708 -0.25229,0.0841 -0.58195,-0.71224 -0.58195,-1.40576 0,-0.32036 -0.0671,-0.62393 -0.14908,-0.6746 -0.082,-0.0507 -0.19892,-0.65376 -0.25985,-1.3402 -0.0609,-0.68644 -0.22629,-1.94313 -0.36745,-2.79266 -0.14117,-0.84953 -0.36992,-2.31689 -0.50832,-3.26081 -0.13843,-0.94392 -0.39805,-2.4499 -0.57694,-3.34662 -0.59889,-3.00186 -0.59309,-3.14036 0.16229,-3.87796 0.36205,-0.35355 1.02422,-0.84201 1.47148,-1.08547 0.44726,-0.24346 0.95851,-0.69298 1.13613,-0.99894 l 0.32294,-0.55629 -0.56019,-0.47344 c -0.78329,-0.66198 -2.07881,-1.41593 -3.58859,-2.08845 -1.97921,-0.88163 -2.15523,-0.91092 -3.02289,-0.50307 -1.10875,0.52117 -3.84197,2.98842 -3.84197,3.46809 0,0.25845 1.05686,1.1385 1.36722,1.1385 0.10384,0 0.58299,0.21238 1.06482,0.47196 2.00103,1.07805 2.29707,1.22446 2.49546,1.23412 0.28788,0.014 0.55687,1.11581 0.72785,2.98118 0.22624,2.46821 0.70034,6.00414 0.85575,6.38233 0.51868,1.26221 0.68459,1.82644 0.78219,2.66014 0.0608,0.51915 0.18829,1.52314 0.28338,2.23108 0.0951,0.70794 0.2108,1.6347 0.25713,2.05946 0.0463,0.42476 0.19291,1.01163 0.3257,1.30414 0.1328,0.29251 0.23456,0.79451 0.2261,1.11554 -0.008,0.32103 0.0688,0.79608 0.17163,1.05566 0.11518,0.29072 0.12962,0.6228 0.0376,0.86476 -0.18687,0.49151 -1.94364,2.0099 -2.32544,2.0099 -0.15579,0 -0.64463,0.27593 -1.0863,0.61318 -0.44169,0.33724 -1.01133,0.65483 -1.26591,0.70574 -0.25456,0.0509 -0.50165,0.19372 -0.54909,0.31734 -0.0474,0.12362 -0.45783,0.43834 -0.91199,0.69938 -0.45415,0.26104 -1.09042,0.70149 -1.41392,0.97879 -0.32351,0.2773 -0.86412,0.61742 -1.20135,0.75582 -0.33723,0.1384 -1.20906,0.54771 -1.93738,0.90958 -1.16863,0.58064 -1.4735,0.65871 -2.59487,0.66457 -0.69885,0.004 -1.31642,-0.0392 -1.37238,-0.0951 z m 1.42998,-3.9847 c 0,-0.0834 0.1589,-0.19316 0.35312,-0.24395 0.30856,-0.0807 0.32557,-0.13645 0.1348,-0.44191 -0.21494,-0.34418 -0.22303,-0.3445 -0.52474,-0.0207 -0.33234,0.35672 -0.4111,0.85813 -0.1348,0.85813 0.0944,0 0.17162,-0.0682 0.17162,-0.15161 z m 8.98847,-1.65585 c 0.0791,-0.20624 -8e-5,-0.24625 -0.36779,-0.18573 -0.25776,0.0424 -0.49252,0.0835 -0.52169,0.0912 -0.0292,0.008 -0.005,0.0913 0.053,0.18573 0.16337,0.26431 0.72345,0.20322 0.83645,-0.0912 z m -29.74003,-0.32875 c 0.0863,0.0534 0.15697,-0.0234 0.15697,-0.17056 0,-0.30037 -0.14515,-0.33342 -0.49395,-0.1125 -0.14293,0.0905 -0.18143,0.23894 -0.0973,0.37507 0.10439,0.16892 0.15649,0.17345 0.20826,0.0181 0.038,-0.11393 0.13969,-0.16349 0.22602,-0.11012 z m 30.52664,-0.65048 c -0.50617,-0.21497 -0.79264,-0.25764 -0.91411,-0.13617 -0.12147,0.12147 -0.11865,0.17691 0.009,0.17691 0.10226,0 0.22511,0.14982 0.27299,0.33294 0.0787,0.30112 0.14833,0.31413 0.72818,0.13617 l 0.64112,-0.19676 -0.7372,-0.31309 z m -8.57373,-1.17897 c 0,-0.0843 -0.11584,-0.15326 -0.25743,-0.15326 -0.14159,0 -0.25743,0.11342 -0.25743,0.25204 0,0.15354 0.10062,0.21344 0.25743,0.15326 0.14159,-0.0543 0.25743,-0.16775 0.25743,-0.25204 z m 5.46008,-1.57027 c 0.25501,0.0955 0.26057,0.0731 0.047,-0.18939 -0.19062,-0.23421 -0.2724,-0.25021 -0.38351,-0.075 -0.0777,0.12246 -0.13634,0.29988 -0.13033,0.39428 0.006,0.0944 0.0484,0.0794 0.0943,-0.0333 0.0458,-0.11269 0.21351,-0.15615 0.3726,-0.0966 z m -28.49562,-1.85779 c 0.033,-0.17121 -0.26405,-0.43924 -0.82523,-0.74467 -0.48221,-0.26245 -0.9171,-0.58233 -0.96641,-0.71084 -0.0493,-0.12851 -0.22237,-0.27578 -0.38458,-0.32726 -0.1622,-0.0515 -0.43096,-0.40195 -0.59724,-0.77883 -0.36956,-0.83763 -0.70798,-0.917 -0.54347,-0.12745 0.0639,0.30677 0.13741,0.76817 0.16331,1.02534 0.0633,0.62879 0.7628,1.29289 1.76574,1.67645 0.95551,0.36543 1.31569,0.36212 1.38788,-0.0128 z m 25.60987,-0.50088 c 0,-0.0944 -0.0772,-0.17162 -0.17163,-0.17162 -0.0944,0 -0.17162,0.0772 -0.17162,0.17162 0,0.0944 0.0772,0.17162 0.17162,0.17162 0.0944,0 0.17163,-0.0772 0.17163,-0.17162 z m -20.47205,-0.65718 c 0.43482,-0.52452 0.48428,-1.0092 0.14819,-1.45232 -0.21396,-0.2821 -0.26433,-0.24319 -0.6102,0.47129 -0.20735,0.42832 -0.56333,0.92533 -0.79106,1.10447 -0.58286,0.45848 -0.51594,0.5907 0.22951,0.45343 0.38663,-0.0712 0.79528,-0.30152 1.02356,-0.57687 z m 27.1653,0.14232 c 0,-0.0944 -0.0772,-0.17163 -0.17163,-0.17163 -0.0944,0 -0.17162,0.0772 -0.17162,0.17163 0,0.0944 0.0772,0.17162 0.17162,0.17162 0.0944,0 0.17163,-0.0772 0.17163,-0.17162 z m -25.57426,-1.3402 c -0.002,-0.2501 -0.0256,-0.25463 -0.16899,-0.0328 -0.21721,0.3361 -0.21721,0.5633 0,0.42906 0.0944,-0.0583 0.17044,-0.23667 0.16899,-0.39628 z m -0.57353,-0.46183 c -0.14159,-0.14159 -0.30156,-0.25743 -0.3555,-0.25743 -0.0539,0 -0.0981,0.11584 -0.0981,0.25743 0,0.14598 0.15391,0.25743 0.3555,0.25743 0.316,0 0.3269,-0.0286 0.0981,-0.25743 z m -7.57587,-0.94392 c 0.0583,-0.0944 0.0243,-0.17162 -0.0757,-0.17162 -0.1,0 -0.18175,0.0772 -0.18175,0.17162 0,0.0944 0.0341,0.17162 0.0757,0.17162 0.0416,0 0.12341,-0.0772 0.18175,-0.17162 z m 7.30016,-0.0783 c -0.11408,-0.13746 -0.15759,-0.33053 -0.0967,-0.42906 0.0609,-0.0985 0.0335,-0.17914 -0.0609,-0.17914 -0.0944,0 -0.22144,0.0806 -0.28234,0.17914 -0.12409,0.20078 0.21096,0.67897 0.47573,0.67897 0.098,0 0.0827,-0.10716 -0.0358,-0.24991 z m -6.22755,-0.36509 c -0.16355,-0.16355 -0.49144,0.10136 -0.36955,0.29857 0.0724,0.11722 0.16844,0.11426 0.29169,-0.009 0.10105,-0.10105 0.13608,-0.23135 0.0779,-0.28957 z m -1.67329,0.10014 c 0,-0.0944 -0.0341,-0.17162 -0.0757,-0.17162 -0.0416,0 -0.12341,0.0772 -0.18175,0.17162 -0.0583,0.0944 -0.0243,0.17162 0.0757,0.17162 0.1,0 0.18175,-0.0772 0.18175,-0.17162 z m 24.28446,-1.02973 c 0.0583,-0.0944 0.0243,-0.17162 -0.0757,-0.17162 -0.1,0 -0.18175,0.0772 -0.18175,0.17162 0,0.0944 0.0341,0.17162 0.0757,0.17162 0.0416,0 0.12342,-0.0772 0.18175,-0.17162 z m 0.51487,-0.17162 c 0.0583,-0.0944 0.0243,-0.17163 -0.0757,-0.17163 -0.1,0 -0.18175,0.0772 -0.18175,0.17163 0,0.0944 0.0341,0.17162 0.0757,0.17162 0.0416,0 0.12341,-0.0772 0.18175,-0.17162 z m -0.25743,-0.56196 c 0.25719,-0.10501 1.77676,-0.28172 3.29018,-0.38261 0.99326,-0.0662 1.47206,-0.21102 2.05515,-0.62153 0.40463,-0.28487 0.43902,-0.38664 0.31558,-0.93395 -0.0762,-0.33783 -0.25281,-0.74374 -0.39247,-0.90203 -0.13967,-0.15828 -0.76504,-1.33039 -1.38972,-2.60468 -1.27599,-2.60289 -3.63952,-6.56194 -4.14626,-6.94522 -0.59484,-0.44991 -0.9907,-0.31862 -1.40655,0.4665 -0.21248,0.40117 -0.38611,0.98547 -0.38585,1.29845 2.7e-4,0.31298 -0.0696,0.69991 -0.15515,0.85984 -0.18038,0.33704 -0.29918,1.23272 -0.52754,3.97719 -0.0903,1.0855 -0.28218,2.66871 -0.42636,3.51824 -0.32047,1.8883 -0.32051,1.89207 -0.0218,2.19081 0.24687,0.24687 2.6348,0.30598 3.19075,0.079 z m -16.76886,-1.38272 c 0.0319,-1.01836 0.003,-1.13062 -0.26543,-1.04507 -0.19642,0.0625 -0.33543,-0.0127 -0.39962,-0.21633 -0.18488,-0.58637 -0.59531,-1.23863 -1.09182,-1.73514 -0.48669,-0.48669 -0.49922,-0.48931 -0.65707,-0.13727 -0.12896,0.2876 -0.0508,0.49526 0.39362,1.04538 0.70428,0.87184 1.03391,1.53719 1.19038,2.4027 0.14164,0.78348 0.4174,1.20342 0.64246,0.97836 0.0834,-0.0835 0.16781,-0.66513 0.18748,-1.29263 z m 8.58125,-1.65745 c -0.0491,-0.18772 -0.15433,-0.30109 -0.23387,-0.25193 -0.16892,0.1044 -0.0157,0.59324 0.18593,0.59324 0.0755,0 0.097,-0.15359 0.0479,-0.34131 z m 1.3848,-0.25936 c 0.0543,-0.14159 0.024,-0.25743 -0.0675,-0.25743 -0.0914,0 -0.16623,0.11584 -0.16623,0.25743 0,0.14159 0.0303,0.25743 0.0675,0.25743 0.0371,0 0.1119,-0.11584 0.16623,-0.25743 z m -14.82152,-2.31689 c 0,-0.0944 -0.0341,-0.17162 -0.0757,-0.17162 -0.0416,0 -0.12341,0.0772 -0.18175,0.17162 -0.0583,0.0944 -0.0243,0.17162 0.0757,0.17162 0.1,0 0.18175,-0.0772 0.18175,-0.17162 z m 38.27163,-5.14865 c 0,-0.0944 -0.0341,-0.17162 -0.0757,-0.17162 -0.0416,0 -0.12342,0.0772 -0.18176,0.17162 -0.0583,0.0944 -0.0243,0.17162 0.0757,0.17162 0.1,0 0.18176,-0.0772 0.18176,-0.17162 z m -0.98113,-7.25882 c 0.0498,-0.1299 -0.0495,-0.23249 -0.23908,-0.24677 -0.32557,-0.0245 -0.42359,0.14106 -0.20997,0.35469 0.17816,0.17816 0.35562,0.13551 0.44905,-0.10792 z m -0.8168,-1.13771 c -0.0622,-0.1959 -0.18507,-0.35618 -0.2731,-0.35618 -0.24051,0 -0.19258,0.64627 0.0545,0.7345 0.30261,0.10808 0.34805,0.0294 0.21864,-0.37832 z m -2.70706,0.11578 c -0.0393,-0.11799 -0.21703,-0.24274 -0.39499,-0.27722 -0.27993,-0.0543 -0.29254,-0.0253 -0.0935,0.21452 0.27223,0.32802 0.59041,0.36886 0.48847,0.0627 z m 2.83286,-0.94352 c -0.10804,-0.036 -0.15079,-0.19564 -0.095,-0.35473 0.08,-0.22809 0.055,-0.24633 -0.11823,-0.0863 -0.27077,0.25022 -0.0905,0.81557 0.20239,0.63458 0.15122,-0.0935 0.15415,-0.14582 0.0109,-0.19359 z m -1.40743,-0.62574 0.48823,-0.41083 -0.47891,-0.0703 c -0.2634,-0.0386 -0.56849,-0.0404 -0.67799,-0.004 -0.31445,0.10482 -0.22166,0.89587 0.10509,0.89587 0.0414,0 0.29505,-0.18487 0.56358,-0.41083 z m 1.19172,-0.2858 c 0,-0.0888 -0.0772,-0.16149 -0.17161,-0.16149 -0.0944,0 -0.17164,0.1204 -0.17164,0.26756 0,0.14716 0.0772,0.21983 0.17164,0.16149 0.0944,-0.0583 0.17161,-0.17874 0.17161,-0.26756 z m 4.31092,32.11818 c -0.18576,-0.7248 -0.17764,-0.91772 0.0578,-1.37297 0.15065,-0.29132 0.34915,-0.52967 0.44112,-0.52967 0.092,0 0.16721,-0.0867 0.16721,-0.19264 0,-0.12702 -0.0944,-0.1143 -0.27709,0.0373 -0.23819,0.19769 -0.33076,0.16757 -0.65945,-0.21456 -0.28953,-0.3366 -0.40841,-0.75262 -0.48963,-1.71344 -0.12365,-1.46273 -0.0228,-2.05399 0.32754,-1.91956 0.13229,0.0508 0.24052,0.008 0.24052,-0.0944 0,-0.10269 -0.19374,-0.23534 -0.43055,-0.29477 -0.46674,-0.11715 -0.70154,-0.67857 -0.52129,-1.24647 0.0599,-0.18867 -0.0104,-0.62844 -0.15613,-0.97727 -0.14575,-0.34882 -0.265,-0.81515 -0.265,-1.03628 0,-0.22205 -0.14883,-0.48171 -0.33241,-0.57996 -0.27006,-0.14454 -0.31376,-0.29858 -0.23296,-0.82124 0.0547,-0.35384 0.23758,-0.91945 0.4064,-1.25692 0.16883,-0.33747 0.28384,-0.82417 0.25558,-1.08156 -0.0283,-0.25752 0.0823,-0.633 0.24576,-0.83492 0.29077,-0.35908 0.30092,-0.35981 0.47425,-0.034 0.0974,0.18313 0.21562,1.15318 0.26269,2.15568 0.11212,2.38821 1.39487,7.791 2.41322,10.1642 0.31064,0.72392 0.61941,2.04431 0.51685,2.21025 -0.0453,0.0733 -0.34353,0.13323 -0.66276,0.13323 -0.31923,0 -0.62815,0.0772 -0.68648,0.17162 -0.0583,0.0944 -0.27999,0.17163 -0.49255,0.17163 -0.31914,0 -0.42415,-0.14696 -0.60261,-0.84331 z m 1.18097,-0.0148 c 0,-0.0944 0.11584,-0.17162 0.25743,-0.17162 0.14159,0 0.25744,-0.0772 0.25744,-0.17163 0,-0.0944 -0.15447,-0.17162 -0.34325,-0.17162 -0.18878,0 -0.34324,0.0323 -0.34324,0.0718 0,0.0395 -0.0469,0.19393 -0.10417,0.34324 -0.0573,0.14931 -0.0187,0.27147 0.0858,0.27147 0.1045,0 0.18999,-0.0772 0.18999,-0.17162 z m -0.39703,-0.76915 c 0.0205,-0.26667 0.0772,-0.58886 0.12595,-0.71597 0.11395,-0.29695 -0.14496,-0.29954 -0.3903,-0.004 -0.13807,0.16635 -0.1322,0.28802 0.0219,0.45432 0.16991,0.18337 0.15259,0.20676 -0.0899,0.12143 -0.21403,-0.0753 -0.30035,-0.0168 -0.30035,0.20357 0,0.72374 0.57667,0.66956 0.6327,-0.0594 z M 8.919821,56.56899 c -0.15245,-0.23266 -0.27717,-0.49351 -0.27717,-0.57966 0,-0.0862 -0.11585,-0.25279 -0.25743,-0.3703 -0.14159,-0.11751 -0.25744,-0.31347 -0.25744,-0.43549 0,-0.12201 -0.1509,-0.40216 -0.33534,-0.62256 -2.00256,-2.39306 -2.75385,-3.5481 -2.75385,-4.2338 0,-0.18068 -0.11706,-0.66029 -0.26013,-1.06581 -0.31928,-0.90494 -0.48209,-1.68327 -0.44714,-2.13761 0.0768,-0.9986 0.0124,-2.05286 -0.16524,-2.70258 -0.24134,-0.88291 -0.20951,-3.20599 0.0482,-3.51649 0.12451,-0.15002 0.38893,-0.18727 0.8052,-0.11343 0.76187,0.13514 0.99064,0.32294 0.75381,0.61881 -0.12771,0.15955 -0.0405,0.5108 0.31082,1.25153 0.26861,0.56635 0.49078,1.20621 0.49374,1.42192 0.003,0.2157 0.11201,0.56323 0.24236,0.77229 0.13035,0.20906 0.2818,0.7909 0.33656,1.29296 0.0548,0.50206 0.2487,1.15852 0.43097,1.45878 0.36441,0.60028 0.59492,1.48911 0.57555,2.21925 -0.007,0.25958 0.0429,0.47196 0.11061,0.47196 0.26072,0 0.69001,0.99166 0.87793,2.02801 0.10797,0.59542 0.24378,1.20628 0.3018,1.35747 0.0652,0.16999 0.0359,0.23185 -0.077,0.16211 -0.10326,-0.0638 -0.2291,0.073 -0.28987,0.31508 -0.0591,0.23533 -0.1877,0.42787 -0.28587,0.42787 -0.0982,0 -0.12789,0.0819 -0.0661,0.18189 0.0709,0.11476 0.19709,0.0673 0.34182,-0.12871 0.36037,-0.48793 0.57089,-0.0977 0.64255,1.19108 0.0558,1.0034 0.0252,1.15845 -0.22889,1.15845 -0.16131,0 -0.41802,-0.19036 -0.57046,-0.42302 z m -0.10595,-2.70907 c -2.3e-4,-0.11799 -0.21875,-0.46999 -0.48562,-0.78222 -0.43427,-0.50809 -0.50914,-0.53886 -0.71313,-0.29306 -0.24064,0.28995 -0.22793,0.31011 0.57871,0.91719 0.57609,0.43357 0.62058,0.44491 0.62004,0.15809 z m -1.71582,-1.7704 c 0,-0.27761 -0.3879,-0.76102 -0.61067,-0.76102 -0.21918,0 -0.21553,0.0608 0.0258,0.42906 0.25467,0.38867 0.5849,0.57609 0.5849,0.33196 z m -1.71621,-2.9921 c 0,-0.0944 -0.0818,-0.17162 -0.18175,-0.17162 -0.1,0 -0.13402,0.0772 -0.0757,0.17162 0.0583,0.0944 0.14012,0.17162 0.18175,0.17162 0.0416,0 0.0757,-0.0772 0.0757,-0.17162 z m 1.54459,-2.4027 c 0,-0.0944 -0.0341,-0.17162 -0.0757,-0.17162 -0.0416,0 -0.12341,0.0772 -0.18175,0.17162 -0.0583,0.0944 -0.0243,0.17162 0.0757,0.17162 0.1,0 0.18175,-0.0772 0.18175,-0.17162 z m 5.2577,0.90649 c -0.26393,-1.07333 -0.861,-2.83094 -1.38649,-4.08149 -0.76974,-1.83181 -0.94235,-2.39684 -0.78137,-2.55781 0.19291,-0.19291 5.27472,-0.54768 5.44245,-0.37995 0.15597,0.15597 -0.69577,3.51987 -0.9366,3.69904 -0.0716,0.0533 -0.23433,0.28179 -0.36167,0.50786 -0.20424,0.36261 -0.19919,0.39862 0.0429,0.30572 0.17472,-0.067 0.27443,-0.0137 0.27443,0.14674 0,0.13862 -0.12041,0.25205 -0.26756,0.25205 -0.14716,0 -0.2228,0.0724 -0.16808,0.16096 0.15451,0.25 -0.73926,2.32868 -1.17881,2.74161 l -0.39299,0.36919 z m 2.12203,-4.33893 c 0.22185,-0.14337 0.21732,-0.16672 -0.0328,-0.16899 -0.15961,-0.001 -0.33794,0.0746 -0.39628,0.16899 -0.13424,0.21721 0.093,0.21721 0.42906,0 z m -2.57432,-0.34324 c 0,-0.0944 -0.0818,-0.17162 -0.18175,-0.17162 -0.1,0 -0.13402,0.0772 -0.0757,0.17162 0.0583,0.0944 0.14012,0.17162 0.18175,0.17162 0.0416,0 0.0757,-0.0772 0.0757,-0.17162 z m 47.62787,0.009 c -0.0644,-0.20282 -0.0441,-0.46159 0.0451,-0.57505 0.29806,-0.37922 0.39088,-1.1392 0.18033,-1.47635 -0.16087,-0.25758 -0.15781,-1.07973 0.0139,-3.73484 0.12108,-1.87251 0.25753,-4.13824 0.30324,-5.03497 0.0469,-0.9205 0.17045,-1.70963 0.28371,-1.81237 0.39565,-0.35887 2.54809,-0.97165 2.73975,-0.77998 0.12765,0.12764 0.1012,0.27191 -0.0891,0.48593 -0.64837,0.72932 -0.88851,1.61428 -1.57284,5.79629 -0.34465,2.10614 -0.75192,4.02946 -1.07799,5.09065 -0.13521,0.44006 -0.26347,1.07561 -0.28501,1.41233 -0.0497,0.77681 -0.37432,1.15379 -0.54108,0.62836 z M 8.276761,38.892 c -0.0347,-0.0347 -1.10577,-0.10511 -2.38006,-0.15656 -1.27429,-0.0514 -2.8575,-0.14435 -3.51824,-0.20644 -1.29656,-0.12185 -2.20056005,-0.51235 -1.78319005,-0.7703 0.17869,-0.11044 0.18761,-0.1938 0.0368,-0.34458 -0.15078,-0.15077 -0.0754,-0.53656 0.31175,-1.59464 C 1.518191,34.24951 1.983701,31.81073 1.783511,31.42037 c -0.164,-0.3198 0.111,-2.8707 0.36366,-3.37319 0.10226,-0.20338 0.13364,-0.45438 0.0697,-0.55777 -0.0639,-0.10339 -0.0572,-0.28349 0.015,-0.40021 0.0721,-0.11673 0.15079,-0.55015 0.17479,-0.96317 0.024,-0.41301 0.13964,-1.03189 0.257,-1.37527 0.11735,-0.34339 0.19356,-0.72423 0.16934,-0.84633 -0.0486,-0.24512 0.62245,-3.03503 0.83189,-3.45856 0.16751,-0.33872 0.46277,-1.47756 0.77981,-3.00779 0.13634,-0.65805 0.39528,-1.66203 0.57542,-2.23108 0.18014,-0.56905 0.45699,-1.4594 0.61522,-1.97855 0.54367,-1.78372 1.05985,-2.61273 2.10858,-3.3864705 0.54146,-0.39948 1.14351,-0.72771 1.33789,-0.72939 0.2134,-0.002 0.68012,-0.38148 1.17807,-0.95826 0.45357,-0.52536 1.2599,-1.23175 1.79186,-1.56976 0.53196,-0.33802 1.40062,-0.90731 1.93036,-1.26511 0.52973,-0.3578 1.80403,-1.05099 2.83175,-1.54043 1.02773,-0.48944 2.02306,-1.02505 2.21184,-1.19025 0.18879,-0.16519 0.53632,-0.34167 0.7723,-0.39217 0.23598,-0.0505 0.96966,-0.29041 1.6304,-0.53313 1.19291,-0.4382 2.66014,-0.59653 2.66014,-0.28705 0,0.0888 -0.0772,0.20922 -0.17162,0.26756 -0.33993,0.21009 -0.16126,0.38833 0.34902,0.34819 0.28635,-0.0225 0.61458,-0.16149 0.72939,-0.30881 0.11481,-0.14732 0.36321,-0.30403 0.55199,-0.34824 0.30055,-0.0704 0.29369,-0.0829 -0.0552,-0.10029 -0.21912,-0.011 -0.51425,0.0959 -0.65584,0.23753 -0.35682,0.35682 -0.55965,0.32158 -0.52851,-0.0918 0.0152,-0.20151 0.17402,-0.37861 0.37548,-0.41863998 0.19205,-0.0382 0.58086,-0.11907 0.86404,-0.1798 0.28317,-0.0607 0.70794,-0.12074 0.94392,-0.13338 0.23598,-0.0126 0.4754,-0.0886 0.53204,-0.16885 0.0566,-0.0802 0.65301,-0.16431 1.32526,-0.18685 0.67224,-0.0225 1.2732,-0.0919 1.33545,-0.15418 0.0623,-0.0623 0.25671,-0.0364 0.43212,0.0575 0.23242,0.12438 0.43351,0.0956 0.74133,-0.10609 0.42218,-0.27662 1.12569,-0.21006 1.12569,0.10651 0,0.088 0.0824,0.16006 0.18319,0.16006 0.10509,0 0.13674,-0.14634 0.0743,-0.34325 -0.11141,-0.35102 0.0283,-0.42039 0.48999,-0.24323 0.14335,0.055 0.22358,0.19658 0.17829,0.31461 -0.0965,0.25134 0.82404,0.1858 1.41263,-0.10059 0.43244,-0.21041 1.09409,0.0704 1.09409,0.46431 0,0.3109 0.0186,0.31075 0.62396,-0.005 0.79391,-0.41405 0.9694,-0.29729 0.36557,0.24322 -0.49139,0.43985998 -0.59387,0.47159998 -0.83142,0.25743 -0.4127,-0.37207 -0.7246,-0.31817 -0.50739,0.0877 0.24545,0.45864 0.22442,0.53042 -0.12268,0.41876 -0.23251,-0.0748 -0.24692,-0.0585 -0.0638,0.072 0.14708,0.10486 0.18204,0.257 0.0924,0.40234 -0.096,0.15567 0.006,0.13555 0.30552,-0.0603 0.41728,-0.27286 0.46612,-0.27363 0.67985,-0.0108 0.19978,0.24572 0.1905,0.26831 -0.0701,0.17065 -0.41129,-0.15414 -0.37928,0.0881 0.0468,0.35414 0.29278,0.18285 0.3642,0.17232 0.45614,-0.0673 0.06,-0.15623 0.0349,-0.40898 -0.0556,-0.56166 -0.0906,-0.15268 -0.13789,-0.40138 -0.10518,-0.55267 0.0948,-0.43837994 0.85237,-0.20498994 0.94735,0.29186 0.0817,0.42754 -0.1227,0.57464 -0.27479,0.19773 -0.0476,-0.11799 -0.0927,-0.0453 -0.10011,0.1615 -0.0187,0.52007 0.20907,0.61035 0.78379,0.31061 0.59225,-0.30888 1.77735,-0.36091 1.48148,-0.065 -0.1059,0.10589 -0.15469,0.29115 -0.10844,0.41169 0.0463,0.12054 0.005,0.26806 -0.0917,0.32783 -0.0967,0.0598 -0.13194,0.22302 -0.0783,0.36279 0.0536,0.13976 -0.007,0.38012 -0.13487,0.53412 -0.20588,0.24808 -0.18851,0.26608 0.15243,0.15787 0.52125,-0.16544 0.48622,0.12274 -0.0633,0.52054 -0.24644,0.17841 -0.54984,0.42092 -0.67423,0.53891 -0.32458,0.30789 -0.39279,0.27119 -0.4538,-0.2442 -0.0652,-0.55103 -0.48336,-0.76042 -0.48336,-0.24207 0,0.19665 0.0772,0.35755 0.17162,0.35755 0.27915,0 0.19746,0.31091 -0.20257,0.77099 -0.2058,0.2367 -0.55334,0.43036 -0.7723,0.43036 -0.21895,0 -0.3981,0.0856 -0.3981,0.19023 0,0.12325 0.16617,0.14644 0.47196,0.0659 0.25958,-0.0684 0.61001,-0.13469 0.77873,-0.14733 0.16873,-0.0126 0.36749,-0.12133 0.4417,-0.24155 0.10306,-0.16699 0.20662,-0.13934 0.43874,0.11714 0.1671,0.18465 0.41241,0.29406 0.54513,0.24313 0.15737,-0.0604 0.24131,0.0259 0.24131,0.24799 0,0.46859 0.43854,0.82905 0.57524,0.47281 0.13057,-0.34025 -0.0402,-0.77668 -0.3039,-0.77668 -0.11373,0 -0.37462,-0.22699 -0.57974,-0.50443 l -0.37294,-0.50444 0.46939,-0.3518 c 0.85014,-0.63719 0.91383,-0.72236 0.82147,-1.09849 -0.0503,-0.20493 -0.0471,-0.27606 0.007,-0.15807 0.0542,0.11799 0.2132,0.21453 0.35335,0.21453 0.19908,0 0.17256,-0.11551 -0.12122,-0.52809 -0.29828,-0.41889 -0.33174,-0.56971 -0.16185,-0.72939 0.16417,-0.15431 0.23254,-0.15122 0.29283,0.0132 0.0833,0.22727 0.57797,0.30496 0.54636,0.0858 -0.05,-0.34692 0.26418,-0.90137 0.56489,-0.99681 0.4413,-0.14006 0.55853,-0.005 0.33273,0.38326 -0.10772,0.18526 -0.18426,0.22144 -0.18735,0.0886 -0.0101,-0.43294 -0.30556,-0.0344 -0.30556,0.41212 0,0.41658 0.0444,0.44395 0.57923,0.35716 0.64623,-0.10487 0.76807,0.11453 0.22501,0.40516 -0.26116,0.13977 -0.41699,0.13748 -0.59316,-0.009 -0.37337,-0.30987 -0.59267,-0.056 -0.3665,0.4242 0.15704,0.33344 0.2182,0.36477 0.29376,0.15048 0.0867,-0.24576 0.12061,-0.24545 0.36937,0.003 0.25084,0.25084 0.2974,0.23814 0.55211,-0.15059 0.28173,-0.42997 0.78512,-0.5816 0.78512,-0.23649 0,0.23703 -0.55716,1.2514 -0.72939,1.32795 -0.31163,0.1385 -0.0885,0.31656 0.30287,0.24174 0.43371,-0.0829 0.77627,-0.38476 0.43665,-0.38476 -0.1,0 -0.18175,-0.12198 -0.18175,-0.27107 0,-0.20648 0.11254,-0.24635 0.47232,-0.16733 0.37753,0.0829 0.50669,0.0276 0.64358,-0.2756 0.16554,-0.36667 0.63752,-0.66882 0.58535,-0.37473 -0.0141,0.0797 -0.0148,0.33788 -0.001,0.57386 l 0.0241,0.42906 0.31576,-0.41068 c 0.31825,-0.41392 0.47067,-0.42373 1.52154,-0.098 0.33256,0.10308 0.38615,0.0574 0.38615,-0.32939 0,-0.24698 0.0772,-0.44907 0.17162,-0.44907 0.0944,0 0.17162,0.0676 0.17162,0.15017 0,0.0826 0.24048,0.19827 0.5344,0.25705 0.47936,0.0959 0.52661,0.15995 0.45878,0.62213 -0.0416,0.28339 -0.0118,0.51525 0.0663,0.51525 0.0781,0 0.1419,-0.11585 0.1419,-0.25743 0,-0.31534 0.44638,-0.34049 0.63505,-0.0358 0.0755,0.12192 0.73985,0.51238 1.47637,0.86769 0.73653,0.35532 1.38616,0.77687 1.44364,0.93679 0.0575,0.15992 0.44972,0.63665 0.87166,1.05941 0.42193,0.42276 0.84233,0.98431 0.93422,1.24788 0.0919,0.26357 0.30248,0.5517 0.468,0.64029 0.16552,0.0886 0.63658,0.66787 1.04679,1.2873005 0.41021,0.61943 1.00034,1.2764 1.3114,1.45993 0.3449,0.20349 0.56557,0.46988 0.56557,0.68273 0,0.19837 0.11297,0.34903 0.26172,0.34903 0.15297,0 0.30412,0.21198 0.36375,0.51013 0.058,0.28987 0.3363,0.68883 0.64458,0.92396 0.47457,0.36198 1.4759,2.04169 1.4759,2.4758 0,0.0857 0.15446,0.29561 0.34324,0.46646 0.18878,0.17085 0.34324,0.38912 0.34324,0.48504 0,0.0959 0.10252,0.29634 0.22783,0.44536 0.35575,0.4231 0.70492,1.79067 0.47661,1.86677 -0.10426,0.0348 -0.18957,0.13156 -0.18957,0.21512 0,0.0836 0.10664,0.11102 0.23698,0.061 0.15182,-0.0583 0.30279,0.0978 0.42012,0.43444 0.10073,0.28896 0.12925,0.52773 0.0634,0.5306 -0.0659,0.003 0.0148,0.0836 0.1792,0.17939 0.28735,0.16739 1.1598,1.80257 1.1598,2.17373 0,0.099 0.19174,0.36183 0.42609,0.58412 0.23435,0.22229 0.42742,0.53931 0.42905,0.7045 0.002,0.17834 0.13386,0.30033 0.3252,0.30033 0.17722,0 0.41875,0.11631 0.53672,0.25845 0.17829,0.21483 0.13115,0.3225 -0.27933,0.63799 -0.27159,0.20875 -0.76581,0.67167 -1.09824,1.02872 -0.35511,0.38139 -0.76444,0.64917 -0.99234,0.64917 -0.21335,0 -0.66516,0.11584 -1.00403,0.25743 -0.33887,0.14159 -0.75677,0.25743 -0.92867,0.25743 -0.17191,0 -0.41347,0.13516 -0.53682,0.30034 -0.12334,0.16519 -0.80348,0.48283 -1.51142,0.70587 -1.38641,0.4368 -1.4183,0.44831 -3.08918,1.11508 -0.61355,0.24484 -1.57892,0.59391 -2.14528,0.77572 -1.55332,0.49864 -2.18497,0.73099 -2.68661,0.98828 -0.25054,0.1285 -0.68086,0.23363 -0.95625,0.23363 -0.62096,0 -2.09655,0.4796 -2.47113,0.80317 -0.15337,0.13249 -0.34644,0.22342 -0.42905,0.20208 -0.18789,-0.0486 -1.93565,0.31635 -3.04604,0.63594 -0.46001,0.1324 -0.90068,0.20099 -0.97927,0.15242 -0.0786,-0.0486 -0.41849,0.0268 -0.75533,0.16758 -0.33683,0.14074 -0.72737,0.21179 -0.86784,0.15788 -0.14048,-0.0539 -0.37957,0.005 -0.53132,0.13097 -0.15174,0.12594 -0.78791,0.27606 -1.41369,0.33361 -0.62579,0.0575 -1.4081,0.22507 -1.73847,0.37227 -0.84425,0.37617 -2.17304,0.70427 -2.36692,0.58444 -0.0896,-0.0554 -0.57842,0.004 -1.0862,0.1318 -0.50777,0.12789 -1.45342,0.27865 -2.10144,0.33503 -0.64801,0.0564 -1.26585,0.16983 -1.37297,0.25211 -0.47384,0.36397 -1.61265,0.57197 -6.28733,1.14837 -0.42477,0.0524 -0.96538,0.1637 -1.20136,0.24739 -0.7558,0.26805 -2.3118,0.3563 -7.86686,0.4462 -2.9886,0.0484 -5.63708,0.12037 -5.88551,0.16 -0.24844,0.0396 -0.48012,0.0437 -0.51487,0.009 z m -3.92465,-1.0127 c 0,-0.12886 -0.15446,-0.43065 -0.34325,-0.67065 -0.18878,-0.24 -0.34324,-0.52072 -0.34324,-0.62382 0,-0.10311 -0.072,-0.18746 -0.15991,-0.18746 -0.1687,0 -0.14093,0.7861 0.034,0.96097 0.0563,0.0563 0.0573,0.21952 0.002,0.36278 -0.0786,0.20482 -0.0165,0.23397 0.29075,0.13645 0.26678,-0.0847 0.35345,-0.0637 0.27326,0.066 -0.0646,0.1045 -0.0356,0.19001 0.0643,0.19001 0.1,0 0.18175,-0.10543 0.18175,-0.23429 z m 15.40304,-1.20232 c 0.30677,0.002 0.55777,-0.0601 0.55777,-0.13802 0,-0.0779 0.0855,-0.14159 0.18998,-0.14159 0.10449,0 0.14553,0.11584 0.0912,0.25743 -0.13205,0.34414 0.009,0.32434 0.51271,-0.0721 0.23043,-0.18126 0.34612,-0.37458 0.25708,-0.42961 -0.089,-0.055 -1.19985,-0.14983 -2.46846,-0.21067 -1.80152,-0.0864 -2.33675,-0.0618 -2.44441,0.1124 -0.23022,0.37252 0.36028,0.65146 1.18284,0.55874 0.47346,-0.0534 0.79241,-0.01 0.87203,0.11898 0.074,0.1198 0.24162,0.14934 0.40851,0.072 0.15564,-0.0721 0.53398,-0.1295 0.84075,-0.12754 z m -9.05304,-0.60337 c 0,-0.0837 -0.33028,-0.20166 -0.73396,-0.26219 -0.40367,-0.0605 -0.93564,-0.21471 -1.18216,-0.3426 -0.45234,-0.23468 -1.34469,-0.18138 -1.34469,0.0803 0,0.27811 0.44688,0.42067 1.6304,0.52014 0.66075,0.0555 1.29789,0.11346 1.41588,0.12872 0.11799,0.0153 0.21453,-0.0407 0.21453,-0.12439 z m 15.96081,-1.22084 c 0,-0.0944 -0.11584,-0.17162 -0.25743,-0.17162 -0.14159,0 -0.25744,0.0772 -0.25744,0.17162 0,0.0944 0.11585,0.17163 0.25744,0.17163 0.14159,0 0.25743,-0.0772 0.25743,-0.17163 z M 16.081201,34.295 c -0.1367,-0.73164 -0.40207,-1.01842 -0.40207,-0.43451 0,0.55228 0.15845,0.99228 0.35732,0.99228 0.0819,0 0.10207,-0.25099 0.0447,-0.55777 z m 20.87902,-0.3726 c 2.30341,-0.0314 2.71996,-0.0855 4.0331,-0.52402 0.37757,-0.12608 0.89052,-0.27456 1.13989,-0.32995 0.71821,-0.15954 2.47747,-1.76585 3.19203,-2.91453 0.3594,-0.57775 0.74974,-1.20491 0.86742,-1.39369 0.41172,-0.6605 1.06152,-2.06153 1.06318,-2.29235 0.001,-0.15624 -0.0972,-0.19083 -0.29866,-0.10509 -0.16519,0.0703 -0.56909,0.15392 -0.89757,0.18585 -0.32847,0.0319 -1.10077,0.30659 -1.71621,0.61037 -0.99352,0.49039 -1.29219,0.55453 -2.66359,0.57203 -1.38576,0.0177 -2.01946,-0.0695 -2.83176,-0.38967 -0.14158,-0.0558 -0.37815,-0.115 -0.52569,-0.13154 -0.6416,-0.0719 -1.70539,-1.10256 -1.70539,-1.65225 0,-0.11623 -0.20633,-0.50907 -0.45851,-0.87298 -0.25219,-0.3639 -0.48585,-0.90866 -0.51926,-1.21057 -0.29907,-2.70292 -0.33596,-2.48739 0.68095,-3.97848 0.55541,-0.81439 1.16651,-1.49498 1.5149,-1.68713 0.32117,-0.17715 0.73841,-0.45954 0.92719,-0.62755 0.18879,-0.168 0.51194,-0.39233 0.71811,-0.49852 0.68419,-0.35238 2.99509,-0.17062 4.1302,0.32486 0.99581,0.43467 1.22687,0.57272 1.15452,0.68977 -0.0429,0.0694 0.0633,0.16321 0.23607,0.20839 0.2623,0.0686 0.31846,-0.0295 0.34062,-0.59506 0.0214,-0.54592 -0.075,-0.7787 -0.49713,-1.20085 -0.28801,-0.28802 -0.73787,-0.89873 -0.99968,-1.35716 -0.71123,-1.2453 -1.66755,-2.21032 -2.19042,-2.21032 -0.32104,0 -0.41371,-0.0698 -0.34171,-0.25743 0.0543,-0.14159 0.0322,-0.25743 -0.0491,-0.25743 -0.0813,0 -0.19259,0.11656 -0.24726,0.25902 -0.0547,0.14247 -0.15947,0.24605 -0.23289,0.23019 -0.0734,-0.0159 -0.26706,0.0297 -0.43031,0.10123 -0.27357,0.11988 -1.01505,-0.14021 -2.38706,-0.83729 -0.39528,-0.20083 -0.49339,-0.19196 -0.7723,0.0698 -0.17572,0.16492 -0.64823,0.42625 -1.04998,0.58074 -0.61135,0.23507 -0.85416,0.24782 -1.48865,0.0781 -0.74088,-0.19815 -0.76982,-0.1903 -1.26913,0.3442 -0.28513,0.30525 -0.6837,0.54697 -0.90185,0.54697 -0.58501,0 -1.54605,0.36077 -2.17679,0.81715 -0.49768,0.36009 -1.92837,2.10579 -1.92837,2.35295 0,0.0526 -0.34754,0.52224 -0.7723,1.04373 -0.42476,0.5215 -0.7723,1.01178 -0.7723,1.08952 0,0.0777 -0.23169,0.43289 -0.51486,0.78922 l -0.51487,0.64787 v 2.62641 c 0,1.56581 0.0693,2.66924 0.17162,2.73248 0.0944,0.0583 0.17163,0.40587 0.17163,0.77229 0,0.36643 0.0673,0.7078 0.14945,0.7586 0.0822,0.0508 0.19647,0.32745 0.25393,0.61476 0.0575,0.28732 0.29913,0.80884 0.53704,1.15895 0.23957,0.35257 0.43255,0.88156 0.43255,1.18571 0,0.41026 0.12606,0.63892 0.49845,0.90408 0.27415,0.19521 0.55139,0.35493 0.61608,0.35493 0.0647,0 0.54043,0.37684 1.05719,0.83742 0.51676,0.46057 1.47502,1.11286 2.12948,1.44952 1.02811,0.52886 1.30085,0.59893 2.00551,0.51521 0.44858,-0.0533 1.85819,-0.1111 3.13248,-0.12847 z m -24.02703,-0.61422 c 0,-0.0944 -0.0772,-0.17162 -0.17162,-0.17162 -0.0944,0 -0.17162,0.0772 -0.17162,0.17162 0,0.0944 0.0772,0.17162 0.17162,0.17162 0.0944,0 0.17162,-0.0772 0.17162,-0.17162 z m 2.23108,-0.6108 c 0,-0.14716 -0.0785,-0.21906 -0.17442,-0.15977 -0.0959,0.0593 -0.12999,0.17969 -0.0757,0.26756 0.14712,0.23805 0.2501,0.19366 0.2501,-0.10779 z m 4.97703,-1.27704 c 0,-0.0944 -0.0772,-0.17162 -0.17162,-0.17162 -0.0944,0 -0.17163,0.0772 -0.17163,0.17162 0,0.0944 0.0772,0.17162 0.17163,0.17162 0.0944,0 0.17162,-0.0772 0.17162,-0.17162 z m 32.69392,-2.23108 c 0.0583,-0.0944 -0.01,-0.17162 -0.15137,-0.17162 -0.14159,0 -0.30516,0.0772 -0.3635,0.17162 -0.0583,0.0944 0.01,0.17162 0.15137,0.17162 0.14158,0 0.30516,-0.0772 0.3635,-0.17162 z m 3.00339,-1.80203 c 0,-0.31746 -0.0172,-0.31749 -0.62398,-10e-4 l -0.49158,0.25638 0.55778,10e-4 c 0.38185,8e-4 0.55778,-0.0801 0.55778,-0.25638 z m 3.08655,-1.86594 c 10e-4,-0.0824 -0.11237,-0.0543 -0.25291,0.0623 -0.14056,0.11664 -0.20813,0.2888 -0.15018,0.38258 0.10637,0.1721 0.39792,-0.14971 0.40309,-0.44493 z m -43.00144,-0.30011 c -0.11122,-0.17996 -0.41621,-0.0355 -0.41621,0.19715 0,0.0859 0.1154,0.11182 0.25645,0.0577 0.14105,-0.0541 0.21294,-0.16881 0.15976,-0.25485 z m 42.67725,-0.0848 c 0.19906,-0.23985 0.18645,-0.26878 -0.0935,-0.21453 -0.17795,0.0345 -0.3557,0.15924 -0.39498,0.27723 -0.10194,0.30615 0.21623,0.26531 0.48846,-0.0627 z m -18.42713,-0.40926 c -0.0142,-0.18879 -0.12527,-0.34324 -0.24677,-0.34324 -0.27781,0 -0.27958,0.11946 -0.006,0.42976 0.27941,0.31735 0.28347,0.31597 0.25315,-0.0865 z m -24.66633,-0.61081 c 0,-0.14716 -0.0772,-0.21983 -0.17162,-0.16149 -0.0944,0.0583 -0.17162,0.17874 -0.17162,0.26756 0,0.0888 0.0772,0.1615 0.17162,0.1615 0.0944,0 0.17162,-0.12041 0.17162,-0.26757 z m 43.53268,-0.16889 c 0.13898,-0.36218 -0.093,-0.55772 -0.29073,-0.24506 -0.2101,0.33222 -0.20589,0.50989 0.0121,0.50989 0.0974,0 0.22275,-0.11917 0.27863,-0.26483 z m -46.96511,-0.93651 c 0,-0.0944 -0.0341,-0.17162 -0.0757,-0.17162 -0.0416,0 -0.12341,0.0772 -0.18175,0.17162 -0.0583,0.0944 -0.0243,0.17162 0.0757,0.17162 0.1,0 0.18175,-0.0772 0.18175,-0.17162 z m -4.69174,-0.90098 c -0.0476,-0.11799 -0.0866,-0.0214 -0.0866,0.21453 0,0.23598 0.0389,0.33251 0.0866,0.21452 0.0476,-0.11799 0.0476,-0.31106 0,-0.42905 z m 47.81167,-0.71087 c 0.42751,-0.32452 0.37144,-0.50118 -0.12871,-0.40557 -0.23598,0.0451 -0.42906,0.0179 -0.42906,-0.0604 0,-0.0783 -0.11584,-0.098 -0.25743,-0.0436 -0.14159,0.0543 -0.25743,0.16533 -0.25743,0.24666 0,0.0813 0.12925,0.0983 0.28723,0.0377 0.2176,-0.0835 0.2605,-0.0406 0.177,0.17701 -0.13295,0.34648 0.18262,0.37154 0.6084,0.0483 z m 2.70305,-0.004 c 0,-0.0395 0.0447,-0.1883 0.0994,-0.33073 0.0746,-0.19446 0.0105,-0.23571 -0.25744,-0.16564 -0.4078,0.10665 -0.48852,0.56815 -0.0994,0.56815 0.14159,0 0.25744,-0.0323 0.25744,-0.0718 z m -4.27651,-0.27147 c 0.0867,0 0.15759,-0.1204 0.15759,-0.26756 0,-0.14716 -0.071,-0.22365 -0.15788,-0.16998 -0.0868,0.0537 -0.30985,-0.0956 -0.49559,-0.33175 l -0.33771,-0.42933 -0.0832,0.55641 c -0.0863,0.57716 0.13017,0.87342 0.53066,0.72622 0.12572,-0.0462 0.29947,-0.084 0.38616,-0.084 z m 4.79137,-0.68648 c 0,-0.0944 -0.0341,-0.17162 -0.0757,-0.17162 -0.0416,0 -0.12341,0.0772 -0.18175,0.17162 -0.0583,0.0944 -0.0243,0.17162 0.0757,0.17162 0.1,0 0.18175,-0.0772 0.18175,-0.17162 z m -12.7,-0.60068 c 0,-0.14159 -0.0772,-0.25743 -0.17162,-0.25743 -0.0944,0 -0.17162,0.11584 -0.17162,0.25743 0,0.14159 0.0772,0.25743 0.17162,0.25743 0.0944,0 0.17162,-0.11584 0.17162,-0.25743 z m 12.35676,0.18175 c 0,-0.0416 -0.0772,-0.12341 -0.17162,-0.18175 -0.0944,-0.0583 -0.17163,-0.0243 -0.17163,0.0757 0,0.1 0.0772,0.18175 0.17163,0.18175 0.0944,0 0.17162,-0.0341 0.17162,-0.0757 z m -2.97196,-0.47185 c -0.0548,-0.13691 -0.0954,-0.0962 -0.10368,0.10369 -0.007,0.18092 0.0331,0.28228 0.0901,0.22525 0.057,-0.057 0.0631,-0.20505 0.0135,-0.32894 z m -1.60174,-0.65431 c -0.28906,-0.57943 -0.42396,-0.66109 -0.35438,-0.21452 0.0609,0.39076 0.27578,0.72939 0.46289,0.72939 0.0816,0 0.0328,-0.23169 -0.10851,-0.51487 z m -7.67937,-0.12514 c -0.17446,-0.17445 -0.3184,0.0882 -0.17527,0.3198 0.10813,0.17495 0.14856,0.17509 0.20669,6.9e-4 0.0397,-0.11924 0.0256,-0.26346 -0.0314,-0.32049 z m 3.84361,-0.2181 c 0,-0.0944 -0.0818,-0.17162 -0.18175,-0.17162 -0.1,0 -0.13402,0.0772 -0.0757,0.17162 0.0583,0.0944 0.14013,0.17162 0.18175,0.17162 0.0416,0 0.0757,-0.0772 0.0757,-0.17162 z m -9.78244,-0.17162 c 0,-0.0944 -0.0772,-0.17162 -0.17162,-0.17162 -0.0944,0 -0.17162,0.0772 -0.17162,0.17162 0,0.0944 0.0772,0.17162 0.17162,0.17162 0.0944,0 0.17162,-0.0772 0.17162,-0.17162 z m -22.40194,-0.67788 c 0.0554,-0.0896 -0.0559,-0.24683 -0.2473,-0.34928 -0.29666,-0.15877 -0.34805,-0.1347 -0.34805,0.16301 0,0.35493 0.41153,0.48369 0.59535,0.18627 z m 35.09932,-0.31908 c -0.002,-0.25009 -0.0256,-0.25463 -0.169,-0.0328 -0.2172,0.3361 -0.2172,0.56329 0,0.42905 0.0944,-0.0583 0.17044,-0.23666 0.169,-0.39628 z m 1.54722,-0.0328 c 0,-0.0944 -0.0341,-0.17162 -0.0757,-0.17162 -0.0416,0 -0.12341,0.0772 -0.18175,0.17162 -0.0583,0.0944 -0.0243,0.17162 0.0757,0.17162 0.1,0 0.18175,-0.0772 0.18175,-0.17162 z m -1.5446,-0.51487 c 0,-0.0944 -0.0772,-0.17162 -0.17162,-0.17162 -0.0944,0 -0.17162,0.0772 -0.17162,0.17162 0,0.0944 0.0772,0.17162 0.17162,0.17162 0.0944,0 0.17162,-0.0772 0.17162,-0.17162 z m -3.77567,-0.25743 c 0,-0.14159 -0.1253,-0.25743 -0.27845,-0.25743 -0.22805,0 -0.23978,0.0466 -0.0648,0.25743 0.11752,0.14159 0.24282,0.25743 0.27845,0.25743 0.0356,0 0.0648,-0.11584 0.0648,-0.25743 z m -0.58511,-0.55651 c -0.11902,-0.11901 -0.44462,0.12281 -0.44462,0.33022 0,0.1138 0.0985,0.10078 0.26158,-0.0346 0.14387,-0.1194 0.22624,-0.25244 0.18304,-0.29564 z m 9.5409,-0.42459 c -0.12315,-0.12315 -0.20309,-0.13328 -0.20309,-0.0258 0,0.22908 0.20296,0.43204 0.3175,0.3175 0.0488,-0.0488 -0.003,-0.18006 -0.11441,-0.29175 z m -3.4639,-0.13444 c 0,-0.0944 -0.0341,-0.17162 -0.0757,-0.17162 -0.0416,0 -0.1234,0.0772 -0.18175,0.17162 -0.0583,0.0944 -0.0243,0.17162 0.0757,0.17162 0.1,0 0.18175,-0.0772 0.18175,-0.17162 z m -1.42736,-1.23353 c -0.0548,-0.13691 -0.0954,-0.0962 -0.10368,0.10369 -0.007,0.18092 0.0331,0.28228 0.0901,0.22525 0.057,-0.057 0.0631,-0.20505 0.0135,-0.32894 z m -5.51106,-0.0414 c 0.33258,-0.33258 0.30842,-0.44132 -0.0981,-0.44132 -0.22882,0 -0.34324,0.11442 -0.34324,0.34325 0,0.40649 0.10873,0.43065 0.44131,0.0981 z m 6.42356,-0.26969 c 0,-0.0944 -0.0341,-0.17163 -0.0757,-0.17163 -0.0416,0 -0.12342,0.0772 -0.18175,0.17163 -0.0583,0.0944 -0.0243,0.17162 0.0757,0.17162 0.1,0 0.18175,-0.0772 0.18175,-0.17162 z m 2.91756,-0.18175 c 0,-0.19436 -0.0772,-0.30565 -0.17161,-0.24731 -0.0944,0.0583 -0.17163,0.21736 -0.17163,0.35337 0,0.13602 0.0772,0.24731 0.17163,0.24731 0.0944,0 0.17161,-0.15902 0.17161,-0.35337 z m -36.72702,0.0101 c 0,-0.0944 -0.0341,-0.17162 -0.0757,-0.17162 -0.0416,0 -0.12342,0.0772 -0.18176,0.17162 -0.0583,0.0944 -0.0243,0.17163 0.0757,0.17163 0.1,0 0.18175,-0.0772 0.18176,-0.17163 z m -2.06209,-0.64358 c -0.001,-0.0708 -0.068,-0.23178 -0.14781,-0.35775 -0.11039,-0.17413 -0.16761,-0.14328 -0.23874,0.12872 -0.0621,0.23735 -0.0123,0.35775 0.14781,0.35775 0.13275,0 0.24018,-0.0579 0.23874,-0.12872 z m 7.21074,-0.55777 c 0,-0.0944 -0.0772,-0.17162 -0.17163,-0.17162 -0.0944,0 -0.17162,0.0772 -0.17162,0.17162 0,0.0944 0.0772,0.17162 0.17162,0.17162 0.0944,0 0.17163,-0.0772 0.17163,-0.17162 z m 25.47722,0.0121 c -0.0897,-0.0877 -0.39473,-0.204 -0.6779,-0.25841 l -0.51487,-0.0989 0.51487,0.25067 c 0.60061,0.29241 0.91902,0.34251 0.6779,0.10667 z m -6.59885,-1.38512 c 0,-0.0944 -0.0341,-0.17162 -0.0757,-0.17162 -0.0416,0 -0.12341,0.0772 -0.18175,0.17162 -0.0583,0.0944 -0.0243,0.17162 0.0757,0.17162 0.1,0 0.18175,-0.0772 0.18175,-0.17162 z m -22.31081,-0.84798 c 0,-0.31414 -0.28645,-0.6389905 -0.43366,-0.4917805 -0.11788,0.11788 0.12387,0.8248905 0.28206,0.8248905 0.0834,0 0.1516,-0.1499 0.1516,-0.33311 z M 18.284921,10.102 c -0.12315,-0.1231405 -0.20308,-0.1332805 -0.20308,-0.0257 0,0.22908 0.20296,0.43204 0.3175,0.3175 0.0488,-0.0488 -0.003,-0.18006 -0.11442,-0.29176 z m 2.54286,0.0372 c 0,-0.0944 -0.0772,-0.1716205 -0.17162,-0.1716205 -0.0944,0 -0.17162,0.077203 -0.17162,0.1716205 0,0.0944 0.0772,0.17162 0.17162,0.17162 0.0944,0 0.17162,-0.0772 0.17162,-0.17162 z m 9.35338,-0.6864905 c 0.0583,-0.0944 0.0243,-0.17162 -0.0757,-0.17162 -0.1,0 -0.18175,0.0772 -0.18175,0.17162 0,0.0944 0.0341,0.17162 0.0757,0.17162 0.0416,0 0.12341,-0.0772 0.18175,-0.17162 z m -4.22061,-1.0444 c 0.11621,-0.38788 0.16313,-0.7534 0.10426,-0.81227 -0.1583,-0.1583 -0.4141,0.32966 -0.31213,0.59541 0.0483,0.12575 -0.0361,0.27617 -0.1875,0.33426 -0.15163,0.0582 -0.27523,0.29949 -0.27523,0.53732 0,0.63031 0.40368,0.23619 0.6706,-0.65472 z m -2.46037,0.62761 c 0.32138,-0.32138 0.31414,-0.78456 -0.0123,-0.78456 -0.14159,0 -0.25743,-0.1204 -0.25743,-0.26756 0,-0.14897 -0.0827,-0.21645 -0.18658,-0.15225 -0.13435,0.083 -0.13435,0.16753 0,0.30188 0.23413,0.23413 0.24473,0.80442 0.0149,0.80442 -0.0944,0 -0.17162,0.0772 -0.17162,0.17162 0,0.2496 0.3293,0.21008 0.61293,-0.0736 z m 12.43031,-0.10505 c 0.2142,-0.14423 0.14935,-0.26627 -0.38616,-0.72676 -0.35398,-0.30438 -0.64359,-0.65452 -0.64358,-0.77808 0,-0.12356 -0.0756,-0.17791 -0.16807,-0.12078 -0.0924,0.0571 -0.33132,0.0165 -0.53085,-0.0903 -0.47413,-0.25375 -1.21004,-0.0765 -1.0808,0.26032 0.0726,0.18924 0.27739,0.22531 0.84066,0.14811 0.72772,-0.0997 0.75056,-0.0879 1.00472,0.52038 0.14304,0.34234 0.36055,0.62362 0.48336,0.62506 0.1605,0.002 0.1509,0.0494 -0.0341,0.169 -0.22883,0.14788 -0.22883,0.16636 0,0.16636 0.14159,0 0.37327,-0.078 0.51486,-0.17334 z m -17.6572,-0.63394 c 0.0394,0.0221 0.0192,-0.0264 -0.0449,-0.10784 -0.16896,-0.21454 -0.49071,0.0331 -0.48432,0.37274 0.005,0.26891 0.022,0.26837 0.2315,-0.007 0.12432,-0.16372 0.2583,-0.27957 0.29774,-0.25743 z m 13.56487,-0.0321 c 0.27943,-0.4912 0.27695,-0.50105 -0.15354,-0.60909 -0.59092,-0.14831 -0.92756,0.19083 -0.38767,0.39055 0.2627,0.0972 0.33215,0.19156 0.20071,0.27279 -0.11052,0.0683 -0.20096,0.19687 -0.20096,0.28569 0,0.31609 0.26174,0.15176 0.54146,-0.33994 z m 7.52476,0.32981 c 0,-0.0944 -0.0341,-0.17162 -0.0757,-0.17162 -0.0416,0 -0.12341,0.0772 -0.18175,0.17162 -0.0583,0.0944 -0.0243,0.17163 0.0757,0.17163 0.1,0 0.18175,-0.0772 0.18175,-0.17163 z m 1.98735,0.0222 c -0.0508,-0.0822 -0.30636,-0.19263 -0.5679,-0.24541 -0.26154,-0.0528 -0.62335,-0.15311 -0.80402,-0.22296 -0.22764,-0.088 -0.29091,-0.0662 -0.20608,0.0711 0.0673,0.10894 0.36961,0.26956 0.67173,0.35693 0.72621,0.21002 1.01918,0.22306 0.90627,0.0404 z m -21.23549,-0.4423 c 0.0379,-0.19565 -0.0239,-0.27817 -0.17162,-0.22899 -0.127,0.0423 -0.2576,0.21454 -0.29021,0.38277 -0.0379,0.19566 0.0239,0.27818 0.17162,0.22899 0.127,-0.0423 0.2576,-0.21454 0.29021,-0.38277 z m 16.75229,0.26037 c 0.0543,-0.0879 0.0203,-0.20827 -0.0757,-0.26756 -0.0959,-0.0593 -0.17442,0.0126 -0.17442,0.15976 0,0.30146 0.10299,0.34585 0.25011,0.1078 z m 1.91992,-0.26941 c 0.0136,-0.23591 -0.036,-0.42893 -0.11035,-0.42893 -0.18593,0 -0.36636,0.51057 -0.24807,0.70197 0.17504,0.28321 0.33328,0.16266 0.35842,-0.27304 z m 4.52323,-0.1067 c 0,-0.19013 -0.18945,-0.18842 -0.49395,0.004 -0.13008,0.0824 -0.18113,0.23942 -0.11344,0.34895 0.0933,0.15089 0.18175,0.15045 0.36523,-0.002 0.13319,-0.11053 0.24216,-0.26874 0.24216,-0.35157 z m -12.18514,0.19263 c 0,-0.0944 -0.0772,-0.17162 -0.17162,-0.17162 -0.0944,0 -0.17162,0.0772 -0.17162,0.17162 0,0.0944 0.0772,0.17162 0.17162,0.17162 0.0944,0 0.17162,-0.0772 0.17162,-0.17162 z m -9.26757,-0.34324 c 0,-0.0944 -0.0772,-0.17162 -0.17162,-0.17162 -0.0944,0 -0.17162,0.0772 -0.17162,0.17162 0,0.0944 0.0772,0.17162 0.17162,0.17162 0.0944,0 0.17162,-0.0772 0.17162,-0.17162 z m 0.46387,-0.42906 c -0.009,-0.33037 -0.0699,-0.60067 -0.13462,-0.60067 -0.21728,0 -0.31682,0.75209 -0.12943,0.97789 0.26455,0.31876 0.28303,0.29235 0.26405,-0.37722 z m 5.54289,0.23718 c 0,-0.0944 -0.0772,-0.12389 -0.17162,-0.0656 -0.0944,0.0583 -0.17162,0.18329 -0.17162,0.27769 0,0.0944 0.0772,0.12389 0.17162,0.0656 0.0944,-0.0583 0.17162,-0.1833 0.17162,-0.27769 z m 9.97187,-0.0306 c -0.22028,-0.22027 -0.44365,-0.05 -0.28058,0.21384 0.0632,0.10221 0.19348,0.13725 0.28958,0.0779 0.11721,-0.0724 0.11425,-0.16844 -0.009,-0.2917 z m 3.24299,0.3184 c 0,-0.0416 -0.0772,-0.12341 -0.17162,-0.18175 -0.0944,-0.0583 -0.17162,-0.0243 -0.17162,0.0757 0,0.1 0.0772,0.18175 0.17162,0.18175 0.0944,0 0.17162,-0.0341 0.17162,-0.0757 z m -13.86702,-0.47351 c -0.11327,-0.11327 -0.20595,-0.28317 -0.20595,-0.37757 0,-0.0953 0.0915,-0.0801 0.20595,0.0343 0.11327,0.11327 0.40288,0.201 0.64358,0.19497 0.42626,-0.0107 0.42341,-0.0181 -0.11004,-0.28379 -0.50698,-0.25254 -0.58198,-0.25033 -1.00946,0.0298 -0.3621,0.23726 -0.41059,0.335 -0.22462,0.45278 0.13044,0.0826 0.38776,0.15139 0.57182,0.15284 0.2603,0.002 0.2889,-0.0431 0.12872,-0.20332 z m 4.08459,-0.30892 c 0,-0.0944 -0.0818,-0.17162 -0.18175,-0.17162 -0.1,0 -0.13402,0.0772 -0.0757,0.17162 0.0583,0.0944 0.14013,0.17162 0.18175,0.17162 0.0416,0 0.0757,-0.0772 0.0757,-0.17162 z m -7.72297,-0.0757 c 0,-0.0416 -0.0772,-0.12341 -0.17162,-0.18175 -0.0944,-0.0583 -0.17162,-0.0243 -0.17162,0.0757 0,0.1 0.0772,0.18175 0.17162,0.18175 0.0944,0 0.17162,-0.0341 0.17162,-0.0757 z m 0.85811,-0.26756 c 0,-0.0944 -0.0818,-0.17162 -0.18175,-0.17162 -0.1,0 -0.13402,0.0772 -0.0757,0.17162 0.0583,0.0944 0.14012,0.17162 0.18175,0.17162 0.0416,0 0.0757,-0.0772 0.0757,-0.17162 z m 16.63943,-0.18632 c -0.10536,-0.19687 -0.22574,-0.32377 -0.26751,-0.282 -0.12012,0.12012 0.12339,0.63994 0.29977,0.63994 0.0877,0 0.0732,-0.16095 -0.0323,-0.35794 z m 1.72408,-0.0711 c 0,-0.14159 -0.0772,-0.25744 -0.17162,-0.25744 -0.0944,0 -0.17162,0.11585 -0.17162,0.25744 0,0.14158 0.0772,0.25743 0.17162,0.25743 0.0944,0 0.17162,-0.11585 0.17162,-0.25743 z m 3.56973,0.0515 c 0.28194,-0.28194 0.25914,-0.49018 -0.0411,-0.37498 -0.13814,0.053 -0.34072,-0.0553 -0.45964,-0.24569 -0.11695,-0.18727 -0.31471,-0.30131 -0.43948,-0.25344 -0.14687,0.0564 -0.2311,-0.0556 -0.23891,-0.31746 -0.0112,-0.37575 -0.0218,-0.3801 -0.14859,-0.0613 -0.0751,0.18879 -0.0779,0.36626 -0.006,0.39438 0.0717,0.0281 0.0878,0.2212 0.0359,0.42906 -0.0936,0.37431 -0.091,0.3748 0.27565,0.051 0.36831,-0.32528 0.37019,-0.32463 0.37019,0.12872 0,0.48264 0.30315,0.59871 0.65216,0.2497 z m -18.84405,-0.23317 c 0,-0.14716 -0.0785,-0.21906 -0.17442,-0.15977 -0.0959,0.0593 -0.12999,0.17969 -0.0757,0.26756 0.14712,0.23805 0.2501,0.19366 0.2501,-0.10779 z m 20.67172,-0.13591 0.37393,-0.40347 -0.48296,-0.1823 c -0.26563,-0.10027 -0.48296,-0.30485 -0.48296,-0.45464 0,-0.14979 -0.11453,-0.27234 -0.2545,-0.27234 -0.20872,0 -0.19328,0.109 0.0858,0.6059 0.38109,0.6785 0.42027,0.83675 0.16869,0.68126 -0.19089,-0.11797 -0.23688,0.13497 -0.0572,0.31464 0.17633,0.17634 0.24709,0.14483 0.6492,-0.28905 z m -26.50686,-0.14406 c 0,-0.22558 -0.39006,-0.0843 -0.47557,0.17222 -0.0418,0.12541 0.0367,0.16377 0.2038,0.0996 0.14947,-0.0574 0.27177,-0.17969 0.27177,-0.27185 z m 7.37973,0.0327 c 0,-0.18878 -0.0607,-0.34324 -0.13484,-0.34324 -0.0742,0 -0.13485,0.15446 -0.13485,0.34324 0,0.18879 0.0607,0.34325 0.13485,0.34325 0.0742,0 0.13484,-0.15446 0.13484,-0.34325 z m 11.32912,0.12326 c 0.3215,-0.25899 0.69788,-1.0823 0.5585,-1.22168 -0.22487,-0.22487 -0.424,-0.0838 -0.33924,0.24031 0.0576,0.22035 0.005,0.34325 -0.14622,0.34325 -0.14498,0 -0.19568,0.10501 -0.13149,0.27229 0.0798,0.208 0.0114,0.25866 -0.28977,0.21453 -0.21685,-0.0318 -0.42719,0.0388 -0.46742,0.15676 -0.0936,0.27446 0.47287,0.27067 0.81564,-0.005 z m -17.42169,-0.29488 c 0.0599,-0.18878 0.23889,-0.34934 0.39772,-0.35679 0.23651,-0.0111 0.24218,-0.0313 0.0313,-0.11155 -0.14159,-0.0539 -0.31417,-0.18295 -0.38352,-0.28679 -0.0906,-0.13567 -0.12683,-0.13406 -0.12872,0.006 -0.001,0.10698 -0.16286,0.23642 -0.35871,0.28763 -0.30146,0.0788 -0.32686,0.14772 -0.16558,0.44907 0.24047,0.44933 0.46739,0.45408 0.60747,0.0127 z m 2.14528,-0.0858 c 0.11917,-0.1436 0.13776,-0.25743 0.042,-0.25743 -0.0944,0 -0.26777,0.11584 -0.38528,0.25743 -0.11918,0.1436 -0.13776,0.25743 -0.042,0.25743 0.0944,0 0.26777,-0.11584 0.38528,-0.25743 z m 4.8054,0.0858 c 0,-0.0944 -0.0818,-0.17162 -0.18175,-0.17162 -0.1,0 -0.13402,0.0772 -0.0757,0.17162 0.0583,0.0944 0.14012,0.17162 0.18175,0.17162 0.0416,0 0.0757,-0.0772 0.0757,-0.17162 z m 2.57432,0 c 0,-0.0944 -0.0727,-0.17162 -0.16149,-0.17162 -0.0888,0 -0.20922,0.0772 -0.26756,0.17162 -0.0583,0.0944 0.0143,0.17162 0.16149,0.17162 0.14716,0 0.26756,-0.0772 0.26756,-0.17162 z m 3.47212,-0.166 c 0.23607,-0.18569 0.47294,-0.2939 0.52638,-0.24046 0.0534,0.0534 0.0548,-0.0649 0.003,-0.26305 -0.0518,-0.19812 -0.2056,-0.36022 -0.34175,-0.36022 -0.13778,0 -0.1953,0.0845 -0.12972,0.19064 0.0648,0.10484 -0.10441,0.37237 -0.37602,0.5945 -0.59444,0.48614 -0.29425,0.5603 0.31814,0.0786 z m 6.93758,0.0728 c 0.15966,-0.41606 -0.0631,-0.49117 -0.27615,-0.0931 -0.13284,0.2482 -0.13545,0.35794 -0.008,0.35794 0.10067,0 0.22877,-0.11917 0.28467,-0.26483 z m -9.55159,-0.18424 c 0,-0.0362 -0.15446,-0.0658 -0.34324,-0.0658 -0.18879,0 -0.34325,0.07 -0.34325,0.15555 0,0.0856 0.15446,0.11516 0.34325,0.0658 0.18878,-0.0494 0.34324,-0.11937 0.34324,-0.15556 z m 0.85811,-0.17162 c 0,-0.19356 0.10446,-0.25013 0.34549,-0.1871 0.35749,0.0935 0.83484,-0.48095 0.58884,-0.7086 -0.0678,-0.0627 -0.15769,-0.0175 -0.19983,0.10051 -0.0421,0.11799 -0.20533,0.21696 -0.36265,0.21992 -0.15732,0.003 -0.4248,0.19604 -0.59439,0.42906 -0.26477,0.36378 -0.27083,0.42366 -0.0429,0.42366 0.14599,0 0.26544,-0.12485 0.26544,-0.27745 z m 10.12568,0.10583 c 0,-0.0944 -0.0772,-0.17162 -0.17163,-0.17162 -0.0944,0 -0.17162,0.0772 -0.17162,0.17162 0,0.0944 0.0772,0.17162 0.17162,0.17162 0.0944,0 0.17163,-0.0772 0.17163,-0.17162 z m 2.31689,0 c -0.0583,-0.0944 -0.17874,-0.17162 -0.26756,-0.17162 -0.0888,0 -0.1615,0.0772 -0.1615,0.17162 0,0.0944 0.12041,0.17162 0.26757,0.17162 0.14715,0 0.21983,-0.0772 0.16149,-0.17162 z m -19.49569,-0.23739 c 0.15117,-0.18215 0.13999,-0.25928 -0.048,-0.33142 -0.28474,-0.10926 -0.45021,0.0157 -0.45021,0.33998 0,0.29695 0.24821,0.29269 0.49823,-0.009 z m -0.84147,-0.10586 c 0,-0.0944 -0.0772,-0.17162 -0.17163,-0.17162 -0.0944,0 -0.17162,0.0772 -0.17162,0.17162 0,0.0944 0.0772,0.17163 0.17162,0.17163 0.0944,0 0.17163,-0.0772 0.17163,-0.17163 z m 17.6468,-0.22926 c 0.0793,-0.4087 -0.45589,-0.55953 -0.79216,-0.22326 -0.26012,0.26012 -0.25913,0.2809 0.0133,0.2809 0.16182,0 0.29421,0.0837 0.29421,0.18593 0,0.28991 0.42234,0.0777 0.48464,-0.24357 z m -13.95694,0.0576 c 0.0583,-0.0944 -0.0189,-0.17162 -0.17162,-0.17162 -0.15273,0 -0.22996,0.0772 -0.17162,0.17162 0.0583,0.0944 0.13556,0.17162 0.17162,0.17162 0.0361,0 0.11328,-0.0772 0.17162,-0.17162 z m 1.06528,-0.58964 c -0.14766,-0.14766 -0.35121,-0.26847 -0.45235,-0.26847 -0.20767,0 -0.24846,-0.39307 -0.0603,-0.58121 0.068,-0.068 0.12589,-0.28733 0.12872,-0.48749 0.004,-0.2555 0.15551,-0.40436 0.5098,-0.49962 0.89188,-0.23981 1.30973,0.46191 0.5251,0.88184 -0.43289,0.23166 -0.57449,0.51486 -0.25745,0.51486 0.0944,0 0.17163,0.10639 0.17163,0.23642 0,0.38883 0.49318,0.71202 0.72808,0.47712 0.15049,-0.15048 0.11602,-0.19867 -0.14211,-0.19867 -0.2172,0 -0.3408,-0.11518 -0.3408,-0.31756 0,-0.22025 0.0938,-0.29303 0.30616,-0.2375 0.46863,0.12255 1.16489,-0.41676 1.16489,-0.9023 0,-0.30151 -0.0721,-0.39204 -0.25599,-0.32148 -0.1485,0.057 -0.29263,-0.0173 -0.34325,-0.177 -0.048,-0.15139 -0.12532,-0.39598 -0.17186,-0.54355 -0.0465,-0.14757 -0.1706,-0.21515 -0.27574,-0.15017 -0.13716,0.0848 -0.1316,0.15495 0.0197,0.24846 0.11598,0.0717 0.16965,0.23579 0.11927,0.36469 -0.0575,0.14713 -0.17512,0.0267 -0.31598,-0.32339 -0.21927,-0.54506 -0.49237,-0.74814 -0.49237,-0.36613 0,0.10904 -0.15247,0.15176 -0.35374,0.0991 -0.20356,-0.0532 -0.38937,3.4e-4 -0.43765,0.12616 -0.0492,0.12824 -0.25691,0.1856 -0.50224,0.1387 -0.60145,-0.11497 -0.74346,0.38403 -0.22807,0.80137 0.39733,0.32174 0.39845,0.33169 0.0777,0.68609 -0.17962,0.19848 -0.23662,0.35961 -0.12722,0.35961 0.10902,0 0.19822,0.11064 0.19822,0.24587 0,0.13523 0.15446,0.29489 0.34324,0.35481 0.18879,0.0599 0.34325,0.19641 0.34325,0.30332 0,0.14445 0.0501,0.14431 0.19491,-5.3e-4 0.14547,-0.14547 0.12681,-0.26302 -0.0735,-0.46338 z m 1.07999,-0.78333 c 0,-0.0944 0.1204,-0.17162 0.26756,-0.17162 0.14716,0 0.21983,0.0772 0.16149,0.17162 -0.0583,0.0944 -0.17874,0.17162 -0.26756,0.17162 -0.0888,0 -0.16149,-0.0772 -0.16149,-0.17162 z m -2.05946,-1.02973 c 0,-0.0944 0.0772,-0.17162 0.17162,-0.17162 0.0944,0 0.17162,0.0772 0.17162,0.17162 0,0.0944 -0.0772,0.17162 -0.17162,0.17162 -0.0944,0 -0.17162,-0.0772 -0.17162,-0.17162 z m -6.35,2.05946 c 0,-0.0944 -0.0818,-0.17162 -0.18175,-0.17162 -0.1,0 -0.13402,0.0772 -0.0757,0.17162 0.0583,0.0944 0.14013,0.17162 0.18175,0.17162 0.0416,0 0.0757,-0.0772 0.0757,-0.17162 z m 16.06018,-0.45561 c -0.0953,-0.24834 -0.14586,-0.26173 -0.26434,-0.07 -0.1964,0.31777 -0.0195,0.77874 0.21055,0.54869 0.0944,-0.0944 0.1186,-0.3098 0.0538,-0.47868 z m -6.10613,0.11237 c 0,-0.0944 -0.0341,-0.17163 -0.0757,-0.17163 -0.0416,0 -0.12341,0.0772 -0.18175,0.17163 -0.0583,0.0944 -0.0243,0.17162 0.0757,0.17162 0.1,0 0.18175,-0.0772 0.18175,-0.17162 z m 0.51487,0 c 0,-0.0944 -0.0341,-0.17163 -0.0757,-0.17163 -0.0416,0 -0.12341,0.0772 -0.18175,0.17163 -0.0583,0.0944 -0.0243,0.17162 0.0757,0.17162 0.1,0 0.18175,-0.0772 0.18175,-0.17162 z m 1.16071,-0.77443 c -0.0248,-0.11758 0.1479,-0.38166 0.38388,-0.58686 l 0.42906,-0.37307 -0.42105,0.11752 c -0.57005,0.15912 -0.77779,0.41144 -0.80646,0.97953 -0.0198,0.39319 0.0189,0.44252 0.21781,0.27744 0.13306,-0.11043 0.2216,-0.29699 0.19676,-0.41456 z m -14.20395,-0.98016 c 0,-0.0935 -0.12216,-0.1231 -0.27147,-0.0658 -0.14931,0.0573 -0.34238,0.10417 -0.42906,0.10417 -0.0867,0 -0.15758,0.0665 -0.15758,0.14782 0,0.0813 0.19307,0.11092 0.42905,0.0658 0.23598,-0.0451 0.42906,-0.15851 0.42906,-0.252 z m 16.75098,-0.0868 c -0.17445,-0.17446 -0.3184,0.0882 -0.17526,0.3198 0.10813,0.17495 0.14855,0.17508 0.20668,6.9e-4 0.0398,-0.11924 0.0256,-0.26346 -0.0314,-0.32049 z m -3.49321,0.0115 c -0.11799,-0.0476 -0.31107,-0.0476 -0.42906,0 -0.11799,0.0476 -0.0215,0.0866 0.21453,0.0866 0.23598,0 0.33252,-0.0389 0.21453,-0.0866 z m -1.24426,-1.10795 c 0,-0.0944 -0.0772,-0.12389 -0.17162,-0.0656 -0.0944,0.0583 -0.17162,0.18329 -0.17162,0.27769 0,0.0944 0.0772,0.12389 0.17162,0.0656 0.0944,-0.0583 0.17162,-0.1833 0.17162,-0.27769 z m 1.09553,-0.61627998 c -0.21163,-0.15474 -0.35759,-0.16387 -0.51616,-0.0323 -0.1216,0.10092 -0.3017,0.13366998 -0.40023,0.0728 -0.0985,-0.0609 -0.17914,-0.0278 -0.17914,0.0736 0,0.10135 0.24981,0.33619 0.55514,0.52187 l 0.55513,0.3376 0.14016,-0.37889 c 0.10226,-0.27642 0.0604,-0.43724 -0.1549,-0.59464994 z m 8.6869,2.52437998 c 0,-0.0944 0.0772,-0.17163 0.17162,-0.17163 0.0944,0 0.17163,0.0772 0.17163,0.17163 0,0.0944 -0.0772,0.17162 -0.17163,0.17162 -0.0944,0 -0.17162,-0.0772 -0.17162,-0.17162 z m 1.5446,-0.24127 c 0,-0.20711 -0.0927,-0.46925 -0.20595,-0.58252 -0.2896,-0.2896 0.0568,-0.25688 0.48961,0.0462 0.54525,0.3819 0.60854,0.85789 0.11809,0.88811 -0.30671,0.0189 -0.40175,-0.0643 -0.40175,-0.35183 z m 1.11554,-0.10198 c 0.0583,-0.0944 0.14012,-0.17162 0.18175,-0.17162 0.0416,0 0.0757,0.0772 0.0757,0.17162 0,0.0944 -0.0818,0.17162 -0.18175,0.17162 -0.1,0 -0.13402,-0.0772 -0.0757,-0.17162 z m -3.12114,-0.33882 c 0.0663,-0.43415 0.21867,-0.58325 0.45005,-0.44024 0.12801,0.0791 0.12963,0.21406 0.005,0.44623 -0.23156,0.43267 -0.52179,0.42885 -0.45543,-0.006 z m 0.63262,0.0957 c 0,-0.14945 0.12228,-0.27173 0.27174,-0.27173 0.14945,0 0.24116,0.0917 0.2038,0.2038 -0.10608,0.31822 -0.47554,0.371 -0.47554,0.0679 z m 1.88784,-0.44335 c 0,-0.0944 0.0818,-0.17163 0.18175,-0.17163 0.1,0 0.13402,0.0772 0.0757,0.17163 -0.0583,0.0944 -0.14012,0.17162 -0.18175,0.17162 -0.0416,0 -0.0757,-0.0772 -0.0757,-0.17162 z m -2.96333,-0.36454 c 0.11643,-0.11729 0.2549,-0.17002 0.30774,-0.11718 0.0528,0.0528 -0.0424,0.1488 -0.21167,0.21325 -0.24459,0.0931 -0.26431,0.0734 -0.0961,-0.0961 z m -3.82758,-0.51276 c -0.14277,-0.231 0.23773,-0.49702 0.54323,-0.37978 0.27407,0.10517 0.11391,0.57059 -0.19636,0.57059 -0.12591,0 -0.28201,-0.0859 -0.34687,-0.19081 z m 3.5301,0.0394 c 0,-0.0944 0.0772,-0.21936 0.17162,-0.27769 0.0944,-0.0583 0.17162,-0.0288 0.17162,0.0655 0,0.0944 -0.0772,0.21935 -0.17162,0.27769 -0.0944,0.0583 -0.17162,0.0288 -0.17162,-0.0656 z m 0.68649,-0.0203 c 0,-0.0944 0.11584,-0.17162 0.25743,-0.17162 0.14159,0 0.25743,0.0772 0.25743,0.17162 0,0.0944 -0.11584,0.17162 -0.25743,0.17162 -0.14159,0 -0.25743,-0.0772 -0.25743,-0.17162 z m -2.91757,-0.17162 c -0.17162,-0.11091 -0.18592,-0.16725 -0.0429,-0.169 0.42522,-0.005 0.2071,-0.49556998 -0.2442,-0.54899998 -0.2523,-0.0299 -0.48885,-0.14611 -0.52566,-0.25833 -0.0687,-0.20928 0.66815,-0.19455 2.0658,0.0413 0.80162,0.13526 0.75187,0.50599 -0.0679,0.50599 -0.73789,0 -1.15952,0.23104998 -0.81732,0.44787998 0.12807,0.0812 0.15562,0.14754 0.0612,0.14754 -0.0944,0 -0.28746,-0.0749 -0.42904,-0.16636 z m 3.9473,-0.0101 c 0,-0.1 0.0772,-0.13402 0.17162,-0.0757 0.0944,0.0583 0.17162,0.14012 0.17162,0.18175 0,0.0416 -0.0772,0.0757 -0.17162,0.0757 -0.0944,0 -0.17162,-0.0818 -0.17162,-0.18175 z m -1.20135,-0.33312 c 0,-0.0944 0.0772,-0.17161998 0.17162,-0.17161998 0.0944,0 0.17162,0.0772 0.17162,0.17161998 0,0.0944 -0.0772,0.17162 -0.17162,0.17162 -0.0944,0 -0.17162,-0.0772 -0.17162,-0.17162 z m -4.24764,-0.46908998 c -0.34673,-0.12021 -0.24561,-0.56064 0.12872,-0.56064 0.18878,0 0.34206,0.0579 0.34061,0.12872 -0.005,0.26677 -0.26273,0.50355 -0.46933,0.43192 z"
       id="path85"
       inkscape:connector-curvature="0" />
    <path
       style="fill:#131516;stroke-width:0.18013972;fill-opacity:1"
       d="m 80.869817,17.085127 c -0.0036,-5.641792 -0.03284,-6.233402 -0.341521,-6.913154 -0.185662,-0.4088544 -0.42707,-0.7986879 -0.536463,-0.8662964 -0.109394,-0.067606 -0.198898,-0.1846994 -0.198898,-0.2602017 0,-0.1640509 2.915621,-1.8229974 3.203939,-1.8229974 0.116393,0 0.223436,0.4125278 0.254763,0.9818098 l 0.05403,0.9818092 1.260978,-0.9803693 c 1.427987,-1.1102127 1.75433,-1.1694149 3.069737,-0.5568821 1.75959,0.8193767 2.683372,2.4464429 2.672772,4.7076149 -0.01449,3.097678 -2.040067,5.948186 -4.487553,6.315209 -0.707757,0.106135 -0.911642,0.05273 -1.661349,-0.435174 l -0.854585,-0.556157 -0.04961,2.787288 -0.04962,2.787288 h -1.166332 -1.166334 z m 6.092616,-0.928616 c 1.271114,-0.661362 1.79857,-2.006188 1.395829,-3.55883 -0.4101,-1.580951 -1.630339,-2.492968 -3.335489,-2.492968 -1.518509,0 -1.890831,0.63036 -1.781291,3.015807 0.07605,1.656107 0.450502,2.320848 1.638642,2.908968 0.89787,0.444437 1.411975,0.475798 2.082309,0.127023 z m -15.224259,2.344382 c -1.739622,-0.568449 -3.369825,-1.920122 -3.25828,-2.701585 0.03804,-0.266463 0.405175,-0.553436 1.225217,-0.957685 l 1.170909,-0.577212 0.09113,0.969142 c 0.108541,1.15431 0.625956,1.809028 1.646912,2.083943 0.79088,0.212962 1.635992,-0.0612 2.225032,-0.721803 0.502091,-0.563097 0.493545,-1.961178 -0.0162,-2.6498 -0.678512,-0.916615 -1.100117,-1.004773 -2.705679,-0.565764 -2.28107,0.623713 -2.421726,0.595888 -2.898078,-0.573319 -0.465957,-1.143694 -0.53779,-2.665218 -0.159883,-3.3865665 0.371055,-0.7082683 1.356458,-1.5973664 2.126225,-1.9184263 0.770856,-0.3215144 2.615979,-0.3653776 3.62173,-0.086097 0.662077,0.1838478 2.463772,1.7019422 2.463772,2.0759552 0,0.095565 -0.607972,0.4745871 -1.351048,0.8422716 l -1.351047,0.668516 v -0.588934 c 0,-0.7119097 -0.38263,-1.2988059 -1.082828,-1.6608924 -0.710871,-0.3676057 -1.303373,-0.3377477 -1.851353,0.093294 -0.829925,0.6528183 -0.788257,1.8917474 0.09535,2.8350044 0.521662,0.55688 1.190189,0.509275 3.018975,-0.214978 1.749294,-0.69277 1.684735,-0.716236 2.449825,0.890503 1.027631,2.158091 0.144532,4.806701 -1.960756,5.880737 -0.92048,0.469595 -2.504559,0.588944 -3.499916,0.263696 z m 44.352916,-0.006 c -3.11302,-0.780744 -4.4024,-2.530833 -4.18639,-5.682299 0.0514,-0.749761 0.22356,-1.674616 0.3826,-2.055236 0.3149,-0.753687 2.83949,-3.4618227 3.3901,-3.6365789 0.21912,-0.069547 0.57877,0.072479 1.0077,0.3979437 1.11942,0.8494077 2.19815,1.8987335 2.19815,2.1382429 0,0.1248045 -0.95249,1.0961313 -2.11664,2.1585033 -1.16415,1.062371 -2.19419,2.094601 -2.28898,2.293843 -0.14026,0.294832 -0.0682,0.455292 0.38707,0.86209 0.66924,0.597969 1.96382,0.908843 3.19244,0.766613 0.81463,-0.09431 0.87492,-0.07521 0.75628,0.239524 -0.20979,0.556544 -1.58285,2.775214 -1.70719,2.758569 -0.0629,-0.0084 -0.51976,-0.116973 -1.01514,-0.241215 z m -0.71768,-6.411539 c 1.20558,-1.218287 1.20876,-1.422837 0.0321,-2.067381 -0.60102,-0.329237 -0.67918,-0.3350652 -0.94387,-0.070381 -0.15871,0.158722 -0.3627,0.603976 -0.45329,0.989455 -0.16665,0.709134 -0.0491,2.23206 0.17229,2.23206 0.0661,0 0.60288,-0.487688 1.19272,-1.083751 z m 20.62312,6.204059 c -1.19371,-0.676911 -2.44762,-1.988762 -2.89826,-3.032148 -0.47898,-1.109036 -0.64159,-2.97417 -0.35247,-4.042905 0.28157,-1.040775 1.33944,-2.0461934 3.3179,-3.1533884 1.82551,-1.0216026 2.21327,-1.0229947 3.59006,-0.012883 1.58964,1.1662665 2.46752,3.0757334 2.46752,5.3670474 0,2.192919 -0.6585,3.040984 -3.63207,4.677699 -0.66009,0.363331 -1.3086,0.659625 -1.44111,0.658432 -0.13252,-0.0012 -0.60573,-0.209027 -1.05157,-0.461854 z m 3.78653,-2.690287 c 1.44765,-0.748603 1.14652,-2.806574 -0.64088,-4.379898 -1.5269,-1.3440376 -3.25852,-1.6005832 -4.38808,-0.650112 -0.72158,0.607158 -0.84949,1.307749 -0.4172,2.285008 1.01001,2.283269 3.7087,3.64348 5.44616,2.745002 z m 26.74715,2.897776 c -3.11303,-0.780745 -4.4024,-2.530833 -4.18639,-5.6823 0.0514,-0.74976 0.22356,-1.674615 0.38259,-2.055235 0.31491,-0.753687 2.83951,-3.4618232 3.39011,-3.6365795 0.21912,-0.069547 0.57877,0.07248 1.0077,0.3979438 1.11943,0.8494073 2.19814,1.8987324 2.19814,2.1382427 0,0.1248053 -0.95247,1.096131 -2.11663,2.158502 -1.16415,1.062372 -2.1942,2.094602 -2.28898,2.293844 -0.14026,0.294833 -0.0682,0.455292 0.38707,0.86209 0.66924,0.597969 1.96383,0.908844 3.19243,0.766613 0.81464,-0.09431 0.87492,-0.07521 0.75629,0.239525 -0.20979,0.556544 -1.58285,2.775214 -1.7072,2.758568 -0.0629,-0.0084 -0.51974,-0.116972 -1.01513,-0.241214 z m -0.71768,-6.411548 c 1.20557,-1.218287 1.20875,-1.422837 0.0321,-2.067381 -0.60102,-0.329237 -0.67919,-0.3350652 -0.94387,-0.070381 -0.15872,0.158722 -0.36271,0.603976 -0.45329,0.989455 -0.16665,0.709134 -0.0491,2.23206 0.17229,2.23206 0.0661,0 0.60288,-0.487688 1.19272,-1.083751 z M 93.285769,18.15093 c -0.868874,-0.459471 -1.603615,-1.615649 -1.603615,-2.523427 0,-0.80528 0.656547,-2.019178 1.418481,-2.622639 0.368265,-0.29167 1.395443,-0.884409 2.282604,-1.317198 1.368623,-0.667656 1.621522,-0.859288 1.669043,-1.264698 0.124138,-1.0590012 -2.052678,-1.3637398 -3.708247,-0.5191287 -0.60847,0.3104177 -0.759144,0.3302977 -0.931285,0.1228757 -0.165147,-0.1989784 0.16684,-0.5155534 1.694548,-1.6159243 1.044961,-0.7526564 2.023449,-1.3684655 2.174419,-1.3684655 0.387277,0 2.435652,1.0462326 2.921275,1.4920786 0.393521,0.3612921 0.405314,0.4734674 0.405314,3.8552072 0,3.73292 -0.04815,3.515964 0.942534,4.241734 0.28175,0.206389 0.21317,0.31086 -0.706061,1.075462 l -1.018122,0.846867 -0.870158,-0.728536 c -0.481195,-0.40288 -0.870149,-0.882084 -0.870149,-1.072042 0,-0.188928 -0.04534,-0.343505 -0.100708,-0.343505 -0.05533,0 -0.736374,0.483892 -1.513299,1.075316 l -1.412591,1.075315 z m 3.360571,-2.513522 0.615681,-0.398726 0.0017,-1.486153 c 0.0017,-1.313128 -0.0356,-1.486152 -0.322776,-1.486152 -0.5241,0 -1.987054,1.023332 -2.376793,1.662567 -0.481491,0.789714 -0.453362,1.323389 0.09885,1.875599 0.525025,0.525026 0.972244,0.48733 1.982817,-0.167135 z m 8.99664,2.760945 c -1.41462,-0.332688 -2.5944,-1.486041 -2.97826,-2.911582 -0.10177,-0.377935 -0.16233,-1.721236 -0.13457,-2.985114 l 0.0505,-2.297959 1.74357,-1.1753724 c 0.95897,-0.6464544 1.9852,-1.3174911 2.28051,-1.4911922 l 0.53695,-0.3158195 1.27501,0.9463082 c 0.70126,0.5204705 1.27603,1.0316686 1.27725,1.1359964 0.002,0.2483669 -1.06747,1.7017815 -1.2533,1.7017815 -0.079,0 -0.76939,-0.382441 -1.53435,-0.849868 -1.33591,-0.8162935 -1.40079,-0.836283 -1.6423,-0.5059894 -0.28042,0.3835074 -0.30812,0.7057834 -0.2697,3.1389584 0.0295,1.868333 0.30205,2.702313 1.00634,3.07924 0.62285,0.333339 1.95215,0.130127 2.79427,-0.427163 0.97672,-0.646357 1.15156,-0.613899 1.02118,0.189564 -0.26283,1.619619 -2.56456,3.146488 -4.17305,2.768211 z m 17.90595,-0.185737 c -1.51737,-0.80199 -2.5264,-2.529832 -2.64594,-4.530881 -0.0717,-1.200219 -0.023,-1.506419 0.38038,-2.387328 0.48649,-1.062643 1.89701,-2.6959268 3.06752,-3.551959 l 0.69394,-0.5074991 0.92732,0.5894553 c 0.51002,0.3242004 1.03607,0.6550138 1.16898,0.7351398 0.19772,0.1191889 0.23048,-0.2151368 0.18014,-1.8382848 -0.0505,-1.6291812 -0.1218,-2.0504869 -0.39862,-2.3559309 -0.18539,-0.2045783 -0.29474,-0.4823221 -0.24297,-0.617208 0.0968,-0.2523334 2.4577,-1.5695679 2.81313,-1.5695679 0.14138,0 0.19882,1.9021243 0.19882,6.5840456 0,7.223193 0.0398,7.520594 1.03909,7.759359 0.27065,0.06467 0.55818,0.154957 0.63894,0.200633 0.33995,0.192263 -1.65718,1.848678 -2.22894,1.848678 -0.17419,0 -0.69873,-0.371267 -1.16562,-0.825038 l -0.8489,-0.825039 -1.1966,0.825039 c -0.65813,0.453771 -1.31712,0.821455 -1.46441,0.817075 -0.1473,-0.0044 -0.55961,-0.162189 -0.91626,-0.350689 z m 3.17858,-2.785605 c 0.40452,-0.40451 0.44218,-0.581408 0.44218,-2.077394 0,-2.528452 -0.67253,-3.6051962 -2.25176,-3.6051962 -1.95475,0 -2.84864,2.4735012 -1.65814,4.5882362 0.82836,1.471431 2.54797,2.01411 3.46772,1.094354 z m 45.41099,2.213042 c -0.59516,-0.680361 -0.77346,-1.007916 -0.66187,-1.215943 0.21859,-0.40753 1.43652,-1.635776 1.62203,-1.635776 0.22479,0 1.6279,1.630289 1.6279,1.891466 0,0.257587 -1.40162,1.891468 -1.62259,1.891468 -0.083,0 -0.51744,-0.419047 -0.96547,-0.931215 z m 7.52183,0.588089 c -0.30827,-0.187979 -0.75411,-0.613255 -0.99077,-0.94506 -0.41629,-0.583671 -0.43206,-0.727715 -0.48523,-4.431251 l -0.055,-3.8279692 h -0.8007 c -0.78346,0 -0.80068,-0.012611 -0.79974,-0.5854538 6e-4,-0.5187719 0.2102,-0.7649848 1.83807,-2.1616767 1.01043,-0.866923 1.98275,-1.5762231 2.16072,-1.5762231 0.28055,0 0.3236,0.1677413 0.3236,1.2609785 v 1.260978 h 1.26097 1.26098 v 0.9006979 0.9006992 h -1.26098 -1.26097 l 0.002,3.1074102 c 0.003,3.713231 0.0628,3.895466 1.3987,4.275985 0.51725,0.147332 0.93853,0.349988 0.93616,0.450348 -0.006,0.274735 -2.19901,1.713763 -2.60997,1.71299 -0.19693,-3.79e-4 -0.61026,-0.154475 -0.91853,-0.342453 z m 10.04352,-0.332398 c -0.18805,-0.371538 -0.70945,-1.729342 -1.15866,-3.017341 -1.62705,-4.665066 -1.90599,-5.2735435 -2.85031,-6.2178757 -1.30493,-1.3049303 -1.2278,-1.4380626 0.83317,-1.4380626 h 1.71365 l 0.46911,0.9907684 c 0.25801,0.5449217 0.52295,0.9907676 0.58877,0.9907676 0.0658,0 0.60349,-0.492526 1.19485,-1.0945025 1.01606,-1.0343081 1.11352,-1.0895851 1.77199,-1.0050582 0.94349,0.1211148 1.9017,0.9242131 2.50069,2.0958616 0.87916,1.7196924 0.55387,3.3027404 -1.15538,5.6227464 -1.51003,2.049587 -3.01217,3.74822 -3.31466,3.74822 -0.13821,0 -0.40516,-0.303987 -0.59322,-0.675524 z m 2.95366,-3.327503 c 0.90653,-1.891655 0.77985,-3.34885 -0.36979,-4.253156 -0.57655,-0.4535156 -1.81062,-0.5292086 -2.33821,-0.143419 -0.3287,0.240344 -0.32896,0.27115 -0.01,1.125873 1.32345,3.543013 1.77778,4.571633 2.01918,4.571633 0.0413,0 0.35559,-0.58542 0.6985,-1.300931 z m -47.83414,-0.472548 c 0,-4.7145579 0.002,-4.7057756 -1.12587,-4.9872551 -0.27246,-0.067994 -0.49538,-0.1893416 -0.49538,-0.2696497 0,-0.2458858 2.05147,-1.7936983 2.37926,-1.7951236 0.40176,-0.00176 1.76395,1.2972245 1.76395,1.6820953 0,0.4710763 0.29274,0.3648259 1.92341,-0.6981021 1.33924,-0.8729598 1.60505,-0.9818079 2.14857,-0.8798425 0.73787,0.138423 1.70494,0.7556235 1.96013,1.2509644 0.42983,0.8343834 0.42167,0.8355256 2.10162,-0.2940723 1.43269,-0.9633372 1.70302,-1.0819909 2.23691,-0.9818325 0.33401,0.062658 0.85575,0.3230131 1.15947,0.5785644 1.04992,0.8834576 1.07967,1.05114 1.07967,6.0871787 v 4.60251 h -1.26098 -1.26098 v -4.062337 -4.062335 l -0.6247,-0.261018 c -0.73783,-0.308282 -1.37812,-0.3281385 -2.30256,-0.071405 l -0.67554,0.187602 v 4.134747 4.134745 h -1.34767 -1.34766 l -0.0485,-4.09587 -0.0485,-4.095871 -0.52144,-0.249806 c -0.64024,-0.3067083 -1.93621,-0.2987658 -2.59306,0.01589 l -0.48829,0.233916 -0.0485,4.09587 -0.0485,4.095871 h -1.25758 -1.2576 z"
       id="path140"
       inkscape:connector-curvature="0" />
    <path
       style="fill:#131516;stroke-width:0.36725381;fill-opacity:1"
       d="m 74.555428,68.405406 c -3.073652,-0.350779 -4.40705,-0.892828 -4.40705,-1.791544 0,-0.387369 0.247905,-0.799432 0.550887,-0.915701 0.658503,-0.252693 0.724172,-1.383262 0.115763,-1.991745 -0.615085,-0.615092 -0.603564,-9.121039 0.01971,-14.585494 0.722964,-6.337933 0.720952,-9.476859 -0.0083,-13.184111 -0.497517,-2.528675 -0.903576,-3.592475 -1.79441,-4.701002 -2.518943,-3.134484 -0.840795,-3.357829 15.95328,-2.123229 8.60086,0.632286 11.67586,0.435013 14.176284,-0.90946 1.753948,-0.943095 2.406738,-1.08654 4.957918,-1.089477 1.92038,-0.0022 3.4745,0.212912 4.48682,0.621068 1.01463,0.409092 2.68676,0.639756 4.84846,0.66883 3.81932,0.05137 5.19738,0.620554 3.84411,1.587765 -1.25987,0.900469 -2.62845,4.205631 -3.13087,7.56112 -0.26458,1.766955 -0.45733,6.238044 -0.44414,10.30278 0.0222,6.869264 0.2411,8.698529 1.30113,10.875998 0.49302,1.012742 0.0332,7.660068 -0.56353,8.146155 -0.41381,0.337084 -2.3308,0.627875 -6.4858,0.983836 -1.11095,0.09518 -8.134678,0.225861 -15.608292,0.290413 -7.47361,0.06456 -14.00155,0.209361 -14.50652,0.321799 -0.50499,0.112432 -1.99236,0.08184 -3.30529,-0.068 z m 7.71233,-1.708913 1.2854,-0.19968 -1.2854,-0.696724 c -0.98627,-0.534589 -1.70425,-0.645 -3.08528,-0.474459 -1.65356,0.20419 -1.77708,0.166586 -1.51916,-0.462519 0.87793,-2.141498 0.44969,-2.971217 -1.15596,-2.239639 -1.31059,0.597147 -1.7848,-0.111571 -0.86069,-1.286368 1.29446,-1.645661 0.81918,-2.701808 -1.1484,-2.551884 -1.39581,0.106352 -1.60794,-0.500943 -0.50879,-1.456636 0.51325,-0.446279 0.93321,-1.184302 0.93321,-1.640053 0,-0.66643 -0.23365,-0.851164 -1.19358,-0.943719 L 72.535539,54.629729 72.63992,52.24258 c 0.05746,-1.312933 0.284928,-2.948841 0.505568,-3.635352 0.22066,-0.686511 0.42158,-2.62808 0.44649,-4.314599 0.0258,-1.746075 0.20343,-3.079498 0.41256,-3.096824 0.20199,-0.01674 1.00936,-0.05834 1.79416,-0.09244 1.88353,-0.08187 2.30879,-0.780356 1.56251,-2.566445 -0.39755,-0.951477 -0.92378,-1.502026 -1.69145,-1.769635 -1.30616,-0.455334 -1.40737,-1.004239 -0.3518,-1.908043 0.93911,-0.804101 0.50876,-1.479734 -1.32884,-2.086197 -1.13207,-0.373616 -1.22232,-0.508659 -1.01905,-1.524974 0.24527,-1.226337 -0.239231,-1.760042 -1.606456,-1.769598 -1.175217,-0.0082 -1.282458,0.451818 -0.488412,2.095288 1.72759,3.575692 2.188118,10.86047 1.109299,17.547168 -0.228126,1.413927 -0.445355,5.111847 -0.482749,8.2176 -0.06607,5.484832 -0.04428,5.662586 0.758331,6.196298 0.454474,0.30221 0.826317,0.751595 0.826317,0.998637 0,0.678442 1.1645,1.594391 2.77876,2.185647 1.36771,0.50096 3.07098,0.494946 6.40258,-0.02261 z m 20.131992,-0.31464 c 1.24988,-1.051716 2.09444,-1.172147 2.41223,-0.343978 0.30941,0.806291 0.96003,0.292731 0.96003,-0.757784 0,-1.437576 0.76199,-1.49703 1.89461,-0.147827 1.01613,1.210465 1.06613,1.227266 1.59707,0.536701 0.30146,-0.392087 0.5481,-0.846564 0.5481,-1.009948 0,-0.509602 1.35605,-0.32481 1.83292,0.249776 0.24961,0.300759 0.60037,0.456273 0.77948,0.345579 0.56667,-0.350221 0.35299,-1.488325 -0.40888,-2.177804 -0.97234,-0.87997 -0.92631,-1.223253 0.20201,-1.506442 1.29994,-0.326267 1.04429,-1.456378 -0.30821,-1.362448 -1.11571,0.07748 -1.22696,-0.35331 -0.44467,-1.721783 0.5593,-0.978397 0.72047,-3.57188 0.26634,-4.285787 -0.71218,-1.119556 -1.28153,-0.568366 -2.27155,2.19908 -0.85344,2.385686 -0.97137,3.119388 -0.6974,4.338757 0.42685,1.899766 0.19695,2.203451 -1.46665,1.937431 -1.20052,-0.191971 -1.57085,-0.0518 -2.98535,1.129993 -0.88816,0.742032 -2.40989,1.752031 -3.38162,2.244442 -0.971718,0.492414 -1.766768,0.975143 -1.766768,1.072738 0,0.569522 2.308788,0.04143 3.238308,-0.740696 z m -4.334282,-0.3693 c 1.562664,-0.551336 5.315412,-2.930708 6.895412,-4.371914 0.46283,-0.422177 1.16519,-1.387336 1.56083,-2.144797 0.39562,-0.75746 1.09032,-2.079574 1.54375,-2.938029 0.71768,-1.358695 0.82023,-2.084003 0.79183,-5.600622 -0.0249,-3.069058 -0.21557,-4.569283 -0.79394,-6.243315 -1.92906,-5.583421 -2.19994,-8.358409 -1.33946,-13.72197 0.2349,-1.464142 0.19671,-1.583428 -0.4419,-1.380738 -2.1862,0.693871 -8.890062,1.283459 -13.180242,1.159168 -7.68827,-0.222738 -13.84678,-0.597833 -15.4147,-0.938856 -0.80248,-0.17454 -1.53289,-0.243523 -1.62311,-0.153296 -0.0902,0.09022 0.18322,0.948573 0.60767,1.907436 1.21959,2.755137 2.65812,6.839412 2.65812,7.546952 0,0.987012 0.94031,1.137118 2.66333,0.425164 0.85805,-0.354543 2.22115,-0.764186 3.02911,-0.910315 0.80795,-0.146131 2.70849,-0.532076 4.22342,-0.857656 4.17345,-0.896941 10.792442,-1.690447 11.156422,-1.337467 0.17733,0.171985 0.32795,3.671207 0.33471,7.77605 0.01,5.764714 -0.11896,7.891462 -0.5641,9.344358 -1.178688,3.846607 -2.465592,5.430729 -5.601852,6.895624 -3.83988,1.79354 -7.8043,1.496696 -10.46861,-0.783849 l -1.55242,-1.328811 0.16792,-2.964732 c 0.12534,-2.212674 0.37825,-3.314083 0.99705,-4.341933 0.45602,-0.757461 0.93675,-1.378049 1.0683,-1.379083 0.13158,-10e-4 0.87868,-0.389008 1.66032,-0.862161 l 1.42118,-0.860281 -1.78843,-1.004062 c -2.98649,-1.676688 -8.79643,-3.882184 -10.22684,-3.882184 -0.36088,0 0.20037,10.030192 0.68843,12.303003 0.72314,3.367625 1.64949,5.176464 3.59019,7.010457 3.56023,3.364479 7.09296,4.577096 12.65582,4.344143 2.04695,-0.08573 4.42375,-0.40355 5.28179,-0.706284 z m -8.87342,-0.577856 c -2.4826,-0.279186 -6.55163,-2.103042 -7.88016,-3.532122 -1.03683,-1.115313 -2.47523,-3.764383 -3.33657,-6.144917 -0.66689,-1.843086 -1.27944,-10.134107 -0.79306,-10.734155 0.2497,-0.308052 0.7168,-0.322056 1.69873,-0.05093 1.88981,0.521799 5.95755,2.481977 5.95755,2.870845 0,0.177094 -0.57208,0.758334 -1.27128,1.291645 -0.84055,0.641105 -1.52495,1.647608 -2.0199,2.970498 -1.18391,3.164275 -0.9819,4.52055 1.1483,7.709732 1.44371,2.161418 4.91814,3.631002 7.91919,3.349602 4.67337,-0.438208 8.00724,-2.590565 10.232002,-6.605846 l 1.06899,-1.929321 0.021,-9.470621 c 0.0157,-7.103063 -0.0927,-9.564992 -0.43389,-9.848115 -0.98772,-0.819731 -14.748242,1.221811 -19.347672,2.870464 -1.94589,0.697499 -2.25144,0.541062 -2.66328,-1.363538 -0.48549,-2.245176 -1.0697,-3.906332 -1.59008,-4.521281 -0.92958,-1.098496 -0.0705,-1.214321 5.53573,-0.746378 6.76987,0.56507 13.62569,0.598619 18.304892,0.08957 2.04138,-0.22208 3.80345,-0.311947 3.91569,-0.199702 0.11229,0.112237 -0.0833,1.265942 -0.43465,2.563776 -0.75444,2.787058 -0.61959,4.318267 0.68019,7.724114 1.49515,3.917786 2.15578,8.064233 1.7459,10.958387 -0.46969,3.316651 -1.48679,5.430198 -3.78004,7.854966 -2.32113,2.454257 -4.069868,3.533895 -7.380082,4.556318 -2.44288,0.754524 -3.25226,0.791903 -7.29746,0.337 z m 2.20202,-6.214294 c 0.42867,-1.229678 1.03675,-1.406316 1.70329,-0.494773 0.66737,0.912684 1.37733,0.260423 1.09847,-1.009206 -0.19378,-0.882267 -0.11493,-1.066798 0.45593,-1.066798 0.37963,0 0.89968,0.20658 1.15566,0.459067 0.6312,0.622571 1.62843,-0.698853 1.35404,-1.794247 -0.11035,-0.440672 0.0265,-0.969349 0.31246,-1.206659 0.92933,-0.771272 1.02292,-2.752534 0.23014,-4.871455 -0.84471,-2.257669 -3.60747,-6.234525 -4.93588,-7.104932 -0.96592,-0.632894 -2.83158,-0.76475 -5.39042,-0.380969 l -1.62108,0.243134 0.867,-0.751555 c 1.35612,-1.175536 4.98231,-1.167597 6.89681,0.0151 0.63428,0.391835 1.8378,1.619116 2.67449,2.727291 1.4022,1.857202 2.3007,2.430767 2.724844,1.739426 0.093,-0.151493 0.2684,-0.903625 0.38991,-1.671404 0.20591,-1.301117 0.146,-1.422083 -0.881824,-1.780383 -1.27927,-0.445956 -1.40953,-1.046048 -0.36823,-1.696351 0.40398,-0.252288 0.734504,-0.754783 0.734504,-1.116652 0,-1.608204 -2.048154,-2.069618 -3.286514,-0.740395 -0.66084,0.709347 -0.84534,0.744903 -1.64486,0.317012 -1.2898,-0.690281 -3.57123,-0.35821 -10.78149,1.569289 -1.73042,0.462587 -3.09858,1.95198 -2.26585,2.466632 0.25381,0.156858 1.11834,0.05344 1.92118,-0.229825 1.95409,-0.689444 2.03515,-0.67095 2.16931,0.494927 0.14102,1.225612 1.23246,1.488166 3.32098,0.79889 1.84676,-0.609486 2.42683,-0.09394 1.38483,1.230769 l -0.75665,0.96192 0.83793,0.465186 c 1.05932,0.588099 1.40858,0.620022 2.25455,0.206067 0.95126,-0.46547 1.61997,0.237111 0.97052,1.019653 -0.34602,0.41694 -0.37047,0.694566 -0.0862,0.978856 0.28429,0.284291 0.73293,0.157535 1.58179,-0.446913 l 1.18496,-0.843759 0.71337,0.880986 c 0.5583,0.68947 0.66213,1.201486 0.47763,2.355307 -0.38731,2.422046 -1.90777,3.647753 -6.179,4.981099 -2.40134,0.74963 -5.58247,2.628424 -5.16211,3.048781 0.45787,0.457877 1.88045,0.251311 2.09355,-0.303995 0.33619,-0.876128 1.10009,-0.638479 1.77819,0.553203 0.79773,1.401924 1.58454,1.401042 2.07376,-0.0024 z m -4.68272,-2.564021 c 0.88886,-0.602254 2.69031,-1.450572 4.00325,-1.885154 2.39563,-0.792956 3.32191,-1.290431 3.23524,-1.737552 -0.0257,-0.132114 0.0842,-0.540537 0.24413,-0.907596 0.4851,-1.113678 -0.31581,-1.518826 -1.66847,-0.844027 -1.54152,0.769016 -1.8109,0.748008 -1.8109,-0.141234 0,-0.462468 -0.24484,-0.734508 -0.66106,-0.734508 -0.84611,0 -1.54246,0.69636 -1.54246,1.542466 0,0.846012 -0.95277,0.85823 -1.43193,0.01836 -0.33628,-0.589435 -0.45192,-0.596027 -1.39545,-0.07953 -1.16542,0.637947 -1.57438,2.075405 -0.6873,2.41581 0.76058,0.291859 0.72734,0.735809 -0.14702,1.963725 -0.65869,0.925064 -0.66054,1.484254 -0.006,1.484254 0.13797,0 0.97803,-0.492754 1.86688,-1.095006 z m 24.735732,-5.786364 c 0.13464,-0.350931 0.56637,-4.104535 0.95936,-8.341343 0.64319,-6.934196 0.82241,-7.93382 1.79505,-10.012306 1.00578,-2.149301 1.03164,-2.309019 0.37377,-2.309019 -0.3887,0 -0.97745,0.41316 -1.30833,0.918134 -0.72097,1.10035 -1.40141,1.169115 -2.07353,0.209547 -0.27298,-0.389725 -0.92293,-0.815662 -1.44434,-0.946528 -0.87928,-0.220686 -0.93405,-0.162647 -0.75531,0.800401 0.10604,0.571088 0.49643,1.429611 0.86764,1.907829 0.76046,0.979715 0.60961,1.517663 -0.42559,1.517663 -0.38496,0 -0.89192,0.358762 -1.1266,0.797248 -0.35357,0.660667 -0.31231,0.880872 0.2409,1.285388 0.36716,0.268478 0.88388,0.488141 1.14826,0.488141 0.8201,0 0.52846,0.734526 -0.43744,1.101761 -1.58269,0.601738 -1.1348,2.876058 0.55087,2.7973 1.0049,-0.04694 1.04246,0.190282 0.45844,2.895135 -0.17445,0.807958 -0.20017,1.882175 -0.0572,2.387149 0.14301,0.504974 0.2765,1.868404 0.29662,3.029845 0.0359,2.074293 0.45443,2.73218 0.93738,1.473655 z m -8.06222,-21.92631 c 1.3808,-0.373516 1.67287,-0.562953 1.17752,-0.763749 -0.89386,-0.362338 -3.0072,0.01624 -4.00944,0.718231 l -0.820428,0.574652 0.908028,-0.01621 c 0.49943,-0.0089 1.73436,-0.239731 2.74432,-0.512928 z"
       id="path201"
       inkscape:connector-curvature="0" />
    <path
       style="fill:#131516;stroke-width:0.34850413;fill-opacity:1"
       d="m 159.19623,63.476961 -1.65539,-1.484382 v -6.578366 -6.578366 l -1.56686,-1.459127 -1.56686,-1.459127 1.72618,-1.61464 c 0.9494,-0.888052 1.9002,-1.61464 2.11288,-1.61464 0.21269,0 1.23878,0.735632 2.28021,1.634737 l 1.89351,1.634737 v 6.477565 c 0,7.168885 0.0484,7.353578 2.29053,8.739285 0.68504,0.423381 1.11643,0.89631 0.95864,1.050953 -0.40948,0.401317 -4.38933,2.770081 -4.62269,2.751369 -0.10711,-0.0086 -0.93968,-0.683589 -1.85015,-1.499998 z m 16.83112,1.134922 c -5.41599,-1.06167 -8.37989,-4.624502 -8.37989,-10.073258 0,-4.116617 0.70834,-5.679356 4.16997,-9.199809 2.58327,-2.627165 3.17526,-3.067271 3.88246,-2.886375 0.96193,0.246056 5.53567,4.271305 5.54642,4.88129 0.004,0.22434 -1.99087,2.303913 -4.43294,4.621272 l -4.44013,4.21338 0.6265,0.956165 c 0.94244,1.438338 2.69113,2.015816 5.76946,1.905271 1.79969,-0.06463 2.61927,0.02886 2.56619,0.29271 -0.13121,0.652198 -3.26929,5.672598 -3.52028,5.631863 -0.12941,-0.021 -0.9339,-0.17513 -1.78776,-0.342509 z m -1.40363,-12.694466 c 2.13914,-2.166039 2.12825,-2.51153 -0.11913,-3.781474 l -1.31455,-0.742824 -0.68026,0.822742 c -0.52924,0.640085 -0.68027,1.355774 -0.68027,3.223664 0,1.722462 0.12647,2.40092 0.44754,2.40092 0.24614,0 1.30214,-0.865363 2.34667,-1.923028 z m -52.1122,11.545421 c -0.95583,-0.649678 -2.20835,-1.679121 -2.78338,-2.287651 l -1.04551,-1.106417 -0.17426,-6.223302 c -0.16191,-5.78248 -0.23043,-6.299162 -0.96737,-7.294252 l -0.79312,-1.07095 1.44739,-1.570229 c 0.79606,-0.863625 1.73524,-1.570228 2.08707,-1.570228 0.35183,0 1.27282,0.658899 2.04664,1.464221 l 1.40696,1.464221 v 5.663715 c 0,6.121521 0.19102,6.989862 1.73886,7.904191 1.30056,0.768259 2.52165,0.732281 4.19959,-0.123738 l 1.38013,-0.704091 v -7.284476 -7.284476 l 1.13264,-0.365324 c 0.62295,-0.200928 1.79915,-0.468375 2.61378,-0.594325 l 1.48115,-0.229001 v 8.522143 8.522143 l 0.87126,0.818507 c 0.47919,0.450178 0.87126,1.011806 0.87126,1.248061 0,0.236255 -0.78064,1.083143 -1.73476,1.881973 -1.26598,1.05994 -1.92526,1.391953 -2.43976,1.228658 -0.70347,-0.223272 -2.44228,-2.225081 -2.4524,-2.823319 -0.003,-0.173585 -0.13784,-0.52463 -0.29978,-0.7801 -0.2246,-0.354299 -0.99753,0.03842 -3.25811,1.655394 -1.63002,1.165937 -3.10468,2.119886 -3.27704,2.119886 -0.17235,0 -1.09541,-0.531555 -2.05124,-1.181234 z m 23.2554,-0.659371 -1.81774,-1.840606 V 49.608943 38.255025 l -0.85332,-1.25744 -0.85333,-1.257439 0.94045,-0.663825 c 1.19072,-0.84048 5.16014,-2.843132 5.63532,-2.843132 0.2393,0 0.35844,4.404387 0.35844,13.250944 v 13.250943 l 1.39402,1.512329 c 0.76671,0.831781 1.39401,1.597162 1.39401,1.700846 0,0.252813 -3.69625,2.695821 -4.07876,2.695821 -0.16574,0 -1.11933,-0.828272 -2.11909,-1.840605 z M 187.8607,55.92694 v -8.368628 l -1.56827,-0.761924 c -0.86254,-0.419058 -1.56827,-0.864366 -1.56827,-0.989573 0,-0.125207 0.94815,-0.972554 2.10699,-1.882995 1.95897,-1.539053 2.17645,-1.626577 3.0956,-1.245852 1.01555,0.420654 2.46893,1.800695 3.04472,2.89108 0.29061,0.550335 0.61723,0.412048 3.0868,-1.30689 3.15827,-2.198317 4.07663,-2.352192 6.29153,-1.054172 2.86261,1.677597 2.93611,1.981881 2.93611,12.154737 v 8.932845 h -2.61378 -2.61378 v -7.641796 -7.641796 l -0.95839,-0.758915 c -0.79599,-0.630318 -1.26335,-0.727974 -2.75813,-0.576318 -3.43843,0.348856 -3.25357,-0.15057 -3.25357,8.789744 v 7.829081 h -2.61378 -2.61378 z M 156.64658,37.318959 c -0.33745,-1.344527 0.35051,-2.118212 3.08486,-3.469285 3.77576,-1.865633 4.06538,-1.740693 3.52365,1.520053 -0.19438,1.169992 -0.30685,1.25176 -2.75645,2.003898 -3.20893,0.98529 -3.59241,0.979847 -3.85206,-0.05467 z"
       id="path214"
       inkscape:connector-curvature="0" />
  </g>
</svg>
