<?xml version="1.0" encoding="UTF-8" standalone="no"?>
<svg
   xmlns:dc="http://purl.org/dc/elements/1.1/"
   xmlns:cc="http://creativecommons.org/ns#"
   xmlns:rdf="http://www.w3.org/1999/02/22-rdf-syntax-ns#"
   xmlns:svg="http://www.w3.org/2000/svg"
   xmlns="http://www.w3.org/2000/svg"
   xmlns:sodipodi="http://sodipodi.sourceforge.net/DTD/sodipodi-0.dtd"
   xmlns:inkscape="http://www.inkscape.org/namespaces/inkscape"
   width="518.42877"
   height="250.09856"
   viewBox="0 0 137.17599 66.200001"
   version="1.1"
   id="svg76"
   sodipodi:docname="spacedome_opt.svg"
   inkscape:version="0.92.2 2405546, 2018-03-11">
  <metadata
     id="metadata82">
    <rdf:RDF>
      <cc:Work
         rdf:about="">
        <dc:format>image/svg+xml</dc:format>
        <dc:type
           rdf:resource="http://purl.org/dc/dcmitype/StillImage" />
      </cc:Work>
    </rdf:RDF>
  </metadata>
  <defs
     id="defs80" />
  <sodipodi:namedview
     pagecolor="#ffffff"
     bordercolor="#666666"
     borderopacity="1"
     objecttolerance="10"
     gridtolerance="10"
     guidetolerance="10"
     inkscape:pageopacity="0"
     inkscape:pageshadow="2"
     inkscape:window-width="1600"
     inkscape:window-height="841"
     id="namedview78"
     showgrid="false"
     inkscape:zoom="1.6217777"
     inkscape:cx="354.38081"
     inkscape:cy="147.66764"
     inkscape:window-x="0"
     inkscape:window-y="0"
     inkscape:window-maximized="1"
     inkscape:current-layer="svg76" />
  <path
     id="path74"
     d="m 88.588631,35.1 c -0.4,-1.3 0.3,-2 3,-3.4 3.8,-1.9 4.1,-1.8 3.6,1.5 -0.2,1.2 -0.3,1.2 -2.8,2 -3.2,1 -3.6,1 -3.8,0 z m 31.099999,18.7 v -8.4 l -1.5,-0.8 c -0.9,-0.4 -1.6,-0.8 -1.6,-1 l 2.1,-1.9 c 2,-1.5 2.2,-1.6 3.1,-1.2 1,0.4 2.5,1.8 3,2.9 0.4,0.5 0.7,0.4 3.2,-1.3 3.1,-2.2 4,-2.4 6.3,-1 2.8,1.6 2.9,2 2.9,12 v 9 h -5.2 V 46.8 l -1,-0.7 c -0.8,-0.7 -1.3,-0.8 -2.8,-0.6 -3.4,0.3 -3.2,-0.2 -3.2,8.8 v 7.8 h -5.2 z m -41.999999,6.8 -1.8,-1.8 V 36.1 l -0.9,-1.3 -0.8,-1.2 0.9,-0.7 c 1.2,-0.8 5.2,-2.8 5.6,-2.8 0.3,0 0.4,4.4 0.4,13.2 v 13.3 l 1.4,1.5 1.4,1.7 a 19,19 0 0 1 -4.1,2.7 c -0.2,0 -1.1,-0.9 -2.1,-1.9 z m -23.2,0.7 -2.9,-2.3 -1,-1.1 -0.2,-6.2 c -0.1,-5.8 -0.2,-6.3 -1,-7.3 l -0.7,-1.1 1.4,-1.6 c 0.8,-0.8 1.7,-1.5 2,-1.5 0.4,0 1.4,0.6 2.1,1.4 l 1.4,1.5 v 5.7 c 0,6 0.2,7 1.8,7.9 1.3,0.7 2.5,0.7 4.2,-0.2 l 1.4,-0.7 V 41.3 l 1,-0.4 2.7,-0.6 1.5,-0.2 v 17 l 0.9,0.8 c 0.4,0.5 0.8,1 0.8,1.3 0,0.2 -0.7,1 -1.7,1.9 -1.3,1 -2,1.4 -2.4,1.2 -0.7,-0.2 -2.5,-2.2 -2.5,-2.8 a 2,2 0 0 0 -0.3,-0.8 c -0.2,-0.4 -1,0 -3.3,1.6 a 23.7,23.7 0 0 1 -3.2,2.2 c -0.2,0 -1.1,-0.6 -2,-1.2 z M 106.48863,49.7 c 2.2,-2.1 2.2,-2.5 0,-3.7 l -1.4,-0.8 -0.7,0.8 c -0.5,0.7 -0.7,1.4 -0.7,3.3 0,1.7 0.2,2.4 0.5,2.4 a 9,9 0 0 0 2.3,-2 z m 1.4,12.7 c -5.4,-1 -8.299999,-4.6 -8.299999,-10 0,-4.2 0.699999,-5.7 4.099999,-9.2 2.6,-2.7 3.2,-3.1 4,-3 0.9,0.3 5.4,4.3 5.5,5 0,0.2 -2,2.3 -4.5,4.6 l -4.4,4.2 0.6,1 c 1,1.4 2.7,2 5.8,1.9 1.8,-0.1 2.6,0 2.5,0.2 0,0.7 -3.2,5.7 -3.5,5.7 z m -16.799999,-1.1 -1.7,-1.5 V 46.7 l -1.5,-1.5 -1.6,-1.5 1.7,-1.6 c 1,-0.9 2,-1.6 2.2,-1.6 0.2,0 1.2,0.7 2.2,1.6 l 2,1.7 v 6.5 c 0,7.1 0,7.3 2.2,8.7 0.7,0.4 1.1,0.9 1,1 -0.4,0.5 -4.4,2.8 -4.6,2.8 -0.2,0 -1,-0.7 -1.9,-1.5 z m -55.8,-34.6 c 1.4,-0.3 1.7,-0.5 1.2,-0.7 -1,-0.4 -3,0 -4,0.7 l -0.9,0.6 h 1 l 2.7,-0.5 z m 8.1,22 1,-8.3 c 0.6,-7 0.7,-8 1.7,-10 1,-2.2 1,-2.4 0.4,-2.4 -0.4,0 -1,0.4 -1.3,1 -0.7,1 -1.4,1.1 -2.1,0.2 -0.3,-0.4 -1,-0.9 -1.4,-1 -1,-0.2 -1,-0.2 -0.8,0.8 0.1,0.6 0.5,1.4 0.9,2 0.7,0.9 0.6,1.4 -0.5,1.4 -0.3,0 -0.8,0.4 -1,0.8 -0.4,0.7 -0.4,1 0.2,1.3 0.3,0.3 0.8,0.5 1.1,0.5 0.8,0 0.5,0.7 -0.4,1.1 -1.6,0.6 -1.2,2.9 0.5,2.8 1,0 1,0.2 0.5,2.9 -0.2,0.8 -0.2,1.9 0,2.4 l 0.2,3 c 0,2 0.5,2.8 1,1.5 z m -24.8,5.8 c 1,-0.6 2.7,-1.5 4,-2 2.4,-0.7 3.3,-1.2 3.3,-1.6 0,-0.2 0,-0.6 0.2,-1 0.5,-1 -0.3,-1.5 -1.7,-0.8 -1.5,0.8 -1.8,0.8 -1.8,-0.1 0,-0.5 -0.2,-0.8 -0.6,-0.8 -0.9,0 -1.6,0.7 -1.6,1.6 0,0.8 -1,0.8 -1.4,0 -0.3,-0.6 -0.5,-0.6 -1.4,0 -1.2,0.5 -1.6,2 -0.7,2.3 0.8,0.3 0.7,0.8 -0.1,2 -0.7,1 -0.7,1.5 0,1.5 z m 4.7,2.5 c 0.4,-1.2 1,-1.4 1.7,-0.5 0.7,1 1.4,0.3 1.1,-1 -0.2,-0.8 -0.1,-1 0.5,-1 0.3,0 0.9,0.2 1.1,0.4 0.6,0.7 1.6,-0.7 1.4,-1.8 -0.1,-0.4 0,-1 0.3,-1.2 1,-0.7 1,-2.7 0.2,-4.8 a 21,21 0 0 0 -5,-7.1 c -0.9,-0.7 -2.8,-0.8 -5.3,-0.4 l -1.6,0.2 0.8,-0.7 c 1.4,-1.2 5,-1.2 7,0 0.6,0.4 1.8,1.6 2.6,2.7 1.4,1.9 2.3,2.4 2.7,1.7 l 0.4,-1.6 c 0.2,-1.3 0.2,-1.4 -0.9,-1.8 -1.2,-0.5 -1.4,-1 -0.3,-1.7 0.4,-0.3 0.7,-0.8 0.7,-1.1 0,-1.6 -2,-2 -3.3,-0.8 -0.6,0.8 -0.8,0.8 -1.6,0.4 -1.3,-0.7 -3.6,-0.4 -10.8,1.5 -1.7,0.5 -3.1,2 -2.3,2.5 0.3,0.2 1.1,0 2,-0.2 1.9,-0.7 2,-0.7 2.1,0.5 0.2,1.2 1.2,1.4 3.3,0.8 1.9,-0.7 2.5,-0.1 1.4,1.2 l -0.7,1 0.8,0.4 c 1,0.6 1.4,0.6 2.3,0.2 1,-0.4 1.6,0.3 1,1 -0.4,0.5 -0.4,0.7 -0.2,1 0.3,0.3 0.8,0.2 1.6,-0.4 l 1.2,-0.9 0.7,1 c 0.6,0.6 0.7,1.1 0.5,2.3 -0.4,2.4 -2,3.6 -6.2,5 -2.4,0.7 -5.6,2.6 -5.1,3 0.4,0.5 1.8,0.2 2,-0.3 0.4,-0.9 1.1,-0.6 1.8,0.5 0.8,1.4 1.6,1.4 2.1,0 z m -2.2,6.3 c -2.5,-0.3 -6.6,-2.1 -7.9,-3.6 -1,-1 -2.5,-3.7 -3.3000005,-6.1 A 36.4,36.4 0 0 1 9.0886306,42.8 c 0.2,-0.3 0.6999999,-0.3 1.7000004,0 1.9,0.5 6,2.5 6,2.9 l -1.4,1.3 c -0.9,0.6 -1.6,1.6 -2,3 -1.2,3 -1,4.4 1.1,7.6 1.4,2.2 5,3.7 8,3.4 4.6,-0.4 8,-2.6 10.2,-6.6 l 1,-2 V 43 c 0,-7.1 0,-9.6 -0.4,-9.9 -1,-0.8 -14.7,1.3 -19.3,2.9 -2,0.7 -2.3,0.5 -2.7,-1.4 -0.5,-2.2 -1,-3.9 -1.6000005,-4.5 -0.9999999,-1 0,-1.2 5.5000005,-0.7 a 104.4,104.4 0 0 0 22.3,-0.1 c 0,0 -0.1,1.2 -0.5,2.5 -0.7,2.8 -0.6,4.3 0.7,7.8 1.5,3.9 2.2,8 1.8,11 -0.5,3.2 -1.5,5.3 -3.8,7.8 -2.3,2.4 -4,3.5 -7.4,4.5 -2.4,0.8 -3.3,0.8 -7.3,0.4 z m 8.9,0.5 a 30,30 0 0 0 6.9,-4.3 c 0.4,-0.5 1.1,-1.4 1.5,-2.2 l 1.6,-3 c 0.7,-1.3 0.8,-2 0.8,-5.5 0,-3 -0.3,-4.6 -0.8,-6.3 -2,-5.5 -2.2,-8.3 -1.4,-13.7 0.3,-1.4 0.2,-1.6 -0.4,-1.4 -2.2,0.7 -8.9,1.3 -13.2,1.2 A 148,148 0 0 1 7.9886306,27.5 l 0.6,2 c 1.1999999,2.7 2.6000004,6.7 2.6000004,7.5 0,1 1,1 2.7,0.4 a 18,18 0 0 1 3,-1 c 0.8,0 2.7,-0.5 4.3,-0.8 a 50,50 0 0 1 11.1,-1.3 c 0.2,0.1 0.3,3.6 0.3,7.8 0,5.7 0,7.8 -0.5,9.3 -1.2,3.8 -2.5,5.4 -5.6,6.9 -3.9,1.8 -7.8,1.5 -10.5,-0.8 l -1.5,-1.3 0.1,-3 c 0.2,-2.2 0.4,-3.3 1,-4.3 l 1,-1.4 1.8,-1 1.4,-0.8 -1.8,-1 c -3,-1.7 -8.8000004,-4 -10.2000004,-4 -0.4,0 0.2,10.1 0.6,12.4 0.8,3.4 1.7000004,5.2 3.6000004,7 3.6,3.4 7.1,4.6 12.7,4.3 2,0 4.4,-0.4 5.3,-0.7 z m 4.3,0.4 c 1.3,-1 2.1,-1.2 2.4,-0.3 0.3,0.8 1,0.3 1,-0.8 0,-1.4 0.7,-1.5 1.9,-0.1 1,1.2 1,1.2 1.6,0.5 l 0.5,-1 c 0,-0.5 1.4,-0.3 1.9,0.2 0.2,0.3 0.6,0.5 0.7,0.4 0.6,-0.4 0.4,-1.5 -0.4,-2.2 -1,-0.9 -0.9,-1.2 0.2,-1.5 1.3,-0.3 1,-1.5 -0.3,-1.4 -1.1,0.1 -1.2,-0.3 -0.4,-1.7 0.5,-1 0.7,-3.6 0.2,-4.3 -0.7,-1.1 -1.2,-0.5 -2.2,2.2 -0.9,2.4 -1,3.1 -0.7,4.4 0.4,1.9 0.2,2.2 -1.5,1.9 -1.2,-0.2 -1.6,0 -3,1.1 -0.9,0.8 -2.4,1.8 -3.4,2.3 l -1.7,1 c 0,0.6 2.3,0 3.2,-0.7 z m -20.1,0.3 1.3,-0.2 -1.3,-0.7 c -1,-0.5 -1.7,-0.6 -3.1,-0.5 -1.7000004,0.3 -1.8000004,0.2 -1.5000004,-0.4 0.8000004,-2.2 0.3999999,-3 -1.2,-2.3 -1.3,0.6 -1.8,0 -0.8,-1.2 1.2,-1.7 0.8,-2.7 -1.2,-2.7 -1.4,0.1 -1.6,-0.5 -0.5,-1.4 0.5,-0.5 1,-1.2 1,-1.7 0,-0.7 -0.3,-0.8 -1.3,-1 h -1.2 l 0.1,-2.4 c 0.1,-1.3 0.3,-3 0.6,-3.7 0.2,-0.7 0.4,-2.6 0.4,-4.3 0,-1.7 0.2,-3 0.4,-3 l 1.8,-0.2 c 1.9,0 2.2999999,-0.8 1.6,-2.5 -0.4,-1 -1,-1.5 -1.7,-1.8 -1.3,-0.5 -1.4,-1 -0.4,-2 1,-0.7 0.5,-1.4 -1.3,-2 -1.1,-0.4 -1.2,-0.5 -1,-1.5 0.2,-1.3 -0.3,-1.8 -1.6,-1.8 -1.2,0 -1.3,0.5 -0.5,2.1 a 34.4,34.4 0 0 1 1,17.5 c -0.1,1.5 -0.4,5.2 -0.4,8.3 0,5.4 0,5.6 0.8,6.2 0.4,0.3 0.8,0.7 0.8,1 0,0.6 1.2,1.6 2.8,2.1 1.3,0.5 3.0000004,0.5 6.4000004,0 z m -7.8000004,1.7 c -3,-0.3 -4.3,-0.9 -4.3,-1.8 0,-0.3 0.2,-0.8 0.5,-0.9 0.7,-0.2 0.7,-1.4 0.1,-2 -0.6,-0.6 -0.6,-9 0,-14.6 0.8,-6.3 0.8,-9.4 0,-13.1 -0.5,-2.6 -0.9,-3.6 -1.79999999,-4.7 -2.50000001,-3.2 -0.80000003,-3.4 16.00000039,-2.2 8.6,0.7 11.7,0.5 14.2,-0.9 1.7,-1 2.4,-1 5,-1 1.8,0 3.4,0.2 4.4,0.6 1,0.4 2.7,0.6 4.9,0.6 3.8,0 5.2,0.6 3.8,1.6 -1.3,1 -2.6,4.2 -3.1,7.6 -0.3,1.7 -0.5,6.2 -0.5,10.3 0,6.8 0.3,8.7 1.3,10.9 0.5,1 0,7.6 -0.5,8.1 -0.4,0.3 -2.4,0.6 -6.5,1 l -15.6,0.3 A 301.8,301.8 0 0 0 6.4886306,66.2 Z M 76.688631,11.9 c 0,-4.7 0,-4.7 -1,-5 -0.4,0 -0.6,-0.2 -0.6,-0.2 0,-0.3 2,-1.8 2.4,-1.8 0.4,0 1.8,1.3 1.8,1.6 0,0.5 0.2,0.4 1.9,-0.6 1.3,-1 1.6,-1 2.1,-1 0.8,0.2 1.7,0.8 2,1.3 0.4,0.9 0.4,0.9 2,-0.3 1.5,-1 1.8,-1 2.3,-1 l 1.2,0.6 c 1,1 1,1 1,6.1 v 4.6 h -2.4 V 8.1 l -0.6,-0.3 c -0.7,-0.3 -1.4,-0.3 -2.3,0 l -0.7,0.1 v 8.3 h -2.7 V 8 l -0.6,-0.2 c -0.6,-0.3 -2,-0.3 -2.6,0 l -0.5,0.2 v 8.2 h -2.6 z m 47.899999,0.5 c 0.9,-1.9 0.7,-3.4 -0.4,-4.3 -0.6,-0.4 -1.8,-0.5 -2.3,-0.1 -0.4,0.2 -0.4,0.3 0,1.1 1.3,3.6 1.7,4.6 2,4.6 z m -3,3.3 -1.1,-3 c -1.7,-4.7 -2,-5.3 -2.9,-6.2 -1.3,-1.3 -1.2,-1.5 0.8,-1.5 h 1.7 l 0.5,1 0.6,1 1.2,-1 c 1,-1.1 1.1,-1.2 1.8,-1 1,0 1.9,0.9 2.5,2 0.9,1.7 0.5,3.3 -1.2,5.6 -1.5,2.1 -3,3.8 -3.3,3.8 -0.1,0 -0.4,-0.3 -0.6,-0.7 z m -10,0.4 -1,-1 c -0.4,-0.6 -0.5,-0.7 -0.5,-4.4 V 6.8 h -0.9 c -0.7,0 -0.8,0 -0.8,-0.5 0,-0.6 0.2,-0.8 1.9,-2.2 1,-0.9 2,-1.6 2.1,-1.6 0.3,0 0.4,0.2 0.4,1.3 V 5 h 2.5 v 1.8 h -2.5 V 10 c 0,3.7 0,3.9 1.4,4.2 l 0.9,0.5 c 0,0.3 -2.2,1.7 -2.6,1.7 l -1,-0.3 z m -7.6,-0.6 c -0.5,-0.7 -0.7,-1 -0.6,-1.3 0.2,-0.4 1.4,-1.6 1.6,-1.6 0.2,0 1.6,1.6 1.6,1.9 0,0.3 -1.4,1.9 -1.6,1.9 l -1,-1 z M 58.588631,13.3 c 0.4,-0.5 0.5,-0.6 0.5,-2.1 0,-2.6 -0.7,-3.6 -2.3,-3.6 -2,0 -2.8,2.4 -1.6,4.6 0.8,1.4 2.5,2 3.4,1 z m -3.1,2.7 a 5.4,5.4 0 0 1 -2.7,-4.5 c 0,-1.2 0,-1.5 0.4,-2.4 0.5,-1 1.9,-2.7 3,-3.5 l 0.8,-0.5 0.9,0.5 1.1,0.8 c 0.2,0.1 0.3,-0.2 0.2,-1.9 0,-1.6 0,-2 -0.4,-2.3 -0.2,-0.2 -0.3,-0.5 -0.2,-0.6 a 10,10 0 0 1 2.8,-1.6 c 0.1,0 0.2,1.9 0.2,6.6 0,7.2 0,7.5 1,7.7 l 0.7,0.2 c 0.3,0.2 -1.7,1.9 -2.3,1.9 l -1.1,-0.8 -0.9,-0.9 -1.2,0.9 -1.4,0.8 -1,-0.4 z m -17.9,0.2 a 4.1,4.1 0 0 1 -3,-2.9 l -0.2,-3 V 8 l 1.8,-1.1 2.3,-1.5 0.5,-0.4 1.3,1 1.3,1.1 a 5,5 0 0 1 -1.3,1.7 l -1.5,-0.8 c -1.3,-0.8 -1.4,-0.9 -1.6,-0.5 -0.3,0.4 -0.3,0.7 -0.3,3.1 0,1.9 0.3,2.7 1,3 0.6,0.4 2,0.2 2.8,-0.3 1,-0.7 1.2,-0.6 1,0.2 -0.2,1.6 -2.5,3.1 -4.1,2.7 z m -9,-2.7 0.6,-0.4 v -1.6 c 0,-1.3 0,-1.5 -0.4,-1.5 -0.5,0 -2,1 -2.3,1.7 -0.5,0.7 -0.5,1.3 0,1.8 0.6,0.6 1,0.5 2,-0.1 z m -3.4,2.4 a 3.2,3.2 0 0 1 -1.6,-2.4 c 0,-0.9 0.6,-2 1.4,-2.7 l 2.4,-1.3 c 1.4,-0.7 1.6,-0.8 1.7,-1.3 0,-1 -2,-1.3 -3.7,-0.5 -0.7,0.3 -0.8,0.4 -1,0.2 -0.1,-0.2 0.2,-0.6 1.7,-1.7 1,-0.7 2,-1.3 2.2,-1.3 0.4,0 2.4,1 3,1.5 0.3,0.3 0.3,0.4 0.3,3.8 0,3.7 0,3.5 1,4.3 0.2,0.2 0.2,0.3 -0.7,1 l -1,0.9 -1,-0.8 c -0.4,-0.4 -0.8,-0.8 -0.8,-1 l -0.1,-0.4 -1.5,1.1 -1.4,1 z m 72.5,-6 c 1.2,-1.2 1.2,-1.4 0,-2 -0.5,-0.4 -0.6,-0.4 -0.9,-0.1 -0.2,0.1 -0.4,0.6 -0.4,1 -0.2,0.7 0,2.2 0.1,2.2 l 1.2,-1 z m 0.7,6.5 c -3,-0.9 -4.4,-2.6 -4.1,-5.8 0,-0.7 0.2,-1.6 0.3,-2 0.3,-0.8 2.9,-3.5 3.4,-3.7 0.2,0 0.6,0.1 1,0.4 1.199999,0.9 2.199999,2 2.199999,2.2 l -1.999999,2.1 c -1.3,1.1 -2.3,2.1 -2.4,2.3 -0.1,0.3 0,0.5 0.4,0.9 0.7,0.6 2,0.9 3.199999,0.8 0.8,-0.1 0.9,-0.1 0.8,0.2 -0.2,0.6 -1.599999,2.8 -1.699999,2.8 l -1,-0.3 z m -26.7,-3 c 1.4,-0.7 1.1,-2.8 -0.7,-4.4 -1.5,-1.3 -3.2,-1.6 -4.3,-0.6 -0.8,0.6 -0.9,1.3 -0.5,2.3 1,2.3 3.8,3.6 5.5,2.7 z m -3.8,2.7 c -1.2,-0.7 -2.4,-2 -2.9,-3 -0.5,-1.1 -0.6,-3 -0.3,-4 0.2,-1.1 1.3,-2.1 3.3,-3.2 1.8,-1 2.2,-1 3.6,0 1.6,1.1 2.4,3 2.4,5.3 0,2.2 -0.6,3 -3.6,4.7 l -1.4,0.7 a 4,4 0 0 1 -1.1,-0.5 z m -20.6,-6.2 c 1.2,-1.2 1.2,-1.4 0,-2 -0.6,-0.4 -0.7,-0.4 -1,-0.1 l -0.4,1 c -0.2,0.7 0,2.2 0.2,2.2 l 1.2,-1 z m 0.7,6.4 c -3.1,-0.8 -4.4,-2.5 -4.2,-5.7 0,-0.7 0.2,-1.6 0.4,-2 0.3,-0.8 2.8,-3.5 3.4,-3.7 0.2,0 0.6,0.1 1,0.4 1.1,0.9 2.2,2 2.2,2.2 l -2.1,2.1 -2.3,2.3 c -0.2,0.3 0,0.5 0.4,0.9 0.6,0.6 2,0.9 3.2,0.8 0.8,-0.1 0.8,-0.1 0.7,0.2 -0.2,0.6 -1.6,2.8 -1.7,2.8 z m -44.4000004,0 c -1.7,-0.5 -3.30000002,-1.9 -3.20000002,-2.7 0,-0.2 0.40000003,-0.5 1.20000002,-1 l 1.2,-0.5 v 1 c 0.2,1.1 0.7,1.8 1.7,2 0.8,0.3 1.7,0 2.2,-0.7 0.5,-0.5 0.5,-2 0,-2.6 -0.6,-1 -1,-1 -2.7,-0.6 -2.3,0.6 -2.4,0.6 -2.9,-0.6 -0.39999999,-1.1 -0.50000002,-2.6 -0.1,-3.4 A 5,5 0 0 1 2.9886306,5.3 c 0.9,-0.3 2.7,-0.3 3.7,0 0.7,0.1 2.5,1.6 2.5,2 l -1.4,0.9 -1.3,0.6 V 8.2 c 0,-0.7 -0.4,-1.3 -1.1,-1.6 -0.7,-0.4 -1.3,-0.4 -1.9,0 -0.8,0.7 -0.7,2 0.1,2.9 0.6,0.6 1.2,0.5 3,-0.2 1.8,-0.7 1.7,-0.7 2.5,0.9 1.0000004,2.1 0.2,4.8 -2,5.9 -0.9,0.4 -2.5,0.5 -3.5,0.2 z M 18.788631,13.9 c 1.3,-0.6 1.9,-2 1.5,-3.5 -0.4,-1.6 -1.7,-2.5 -3.4,-2.5 -1.5,0 -1.9,0.7 -1.8,3 0.1,1.7 0.5,2.4 1.7,3 0.9,0.4 1.4,0.4 2,0 z m -6,1 c 0,-5.6 0,-6.2 -0.4,-6.9 -0.1,-0.4 -0.4,-0.8 -0.5,-0.9 l -0.2,-0.2 c 0,-0.2 3,-1.9 3.2,-1.9 l 0.3,1 v 1 l 1.3,-1 c 1.4,-1 1.7,-1.1 3,-0.5 1.8,0.8 2.7,2.4 2.7,4.7 0,3 -2,6 -4.5,6.3 -0.7,0.1 -0.9,0 -1.6,-0.4 l -0.9,-0.6 v 5.6 h -2.5 z"
     inkscape:connector-curvature="0" />
</svg>
