<?xml version="1.0" encoding="UTF-8" standalone="no"?>
<!-- Created with Inkscape (http://www.inkscape.org/) -->

<svg
   xmlns:dc="http://purl.org/dc/elements/1.1/"
   xmlns:cc="http://creativecommons.org/ns#"
   xmlns:rdf="http://www.w3.org/1999/02/22-rdf-syntax-ns#"
   xmlns:svg="http://www.w3.org/2000/svg"
   xmlns="http://www.w3.org/2000/svg"
   xmlns:sodipodi="http://sodipodi.sourceforge.net/DTD/sodipodi-0.dtd"
   xmlns:inkscape="http://www.inkscape.org/namespaces/inkscape"
   width="3in"
   height="3in"
   viewBox="0 0 76.200001 76.200002"
   version="1.1"
   id="svg3705"
   inkscape:version="0.92.4 5da689c313, 2019-01-14"
   sodipodi:docname="spdm_opt.svg">
  <defs
     id="defs3699" />
  <sodipodi:namedview
     id="base"
     pagecolor="#ffffff"
     bordercolor="#666666"
     borderopacity="1.0"
     inkscape:pageopacity="0.0"
     inkscape:pageshadow="2"
     inkscape:zoom="1.979899"
     inkscape:cx="127.29101"
     inkscape:cy="149.50028"
     inkscape:document-units="mm"
     inkscape:current-layer="layer1"
     showgrid="true"
     units="in"
     inkscape:pagecheckerboard="true"
     gridtolerance="10000"
     inkscape:snap-global="false"
     inkscape:window-width="1600"
     inkscape:window-height="841"
     inkscape:window-x="0"
     inkscape:window-y="0"
     inkscape:window-maximized="1">
    <inkscape:grid
       type="xygrid"
       id="grid3723"
       units="in"
       spacingx="2.5400001"
       spacingy="2.5400001"
       dotted="true" />
  </sodipodi:namedview>
  <metadata
     id="metadata3702">
    <rdf:RDF>
      <cc:Work
         rdf:about="">
        <dc:format>image/svg+xml</dc:format>
        <dc:type
           rdf:resource="http://purl.org/dc/dcmitype/StillImage" />
        <dc:title></dc:title>
        <dc:creator>
          <cc:Agent>
            <dc:title>Julien Brenneck</dc:title>
          </cc:Agent>
        </dc:creator>
      </cc:Work>
    </rdf:RDF>
  </metadata>
  <g
     inkscape:label="Layer 1"
     inkscape:groupmode="layer"
     id="layer1"
     transform="translate(0,-220.79998)"
     style="display:inline;opacity:1">
    <path
       style="fill:#000000;stroke-width:0.17162164"
       d="m 15.256969,296.95435 c -0.270517,-0.16719 -0.259308,-1.71584 0.01614,-2.23052 0.157398,-0.2941 0.137425,-0.42856 -0.103148,-0.69439 -0.235811,-0.26057 -0.260482,-0.41275 -0.117712,-0.7261 0.109723,-0.24082 0.120638,-0.50364 0.02781,-0.66952 -0.08405,-0.1502 -0.151887,-0.45417 -0.150741,-0.6755 0.0092,-1.78407 -0.462945,-10.93381 -0.60513,-11.72599 -0.07053,-0.39296 -0.0015,-0.58548 0.297957,-0.83118 0.248488,-0.20387 0.287302,-0.28729 0.107091,-0.23015 -0.393304,0.12469 -0.493489,-0.53969 -0.29182,-1.93522 0.215978,-1.49455 0.03822,-2.90695 -0.562378,-4.46853 -0.271453,-0.70579 -0.493589,-1.40086 -0.493637,-1.5446 -4.7e-5,-0.14374 -0.162684,-0.68611 -0.361414,-1.20526 -0.495921,-1.29553 -0.863007,-2.74126 -0.744656,-2.93275 0.05397,-0.0873 -0.06595,-0.38921 -0.266489,-0.67085 -0.200542,-0.28163 -0.41145,-0.80063 -0.468686,-1.15333 -0.05723,-0.3527 -0.241675,-0.87474 -0.409867,-1.16008 -0.168191,-0.28534 -0.35659,-0.83705 -0.418663,-1.22602 -0.111602,-0.69932 -0.106435,-0.70816 0.463298,-0.79252 0.316887,-0.0469 0.660011,-0.0535 0.762497,-0.0146 0.2369,0.0899 0.75758,1.17149 0.75758,1.57377 0,0.16786 0.16071,0.63782 0.357133,1.04437 0.196422,0.40655 0.377056,0.92605 0.401407,1.15445 0.02435,0.2284 0.133946,0.50495 0.243544,0.61454 0.255128,0.25513 0.255208,0.69252 1.71e-4,0.94756 -0.151045,0.15104 -0.115293,0.27323 0.148142,0.50628 0.19098,0.16896 0.514175,0.8478 0.718211,1.50854 0.74307,2.40633 1.101918,3.43601 1.256036,3.60406 0.196217,0.21395 1.015607,-0.72202 1.587015,-1.81281 0.225617,-0.43069 0.532082,-0.88422 0.681034,-1.00784 0.148951,-0.12362 0.271296,-0.31184 0.271877,-0.41827 5.84e-4,-0.10644 0.117368,-0.41654 0.259525,-0.68913 0.142157,-0.27258 0.24321,-0.5815 0.224562,-0.68648 -0.05418,-0.30503 0.412891,-2.22849 0.600437,-2.47268 0.09392,-0.12228 0.278245,-0.18109 0.409613,-0.13068 0.150998,0.0579 0.193301,0.018 0.115011,-0.10872 -0.165536,-0.26784 -0.120893,-1.36972 0.105813,-2.61167 0.228484,-1.25167 0.225279,-1.24664 0.852214,-1.33866 0.908323,-0.13331 0.959133,0.0269 0.537185,1.69385 -0.884236,3.49326 -1.117951,4.28445 -1.385956,4.69187 -0.155231,0.23598 -0.297047,0.65614 -0.315146,0.93369 -0.0181,0.27755 -0.187013,0.66868 -0.375367,0.86917 -0.230652,0.24552 -0.34246,0.60129 -0.34246,1.0897 0,0.82455 -0.569388,2.08447 -0.942021,2.08447 -0.150996,0 -0.209584,0.10156 -0.149263,0.25875 0.05461,0.14232 -0.01086,0.43193 -0.145499,0.64358 -0.528981,0.83158 -0.772402,3.07294 -0.563681,5.19023 0.04653,0.47196 0.120026,1.43734 0.163334,2.14527 0.08027,1.31211 0.337922,2.79201 0.544206,3.12579 0.146257,0.23665 0.0972,1.78535 -0.08795,2.77639 -0.120994,0.64765 -0.09157,0.81533 0.193043,1.09994 0.283412,0.28341 0.303572,0.39601 0.129229,0.72177 -0.16543,0.30911 -0.160316,0.41457 0.02568,0.52952 0.171872,0.10623 0.235219,0.64708 0.243684,2.08054 0.01031,1.74628 0.113847,2.38148 0.599637,3.67885 0.336399,0.8984 -0.528534,1.71605 -1.60268,1.51506 -0.304145,-0.0569 -0.873455,-0.0313 -1.265135,0.0568 -0.39168,0.0881 -0.810458,0.0995 -0.930618,0.0253 z m 0.13129,-14.19079 c -0.04351,-0.16698 -0.08198,-0.0719 -0.08547,0.21126 -0.0035,0.28318 0.0321,0.4198 0.07912,0.3036 0.04701,-0.11619 0.04987,-0.34788 0.0064,-0.51486 z m 0.155142,-0.81155 c 0.02092,-0.14258 -0.06266,-0.20299 -0.205193,-0.1483 -0.259923,0.0998 -0.308105,0.274 -0.126088,0.45602 0.142021,0.14202 0.284727,0.009 0.331281,-0.30772 z m 0.662516,-2.14033 c 0.05431,-0.0879 0.02025,-0.20827 -0.07568,-0.26756 -0.09593,-0.0593 -0.174422,0.0126 -0.174422,0.15976 0,0.30146 0.102983,0.34585 0.250104,0.1078 z m 0.875271,-5.91877 c 0.183078,-0.13387 0.279136,-0.29714 0.213461,-0.36281 -0.06567,-0.0657 -0.326965,0.0438 -0.580645,0.2434 -0.515832,0.40575 -0.17569,0.51636 0.367184,0.11941 z m 26.10546,18.83595 c -0.056,-0.0559 -1.34851,-0.15464 -2.87236,-0.21932 -2.3414,-0.0994 -2.79572,-0.1624 -2.93254,-0.40689 -0.0891,-0.15913 -0.27391,-0.28932 -0.41081,-0.28932 -0.1369,0 -0.26067,-0.13515 -0.27505,-0.30033 -0.034,-0.39028 -0.0733,-0.58632 -0.18074,-0.90102 -0.39655,-1.16147 -0.4951,-1.68676 -0.55763,-2.97229 -0.0394,-0.8092 -0.14478,-1.61061 -0.23427,-1.78091 -0.20134,-0.38316 -0.34316,-1.29506 -0.46187,-2.96977 -0.0502,-0.70794 -0.13939,-1.51885 -0.19825,-1.80203 -0.0589,-0.28317 -0.12488,-0.74655 -0.1467,-1.02973 -0.0218,-0.28317 -0.13018,-1.05547 -0.24078,-1.71621 -0.19303,-1.15324 -0.13865,-2.21425 0.12107,-2.36209 0.0678,-0.0386 0.0275,-0.0469 -0.0895,-0.0186 -0.24549,0.0596 -0.30668,-0.17915 -0.55215,-2.15426 -0.16949,-1.36378 -0.15956,-1.46445 0.17526,-1.77638 0.38228,-0.35615 0.32321,-0.64475 -0.0659,-0.32184 -0.18843,0.15639 -0.27395,0.0641 -0.4332,-0.46741 -0.32685,-1.09092 -0.2511,-1.75003 0.26274,-2.28637 0.25364,-0.26474 0.53792,-0.48135 0.63174,-0.48135 0.24987,0 2.63488,-1.85862 3.03065,-2.36176 0.18624,-0.23676 0.33861,-0.62821 0.33861,-0.8699 0,-0.51027 -0.78086,-1.40212 -1.22763,-1.40212 -0.16793,0 -0.55893,-0.10695 -0.86891,-0.23767 -0.80276,-0.33852 -1.93436,-0.62055 -3.223728,-0.80345 -1.274153,-0.18075 -2.469469,0.10591 -3.0261,0.72571 -0.346083,0.38535 -2.466314,2.04252 -3.432726,2.68301 -0.326932,0.21667 -0.639297,0.51089 -0.694146,0.65382 -0.139017,0.36228 0.726272,1.23584 1.66108,1.67697 0.424763,0.20045 1.015909,0.53821 1.313655,0.7506 0.297746,0.21238 0.666244,0.38614 0.818882,0.38614 0.152639,0 0.582373,0.20174 0.954967,0.44831 0.587636,0.38888 0.676134,0.53108 0.667589,1.07264 -0.01095,0.69391 0.149115,2.10977 0.313105,2.76959 0.05865,0.23598 0.08935,0.53132 0.06823,0.65632 -0.02112,0.12499 0.0333,0.31806 0.120941,0.42905 0.18464,0.23383 0.472688,2.16214 0.713627,4.77732 0.09271,1.00627 0.286106,2.08749 0.429768,2.40271 0.143663,0.31521 0.412048,1.42265 0.596413,2.46096 0.184363,1.03831 0.497563,2.62152 0.696003,3.51824 0.19844,0.89672 0.44477,2.01106 0.5474,2.4763 0.17014,0.77128 0.1554,0.87117 -0.16718,1.13237 -0.3056,0.24746 -0.71203,0.27657 -2.984197,0.21376 -3.542427,-0.0979 -4.182847,-0.28565 -5.094613,-1.49327 -0.758327,-1.0044 -1.880247,-2.15754 -2.099126,-2.15754 -0.07387,0 -0.307936,-0.30892 -0.520141,-0.68648 -0.212205,-0.37757 -0.44715,-0.68649 -0.5221,-0.68649 -0.164963,0 -2.160403,-2.02346 -3.243955,-3.28951 -1.017422,-1.18878 -1.677018,-2.70404 -1.681746,-3.86341 -0.002,-0.4888 -0.08821,-1.20286 -0.191591,-1.58679 -0.129967,-0.48266 -0.133485,-0.79984 -0.0114,-1.02796 0.09711,-0.18145 0.1311,-0.55722 0.07553,-0.83505 -0.10633,-0.53165 0.180978,-1.25365 0.868736,-2.18309 0.209539,-0.28318 0.525429,-0.90102 0.701977,-1.37298 0.176547,-0.47196 0.459353,-1.09615 0.628457,-1.38709 0.29638,-0.50992 0.343034,-0.52649 1.294317,-0.45975 0.54277,0.0381 1.18162,0.13081 1.419666,0.20607 0.723563,0.22877 2.076263,0.10258 2.251192,-0.21 0.08543,-0.15265 0.269468,-0.39169 0.408972,-0.5312 0.324511,-0.32451 0.325276,-0.6214 0.0015,-0.6214 -0.165152,0 -0.214047,0.099 -0.141827,0.28722 0.0835,0.2176 0.04059,0.26051 -0.177007,0.17701 -0.19582,-0.0752 -0.287173,-0.0216 -0.287173,0.16843 0,0.24392 -0.04397,0.23885 -0.352844,-0.0407 -0.275435,-0.24926 -0.418923,-0.27805 -0.654048,-0.13121 -0.194317,0.12135 -0.712213,0.14556 -1.459412,0.0682 -0.637015,-0.0659 -1.197556,-0.0562 -1.245649,0.0216 -0.04809,0.0778 -0.166063,0.0929 -0.262157,0.0335 -0.116824,-0.0722 -0.112895,-0.1698 0.01186,-0.29456 0.102616,-0.10261 0.186575,-0.32103 0.186575,-0.48536 0,-0.54047 0.356299,-0.53507 0.561479,0.009 0.110144,0.2918 0.31848,0.52937 0.462972,0.52792 0.168872,-0.002 0.195374,-0.0477 0.07419,-0.12872 -0.103685,-0.0693 -0.173985,-0.30702 -0.156222,-0.52817 0.01776,-0.22115 -0.07117,-0.4418 -0.197631,-0.49033 -0.295768,-0.11349 -0.294008,-0.56882 0.0039,-1.00014 0.128585,-0.18619 0.288425,-0.72467 0.3552,-1.19663 0.115832,-0.81869 0.624325,-2.50269 0.991429,-3.28337 0.09461,-0.20118 0.121815,-0.59433 0.06046,-0.87366 -0.141583,-0.64462 0.08467,-0.82793 1.190874,-0.96486 0.471959,-0.0584 1.398716,-0.18888 2.059459,-0.28992 0.660744,-0.10104 1.780575,-0.25401 2.488514,-0.33993 3.472774,-0.42148 4.28849,-0.53901 5.32027,-0.76649 2.40912,-0.53115 3.70551,-0.78 4.05244,-0.77789 0.19941,0.001 0.97171,-0.14489 1.71621,-0.32467 0.74451,-0.17977 1.98525,-0.37767 2.7572,-0.43977 1.23891,-0.0997 3.8899,-0.71191 5.50422,-1.2712 0.30677,-0.10628 0.80877,-0.2802 1.11554,-0.38649 0.30677,-0.10628 1.34404,-0.40753 2.30504,-0.66944 2.12657,-0.57957 3.91578,-1.26279 6.02451,-2.3005 0.87637,-0.43126 1.68728,-0.78657 1.80202,-0.78957 0.11475,-0.003 0.35855,-0.11885 0.54177,-0.25743 0.18323,-0.13859 0.54119,-0.25198 0.79546,-0.25198 0.44739,0 0.4679,0.043 0.63497,1.33007 0.0949,0.73154 0.14216,1.83206 0.1049,2.44561 -0.0373,0.61355 0.009,1.57892 0.10311,2.14527 0.094,0.56635 0.20782,1.68618 0.25301,2.48851 0.12263,2.17733 0.36854,3.94754 0.65769,4.73445 0.2989,0.81345 0.22733,2.77058 -0.13126,3.5892 -0.26665,0.60876 -0.5892,1.8716 -0.80457,3.15004 -0.0851,0.50543 -0.27481,1.2005 -0.42149,1.5446 -0.14667,0.3441 -0.33854,1.12763 -0.42637,1.74117 -0.0878,0.61355 -0.30602,1.42446 -0.48487,1.80203 -0.17885,0.37757 -0.43114,1.14424 -0.56064,1.70371 -0.1295,0.55947 -0.31626,1.04415 -0.41503,1.07708 -0.25229,0.0841 -0.58196,-0.71224 -0.58196,-1.40576 0,-0.32036 -0.0671,-0.62393 -0.14907,-0.6746 -0.082,-0.0507 -0.19892,-0.65376 -0.25985,-1.3402 -0.0609,-0.68644 -0.22629,-1.94313 -0.36745,-2.79266 -0.14117,-0.84953 -0.36992,-2.31689 -0.50833,-3.26081 -0.13842,-0.94392 -0.39804,-2.4499 -0.57694,-3.34662 -0.59888,-3.00186 -0.59309,-3.14036 0.16229,-3.87796 0.36206,-0.35355 1.02423,-0.84201 1.47149,-1.08547 0.44725,-0.24346 0.95851,-0.69298 1.13613,-0.99894 l 0.32294,-0.55629 -0.5602,-0.47344 c -0.78328,-0.66198 -2.0788,-1.41593 -3.58858,-2.08845 -1.97921,-0.88163 -2.15523,-0.91092 -3.0229,-0.50307 -1.10874,0.52117 -3.84196,2.98842 -3.84196,3.46809 0,0.25845 1.05685,1.1385 1.36722,1.1385 0.10383,0 0.58299,0.21238 1.06481,0.47196 2.00104,1.07805 2.29708,1.22446 2.49547,1.23412 0.28788,0.014 0.55687,1.11581 0.72785,2.98118 0.22624,2.46821 0.70034,6.00414 0.85575,6.38233 0.51868,1.26221 0.68459,1.82644 0.78219,2.66014 0.0608,0.51915 0.18829,1.52314 0.28338,2.23108 0.0951,0.70794 0.2108,1.6347 0.25713,2.05946 0.0463,0.42476 0.1929,1.01163 0.3257,1.30414 0.1328,0.29251 0.23455,0.79451 0.2261,1.11554 -0.008,0.32103 0.0688,0.79608 0.17163,1.05566 0.11517,0.29072 0.12962,0.6228 0.0376,0.86476 -0.18687,0.49151 -1.94364,2.0099 -2.32544,2.0099 -0.15579,0 -0.64463,0.27593 -1.08631,0.61318 -0.44168,0.33724 -1.01133,0.65483 -1.2659,0.70574 -0.25456,0.0509 -0.50165,0.19372 -0.54909,0.31734 -0.0474,0.12362 -0.45783,0.43834 -0.91199,0.69938 -0.45415,0.26104 -1.09042,0.70149 -1.41392,0.97879 -0.32351,0.2773 -0.86412,0.61742 -1.20135,0.75582 -0.33724,0.1384 -1.20906,0.54771 -1.93738,0.90958 -1.16864,0.58064 -1.4735,0.65871 -2.59487,0.66457 -0.69885,0.004 -1.31642,-0.0392 -1.37238,-0.0951 z m 1.42998,-3.9847 c 0,-0.0834 0.1589,-0.19316 0.35312,-0.24395 0.30856,-0.0807 0.32557,-0.13645 0.1348,-0.44191 -0.21494,-0.34418 -0.22303,-0.3445 -0.52474,-0.0207 -0.33234,0.35672 -0.4111,0.85813 -0.1348,0.85813 0.0944,0 0.17162,-0.0682 0.17162,-0.15161 z m 8.98847,-1.65585 c 0.0791,-0.20624 -8e-5,-0.24625 -0.36779,-0.18573 -0.25776,0.0424 -0.49252,0.0835 -0.52169,0.0912 -0.0292,0.008 -0.005,0.0913 0.053,0.18573 0.16336,0.26431 0.72345,0.20322 0.83645,-0.0912 z m -29.740031,-0.32875 c 0.08633,0.0534 0.156963,-0.0234 0.156963,-0.17056 0,-0.30037 -0.145142,-0.33342 -0.493947,-0.1125 -0.142927,0.0905 -0.181427,0.23894 -0.09729,0.37507 0.104394,0.16892 0.156491,0.17345 0.208266,0.0181 0.03798,-0.11393 0.139683,-0.16349 0.226012,-0.11013 z m 30.526641,-0.65048 c -0.50617,-0.21497 -0.79264,-0.25764 -0.91411,-0.13617 -0.12147,0.12147 -0.11865,0.17691 0.009,0.17691 0.10226,0 0.22511,0.14982 0.27299,0.33294 0.0787,0.30112 0.14833,0.31413 0.72818,0.13617 l 0.64112,-0.19676 -0.7372,-0.31309 z m -8.57373,-1.17897 c 0,-0.0843 -0.11584,-0.15326 -0.25743,-0.15326 -0.14159,0 -0.25743,0.11342 -0.25743,0.25204 0,0.15354 0.10062,0.21344 0.25743,0.15326 0.14159,-0.0543 0.25743,-0.16775 0.25743,-0.25204 z m 5.46008,-1.57027 c 0.25501,0.0955 0.26057,0.0731 0.047,-0.18939 -0.19062,-0.23421 -0.2724,-0.25021 -0.38352,-0.075 -0.0777,0.12246 -0.13633,0.29988 -0.13032,0.39428 0.006,0.0944 0.0484,0.0794 0.0943,-0.0333 0.0458,-0.11269 0.21351,-0.15615 0.3726,-0.0966 z m -28.49562,-1.85779 c 0.03297,-0.17121 -0.264055,-0.43924 -0.825236,-0.74467 -0.48221,-0.26245 -0.917094,-0.58233 -0.966409,-0.71084 -0.04931,-0.12851 -0.222373,-0.27578 -0.384577,-0.32726 -0.162204,-0.0515 -0.430961,-0.40195 -0.597238,-0.77883 -0.369564,-0.83763 -0.707981,-0.917 -0.543476,-0.12745 0.06392,0.30677 0.137408,0.76817 0.163312,1.02534 0.06334,0.62879 0.762801,1.29289 1.765742,1.67645 0.955505,0.36543 1.31569,0.36212 1.387882,-0.0128 z m 25.60987,-0.50088 c 0,-0.0944 -0.0772,-0.17162 -0.17163,-0.17162 -0.0944,0 -0.17162,0.0772 -0.17162,0.17162 0,0.0944 0.0772,0.17162 0.17162,0.17162 0.0944,0 0.17163,-0.0772 0.17163,-0.17162 z m -20.472057,-0.65718 c 0.434826,-0.52452 0.484282,-1.0092 0.148195,-1.45232 -0.213957,-0.2821 -0.264329,-0.24319 -0.610204,0.47129 -0.207346,0.42832 -0.563325,0.92533 -0.791062,1.10447 -0.58286,0.45848 -0.515934,0.5907 0.229513,0.45343 0.386634,-0.0712 0.795286,-0.30152 1.023558,-0.57687 z m 27.165297,0.14232 c 0,-0.0944 -0.0772,-0.17163 -0.17162,-0.17163 -0.0944,0 -0.17162,0.0772 -0.17162,0.17163 0,0.0944 0.0772,0.17162 0.17162,0.17162 0.0944,0 0.17162,-0.0772 0.17162,-0.17162 z m -25.574253,-1.3402 c -0.0023,-0.2501 -0.02562,-0.25463 -0.168994,-0.0328 -0.217204,0.3361 -0.217204,0.5633 0,0.42906 0.09439,-0.0583 0.170439,-0.23667 0.168994,-0.39628 z m -0.57353,-0.46183 c -0.141588,-0.14159 -0.301565,-0.25743 -0.355502,-0.25743 -0.05394,0 -0.09807,0.11584 -0.09807,0.25743 0,0.14598 0.153915,0.25743 0.355502,0.25743 0.316002,0 0.326898,-0.0286 0.09807,-0.25743 z m -7.57587,-0.94392 c 0.05834,-0.0944 0.02428,-0.17162 -0.07568,-0.17162 -0.09996,0 -0.18175,0.0772 -0.18175,0.17162 0,0.0944 0.03406,0.17162 0.07568,0.17162 0.04162,0 0.123413,-0.0772 0.18175,-0.17162 z m 7.300158,-0.0783 c -0.114075,-0.13746 -0.157588,-0.33053 -0.0967,-0.42906 0.06089,-0.0985 0.03348,-0.17914 -0.06091,-0.17914 -0.09439,0 -0.221441,0.0806 -0.282334,0.17914 -0.124091,0.20078 0.210957,0.67897 0.475728,0.67897 0.09803,0 0.08268,-0.10716 -0.03579,-0.24991 z m -6.227547,-0.36509 c -0.163547,-0.16355 -0.491437,0.10136 -0.369553,0.29857 0.07244,0.11722 0.16844,0.11426 0.291695,-0.009 0.101044,-0.10105 0.136081,-0.23135 0.07786,-0.28957 z m -1.673287,0.10014 c 0,-0.0944 -0.03406,-0.17162 -0.07568,-0.17162 -0.04162,0 -0.123413,0.0772 -0.18175,0.17162 -0.05834,0.0944 -0.02428,0.17162 0.07568,0.17162 0.09996,0 0.18175,-0.0772 0.18175,-0.17162 z m 24.284459,-1.02973 c 0.0583,-0.0944 0.0243,-0.17162 -0.0757,-0.17162 -0.1,0 -0.18175,0.0772 -0.18175,0.17162 0,0.0944 0.0341,0.17162 0.0757,0.17162 0.0416,0 0.12342,-0.0772 0.18175,-0.17162 z m 0.51487,-0.17162 c 0.0583,-0.0944 0.0243,-0.17163 -0.0757,-0.17163 -0.1,0 -0.18175,0.0772 -0.18175,0.17163 0,0.0944 0.0341,0.17162 0.0757,0.17162 0.0416,0 0.12341,-0.0772 0.18175,-0.17162 z m -0.25743,-0.56196 c 0.25719,-0.10501 1.77676,-0.28172 3.29018,-0.38261 0.99326,-0.0662 1.47206,-0.21102 2.05515,-0.62153 0.40463,-0.28487 0.43902,-0.38664 0.31558,-0.93395 -0.0762,-0.33783 -0.25281,-0.74374 -0.39247,-0.90203 -0.13967,-0.15828 -0.76504,-1.33039 -1.38972,-2.60468 -1.27599,-2.60289 -3.63952,-6.56194 -4.14626,-6.94522 -0.59484,-0.44991 -0.9907,-0.31862 -1.40655,0.4665 -0.21248,0.40117 -0.38611,0.98547 -0.38585,1.29845 3.4e-4,0.31298 -0.0696,0.69991 -0.15515,0.85984 -0.18038,0.33704 -0.29918,1.23272 -0.52754,3.97719 -0.0903,1.0855 -0.28218,2.66871 -0.42636,3.51824 -0.32047,1.8883 -0.32051,1.89207 -0.0218,2.19081 0.24687,0.24687 2.6348,0.30598 3.19075,0.079 z m -16.768865,-1.38272 c 0.03191,-1.01836 0.0034,-1.13062 -0.265433,-1.04507 -0.196414,0.0625 -0.335421,-0.0127 -0.399611,-0.21633 -0.184881,-0.58637 -0.595311,-1.23863 -1.091824,-1.73514 -0.486693,-0.48669 -0.499218,-0.48931 -0.657074,-0.13727 -0.128957,0.2876 -0.05077,0.49526 0.393621,1.04538 0.704279,0.87184 1.033914,1.53719 1.190385,2.4027 0.141641,0.78348 0.417401,1.20342 0.64246,0.97836 0.08345,-0.0835 0.167812,-0.66513 0.187476,-1.29263 z m 8.581255,-1.65745 c -0.0491,-0.18772 -0.15433,-0.30109 -0.23387,-0.25193 -0.16892,0.1044 -0.0157,0.59324 0.18593,0.59324 0.0755,0 0.097,-0.15359 0.0479,-0.34131 z m 1.3848,-0.25936 c 0.0543,-0.14159 0.024,-0.25743 -0.0675,-0.25743 -0.0914,0 -0.16623,0.11584 -0.16623,0.25743 0,0.14159 0.0303,0.25743 0.0675,0.25743 0.0371,0 0.1119,-0.11584 0.16623,-0.25743 z m -14.821521,-2.31689 c 0,-0.0944 -0.03406,-0.17162 -0.07568,-0.17162 -0.04162,0 -0.123413,0.0772 -0.18175,0.17162 -0.05834,0.0944 -0.02428,0.17162 0.07568,0.17162 0.09996,0 0.181751,-0.0772 0.18175,-0.17162 z m 38.271631,-5.14865 c 0,-0.0944 -0.0341,-0.17162 -0.0757,-0.17162 -0.0416,0 -0.12342,0.0772 -0.18176,0.17162 -0.0583,0.0944 -0.0243,0.17162 0.0757,0.17162 0.1,0 0.18176,-0.0772 0.18176,-0.17162 z m -0.98114,-7.25882 c 0.0498,-0.1299 -0.0495,-0.23249 -0.23907,-0.24677 -0.32557,-0.0245 -0.4236,0.14106 -0.20997,0.35469 0.17816,0.17816 0.35562,0.13551 0.44904,-0.10792 z m -0.81679,-1.13771 c -0.0622,-0.1959 -0.18507,-0.35618 -0.2731,-0.35618 -0.24051,0 -0.19258,0.64627 0.0545,0.7345 0.30261,0.10808 0.34805,0.0294 0.21863,-0.37832 z m -2.70706,0.11578 c -0.0393,-0.11799 -0.21703,-0.24274 -0.39499,-0.27722 -0.27993,-0.0543 -0.29254,-0.0253 -0.0935,0.21452 0.27223,0.32802 0.59041,0.36886 0.48847,0.0627 z m 2.83286,-0.94352 c -0.10804,-0.036 -0.15079,-0.19564 -0.095,-0.35473 0.08,-0.22809 0.055,-0.24633 -0.11824,-0.0863 -0.27077,0.25022 -0.0905,0.81557 0.20239,0.63458 0.15122,-0.0935 0.15415,-0.14582 0.0109,-0.19359 z m -1.40743,-0.62574 0.48823,-0.41083 -0.47891,-0.0703 c -0.2634,-0.0386 -0.56849,-0.0404 -0.67799,-0.004 -0.31445,0.10482 -0.22166,0.89587 0.10509,0.89587 0.0414,0 0.29505,-0.18487 0.56358,-0.41083 z m 1.19172,-0.2858 c 0,-0.0888 -0.0772,-0.16149 -0.17162,-0.16149 -0.0944,0 -0.17163,0.1204 -0.17163,0.26756 0,0.14716 0.0772,0.21983 0.17163,0.16149 0.0944,-0.0583 0.17162,-0.17874 0.17162,-0.26756 z m 4.31092,32.11818 c -0.18576,-0.7248 -0.17764,-0.91772 0.0578,-1.37297 0.15065,-0.29132 0.34915,-0.52967 0.44112,-0.52967 0.092,0 0.16721,-0.0867 0.16721,-0.19264 0,-0.12702 -0.0944,-0.1143 -0.27709,0.0373 -0.23819,0.19769 -0.33076,0.16757 -0.65945,-0.21456 -0.28953,-0.3366 -0.40841,-0.75262 -0.48963,-1.71344 -0.12365,-1.46273 -0.0228,-2.05399 0.32754,-1.91956 0.13229,0.0508 0.24052,0.008 0.24052,-0.0944 0,-0.10269 -0.19374,-0.23534 -0.43055,-0.29477 -0.46674,-0.11715 -0.70154,-0.67857 -0.52129,-1.24647 0.0599,-0.18867 -0.0104,-0.62844 -0.15613,-0.97727 -0.14575,-0.34882 -0.265,-0.81515 -0.265,-1.03628 0,-0.22205 -0.14883,-0.48171 -0.33241,-0.57996 -0.27006,-0.14454 -0.31376,-0.29858 -0.23296,-0.82124 0.0547,-0.35384 0.23758,-0.91945 0.4064,-1.25692 0.16883,-0.33747 0.28384,-0.82417 0.25558,-1.08156 -0.0283,-0.25752 0.0823,-0.633 0.24576,-0.83492 0.29077,-0.35908 0.30092,-0.35981 0.47425,-0.034 0.0974,0.18313 0.21562,1.15318 0.26269,2.15568 0.11212,2.38821 1.39487,7.791 2.41322,10.1642 0.31064,0.72392 0.61941,2.04431 0.51685,2.21025 -0.0453,0.0733 -0.34353,0.13323 -0.66276,0.13323 -0.31923,0 -0.62815,0.0772 -0.68648,0.17162 -0.0583,0.0944 -0.27999,0.17163 -0.49255,0.17163 -0.31914,0 -0.42415,-0.14696 -0.60261,-0.84331 z m 1.18097,-0.0148 c 0,-0.0944 0.11584,-0.17162 0.25743,-0.17162 0.14159,0 0.25743,-0.0772 0.25743,-0.17163 0,-0.0944 -0.15446,-0.17162 -0.34324,-0.17162 -0.18878,0 -0.34324,0.0323 -0.34324,0.0718 0,0.0395 -0.0469,0.19393 -0.10417,0.34324 -0.0573,0.14931 -0.0187,0.27147 0.0858,0.27147 0.10449,0 0.18998,-0.0772 0.18998,-0.17162 z m -0.39703,-0.76915 c 0.0205,-0.26667 0.0772,-0.58886 0.12595,-0.71597 0.11395,-0.29695 -0.14496,-0.29954 -0.39031,-0.004 -0.13806,0.16635 -0.13219,0.28802 0.0219,0.45432 0.16991,0.18337 0.15259,0.20676 -0.0899,0.12143 -0.21402,-0.0753 -0.30034,-0.0168 -0.30034,0.20357 0,0.72374 0.57667,0.66956 0.6327,-0.0594 z M 12.972173,277.8322 c -0.152444,-0.23266 -0.277171,-0.49351 -0.277171,-0.57966 0,-0.0862 -0.115844,-0.25279 -0.257432,-0.3703 -0.141588,-0.11751 -0.257433,-0.31347 -0.257433,-0.43549 0,-0.12201 -0.150902,-0.40216 -0.335338,-0.62256 -2.0025639,-2.39306 -2.7538509,-3.5481 -2.7538509,-4.2338 0,-0.18068 -0.117061,-0.66029 -0.260136,-1.06581 -0.319281,-0.90494 -0.482089,-1.68327 -0.447137,-2.13761 0.07682,-0.9986 0.01236,-2.05286 -0.16524,-2.70258 -0.241341,-0.88291 -0.209514,-3.20599 0.04818,-3.51649 0.124507,-0.15002 0.388928,-0.18727 0.805199,-0.11343 0.761874,0.13514 0.9906369,0.32294 0.753808,0.61881 -0.127711,0.15955 -0.04047,0.5108 0.3108269,1.25153 0.268601,0.56635 0.49078,1.20621 0.493732,1.42192 0.003,0.2157 0.112016,0.56323 0.242366,0.77229 0.13035,0.20906 0.281801,0.7909 0.336558,1.29296 0.05476,0.50206 0.248695,1.15852 0.430973,1.45878 0.364404,0.60028 0.594913,1.48911 0.575542,2.21925 -0.0069,0.25958 0.04289,0.47196 0.110619,0.47196 0.260712,0 0.690003,0.99166 0.877929,2.02801 0.10797,0.59542 0.243777,1.20628 0.301793,1.35747 0.06523,0.16999 0.03585,0.23185 -0.077,0.16211 -0.10326,-0.0638 -0.229099,0.073 -0.289867,0.31508 -0.05906,0.23533 -0.187704,0.42787 -0.285868,0.42787 -0.09816,0 -0.127894,0.0819 -0.06607,0.18189 0.07092,0.11476 0.197085,0.0673 0.341818,-0.12871 0.360368,-0.48793 0.570891,-0.0977 0.642549,1.19108 0.05579,1.0034 0.02516,1.15845 -0.228885,1.15845 -0.161314,0 -0.418025,-0.19036 -0.570469,-0.42302 z m -0.105952,-2.70907 c -2.23e-4,-0.11799 -0.218748,-0.46999 -0.485616,-0.78222 -0.434268,-0.50809 -0.509143,-0.53886 -0.713134,-0.29306 -0.240641,0.28995 -0.227923,0.31011 0.578716,0.91719 0.576088,0.43357 0.620573,0.44491 0.620034,0.15809 z m -1.715813,-1.7704 c 0,-0.27761 -0.387905,-0.76102 -0.610671,-0.76102 -0.219179,0 -0.215528,0.0608 0.02578,0.42906 0.254668,0.38867 0.584894,0.57609 0.584894,0.33196 z m -1.7162169,-2.9921 c 0,-0.0944 -0.08179,-0.17162 -0.18175,-0.17162 -0.09996,0 -0.13402,0.0772 -0.07568,0.17162 0.05834,0.0944 0.140125,0.17162 0.18175,0.17162 0.04162,0 0.07568,-0.0772 0.07568,-0.17162 z m 1.5445949,-2.4027 c 0,-0.0944 -0.03406,-0.17162 -0.07568,-0.17162 -0.04163,0 -0.123413,0.0772 -0.181751,0.17162 -0.05834,0.0944 -0.02428,0.17162 0.07568,0.17162 0.09996,0 0.18175,-0.0772 0.18175,-0.17162 z m 5.257703,0.90649 c -0.263935,-1.07333 -0.861003,-2.83094 -1.386494,-4.08149 -0.76974,-1.83181 -0.942348,-2.39684 -0.781373,-2.55781 0.192909,-0.19291 5.274721,-0.54768 5.442453,-0.37995 0.155974,0.15597 -0.695771,3.51987 -0.936603,3.69904 -0.07158,0.0533 -0.234329,0.28179 -0.361666,0.50786 -0.204246,0.36261 -0.199192,0.39862 0.04291,0.30572 0.174717,-0.067 0.274426,-0.0137 0.274426,0.14674 0,0.13862 -0.120403,0.25205 -0.267561,0.25205 -0.147159,0 -0.222794,0.0724 -0.168079,0.16096 0.154508,0.25 -0.739259,2.32868 -1.178809,2.74161 l -0.392985,0.36919 z m 2.122027,-4.33893 c 0.221853,-0.14337 0.217323,-0.16672 -0.03278,-0.16899 -0.159616,-10e-4 -0.33794,0.0746 -0.396278,0.16899 -0.134239,0.21721 0.09295,0.21721 0.429054,0 z m -2.574324,-0.34324 c 0,-0.0944 -0.08179,-0.17162 -0.18175,-0.17162 -0.09996,0 -0.13402,0.0772 -0.07568,0.17162 0.05834,0.0944 0.140125,0.17162 0.181751,0.17162 0.04162,0 0.07568,-0.0772 0.07568,-0.17162 z m 47.627876,0.009 c -0.0644,-0.20282 -0.0441,-0.46159 0.0451,-0.57505 0.29805,-0.37922 0.39087,-1.1392 0.18032,-1.47635 -0.16086,-0.25758 -0.15781,-1.07973 0.0139,-3.73484 0.12108,-1.87251 0.25753,-4.13824 0.30324,-5.03497 0.0469,-0.9205 0.17045,-1.70963 0.28371,-1.81237 0.39565,-0.35887 2.54809,-0.97165 2.73975,-0.77998 0.12765,0.12764 0.1012,0.27191 -0.0891,0.48593 -0.64837,0.72932 -0.88851,1.61428 -1.57284,5.79629 -0.34465,2.10614 -0.75192,4.02946 -1.07799,5.09065 -0.13521,0.44006 -0.26347,1.07561 -0.28501,1.41233 -0.0497,0.77681 -0.37432,1.15379 -0.54108,0.62836 z m -51.082953,-4.03604 c -0.03474,-0.0347 -1.105768,-0.10511 -2.3800589,-0.15656 -1.27429,-0.0514 -2.8575,-0.14435 -3.518243,-0.20644 -1.296562,-0.12185 -2.20056,-0.51235 -1.783192,-0.7703 0.178698,-0.11044 0.18761,-0.1938 0.03684,-0.34458 -0.150773,-0.15077 -0.07535,-0.53656 0.311749,-1.59464 0.574376,-1.56997 1.039888,-4.00875 0.839697,-4.39911 -0.164006,-0.3198 0.110998,-2.8707 0.363653,-3.37319 0.102262,-0.20338 0.133648,-0.45438 0.06975,-0.55777 -0.0639,-0.10339 -0.05716,-0.28349 0.01498,-0.40021 0.07214,-0.11673 0.150796,-0.55015 0.174792,-0.96317 0.024,-0.41301 0.139646,-1.03189 0.257,-1.37527 0.117354,-0.34339 0.193558,-0.72423 0.169342,-0.84633 -0.04861,-0.24512 0.622447,-3.03503 0.831892,-3.45856 0.167506,-0.33872 0.462767,-1.47756 0.779812,-3.00779 0.13634,-0.65805 0.395276,-1.66203 0.575414,-2.23108 0.180138,-0.56905 0.456989,-1.4594 0.615224,-1.97855 0.5436669,-1.78372 1.0598469,-2.61273 2.1085749,-3.38647 0.541462,-0.39948 1.143514,-0.72771 1.337893,-0.72939 0.213405,-0.002 0.680119,-0.38148 1.178075,-0.95826 0.453562,-0.52536 1.259897,-1.23175 1.791854,-1.56976 0.531958,-0.33802 1.400619,-0.90731 1.930357,-1.26511 0.529739,-0.3578 1.80403,-1.05099 2.831757,-1.54043 1.027727,-0.48944 2.023056,-1.02505 2.211839,-1.19025 0.188784,-0.16519 0.536318,-0.34167 0.772298,-0.39217 0.23598,-0.0505 0.969662,-0.29041 1.630405,-0.53313 1.192901,-0.4382 2.660136,-0.59653 2.660136,-0.28705 0,0.0888 -0.07723,0.20922 -0.171622,0.26756 -0.339927,0.21009 -0.161257,0.38833 0.349022,0.34819 0.286354,-0.0225 0.61458,-0.16149 0.729392,-0.30881 0.114811,-0.14732 0.363208,-0.30403 0.551992,-0.34824 0.300547,-0.0704 0.293685,-0.0829 -0.05516,-0.10029 -0.219123,-0.011 -0.514252,0.0959 -0.65584,0.23753 -0.356823,0.35682 -0.559658,0.32158 -0.528517,-0.0918 0.01517,-0.20151 0.174022,-0.37861 0.375482,-0.41864 0.192047,-0.0382 0.580864,-0.11907 0.86404,-0.1798 0.283175,-0.0607 0.707939,-0.12074 0.943919,-0.13338 0.235979,-0.0126 0.475398,-0.0886 0.532042,-0.16885 0.05664,-0.0802 0.653009,-0.16431 1.325254,-0.18685 0.672247,-0.0225 1.273203,-0.0919 1.335453,-0.15418 0.0623,-0.0623 0.25671,-0.0364 0.43212,0.0575 0.23242,0.12438 0.43351,0.0956 0.74133,-0.10609 0.42218,-0.27662 1.12569,-0.21006 1.12569,0.10651 0,0.088 0.0824,0.16006 0.18319,0.16006 0.10509,0 0.13674,-0.14634 0.0743,-0.34325 -0.11141,-0.35102 0.0283,-0.42039 0.48999,-0.24323 0.14335,0.055 0.22358,0.19658 0.17829,0.31461 -0.0965,0.25134 0.82404,0.1858 1.41263,-0.10059 0.43244,-0.21041 1.09409,0.0704 1.09409,0.46431 0,0.3109 0.0186,0.31075 0.62396,-0.005 0.79391,-0.41405 0.9694,-0.29729 0.36557,0.24322 -0.49139,0.43986 -0.59387,0.4716 -0.83142,0.25743 -0.4127,-0.37207 -0.7246,-0.31817 -0.50739,0.0877 0.24545,0.45864 0.22442,0.53042 -0.12268,0.41876 -0.23251,-0.0748 -0.24692,-0.0585 -0.0638,0.072 0.14708,0.10486 0.18204,0.257 0.0924,0.40234 -0.096,0.15567 0.006,0.13555 0.30552,-0.0603 0.41728,-0.27286 0.46612,-0.27363 0.67985,-0.0108 0.19978,0.24572 0.1905,0.26831 -0.0701,0.17065 -0.41129,-0.15414 -0.37928,0.0881 0.0468,0.35414 0.29278,0.18285 0.3642,0.17232 0.45614,-0.0673 0.06,-0.15623 0.0349,-0.40898 -0.0556,-0.56166 -0.0906,-0.15268 -0.13789,-0.40138 -0.10518,-0.55267 0.0948,-0.43838 0.85238,-0.20499 0.94736,0.29186 0.0817,0.42754 -0.12271,0.57464 -0.2748,0.19773 -0.0476,-0.11799 -0.0927,-0.0453 -0.10011,0.1615 -0.0187,0.52007 0.20908,0.61035 0.78379,0.31061 0.59225,-0.30888 1.77735,-0.36091 1.48148,-0.065 -0.1059,0.10589 -0.15469,0.29115 -0.10844,0.41169 0.0463,0.12054 0.005,0.26806 -0.0917,0.32783 -0.0967,0.0598 -0.13194,0.22302 -0.0783,0.36279 0.0536,0.13976 -0.007,0.38012 -0.13486,0.53412 -0.20589,0.24808 -0.18852,0.26608 0.15242,0.15787 0.52125,-0.16544 0.48622,0.12274 -0.0633,0.52054 -0.24644,0.17841 -0.54984,0.42092 -0.67423,0.53891 -0.32458,0.30789 -0.39279,0.27119 -0.4538,-0.2442 -0.0652,-0.55103 -0.48336,-0.76042 -0.48336,-0.24207 0,0.19665 0.0772,0.35755 0.17162,0.35755 0.27915,0 0.19746,0.31091 -0.20257,0.77099 -0.2058,0.2367 -0.55334,0.43036 -0.7723,0.43036 -0.21895,0 -0.3981,0.0856 -0.3981,0.19023 0,0.12325 0.16617,0.14644 0.47196,0.0659 0.25958,-0.0684 0.61001,-0.13469 0.77873,-0.14733 0.16873,-0.0126 0.36749,-0.12133 0.4417,-0.24155 0.10306,-0.16699 0.20662,-0.13934 0.43874,0.11714 0.1671,0.18465 0.41241,0.29406 0.54513,0.24313 0.15737,-0.0604 0.24131,0.0259 0.24131,0.24799 0,0.46859 0.43854,0.82905 0.57524,0.47281 0.13057,-0.34025 -0.0402,-0.77668 -0.3039,-0.77668 -0.11373,0 -0.37462,-0.22699 -0.57974,-0.50443 l -0.37294,-0.50444 0.46939,-0.3518 c 0.85014,-0.63719 0.91383,-0.72236 0.82147,-1.09849 -0.0503,-0.20493 -0.0471,-0.27606 0.007,-0.15807 0.0542,0.11799 0.2132,0.21453 0.35335,0.21453 0.19908,0 0.17256,-0.11551 -0.12122,-0.52809 -0.29828,-0.41889 -0.33174,-0.56971 -0.16185,-0.72939 0.16417,-0.15431 0.23254,-0.15122 0.29283,0.0132 0.0833,0.22727 0.57797,0.30496 0.54636,0.0858 -0.05,-0.34692 0.26418,-0.90137 0.56489,-0.99681 0.4413,-0.14006 0.55853,-0.005 0.33273,0.38326 -0.10772,0.18526 -0.18426,0.22144 -0.18735,0.0886 -0.0101,-0.43294 -0.30556,-0.0344 -0.30556,0.41212 0,0.41658 0.0444,0.44395 0.57923,0.35716 0.64623,-0.10487 0.76807,0.11453 0.22501,0.40516 -0.26116,0.13977 -0.41699,0.13748 -0.59316,-0.009 -0.37337,-0.30987 -0.59267,-0.056 -0.3665,0.4242 0.15704,0.33344 0.2182,0.36477 0.29376,0.15048 0.0867,-0.24576 0.12061,-0.24545 0.36937,0.003 0.25084,0.25084 0.2974,0.23814 0.55211,-0.15059 0.28173,-0.42997 0.78512,-0.5816 0.78512,-0.23649 0,0.23703 -0.55716,1.2514 -0.72939,1.32795 -0.31163,0.1385 -0.0885,0.31656 0.30287,0.24174 0.43371,-0.0829 0.77627,-0.38476 0.43665,-0.38476 -0.1,0 -0.18175,-0.12198 -0.18175,-0.27107 0,-0.20648 0.11254,-0.24635 0.47232,-0.16733 0.37753,0.0829 0.50669,0.0276 0.64358,-0.2756 0.16554,-0.36667 0.63752,-0.66882 0.58535,-0.37473 -0.0141,0.0797 -0.0148,0.33788 -10e-4,0.57386 l 0.0241,0.42906 0.31576,-0.41068 c 0.31825,-0.41392 0.47067,-0.42373 1.52154,-0.098 0.33256,0.10308 0.38615,0.0574 0.38615,-0.32939 0,-0.24698 0.0772,-0.44907 0.17162,-0.44907 0.0944,0 0.17162,0.0676 0.17162,0.15017 0,0.0826 0.24048,0.19827 0.5344,0.25705 0.47936,0.0959 0.52661,0.15995 0.45878,0.62213 -0.0416,0.28339 -0.0118,0.51525 0.0663,0.51525 0.0781,0 0.1419,-0.11585 0.1419,-0.25743 0,-0.31534 0.44638,-0.34049 0.63505,-0.0358 0.0755,0.12192 0.73985,0.51238 1.47637,0.86769 0.73653,0.35532 1.38616,0.77687 1.44364,0.93679 0.0575,0.15992 0.44972,0.63665 0.87166,1.05941 0.42193,0.42276 0.84233,0.98431 0.93422,1.24788 0.0919,0.26357 0.30248,0.5517 0.468,0.64029 0.16552,0.0886 0.63658,0.66787 1.04679,1.2873 0.41021,0.61943 1.00034,1.2764 1.3114,1.45993 0.3449,0.20349 0.56557,0.46988 0.56557,0.68273 0,0.19837 0.11297,0.34903 0.26172,0.34903 0.15297,0 0.30412,0.21198 0.36375,0.51013 0.058,0.28987 0.3363,0.68883 0.64458,0.92396 0.47457,0.36198 1.4759,2.04169 1.4759,2.4758 0,0.0857 0.15446,0.29561 0.34324,0.46646 0.18878,0.17085 0.34324,0.38912 0.34324,0.48504 0,0.0959 0.10252,0.29634 0.22783,0.44536 0.35575,0.4231 0.70492,1.79067 0.47661,1.86677 -0.10426,0.0348 -0.18957,0.13156 -0.18957,0.21512 0,0.0836 0.10664,0.11102 0.23698,0.061 0.15182,-0.0583 0.30279,0.0978 0.42012,0.43444 0.10073,0.28896 0.12925,0.52773 0.0634,0.5306 -0.0659,0.003 0.0148,0.0836 0.1792,0.17939 0.28735,0.16739 1.1598,1.80257 1.1598,2.17373 0,0.099 0.19174,0.36183 0.42609,0.58412 0.23435,0.22229 0.42742,0.53931 0.42905,0.7045 0.002,0.17834 0.13386,0.30033 0.3252,0.30033 0.17722,0 0.41875,0.11631 0.53672,0.25845 0.17829,0.21483 0.13115,0.3225 -0.27933,0.63799 -0.27159,0.20875 -0.76581,0.67167 -1.09824,1.02872 -0.35511,0.38139 -0.76444,0.64917 -0.99234,0.64917 -0.21335,0 -0.66516,0.11584 -1.00403,0.25743 -0.33887,0.14159 -0.75677,0.25743 -0.92867,0.25743 -0.17191,0 -0.41347,0.13516 -0.53682,0.30034 -0.12334,0.16519 -0.80348,0.48283 -1.51142,0.70587 -1.38641,0.4368 -1.4183,0.44831 -3.08918,1.11508 -0.61355,0.24484 -1.57892,0.59391 -2.14528,0.77572 -1.55332,0.49864 -2.18497,0.73099 -2.68661,0.98828 -0.25054,0.1285 -0.68086,0.23363 -0.95625,0.23363 -0.62096,0 -2.09655,0.4796 -2.47113,0.80317 -0.15337,0.13249 -0.34644,0.22342 -0.42905,0.20208 -0.18789,-0.0486 -1.93565,0.31635 -3.04604,0.63594 -0.46001,0.1324 -0.90068,0.20099 -0.97927,0.15242 -0.0786,-0.0486 -0.41849,0.0268 -0.75533,0.16758 -0.33683,0.14074 -0.72737,0.21179 -0.86784,0.15788 -0.14048,-0.0539 -0.37957,0.005 -0.53132,0.13097 -0.15174,0.12594 -0.78791,0.27606 -1.41369,0.33361 -0.62579,0.0575 -1.4081,0.22507 -1.73847,0.37227 -0.84425,0.37617 -2.17304,0.70427 -2.36692,0.58444 -0.0896,-0.0554 -0.57842,0.004 -1.0862,0.1318 -0.50777,0.12789 -1.45342,0.27865 -2.10144,0.33503 -0.64801,0.0564 -1.26585,0.16983 -1.37297,0.25211 -0.47384,0.36397 -1.612655,0.57197 -6.287334,1.14837 -0.424763,0.0524 -0.965371,0.1637 -1.201351,0.24739 -0.755805,0.26805 -2.311807,0.3563 -7.866867,0.4462 -2.988596,0.0484 -5.637074,0.12037 -5.885509,0.16 -0.248434,0.0396 -0.480123,0.0437 -0.514864,0.009 z m -3.9246529,-1.0127 c 0,-0.12886 -0.15446,-0.43065 -0.343244,-0.67065 -0.188784,-0.24 -0.343243,-0.52072 -0.343243,-0.62382 0,-0.10311 -0.07196,-0.18746 -0.159914,-0.18746 -0.168693,0 -0.140922,0.7861 0.03395,0.96097 0.05627,0.0563 0.05734,0.21952 0.0024,0.36278 -0.0786,0.20482 -0.01649,0.23397 0.29075,0.13645 0.266783,-0.0847 0.353452,-0.0637 0.273265,0.066 -0.06459,0.1045 -0.03565,0.19001 0.06432,0.19001 0.09996,0 0.18175,-0.10543 0.18175,-0.23429 z m 15.4030409,-1.20232 c 0.306774,0.002 0.557771,-0.0601 0.557771,-0.13802 0,-0.0779 0.08549,-0.14159 0.189983,-0.14159 0.10449,0 0.14553,0.11584 0.0912,0.25743 -0.132057,0.34414 0.0087,0.32434 0.512705,-0.0721 0.230433,-0.18126 0.346118,-0.37458 0.25708,-0.42961 -0.08904,-0.055 -1.199844,-0.14983 -2.468456,-0.21067 -1.801518,-0.0864 -2.336751,-0.0618 -2.444407,0.1124 -0.230228,0.37252 0.360279,0.65146 1.182839,0.55874 0.473459,-0.0534 0.792408,-0.01 0.872026,0.11898 0.07404,0.1198 0.241623,0.14934 0.408515,0.072 0.155638,-0.0721 0.533975,-0.12951 0.840748,-0.12754 z m -9.053041,-0.60337 c 0,-0.0837 -0.330279,-0.20166 -0.733953,-0.26219 -0.403675,-0.0605 -0.935649,-0.21471 -1.182166,-0.3426 -0.452342,-0.23468 -1.344692,-0.18138 -1.344692,0.0803 0,0.27811 0.446883,0.42067 1.630405,0.52014 0.660744,0.0555 1.297889,0.11346 1.415879,0.12872 0.11799,0.0153 0.214527,-0.0407 0.214527,-0.12439 z m 15.960812,-1.22084 c 0,-0.0944 -0.115844,-0.17162 -0.257432,-0.17162 -0.141588,0 -0.257433,0.0772 -0.257433,0.17162 0,0.0944 0.115845,0.17163 0.257433,0.17163 0.141588,0 0.257432,-0.0772 0.257432,-0.17163 z m -10.581716,-0.55777 c -0.136702,-0.73164 -0.402069,-1.01842 -0.402069,-0.43451 0,0.55228 0.158442,0.99228 0.357315,0.99228 0.08193,0 0.102072,-0.25099 0.04475,-0.55777 z m 20.87902,-0.3726 c 2.30341,-0.0314 2.71996,-0.0855 4.0331,-0.52402 0.37757,-0.12608 0.89052,-0.27456 1.13989,-0.32995 0.71821,-0.15954 2.47747,-1.76585 3.19203,-2.91453 0.3594,-0.57775 0.74974,-1.20491 0.86742,-1.39369 0.41172,-0.6605 1.06152,-2.06153 1.06318,-2.29235 0.001,-0.15624 -0.0972,-0.19083 -0.29866,-0.10509 -0.16519,0.0703 -0.56909,0.15392 -0.89757,0.18585 -0.32847,0.0319 -1.10077,0.30659 -1.71621,0.61037 -0.99352,0.49039 -1.29219,0.55453 -2.66359,0.57203 -1.38576,0.0177 -2.01946,-0.0695 -2.83176,-0.38967 -0.14158,-0.0558 -0.37815,-0.115 -0.52569,-0.13154 -0.6416,-0.0719 -1.70539,-1.10256 -1.70539,-1.65225 0,-0.11623 -0.20633,-0.50907 -0.45851,-0.87298 -0.25219,-0.3639 -0.48585,-0.90866 -0.51926,-1.21057 -0.29907,-2.70292 -0.33596,-2.48739 0.68095,-3.97848 0.55541,-0.81439 1.16651,-1.49498 1.5149,-1.68713 0.32117,-0.17715 0.73841,-0.45954 0.92719,-0.62755 0.18879,-0.168 0.51194,-0.39233 0.71811,-0.49852 0.68419,-0.35238 2.99508,-0.17062 4.1302,0.32486 0.99581,0.43467 1.22687,0.57272 1.15452,0.68977 -0.0429,0.0694 0.0633,0.16321 0.23607,0.20839 0.2623,0.0686 0.31846,-0.0295 0.34062,-0.59506 0.0214,-0.54592 -0.075,-0.7787 -0.49713,-1.20085 -0.28801,-0.28802 -0.73787,-0.89873 -0.99968,-1.35716 -0.71123,-1.2453 -1.66755,-2.21032 -2.19042,-2.21032 -0.32104,0 -0.41371,-0.0698 -0.34171,-0.25743 0.0543,-0.14159 0.0322,-0.25743 -0.0491,-0.25743 -0.0813,0 -0.1926,0.11656 -0.24727,0.25902 -0.0547,0.14247 -0.15947,0.24605 -0.23289,0.23019 -0.0734,-0.0159 -0.26706,0.0297 -0.43031,0.10123 -0.27357,0.11988 -1.01505,-0.14021 -2.38706,-0.83729 -0.39527,-0.20083 -0.49339,-0.19196 -0.7723,0.0698 -0.17572,0.16492 -0.64822,0.42625 -1.04998,0.58074 -0.61134,0.23507 -0.85416,0.24782 -1.48865,0.0781 -0.74088,-0.19815 -0.76982,-0.1903 -1.26912,0.3442 -0.28514,0.30525 -0.68371,0.54697 -0.90186,0.54697 -0.585,0 -1.54605,0.36077 -2.17679,0.81715 -0.49767,0.36009 -1.928368,2.10579 -1.928368,2.35295 0,0.0526 -0.347534,0.52224 -0.772298,1.04373 -0.424763,0.5215 -0.772297,1.01178 -0.772297,1.08952 0,0.0777 -0.231689,0.43289 -0.514865,0.78922 l -0.514865,0.64787 v 2.62641 c 0,1.56581 0.0693,2.66924 0.171622,2.73248 0.09439,0.0583 0.171621,0.40587 0.171621,0.77229 0,0.36643 0.06725,0.7078 0.149455,0.7586 0.0822,0.0508 0.196469,0.32745 0.253933,0.61476 0.05746,0.28732 0.299127,0.80884 0.537032,1.15895 0.239575,0.35257 0.432553,0.88156 0.432553,1.18571 0,0.41026 0.126065,0.63892 0.498453,0.90408 0.274149,0.19521 0.551385,0.35493 0.616077,0.35493 0.0647,0 0.540427,0.37684 1.057187,0.83742 0.51676,0.46057 1.47503,1.11286 2.12949,1.44952 1.02811,0.52886 1.30085,0.59893 2.00551,0.51521 0.44857,-0.0533 1.85818,-0.1111 3.13247,-0.12847 z m -24.027035,-0.61422 c 0,-0.0944 -0.07723,-0.17162 -0.171621,-0.17162 -0.09439,0 -0.171622,0.0772 -0.171622,0.17162 0,0.0944 0.07723,0.17162 0.171622,0.17162 0.09439,0 0.171621,-0.0772 0.171621,-0.17162 z m 2.231082,-0.6108 c 0,-0.14716 -0.07849,-0.21906 -0.174422,-0.15977 -0.09593,0.0593 -0.129988,0.17969 -0.07568,0.26756 0.147121,0.23805 0.250104,0.19366 0.250104,-0.10779 z m 4.977027,-1.27704 c 0,-0.0944 -0.07723,-0.17162 -0.171622,-0.17162 -0.09439,0 -0.171621,0.0772 -0.171621,0.17162 0,0.0944 0.07723,0.17162 0.171621,0.17162 0.09439,0 0.171622,-0.0772 0.171622,-0.17162 z m 32.693926,-2.23108 c 0.0583,-0.0944 -0.01,-0.17162 -0.15137,-0.17162 -0.14159,0 -0.30516,0.0772 -0.3635,0.17162 -0.0583,0.0944 0.01,0.17162 0.15137,0.17162 0.14158,0 0.30516,-0.0772 0.3635,-0.17162 z m 3.00338,-1.80203 c 0,-0.31746 -0.0172,-0.31749 -0.62397,-0.001 l -0.49158,0.25638 0.55778,0.001 c 0.38185,6.9e-4 0.55777,-0.0801 0.55777,-0.25638 z m 3.08656,-1.86594 c 10e-4,-0.0824 -0.11237,-0.0543 -0.25292,0.0623 -0.14055,0.11664 -0.20812,0.2888 -0.15017,0.38258 0.10637,0.1721 0.39791,-0.14971 0.40309,-0.44493 z m -43.001441,-0.30011 c -0.111221,-0.17996 -0.416209,-0.0355 -0.416209,0.19715 0,0.0859 0.115401,0.11182 0.256446,0.0577 0.141046,-0.0541 0.212939,-0.16881 0.159763,-0.25485 z m 42.677251,-0.0848 c 0.19906,-0.23985 0.18645,-0.26878 -0.0935,-0.21453 -0.17796,0.0345 -0.3557,0.15924 -0.39499,0.27723 -0.10193,0.30615 0.21624,0.26531 0.48847,-0.0627 z m -18.42713,-0.40926 c -0.0142,-0.18879 -0.12527,-0.34324 -0.24677,-0.34324 -0.27781,0 -0.27958,0.11946 -0.006,0.42976 0.27941,0.31735 0.28347,0.31597 0.25315,-0.0865 z m -24.66633,-0.61081 c 0,-0.14716 -0.07723,-0.21983 -0.171622,-0.16149 -0.09439,0.0583 -0.171621,0.17874 -0.171621,0.26756 0,0.0888 0.07723,0.1615 0.171621,0.1615 0.09439,0 0.171622,-0.12041 0.171622,-0.26757 z m 43.53267,-0.16889 c 0.13899,-0.36218 -0.093,-0.55772 -0.29072,-0.24506 -0.2101,0.33222 -0.20589,0.50989 0.0121,0.50989 0.0974,0 0.22274,-0.11917 0.27863,-0.26483 z m -46.965103,-0.93652 c 0,-0.0944 -0.03406,-0.17162 -0.07568,-0.17162 -0.04162,0 -0.123413,0.0772 -0.18175,0.17162 -0.05834,0.0944 -0.02428,0.17162 0.07568,0.17162 0.09996,0 0.18175,-0.0772 0.18175,-0.17162 z m -4.691744,-0.90098 c -0.04761,-0.11799 -0.08656,-0.0214 -0.08656,0.21453 0,0.23598 0.03895,0.33251 0.08656,0.21452 0.04761,-0.11799 0.04761,-0.31106 0,-0.42905 z m 47.811677,-0.71087 c 0.42751,-0.32452 0.37144,-0.50118 -0.12871,-0.40557 -0.23598,0.0451 -0.42906,0.0179 -0.42906,-0.0604 0,-0.0783 -0.11584,-0.098 -0.25743,-0.0436 -0.14159,0.0543 -0.25743,0.16533 -0.25743,0.24666 0,0.0813 0.12925,0.0983 0.28723,0.0377 0.2176,-0.0835 0.2605,-0.0406 0.177,0.17701 -0.13295,0.34648 0.18262,0.37154 0.6084,0.0483 z m 2.70305,-0.004 c 0,-0.0395 0.0447,-0.1883 0.0994,-0.33073 0.0746,-0.19446 0.0105,-0.23571 -0.25744,-0.16564 -0.4078,0.10665 -0.48852,0.56815 -0.0994,0.56815 0.14159,0 0.25744,-0.0323 0.25744,-0.0718 z m -4.27651,-0.27147 c 0.0867,0 0.15759,-0.1204 0.15759,-0.26756 0,-0.14716 -0.071,-0.22365 -0.15788,-0.16998 -0.0868,0.0537 -0.30985,-0.0956 -0.49559,-0.33175 l -0.33771,-0.42933 -0.0832,0.55641 c -0.0863,0.57716 0.13017,0.87342 0.53066,0.72622 0.12571,-0.0462 0.29947,-0.084 0.38615,-0.084 z m 4.79137,-0.68648 c 0,-0.0944 -0.0341,-0.17162 -0.0757,-0.17162 -0.0416,0 -0.12341,0.0772 -0.18175,0.17162 -0.0583,0.0944 -0.0243,0.17162 0.0757,0.17162 0.1,0 0.18175,-0.0772 0.18175,-0.17162 z m -12.7,-0.60068 c 0,-0.14159 -0.0772,-0.25743 -0.17162,-0.25743 -0.0944,0 -0.17162,0.11584 -0.17162,0.25743 0,0.14159 0.0772,0.25743 0.17162,0.25743 0.0944,0 0.17162,-0.11584 0.17162,-0.25743 z m 12.35676,0.18175 c 0,-0.0416 -0.0772,-0.12341 -0.17162,-0.18175 -0.0944,-0.0583 -0.17163,-0.0243 -0.17163,0.0757 0,0.1 0.0772,0.18175 0.17163,0.18175 0.0944,0 0.17162,-0.0341 0.17162,-0.0757 z m -2.97196,-0.47185 c -0.0548,-0.13691 -0.0954,-0.0962 -0.10368,0.10369 -0.007,0.18092 0.0331,0.28228 0.0901,0.22525 0.057,-0.057 0.0631,-0.20505 0.0135,-0.32894 z m -1.60174,-0.65431 c -0.28906,-0.57943 -0.42396,-0.66109 -0.35438,-0.21452 0.0609,0.39076 0.27578,0.72939 0.46289,0.72939 0.0816,0 0.0328,-0.23169 -0.10851,-0.51487 z m -7.67937,-0.12514 c -0.17446,-0.17445 -0.3184,0.0882 -0.17527,0.3198 0.10813,0.17495 0.14856,0.17509 0.20669,6.8e-4 0.0397,-0.11924 0.0256,-0.26346 -0.0314,-0.32049 z m 3.84361,-0.2181 c 0,-0.0944 -0.0818,-0.17162 -0.18175,-0.17162 -0.1,0 -0.13402,0.0772 -0.0757,0.17162 0.0583,0.0944 0.14012,0.17162 0.18175,0.17162 0.0416,0 0.0757,-0.0772 0.0757,-0.17162 z m -9.78244,-0.17162 c 0,-0.0944 -0.0772,-0.17162 -0.17162,-0.17162 -0.0944,0 -0.17162,0.0772 -0.17162,0.17162 0,0.0944 0.0772,0.17162 0.17162,0.17162 0.0944,0 0.17162,-0.0772 0.17162,-0.17162 z m -22.401943,-0.67788 c 0.05541,-0.0896 -0.05588,-0.24683 -0.247304,-0.34928 -0.296658,-0.15877 -0.34805,-0.1347 -0.34805,0.16301 0,0.35493 0.411537,0.48369 0.595354,0.18627 z m 35.099323,-0.31908 c -0.002,-0.25009 -0.0256,-0.25463 -0.169,-0.0328 -0.2172,0.3361 -0.2172,0.56329 0,0.42905 0.0944,-0.0583 0.17044,-0.23666 0.169,-0.39628 z m 1.54722,-0.0328 c 0,-0.0944 -0.0341,-0.17162 -0.0757,-0.17162 -0.0416,0 -0.12341,0.0772 -0.18175,0.17162 -0.0583,0.0944 -0.0243,0.17162 0.0757,0.17162 0.1,0 0.18175,-0.0772 0.18175,-0.17162 z m -1.5446,-0.51487 c 0,-0.0944 -0.0772,-0.17162 -0.17162,-0.17162 -0.0944,0 -0.17162,0.0772 -0.17162,0.17162 0,0.0944 0.0772,0.17162 0.17162,0.17162 0.0944,0 0.17162,-0.0772 0.17162,-0.17162 z m -3.77567,-0.25743 c 0,-0.14159 -0.1253,-0.25743 -0.27845,-0.25743 -0.22805,0 -0.23978,0.0466 -0.0648,0.25743 0.11751,0.14159 0.24281,0.25743 0.27845,0.25743 0.0356,0 0.0648,-0.11584 0.0648,-0.25743 z m -0.58511,-0.55651 c -0.11902,-0.11901 -0.44462,0.12281 -0.44462,0.33022 0,0.1138 0.0985,0.10078 0.26158,-0.0346 0.14387,-0.1194 0.22624,-0.25244 0.18304,-0.29564 z m 9.5409,-0.42459 c -0.12315,-0.12315 -0.20309,-0.13328 -0.20309,-0.0258 0,0.22908 0.20296,0.43204 0.3175,0.3175 0.0488,-0.0488 -0.003,-0.18006 -0.11441,-0.29175 z m -3.4639,-0.13444 c 0,-0.0944 -0.0341,-0.17162 -0.0757,-0.17162 -0.0416,0 -0.12341,0.0772 -0.18175,0.17162 -0.0583,0.0944 -0.0243,0.17162 0.0757,0.17162 0.1,0 0.18175,-0.0772 0.18175,-0.17162 z m -1.42736,-1.23353 c -0.0548,-0.13691 -0.0954,-0.0962 -0.10368,0.10369 -0.007,0.18092 0.0331,0.28228 0.0901,0.22525 0.057,-0.057 0.0631,-0.20505 0.0135,-0.32894 z m -5.51106,-0.0414 c 0.33258,-0.33258 0.30842,-0.44132 -0.0981,-0.44132 -0.22882,0 -0.34324,0.11442 -0.34324,0.34325 0,0.40649 0.10873,0.43065 0.44131,0.0981 z m 6.42356,-0.26969 c 0,-0.0944 -0.0341,-0.17163 -0.0757,-0.17163 -0.0416,0 -0.12342,0.0772 -0.18175,0.17163 -0.0583,0.0944 -0.0243,0.17162 0.0757,0.17162 0.1,0 0.18175,-0.0772 0.18175,-0.17162 z m 2.91756,-0.18175 c 0,-0.19436 -0.0772,-0.30565 -0.17162,-0.24731 -0.0944,0.0583 -0.17162,0.21736 -0.17162,0.35337 0,0.13602 0.0772,0.24731 0.17162,0.24731 0.0944,0 0.17162,-0.15902 0.17162,-0.35337 z m -36.727028,0.0101 c 0,-0.0944 -0.03406,-0.17162 -0.07568,-0.17162 -0.04162,0 -0.123413,0.0772 -0.181751,0.17162 -0.05834,0.0944 -0.02428,0.17163 0.07568,0.17163 0.09996,0 0.18175,-0.0772 0.181751,-0.17163 z m -2.062087,-0.64358 c -0.0014,-0.0708 -0.06796,-0.23178 -0.147812,-0.35775 -0.110382,-0.17413 -0.167608,-0.14328 -0.238737,0.12872 -0.06207,0.23735 -0.01232,0.35775 0.147811,0.35775 0.132752,0 0.240183,-0.0579 0.238738,-0.12872 z m 7.210737,-0.55777 c 0,-0.0944 -0.07723,-0.17162 -0.171622,-0.17162 -0.09439,0 -0.171622,0.0772 -0.171622,0.17162 0,0.0944 0.07723,0.17162 0.171622,0.17162 0.09439,0 0.171622,-0.0772 0.171622,-0.17162 z m 25.477228,0.0121 c -0.0897,-0.0877 -0.39473,-0.204 -0.6779,-0.25841 l -0.51487,-0.0989 0.51487,0.25067 c 0.60061,0.29241 0.91902,0.34251 0.6779,0.10667 z m -6.59885,-1.38512 c 0,-0.0944 -0.0341,-0.17162 -0.0757,-0.17162 -0.0416,0 -0.12341,0.0772 -0.18175,0.17162 -0.0583,0.0944 -0.0243,0.17162 0.0757,0.17162 0.1,0 0.18175,-0.0772 0.18175,-0.17162 z m -22.310811,-0.84798 c 0,-0.31414 -0.286457,-0.63899 -0.433666,-0.49178 -0.11788,0.11788 0.123872,0.82489 0.28206,0.82489 0.08338,0 0.151606,-0.1499 0.151606,-0.33311 z m -3.40097,-0.21894 c -0.123148,-0.12314 -0.203085,-0.13328 -0.203085,-0.0257 0,0.22908 0.202962,0.43204 0.3175,0.3175 0.04877,-0.0488 -0.0027,-0.18006 -0.114415,-0.29176 z m 2.542862,0.0372 c 0,-0.0944 -0.07723,-0.17162 -0.171622,-0.17162 -0.09439,0 -0.171622,0.0772 -0.171622,0.17162 0,0.0944 0.07723,0.17162 0.171622,0.17162 0.09439,0 0.171622,-0.0772 0.171622,-0.17162 z m 9.353379,-0.68649 c 0.0583,-0.0944 0.0243,-0.17162 -0.0757,-0.17162 -0.1,0 -0.18175,0.0772 -0.18175,0.17162 0,0.0944 0.0341,0.17162 0.0757,0.17162 0.0416,0 0.12341,-0.0772 0.18175,-0.17162 z m -4.220612,-1.0444 c 0.116212,-0.38788 0.163126,-0.7534 0.104257,-0.81227 -0.158301,-0.1583 -0.414098,0.32966 -0.312124,0.59541 0.04826,0.12575 -0.03612,0.27617 -0.1875,0.33426 -0.151631,0.0582 -0.275238,0.29949 -0.275238,0.53732 0,0.63031 0.403683,0.23619 0.670605,-0.65472 z m -2.460373,0.62761 c 0.321377,-0.32138 0.31414,-0.78456 -0.01226,-0.78456 -0.141588,0 -0.257432,-0.1204 -0.257432,-0.26756 0,-0.14897 -0.0827,-0.21645 -0.186576,-0.15225 -0.134354,0.083 -0.134354,0.16753 0,0.30188 0.23413,0.23413 0.244731,0.80442 0.01495,0.80442 -0.09439,0 -0.171622,0.0772 -0.171622,0.17162 0,0.2496 0.329303,0.21008 0.612935,-0.0736 z m 12.430315,-0.10505 c 0.2142,-0.14423 0.14935,-0.26627 -0.38616,-0.72676 -0.35398,-0.30438 -0.64359,-0.65452 -0.64358,-0.77808 0,-0.12356 -0.0756,-0.17791 -0.16807,-0.12078 -0.0924,0.0571 -0.33132,0.0165 -0.53085,-0.0903 -0.47413,-0.25375 -1.21004,-0.0765 -1.0808,0.26032 0.0726,0.18924 0.27739,0.22531 0.84066,0.14811 0.72772,-0.0997 0.75056,-0.0879 1.00472,0.52038 0.14304,0.34234 0.36055,0.62362 0.48336,0.62506 0.1605,0.002 0.1509,0.0494 -0.0341,0.169 -0.22883,0.14788 -0.22883,0.16636 0,0.16636 0.14159,0 0.37327,-0.078 0.51486,-0.17334 z m -17.657205,-0.63394 c 0.03944,0.0221 0.01922,-0.0264 -0.04492,-0.10784 -0.168956,-0.21454 -0.490704,0.0331 -0.484316,0.37274 0.0051,0.26891 0.02204,0.26837 0.231497,-0.007 0.124321,-0.16372 0.258304,-0.27957 0.297739,-0.25743 z m 13.564875,-0.0321 c 0.27943,-0.4912 0.27695,-0.50105 -0.15354,-0.60909 -0.59092,-0.14831 -0.92756,0.19083 -0.38767,0.39055 0.2627,0.0972 0.33215,0.19156 0.20071,0.27279 -0.11052,0.0683 -0.20096,0.19687 -0.20096,0.28569 0,0.31609 0.26174,0.15176 0.54146,-0.33994 z m 7.52476,0.32981 c 0,-0.0944 -0.0341,-0.17162 -0.0757,-0.17162 -0.0416,0 -0.12341,0.0772 -0.18175,0.17162 -0.0583,0.0944 -0.0243,0.17163 0.0757,0.17163 0.1,0 0.18175,-0.0772 0.18175,-0.17163 z m 1.98735,0.0222 c -0.0508,-0.0822 -0.30636,-0.19263 -0.5679,-0.24541 -0.26154,-0.0528 -0.62335,-0.15311 -0.80402,-0.22296 -0.22764,-0.088 -0.29091,-0.0662 -0.20608,0.0711 0.0673,0.10894 0.36961,0.26956 0.67173,0.35693 0.72621,0.21002 1.01918,0.22306 0.90627,0.0404 z m -21.235492,-0.4423 c 0.03793,-0.19565 -0.02392,-0.27817 -0.171621,-0.22899 -0.127004,0.0423 -0.257601,0.21454 -0.290212,0.38277 -0.03793,0.19566 0.02392,0.27818 0.171621,0.22899 0.127004,-0.0423 0.257601,-0.21454 0.290212,-0.38277 z m 16.752292,0.26037 c 0.0543,-0.0879 0.0203,-0.20827 -0.0757,-0.26756 -0.0959,-0.0593 -0.17442,0.0126 -0.17442,0.15976 0,0.30146 0.10299,0.34585 0.25011,0.1078 z m 1.91992,-0.26941 c 0.0136,-0.23591 -0.036,-0.42893 -0.11035,-0.42893 -0.18593,0 -0.36636,0.51057 -0.24807,0.70197 0.17504,0.28321 0.33328,0.16266 0.35842,-0.27304 z m 4.52323,-0.1067 c 0,-0.19013 -0.18945,-0.18842 -0.49395,0.004 -0.13008,0.0824 -0.18113,0.23942 -0.11344,0.34895 0.0933,0.15089 0.18175,0.15045 0.36523,-0.002 0.13319,-0.11053 0.24216,-0.26874 0.24216,-0.35157 z m -12.18514,0.19263 c 0,-0.0944 -0.0772,-0.17162 -0.17162,-0.17162 -0.0944,0 -0.17162,0.0772 -0.17162,0.17162 0,0.0944 0.0772,0.17162 0.17162,0.17162 0.0944,0 0.17162,-0.0772 0.17162,-0.17162 z m -9.26757,-0.34324 c 0,-0.0944 -0.07723,-0.17162 -0.171621,-0.17162 -0.09439,0 -0.171622,0.0772 -0.171622,0.17162 0,0.0944 0.07723,0.17162 0.171622,0.17162 0.09439,0 0.171621,-0.0772 0.171621,-0.17162 z m 0.463865,-0.42906 c -0.0094,-0.33037 -0.06994,-0.60067 -0.134619,-0.60067 -0.21728,0 -0.316824,0.75209 -0.129427,0.97789 0.264543,0.31876 0.283025,0.29235 0.264046,-0.37722 z m 5.542893,0.23718 c 0,-0.0944 -0.07723,-0.12389 -0.171622,-0.0656 -0.09439,0.0583 -0.171622,0.18329 -0.171622,0.27769 0,0.0944 0.07723,0.12389 0.171622,0.0656 0.09439,-0.0583 0.171622,-0.1833 0.171622,-0.27769 z m 9.971872,-0.0306 c -0.22028,-0.22027 -0.44365,-0.05 -0.28058,0.21384 0.0632,0.10221 0.19348,0.13725 0.28958,0.0779 0.11721,-0.0724 0.11425,-0.16844 -0.009,-0.2917 z m 3.24299,0.3184 c 0,-0.0416 -0.0772,-0.12341 -0.17162,-0.18175 -0.0944,-0.0583 -0.17162,-0.0243 -0.17162,0.0757 0,0.1 0.0772,0.18175 0.17162,0.18175 0.0944,0 0.17162,-0.0341 0.17162,-0.0757 z M 31.264464,228.7938 c -0.113271,-0.11327 -0.205946,-0.28317 -0.205946,-0.37757 0,-0.0953 0.09153,-0.0801 0.205946,0.0343 0.11327,0.11327 0.402881,0.201 0.643581,0.19497 0.426265,-0.0107 0.423406,-0.0181 -0.110037,-0.28379 -0.506984,-0.25254 -0.581981,-0.25033 -1.00946,0.0298 -0.362101,0.23726 -0.410591,0.335 -0.224625,0.45278 0.130439,0.0826 0.38776,0.15139 0.571824,0.15284 0.260294,0.002 0.288896,-0.0431 0.128717,-0.20332 z m 4.084594,-0.30892 c 0,-0.0944 -0.0818,-0.17162 -0.18175,-0.17162 -0.1,0 -0.13402,0.0772 -0.0757,0.17162 0.0583,0.0944 0.14013,0.17162 0.18175,0.17162 0.0416,0 0.0757,-0.0772 0.0757,-0.17162 z m -7.722973,-0.0757 c 0,-0.0416 -0.07723,-0.12341 -0.171622,-0.18175 -0.09439,-0.0583 -0.171621,-0.0243 -0.171621,0.0757 0,0.1 0.07723,0.18175 0.171621,0.18175 0.09439,0 0.171622,-0.0341 0.171622,-0.0757 z m 0.858108,-0.26756 c 0,-0.0944 -0.08179,-0.17162 -0.181751,-0.17162 -0.09996,0 -0.134019,0.0772 -0.07568,0.17162 0.05834,0.0944 0.140125,0.17162 0.18175,0.17162 0.04162,0 0.07568,-0.0772 0.07568,-0.17162 z m 16.639435,-0.18632 c -0.10536,-0.19687 -0.22574,-0.32377 -0.26751,-0.282 -0.12012,0.12012 0.12339,0.63994 0.29977,0.63994 0.0877,0 0.0732,-0.16095 -0.0323,-0.35794 z m 1.72408,-0.0711 c 0,-0.14159 -0.0772,-0.25744 -0.17162,-0.25744 -0.0944,0 -0.17162,0.11585 -0.17162,0.25744 0,0.14158 0.0772,0.25743 0.17162,0.25743 0.0944,0 0.17162,-0.11585 0.17162,-0.25743 z m 3.56973,0.0515 c 0.28194,-0.28194 0.25914,-0.49018 -0.0411,-0.37498 -0.13814,0.053 -0.34072,-0.0553 -0.45964,-0.24569 -0.11695,-0.18727 -0.31471,-0.30131 -0.43948,-0.25344 -0.14687,0.0564 -0.2311,-0.0556 -0.23891,-0.31746 -0.0112,-0.37575 -0.0218,-0.3801 -0.14859,-0.0613 -0.0751,0.18879 -0.0779,0.36626 -0.006,0.39438 0.0717,0.0281 0.0878,0.2212 0.0359,0.42906 -0.0936,0.37431 -0.091,0.3748 0.27565,0.051 0.36831,-0.32528 0.37019,-0.32463 0.37019,0.12872 0,0.48264 0.30315,0.59871 0.65216,0.2497 z m -18.844056,-0.23317 c 0,-0.14716 -0.07849,-0.21906 -0.17442,-0.15977 -0.09593,0.0593 -0.12999,0.17969 -0.07568,0.26756 0.147119,0.23805 0.250102,0.19366 0.250102,-0.10779 z m 20.671726,-0.13591 0.37393,-0.40347 -0.48296,-0.1823 c -0.26563,-0.10027 -0.48296,-0.30485 -0.48296,-0.45464 0,-0.14979 -0.11453,-0.27234 -0.2545,-0.27234 -0.20872,0 -0.19328,0.109 0.0858,0.6059 0.38109,0.6785 0.42027,0.83675 0.16869,0.68126 -0.19089,-0.11797 -0.23688,0.13497 -0.0572,0.31464 0.17633,0.17634 0.24709,0.14483 0.6492,-0.28905 z m -26.506861,-0.14406 c 0,-0.22558 -0.390058,-0.0843 -0.475574,0.17222 -0.0418,0.12541 0.03666,0.16377 0.203801,0.0996 0.149475,-0.0574 0.271773,-0.17969 0.271773,-0.27185 z m 7.37973,0.0327 c 0,-0.18878 -0.06068,-0.34324 -0.134845,-0.34324 -0.07417,0 -0.134846,0.15446 -0.134846,0.34324 0,0.18879 0.06068,0.34325 0.134846,0.34325 0.07416,0 0.134845,-0.15446 0.134845,-0.34325 z m 11.329121,0.12326 c 0.3215,-0.25899 0.69788,-1.0823 0.5585,-1.22168 -0.22487,-0.22487 -0.424,-0.0838 -0.33924,0.24031 0.0576,0.22035 0.005,0.34325 -0.14622,0.34325 -0.14498,0 -0.19568,0.10501 -0.13149,0.27229 0.0798,0.208 0.0114,0.25866 -0.28977,0.21453 -0.21685,-0.0318 -0.42719,0.0388 -0.46742,0.15676 -0.0936,0.27446 0.47287,0.27067 0.81564,-0.005 z m -17.421689,-0.29488 c 0.05992,-0.18878 0.238889,-0.34934 0.397714,-0.35679 0.236512,-0.0111 0.242182,-0.0313 0.03134,-0.11155 -0.141588,-0.0539 -0.314172,-0.18295 -0.383521,-0.28679 -0.09061,-0.13567 -0.126827,-0.13406 -0.128716,0.006 -0.0014,0.10698 -0.162866,0.23642 -0.358712,0.28763 -0.301463,0.0788 -0.326862,0.14772 -0.165582,0.44907 0.240473,0.44933 0.467393,0.45408 0.607477,0.0127 z m 2.145271,-0.0858 c 0.119179,-0.1436 0.137764,-0.25743 0.04203,-0.25743 -0.09439,0 -0.267764,0.11584 -0.385272,0.25743 -0.119179,0.1436 -0.137764,0.25743 -0.04203,0.25743 0.09439,0 0.267764,-0.11584 0.385272,-0.25743 z m 4.805408,0.0858 c 0,-0.0944 -0.0818,-0.17162 -0.18175,-0.17162 -0.1,0 -0.13402,0.0772 -0.0757,0.17162 0.0583,0.0944 0.14012,0.17162 0.18175,0.17162 0.0416,0 0.0757,-0.0772 0.0757,-0.17162 z m 2.57432,0 c 0,-0.0944 -0.0727,-0.17162 -0.16149,-0.17162 -0.0888,0 -0.20922,0.0772 -0.26756,0.17162 -0.0583,0.0944 0.0143,0.17162 0.16149,0.17162 0.14716,0 0.26756,-0.0772 0.26756,-0.17162 z m 3.47212,-0.166 c 0.23607,-0.18569 0.47294,-0.2939 0.52638,-0.24046 0.0534,0.0534 0.0548,-0.0649 0.003,-0.26305 -0.0518,-0.19812 -0.2056,-0.36022 -0.34175,-0.36022 -0.13778,0 -0.1953,0.0845 -0.12972,0.19064 0.0648,0.10484 -0.10441,0.37237 -0.37602,0.5945 -0.59444,0.48614 -0.29425,0.5603 0.31814,0.0786 z m 6.93758,0.0728 c 0.15966,-0.41606 -0.0631,-0.49117 -0.27615,-0.0931 -0.13284,0.2482 -0.13545,0.35794 -0.008,0.35794 0.10067,0 0.22877,-0.11917 0.28467,-0.26483 z m -9.55159,-0.18424 c 0,-0.0362 -0.15446,-0.0658 -0.34324,-0.0658 -0.18879,0 -0.34325,0.07 -0.34325,0.15555 0,0.0856 0.15446,0.11516 0.34325,0.0658 0.18878,-0.0494 0.34324,-0.11937 0.34324,-0.15556 z m 0.85811,-0.17162 c 0,-0.19356 0.10446,-0.25013 0.34549,-0.1871 0.35749,0.0935 0.83484,-0.48095 0.58884,-0.7086 -0.0678,-0.0627 -0.15769,-0.0175 -0.19983,0.10051 -0.0421,0.11799 -0.20533,0.21696 -0.36265,0.21992 -0.15732,0.003 -0.4248,0.19604 -0.59439,0.42906 -0.26477,0.36378 -0.27083,0.42366 -0.0429,0.42366 0.14599,0 0.26544,-0.12485 0.26544,-0.27745 z m 10.12568,0.10583 c 0,-0.0944 -0.0772,-0.17162 -0.17163,-0.17162 -0.0944,0 -0.17162,0.0772 -0.17162,0.17162 0,0.0944 0.0772,0.17162 0.17162,0.17162 0.0944,0 0.17163,-0.0772 0.17163,-0.17162 z m 2.31689,0 c -0.0583,-0.0944 -0.17874,-0.17162 -0.26756,-0.17162 -0.0888,0 -0.1615,0.0772 -0.1615,0.17162 0,0.0944 0.12041,0.17162 0.26757,0.17162 0.14715,0 0.21983,-0.0772 0.16149,-0.17162 z m -19.495692,-0.23739 c 0.151166,-0.18215 0.13999,-0.25928 -0.04802,-0.33142 -0.284736,-0.10926 -0.450214,0.0157 -0.450214,0.33998 0,0.29695 0.248215,0.29269 0.498232,-0.009 z m -0.841475,-0.10586 c 0,-0.0944 -0.07723,-0.17162 -0.171622,-0.17162 -0.09439,0 -0.171621,0.0772 -0.171621,0.17162 0,0.0944 0.07723,0.17163 0.171621,0.17163 0.09439,0 0.171622,-0.0772 0.171622,-0.17163 z m 17.646807,-0.22926 c 0.0793,-0.4087 -0.45589,-0.55953 -0.79216,-0.22326 -0.26012,0.26012 -0.25913,0.2809 0.0133,0.2809 0.16182,0 0.29421,0.0837 0.29421,0.18593 0,0.28991 0.42234,0.0777 0.48464,-0.24357 z m -13.95694,0.0576 c 0.0583,-0.0944 -0.0189,-0.17162 -0.17162,-0.17162 -0.15273,0 -0.22996,0.0772 -0.17162,0.17162 0.0583,0.0944 0.13556,0.17162 0.17162,0.17162 0.0361,0 0.11328,-0.0772 0.17162,-0.17162 z m 1.06528,-0.58964 c -0.14766,-0.14766 -0.35121,-0.26847 -0.45235,-0.26847 -0.20767,0 -0.24846,-0.39307 -0.0603,-0.58121 0.068,-0.068 0.12588,-0.28733 0.12872,-0.48749 0.004,-0.2555 0.1555,-0.40436 0.50979,-0.49962 0.89189,-0.23981 1.30974,0.46191 0.5251,0.88184 -0.43288,0.23166 -0.57448,0.51486 -0.25744,0.51486 0.0944,0 0.17162,0.10639 0.17162,0.23642 0,0.38883 0.49319,0.71202 0.72809,0.47712 0.15048,-0.15048 0.11601,-0.19867 -0.14212,-0.19867 -0.21719,0 -0.34079,-0.11518 -0.34079,-0.31756 0,-0.22025 0.0938,-0.29303 0.30616,-0.2375 0.46863,0.12255 1.16488,-0.41676 1.16488,-0.9023 0,-0.30151 -0.0721,-0.39204 -0.25598,-0.32148 -0.14851,0.057 -0.29263,-0.0173 -0.34325,-0.177 -0.048,-0.15139 -0.12532,-0.39598 -0.17186,-0.54355 -0.0465,-0.14757 -0.17061,-0.21515 -0.27575,-0.15017 -0.13716,0.0848 -0.13159,0.15495 0.0197,0.24846 0.11598,0.0717 0.16965,0.23579 0.11927,0.36469 -0.0575,0.14713 -0.17512,0.0267 -0.31598,-0.32339 -0.21927,-0.54506 -0.49237,-0.74814 -0.49237,-0.36613 0,0.10904 -0.15247,0.15176 -0.35374,0.0991 -0.20356,-0.0532 -0.38937,3.4e-4 -0.43765,0.12616 -0.0492,0.12824 -0.25691,0.1856 -0.50224,0.1387 -0.60145,-0.11497 -0.74346,0.38403 -0.22807,0.80137 0.39733,0.32174 0.39845,0.33169 0.0777,0.68609 -0.17962,0.19848 -0.23662,0.35961 -0.12722,0.35961 0.10902,0 0.19822,0.11064 0.19822,0.24587 0,0.13523 0.15446,0.29489 0.34324,0.35481 0.18879,0.0599 0.34325,0.19641 0.34325,0.30332 0,0.14445 0.0501,0.14431 0.19491,-5.3e-4 0.14547,-0.14547 0.12681,-0.26302 -0.0735,-0.46338 z m 1.07999,-0.78333 c 0,-0.0944 0.1204,-0.17162 0.26756,-0.17162 0.14716,0 0.21983,0.0772 0.16149,0.17162 -0.0583,0.0944 -0.17874,0.17162 -0.26756,0.17162 -0.0888,0 -0.16149,-0.0772 -0.16149,-0.17162 z m -2.05946,-1.02973 c 0,-0.0944 0.0772,-0.17162 0.17162,-0.17162 0.0944,0 0.17162,0.0772 0.17162,0.17162 0,0.0944 -0.0772,0.17162 -0.17162,0.17162 -0.0944,0 -0.17162,-0.0772 -0.17162,-0.17162 z m -6.350002,2.05946 c 0,-0.0944 -0.08179,-0.17162 -0.18175,-0.17162 -0.09996,0 -0.13402,0.0772 -0.07568,0.17162 0.05834,0.0944 0.140126,0.17162 0.181751,0.17162 0.04162,0 0.07568,-0.0772 0.07568,-0.17162 z m 16.060182,-0.45561 c -0.0953,-0.24834 -0.14586,-0.26173 -0.26434,-0.07 -0.1964,0.31777 -0.0195,0.77874 0.21055,0.54869 0.0944,-0.0944 0.1186,-0.3098 0.0538,-0.47868 z m -6.10613,0.11237 c 0,-0.0944 -0.0341,-0.17163 -0.0757,-0.17163 -0.0416,0 -0.12341,0.0772 -0.18175,0.17163 -0.0583,0.0944 -0.0243,0.17162 0.0757,0.17162 0.1,0 0.18175,-0.0772 0.18175,-0.17162 z m 0.51487,0 c 0,-0.0944 -0.0341,-0.17163 -0.0757,-0.17163 -0.0416,0 -0.12341,0.0772 -0.18175,0.17163 -0.0583,0.0944 -0.0243,0.17162 0.0757,0.17162 0.1,0 0.18175,-0.0772 0.18175,-0.17162 z m 1.16071,-0.77443 c -0.0248,-0.11758 0.1479,-0.38166 0.38388,-0.58686 l 0.42906,-0.37307 -0.42105,0.11752 c -0.57005,0.15912 -0.77779,0.41144 -0.80646,0.97953 -0.0198,0.39319 0.0189,0.44252 0.21781,0.27744 0.13306,-0.11043 0.2216,-0.29699 0.19676,-0.41456 z m -14.203956,-0.98016 c 0,-0.0935 -0.12216,-0.1231 -0.27147,-0.0658 -0.149307,0.0573 -0.342381,0.10417 -0.429054,0.10417 -0.08667,0 -0.157584,0.0665 -0.157584,0.14782 0,0.0813 0.193074,0.11092 0.429054,0.0658 0.23598,-0.0451 0.429054,-0.15851 0.429054,-0.252 z m 16.750986,-0.0868 c -0.17445,-0.17446 -0.3184,0.0882 -0.17526,0.3198 0.10813,0.17495 0.14855,0.17508 0.20668,6.8e-4 0.0398,-0.11924 0.0256,-0.26346 -0.0314,-0.32049 z m -3.49321,0.0115 c -0.11799,-0.0476 -0.31107,-0.0476 -0.42906,0 -0.11799,0.0476 -0.0215,0.0866 0.21453,0.0866 0.23598,0 0.33252,-0.0389 0.21453,-0.0866 z m -1.24426,-1.10795 c 0,-0.0944 -0.0772,-0.12389 -0.17162,-0.0656 -0.0944,0.0583 -0.17162,0.18329 -0.17162,0.27769 0,0.0944 0.0772,0.12389 0.17162,0.0656 0.0944,-0.0583 0.17162,-0.1833 0.17162,-0.27769 z m 1.09553,-0.61628 c -0.21163,-0.15474 -0.35759,-0.16387 -0.51616,-0.0323 -0.1216,0.10092 -0.3017,0.13367 -0.40023,0.0728 -0.0985,-0.0609 -0.17914,-0.0278 -0.17914,0.0736 0,0.10135 0.24981,0.33619 0.55514,0.52187 l 0.55513,0.3376 0.14016,-0.37889 c 0.10226,-0.27642 0.0604,-0.43724 -0.1549,-0.59465 z m 8.6869,2.52438 c 0,-0.0944 0.0772,-0.17163 0.17162,-0.17163 0.0944,0 0.17163,0.0772 0.17163,0.17163 0,0.0944 -0.0772,0.17162 -0.17163,0.17162 -0.0944,0 -0.17162,-0.0772 -0.17162,-0.17162 z m 1.5446,-0.24127 c 0,-0.20711 -0.0927,-0.46925 -0.20595,-0.58252 -0.2896,-0.2896 0.0568,-0.25688 0.48961,0.0462 0.54525,0.3819 0.60854,0.85789 0.11809,0.88811 -0.30671,0.0189 -0.40175,-0.0643 -0.40175,-0.35183 z m 1.11554,-0.10198 c 0.0583,-0.0944 0.14012,-0.17162 0.18175,-0.17162 0.0416,0 0.0757,0.0772 0.0757,0.17162 0,0.0944 -0.0818,0.17162 -0.18175,0.17162 -0.1,0 -0.13402,-0.0772 -0.0757,-0.17162 z m -3.12114,-0.33882 c 0.0663,-0.43415 0.21867,-0.58325 0.45005,-0.44024 0.12801,0.0791 0.12963,0.21406 0.005,0.44623 -0.23156,0.43267 -0.52179,0.42885 -0.45543,-0.006 z m 0.63262,0.0957 c 0,-0.14945 0.12228,-0.27173 0.27174,-0.27173 0.14945,0 0.24116,0.0917 0.2038,0.2038 -0.10608,0.31822 -0.47554,0.371 -0.47554,0.0679 z m 1.88784,-0.44335 c 0,-0.0944 0.0818,-0.17163 0.18175,-0.17163 0.1,0 0.13402,0.0772 0.0757,0.17163 -0.0583,0.0944 -0.14012,0.17162 -0.18175,0.17162 -0.0416,0 -0.0757,-0.0772 -0.0757,-0.17162 z m -2.96333,-0.36454 c 0.11642,-0.11729 0.2549,-0.17002 0.30774,-0.11718 0.0528,0.0528 -0.0424,0.1488 -0.21167,0.21325 -0.24459,0.0931 -0.26431,0.0734 -0.0961,-0.0961 z m -3.82758,-0.51276 c -0.14277,-0.231 0.23773,-0.49702 0.54323,-0.37978 0.27407,0.10517 0.11391,0.57059 -0.19636,0.57059 -0.12592,0 -0.28201,-0.0859 -0.34687,-0.19081 z m 3.5301,0.0394 c 0,-0.0944 0.0772,-0.21936 0.17162,-0.27769 0.0944,-0.0583 0.17162,-0.0288 0.17162,0.0655 0,0.0944 -0.0772,0.21935 -0.17162,0.27769 -0.0944,0.0583 -0.17162,0.0288 -0.17162,-0.0656 z m 0.68649,-0.0203 c 0,-0.0944 0.11584,-0.17162 0.25743,-0.17162 0.14159,0 0.25743,0.0772 0.25743,0.17162 0,0.0944 -0.11584,0.17162 -0.25743,0.17162 -0.14159,0 -0.25743,-0.0772 -0.25743,-0.17162 z m -2.91757,-0.17162 c -0.17162,-0.11091 -0.18592,-0.16725 -0.0429,-0.169 0.42522,-0.005 0.2071,-0.49557 -0.2442,-0.549 -0.2523,-0.0299 -0.48885,-0.14611 -0.52566,-0.25833 -0.0687,-0.20928 0.66815,-0.19455 2.0658,0.0413 0.80162,0.13526 0.75187,0.50599 -0.0679,0.50599 -0.73789,0 -1.15952,0.23105 -0.81732,0.44788 0.12807,0.0812 0.15562,0.14754 0.0612,0.14754 -0.0944,0 -0.28746,-0.0749 -0.42905,-0.16636 z m 3.9473,-0.0101 c 0,-0.1 0.0772,-0.13402 0.17162,-0.0757 0.0944,0.0583 0.17162,0.14012 0.17162,0.18175 0,0.0416 -0.0772,0.0757 -0.17162,0.0757 -0.0944,0 -0.17162,-0.0818 -0.17162,-0.18175 z m -1.20135,-0.33312 c 0,-0.0944 0.0772,-0.17162 0.17162,-0.17162 0.0944,0 0.17162,0.0772 0.17162,0.17162 0,0.0944 -0.0772,0.17162 -0.17162,0.17162 -0.0944,0 -0.17162,-0.0772 -0.17162,-0.17162 z m -4.24764,-0.46909 c -0.34673,-0.12021 -0.24561,-0.56064 0.12872,-0.56064 0.18878,0 0.34206,0.0579 0.34061,0.12872 -0.005,0.26677 -0.26273,0.50355 -0.46933,0.43192 z"
       id="path85"
       inkscape:connector-curvature="0" />
  </g>
</svg>
