<svg xmlns="http://www.w3.org/2000/svg" width="3in" height="3in" viewBox="0 0 76.2 76.2"><path d="M15.257 76.154c-.27-.167-.26-1.715.016-2.23.158-.294.138-.429-.103-.695-.236-.26-.26-.412-.118-.726.11-.24.12-.503.028-.67-.084-.15-.152-.453-.15-.675.009-1.784-.464-10.933-.606-11.726-.07-.393-.001-.585.298-.83.249-.205.287-.288.107-.231-.393.125-.493-.54-.292-1.935.216-1.495.039-2.907-.562-4.469-.271-.706-.494-1.4-.494-1.544 0-.144-.162-.686-.361-1.206-.496-1.295-.863-2.74-.745-2.932.054-.088-.066-.39-.266-.671-.2-.282-.412-.8-.469-1.154a3.994 3.994 0 0 0-.41-1.16c-.168-.285-.356-.837-.418-1.226-.112-.699-.107-.708.463-.792.317-.047.66-.054.762-.015.237.09.758 1.172.758 1.574 0 .168.16.638.357 1.044.197.407.377.926.402 1.155.024.228.133.505.243.614a.682.682 0 0 1 0 .948c-.15.151-.115.273.148.506.191.17.515.848.719 1.509.743 2.406 1.102 3.436 1.256 3.604.196.214 1.015-.722 1.587-1.813.225-.43.532-.884.68-1.008.15-.123.272-.312.273-.418 0-.107.117-.417.26-.69.141-.272.242-.58.224-.686-.055-.305.413-2.228.6-2.472.094-.123.278-.181.41-.131.15.058.193.018.115-.109-.166-.268-.121-1.37.106-2.611.228-1.252.225-1.247.852-1.34.908-.132.959.028.537 1.695-.884 3.493-1.118 4.284-1.386 4.692a2.287 2.287 0 0 0-.315.933 1.634 1.634 0 0 1-.376.87c-.23.245-.342.6-.342 1.09 0 .824-.57 2.084-.942 2.084-.151 0-.21.101-.15.258.055.143-.01.432-.145.644-.529.832-.772 3.073-.563 5.19.046.472.12 1.438.163 2.145.08 1.313.338 2.792.544 3.126.146.237.097 1.786-.088 2.777-.12.647-.091.815.193 1.1.284.283.304.396.13.721-.166.31-.16.415.025.53.172.106.235.647.244 2.08.01 1.747.114 2.382.6 3.68.336.898-.53 1.715-1.603 1.514-.304-.057-.874-.031-1.265.057-.392.088-.81.1-.931.025zm.131-14.19c-.043-.167-.082-.072-.085.21-.004.284.032.42.079.304.047-.116.05-.347.006-.514zm.155-.812c.021-.143-.062-.203-.205-.148-.26.1-.308.274-.126.456.142.142.285.009.331-.308zm.663-2.14c.054-.088.02-.209-.076-.268-.096-.06-.174.013-.174.16 0 .301.103.346.25.108zm.875-5.92c.183-.133.28-.296.214-.362-.066-.066-.327.044-.581.244-.516.405-.176.516.367.119zM43.187 71.93c-.056-.056-1.349-.155-2.873-.22-2.341-.099-2.795-.162-2.932-.406-.09-.16-.274-.29-.411-.29-.137 0-.26-.135-.275-.3a3.25 3.25 0 0 0-.18-.901c-.397-1.161-.496-1.687-.558-2.972-.04-.81-.145-1.61-.235-1.781-.201-.383-.343-1.295-.462-2.97-.05-.708-.139-1.519-.198-1.802a9.83 9.83 0 0 1-.147-1.03 27.435 27.435 0 0 0-.24-1.716c-.193-1.153-.139-2.214.12-2.362.069-.039.028-.047-.089-.019-.245.06-.306-.179-.552-2.154-.17-1.364-.16-1.464.175-1.776.383-.356.324-.645-.066-.322-.188.156-.274.064-.433-.468-.327-1.09-.25-1.75.263-2.286.254-.265.538-.481.632-.481.25 0 2.635-1.859 3.03-2.362.187-.237.339-.628.339-.87 0-.51-.78-1.402-1.228-1.402-.168 0-.559-.107-.869-.238-.802-.338-1.934-.62-3.223-.803-1.274-.18-2.47.106-3.026.726-.346.385-2.467 2.042-3.433 2.683-.327.216-.64.51-.694.653-.14.363.726 1.236 1.66 1.677.426.2 1.017.539 1.314.751.298.212.667.386.82.386.152 0 .582.202.954.448.588.39.676.531.668 1.073-.011.694.149 2.11.313 2.77.059.236.09.531.068.656a.63.63 0 0 0 .121.429c.185.234.473 2.162.714 4.777.093 1.007.286 2.088.43 2.403.143.315.412 1.423.596 2.461.184 1.038.498 2.622.696 3.518l.547 2.477c.17.77.156.87-.167 1.132-.305.247-.712.276-2.984.214-3.542-.098-4.183-.286-5.095-1.494-.758-1.004-1.88-2.157-2.099-2.157-.074 0-.308-.31-.52-.687-.212-.377-.447-.686-.522-.686-.165 0-2.16-2.024-3.244-3.29-1.017-1.188-1.677-2.704-1.682-3.863-.002-.489-.088-1.203-.191-1.587-.13-.482-.134-.8-.012-1.028.097-.181.131-.557.076-.835-.106-.531.18-1.253.869-2.183.21-.283.525-.9.702-1.373.176-.472.459-1.096.628-1.387.296-.51.343-.526 1.294-.46.543.038 1.182.131 1.42.206.724.23 2.076.103 2.251-.21.086-.152.27-.391.41-.53.324-.325.324-.622 0-.622-.164 0-.213.099-.141.287.083.218.04.26-.177.177-.196-.075-.287-.022-.287.168 0 .244-.044.24-.353-.04-.276-.25-.42-.278-.654-.132-.195.122-.712.146-1.46.069-.637-.066-1.197-.057-1.245.021-.048.078-.166.093-.262.034-.117-.072-.113-.17.011-.295a.786.786 0 0 0 .187-.485c0-.54.356-.535.561.009.11.292.319.53.463.528.17-.002.196-.048.075-.129-.104-.07-.174-.307-.157-.528.018-.221-.07-.442-.197-.49-.296-.114-.294-.57.004-1 .128-.187.288-.725.355-1.197.116-.819.624-2.503.991-3.284.095-.2.122-.594.06-.873-.14-.645.085-.828 1.192-.965a90.204 90.204 0 0 0 2.06-.29c.66-.101 1.78-.254 2.488-.34 3.472-.421 4.288-.539 5.32-.766 2.409-.532 3.705-.78 4.052-.778.2 0 .972-.145 1.717-.325.744-.18 1.985-.378 2.757-.44 1.239-.1 3.89-.712 5.504-1.271l1.116-.386c.306-.107 1.344-.408 2.305-.67 2.126-.58 3.915-1.263 6.024-2.3.876-.432 1.687-.787 1.802-.79.115-.003.359-.119.542-.257.183-.139.541-.252.795-.252.448 0 .468.043.635 1.33.095.731.142 1.832.105 2.445-.037.614.01 1.58.103 2.146.094.566.208 1.686.253 2.488.123 2.177.369 3.948.658 4.735.299.813.227 2.77-.131 3.589-.267.608-.59 1.871-.805 3.15-.085.505-.275 1.2-.421 1.544-.147.344-.339 1.128-.427 1.742-.088.613-.306 1.424-.485 1.802-.178.377-.43 1.144-.56 1.703-.13.56-.316 1.044-.415 1.077-.253.084-.582-.712-.582-1.405 0-.32-.067-.624-.15-.675-.081-.05-.198-.654-.26-1.34a45.28 45.28 0 0 0-.367-2.793c-.14-.85-.37-2.317-.508-3.26a80.241 80.241 0 0 0-.577-3.347c-.599-3.002-.593-3.14.162-3.878a8.034 8.034 0 0 1 1.472-1.086c.447-.243.958-.693 1.136-.999l.323-.556-.56-.473c-.783-.662-2.079-1.416-3.589-2.089-1.979-.881-2.155-.91-3.023-.503-1.108.521-3.842 2.989-3.842 3.468 0 .259 1.057 1.139 1.368 1.139.103 0 .583.212 1.064.472 2.001 1.078 2.297 1.224 2.496 1.234.288.014.557 1.116.728 2.98.226 2.47.7 6.005.855 6.383.52 1.262.685 1.827.783 2.66.06.52.188 1.524.283 2.231.095.708.21 1.635.257 2.06.046.425.193 1.012.326 1.304.133.293.234.795.226 1.116-.008.32.069.796.172 1.055.115.291.13.623.037.865-.187.492-1.943 2.01-2.325 2.01-.156 0-.645.276-1.087.613-.441.337-1.01.655-1.265.706-.255.05-.502.194-.55.317-.047.124-.457.439-.912.7-.454.26-1.09.701-1.413.978-.324.278-.865.618-1.202.756-.337.139-1.209.548-1.937.91-1.169.58-1.474.658-2.595.664-.699.004-1.316-.039-1.372-.095zm1.43-3.985c0-.083.159-.193.353-.244.308-.08.325-.136.135-.442-.215-.344-.223-.344-.525-.02-.333.356-.411.858-.135.858.094 0 .172-.068.172-.152zm8.988-1.656c.08-.206 0-.246-.368-.185-.257.042-.492.083-.521.09-.03.009-.005.092.053.187.163.264.723.203.836-.092zm-29.74-.328c.086.053.157-.024.157-.171 0-.3-.145-.333-.494-.112-.143.09-.181.238-.097.375.104.169.156.173.208.018.038-.114.14-.164.226-.11zm30.527-.65c-.506-.216-.793-.259-.914-.137-.122.121-.12.177.009.177.102 0 .225.15.273.333.078.3.148.314.728.136l.64-.197-.736-.313zm-8.574-1.18c0-.084-.116-.153-.257-.153a.256.256 0 0 0-.258.252c0 .153.1.213.258.153.141-.054.257-.168.257-.252zm5.46-1.57c.255.095.26.073.047-.19-.19-.234-.272-.25-.383-.075-.078.123-.137.3-.13.395.005.094.048.08.094-.034.045-.112.213-.156.372-.096zm-28.496-1.858c.033-.171-.264-.44-.825-.745-.482-.262-.917-.582-.966-.71-.05-.129-.223-.276-.385-.328-.162-.051-.43-.402-.597-.779-.37-.837-.708-.917-.543-.127.063.307.137.768.163 1.025.063.63.763 1.293 1.766 1.677.955.365 1.315.362 1.387-.013zm25.61-.5a.172.172 0 0 0-.171-.172.172.172 0 0 0-.172.171.172.172 0 0 0 .343 0zm-20.472-.658c.435-.525.485-1.01.148-1.452-.214-.282-.264-.244-.61.471-.207.428-.563.925-.79 1.104-.584.459-.517.591.229.454.386-.071.795-.302 1.023-.577zm27.166.142a.172.172 0 0 0-.172-.171.172.172 0 0 0-.172.171.172.172 0 0 0 .343 0zm-25.575-1.34c-.002-.25-.025-.255-.169-.033-.217.336-.217.564 0 .43.095-.059.17-.237.17-.397zm-.573-.462c-.142-.141-.302-.257-.356-.257-.054 0-.098.116-.098.257 0 .146.154.258.356.258.316 0 .327-.029.098-.258zm-7.576-.944c.058-.094.024-.171-.076-.171s-.182.077-.182.171c0 .095.035.172.076.172.042 0 .124-.077.182-.172zm7.3-.078c-.114-.137-.158-.33-.097-.429.061-.098.034-.18-.06-.18-.095 0-.222.081-.283.18-.124.2.211.679.476.679.098 0 .083-.107-.036-.25zm-6.227-.365c-.164-.164-.492.101-.37.299.072.117.168.114.292-.01.1-.1.136-.23.078-.289zm-1.674.1c0-.094-.034-.171-.075-.171-.042 0-.124.077-.182.171-.059.095-.024.172.075.172.1 0 .182-.077.182-.172zm24.285-1.03c.058-.094.024-.171-.076-.171s-.182.077-.182.171c0 .095.034.172.076.172.042 0 .123-.077.182-.172zm.515-.171c.058-.095.024-.172-.076-.172s-.182.077-.182.172c0 .094.034.171.076.171.041 0 .123-.077.182-.171zm-.258-.562c.257-.105 1.777-.282 3.29-.383.994-.066 1.472-.21 2.055-.621.405-.285.44-.387.316-.934-.076-.338-.253-.744-.392-.902-.14-.159-.765-1.33-1.39-2.605-1.276-2.603-3.64-6.562-4.146-6.945-.595-.45-.991-.319-1.407.466-.212.401-.386.986-.386 1.299 0 .313-.07.7-.155.86-.18.337-.3 1.232-.528 3.977a51.03 51.03 0 0 1-.426 3.518c-.32 1.888-.32 1.892-.022 2.19.247.248 2.635.307 3.191.08zM28.534 53.45c.032-1.018.004-1.13-.265-1.045-.197.063-.336-.013-.4-.216-.185-.587-.595-1.239-1.092-1.735-.486-.487-.499-.49-.657-.138-.129.288-.05.496.394 1.046.704.872 1.034 1.537 1.19 2.402.142.784.418 1.204.643.979.083-.084.168-.665.187-1.293zm8.582-1.657c-.05-.188-.155-.301-.234-.252-.17.104-.016.593.186.593.075 0 .097-.154.047-.341zm1.384-.26c.055-.141.024-.257-.067-.257-.092 0-.166.116-.166.257 0 .142.03.258.067.258.037 0 .112-.116.166-.258zM23.68 49.217c0-.094-.034-.171-.076-.171-.042 0-.123.077-.182.171-.058.095-.024.172.076.172s.182-.077.182-.172zM61.95 44.07c0-.095-.034-.172-.075-.172-.042 0-.124.077-.182.172-.058.094-.024.171.076.171s.181-.077.181-.171zm-.98-7.26c.05-.129-.05-.232-.24-.246-.325-.024-.423.141-.21.355.178.178.356.135.45-.108zm-.818-1.137c-.062-.196-.185-.356-.273-.356-.24 0-.192.646.055.735.302.108.348.029.219-.379zm-2.707.116c-.039-.118-.217-.243-.395-.277-.28-.055-.292-.026-.093.214.272.328.59.37.488.063zm2.833-.944c-.108-.036-.15-.195-.095-.354.08-.228.055-.247-.118-.087-.27.25-.09.816.202.635.152-.093.155-.146.011-.194zm-1.407-.625l.488-.411-.479-.07c-.263-.039-.568-.04-.678-.004-.314.104-.221.895.105.895.042 0 .295-.184.564-.41zm1.192-.286c0-.089-.078-.162-.172-.162-.094 0-.172.12-.172.268 0 .147.078.22.172.161.094-.058.172-.178.172-.267zm4.31 32.118c-.185-.725-.177-.918.058-1.373.15-.291.35-.53.441-.53.092 0 .168-.086.168-.192 0-.127-.095-.114-.277.037-.239.198-.331.168-.66-.214-.29-.337-.408-.753-.49-1.714-.123-1.463-.022-2.054.328-1.92.132.051.24.009.24-.094s-.193-.235-.43-.295c-.467-.117-.702-.678-.521-1.246.06-.189-.01-.629-.156-.977-.146-.35-.265-.815-.265-1.037 0-.222-.15-.481-.333-.58-.27-.144-.314-.298-.233-.82a5.14 5.14 0 0 1 .407-1.258c.168-.337.283-.824.255-1.081a1.302 1.302 0 0 1 .246-.835c.29-.36.3-.36.474-.034.098.183.216 1.153.263 2.155.112 2.389 1.395 7.791 2.413 10.165.31.724.62 2.044.517 2.21-.045.073-.344.133-.663.133-.32 0-.628.077-.686.172-.059.094-.28.171-.493.171-.319 0-.424-.147-.602-.843zm1.181-.015c0-.094.116-.171.258-.171.141 0 .257-.078.257-.172 0-.094-.154-.172-.343-.172-.189 0-.343.033-.343.072 0 .04-.047.194-.104.343-.058.15-.019.272.085.272.105 0 .19-.077.19-.172zm-.397-.769c.02-.267.078-.589.126-.716.114-.297-.145-.3-.39-.004-.138.167-.132.288.022.455.17.183.153.206-.09.12-.214-.074-.3-.016-.3.205 0 .723.576.67.632-.06zm-52.185-8.235c-.152-.232-.277-.493-.277-.58 0-.086-.116-.252-.257-.37-.142-.117-.258-.313-.258-.435s-.15-.402-.335-.623C9.842 52.631 9.09 51.476 9.09 50.79c0-.18-.117-.66-.26-1.065-.32-.905-.482-1.684-.447-2.138.076-.999.012-2.053-.166-2.703-.24-.882-.21-3.206.049-3.516.124-.15.389-.187.805-.114.762.136.99.323.754.62-.128.159-.04.51.31 1.25.269.567.491 1.207.494 1.423.003.215.112.563.243.772.13.21.281.79.336 1.293.055.502.249 1.159.431 1.459.364.6.595 1.489.576 2.219-.007.26.043.472.11.472.261 0 .69.992.878 2.028.108.595.244 1.206.302 1.357.065.17.036.232-.077.163-.103-.064-.23.073-.29.315-.059.235-.188.428-.286.428-.098 0-.128.081-.066.181.071.115.197.068.342-.128.36-.488.57-.098.643 1.19.055 1.004.025 1.16-.23 1.16-.16 0-.417-.191-.57-.424zm-.106-2.709c0-.118-.219-.47-.485-.782-.435-.508-.51-.539-.714-.293-.24.29-.227.31.58.917.575.434.62.445.62.158zm-1.716-1.77c0-.278-.387-.761-.61-.761-.22 0-.216.06.026.429.254.388.584.576.584.332zM9.434 49.56c0-.095-.082-.172-.182-.172-.1 0-.134.077-.075.172.058.094.14.171.182.171.041 0 .075-.077.075-.171zm1.545-2.403c0-.094-.034-.172-.076-.172-.042 0-.123.078-.182.172-.058.094-.024.172.076.172s.182-.078.182-.172zm5.257.906c-.263-1.073-.86-2.83-1.386-4.081-.77-1.832-.942-2.397-.781-2.558.193-.193 5.274-.548 5.442-.38.156.156-.696 3.52-.937 3.7-.071.053-.234.281-.361.507-.204.363-.2.399.043.306.174-.067.274-.014.274.147 0 .138-.12.252-.267.252-.148 0-.223.072-.168.16.154.25-.74 2.33-1.18 2.742l-.392.37zm2.123-4.338c.221-.144.217-.167-.033-.17-.16 0-.338.075-.397.17-.134.217.093.217.43 0zm-2.575-.344c0-.094-.082-.171-.182-.171-.1 0-.134.077-.075.171.058.095.14.172.182.172.041 0 .075-.077.075-.172zm47.628.01c-.064-.204-.044-.462.045-.576.298-.379.391-1.139.18-1.476-.16-.258-.157-1.08.014-3.735.121-1.872.258-4.138.304-5.035.047-.92.17-1.71.283-1.812.396-.36 2.548-.972 2.74-.78.128.127.101.272-.089.486-.648.729-.889 1.614-1.573 5.796-.345 2.106-.752 4.03-1.078 5.09-.135.44-.263 1.076-.285 1.413-.05.777-.374 1.154-.54.628zM12.33 39.354c-.035-.034-1.106-.105-2.38-.156a87.328 87.328 0 0 1-3.518-.207c-1.297-.122-2.2-.512-1.783-.77.178-.11.187-.194.036-.345-.15-.15-.075-.536.312-1.594.575-1.57 1.04-4.009.84-4.4-.164-.32.11-2.87.364-3.373.102-.203.133-.454.07-.557-.065-.104-.058-.284.014-.4.072-.117.151-.55.175-.964.024-.413.14-1.032.257-1.375.117-.343.194-.724.17-.846-.05-.245.622-3.035.831-3.459.168-.339.463-1.477.78-3.008.136-.658.395-1.662.576-2.23.18-.57.457-1.46.615-1.98.543-1.783 1.06-2.612 2.108-3.386.542-.4 1.144-.727 1.338-.73.214-.001.68-.38 1.178-.957.454-.526 1.26-1.232 1.792-1.57.532-.338 1.4-.908 1.93-1.265.53-.358 1.805-1.051 2.832-1.54 1.028-.49 2.023-1.026 2.212-1.191.189-.165.536-.342.772-.392.236-.05.97-.29 1.63-.533 1.194-.438 2.661-.597 2.661-.287 0 .088-.077.209-.172.267-.34.21-.16.389.35.348.286-.022.614-.161.729-.308.115-.148.363-.304.552-.349.3-.07.293-.083-.055-.1-.22-.01-.515.096-.656.238-.357.356-.56.321-.529-.092a.474.474 0 0 1 .376-.419c.192-.038.58-.119.864-.18.283-.06.708-.12.944-.133.236-.013.475-.089.532-.169.056-.08.653-.164 1.325-.187.672-.022 1.273-.092 1.335-.154.063-.062.257-.036.433.058.232.124.433.095.74-.106.423-.277 1.127-.21 1.127.106 0 .088.082.16.183.16.105 0 .136-.146.074-.343-.111-.351.028-.42.49-.243.143.055.224.196.178.314-.096.252.824.186 1.413-.1.432-.21 1.094.07 1.094.464 0 .31.019.31.624-.005.794-.414.97-.297.366.243-.492.44-.594.472-.832.258-.413-.372-.724-.319-.507.087.245.459.224.53-.123.419-.232-.075-.247-.058-.064.072.147.105.182.257.093.402-.096.156.006.136.305-.06.417-.273.466-.274.68-.01.2.245.19.268-.07.17-.411-.154-.38.088.047.354.293.183.364.172.456-.067a.735.735 0 0 0-.056-.562.895.895 0 0 1-.105-.553c.095-.438.852-.205.947.292.082.428-.122.575-.274.198-.048-.118-.093-.045-.1.162-.02.52.209.61.783.31.593-.309 1.778-.36 1.482-.065-.106.106-.155.291-.109.412.047.12.005.268-.091.328-.097.06-.132.223-.079.362.054.14-.007.38-.134.535-.206.248-.189.266.152.157.521-.165.486.123-.063.521-.247.178-.55.42-.675.539-.324.308-.392.271-.453-.244-.066-.551-.484-.76-.484-.242 0 .196.077.357.172.357.279 0 .197.311-.203.771-.205.237-.553.43-.772.43-.219 0-.398.086-.398.19 0 .124.166.147.472.067.26-.069.61-.135.779-.148.168-.012.367-.121.441-.241.103-.167.207-.14.439.117.167.185.412.294.545.243.158-.06.241.026.241.248 0 .469.439.83.576.473.13-.34-.04-.777-.304-.777-.114 0-.375-.227-.58-.504l-.373-.505.47-.352c.85-.637.913-.722.821-1.098-.05-.205-.047-.276.007-.158a.419.419 0 0 0 .353.214c.2 0 .173-.115-.12-.528-.3-.419-.333-.57-.163-.729.164-.154.233-.151.293.013.083.227.578.305.546.086-.05-.347.265-.901.565-.997.442-.14.559-.005.333.383-.108.186-.184.222-.187.089-.01-.433-.306-.034-.306.412 0 .417.045.444.58.357.646-.105.767.115.224.405-.26.14-.417.138-.593-.009-.373-.31-.592-.056-.366.425.157.333.218.364.294.15.086-.246.12-.245.369.003.25.251.297.238.552-.15.282-.43.785-.582.785-.237 0 .237-.557 1.251-.73 1.328-.31.139-.088.317.304.242.433-.083.776-.385.436-.385-.1 0-.181-.122-.181-.271 0-.207.112-.246.472-.167.377.083.507.027.643-.276.166-.367.638-.669.586-.375a3.74 3.74 0 0 0-.001.574l.024.43.316-.411c.318-.414.47-.424 1.521-.098.333.103.386.057.386-.33 0-.247.078-.449.172-.449.094 0 .172.068.172.15 0 .083.24.198.534.257.48.096.527.16.459.622-.042.284-.012.516.066.516s.142-.116.142-.258c0-.315.446-.34.635-.036.075.122.74.513 1.476.868.737.355 1.387.777 1.444.937.057.16.45.637.872 1.06.422.422.842.984.934 1.247.092.264.302.552.468.64.165.09.636.668 1.047 1.288.41.62 1 1.276 1.311 1.46.345.203.566.47.566.682 0 .199.113.35.261.35.153 0 .304.211.364.51.058.29.336.688.645.924.474.362 1.476 2.041 1.476 2.475 0 .086.154.296.343.467.189.17.343.389.343.485 0 .096.103.296.228.445.356.423.705 1.79.476 1.867-.104.035-.19.132-.19.215 0 .084.108.111.238.061.152-.058.303.098.42.435.1.289.13.527.063.53-.065.003.015.084.18.18.287.167 1.16 1.802 1.16 2.173 0 .1.191.362.426.584.234.223.427.54.429.705.002.178.133.3.325.3.177 0 .419.117.536.259.179.214.132.322-.279.638a11.28 11.28 0 0 0-1.098 1.028c-.355.382-.765.65-.992.65-.214 0-.666.115-1.004.257-.34.142-.757.257-.93.257-.171 0-.413.136-.536.3-.123.166-.803.484-1.511.707-1.387.436-1.419.448-3.09 1.115-.613.245-1.578.594-2.145.775-1.553.5-2.185.731-2.686.989-.251.128-.681.233-.957.233-.62 0-2.096.48-2.47.803-.154.133-.347.224-.43.203-.188-.049-1.936.316-3.046.636-.46.132-.9.2-.98.152-.078-.049-.418.027-.755.168-.336.14-.727.211-.867.157-.14-.054-.38.005-.532.131-.151.126-.788.276-1.413.334-.626.057-1.408.225-1.739.372-.844.376-2.173.705-2.367.585-.09-.056-.578.004-1.086.131-.508.128-1.453.28-2.101.336-.648.056-1.266.17-1.373.252-.474.364-1.613.572-6.288 1.148-.424.052-.965.164-1.201.247-.756.268-2.312.357-7.867.447-2.989.048-5.637.12-5.885.16-.249.04-.48.043-.515.009zm-3.925-1.012c0-.13-.154-.431-.343-.671-.189-.24-.343-.52-.343-.624 0-.103-.072-.187-.16-.187-.169 0-.14.786.034.96.056.057.057.22.002.363-.078.205-.016.234.291.137.267-.085.354-.064.273.066-.064.104-.035.19.065.19s.181-.106.181-.234zm15.404-1.203c.306.002.557-.06.557-.138 0-.078.086-.141.19-.141.105 0 .146.115.091.257-.132.344.01.324.513-.072.23-.181.346-.375.257-.43-.089-.055-1.2-.15-2.468-.21-1.802-.087-2.337-.062-2.445.112-.23.373.36.652 1.183.559.474-.054.793-.01.872.119.074.12.242.15.409.072.155-.072.534-.13.84-.128zm-9.054-.603c0-.084-.33-.202-.733-.262-.404-.06-.936-.215-1.183-.343-.452-.235-1.344-.181-1.344.08 0 .278.447.421 1.63.52a68.2 68.2 0 0 1 1.416.13c.118.015.214-.041.214-.125zm15.961-1.221c0-.094-.116-.172-.257-.172-.142 0-.258.078-.258.172 0 .094.116.172.258.172.141 0 .257-.078.257-.172zm-10.581-.558c-.137-.731-.403-1.018-.403-.434 0 .552.159.992.358.992.082 0 .102-.251.045-.558zm20.879-.372c2.303-.032 2.72-.086 4.033-.524.377-.126.89-.275 1.14-.33.718-.16 2.477-1.766 3.192-2.915l.867-1.394c.412-.66 1.062-2.061 1.063-2.292.001-.156-.097-.19-.298-.105-.166.07-.57.154-.898.186-.329.032-1.1.306-1.716.61-.994.49-1.292.555-2.664.572-1.386.018-2.02-.07-2.832-.39a2.483 2.483 0 0 0-.525-.131c-.642-.072-1.706-1.103-1.706-1.652 0-.116-.206-.51-.458-.873-.252-.364-.486-.909-.52-1.21-.299-2.704-.335-2.488.682-3.98.555-.814 1.166-1.494 1.514-1.686.322-.178.739-.46.928-.628.188-.168.512-.392.718-.498.684-.353 2.995-.171 4.13.324.996.435 1.227.573 1.154.69-.042.07.064.163.236.209.263.068.319-.03.341-.595.022-.546-.075-.78-.497-1.201-.288-.288-.738-.9-1-1.357-.71-1.246-1.667-2.21-2.19-2.21-.321 0-.414-.07-.342-.258.054-.142.032-.258-.049-.258s-.193.117-.247.26c-.055.142-.16.245-.233.23-.073-.016-.267.03-.43.1-.274.12-1.015-.14-2.387-.837-.396-.2-.494-.191-.773.07-.175.165-.648.427-1.05.581-.611.235-.854.248-1.488.078-.741-.198-.77-.19-1.27.344-.285.306-.683.547-.901.547-.585 0-1.546.361-2.177.817-.498.36-1.929 2.106-1.929 2.353 0 .053-.347.523-.772 1.044-.425.522-.772 1.012-.772 1.09 0 .077-.232.433-.515.789l-.515.648v2.626c0 1.566.07 2.67.172 2.733.094.058.171.405.171.772 0 .366.068.708.15.759.082.05.196.327.254.614.057.288.299.81.537 1.16.24.352.432.88.432 1.185 0 .41.126.639.499.904.274.195.551.355.616.355.065 0 .54.377 1.057.837.517.46 1.475 1.113 2.13 1.45 1.028.529 1.3.599 2.005.515.449-.053 1.858-.111 3.133-.128zm-24.027-.615a.172.172 0 0 0-.172-.171.172.172 0 0 0-.172.171.172.172 0 0 0 .343 0zm2.23-.61c0-.148-.078-.22-.174-.16-.096.06-.13.18-.075.267.147.238.25.194.25-.107zm4.978-1.277a.172.172 0 0 0-.172-.172.172.172 0 0 0-.172.172.172.172 0 0 0 .343 0zm32.694-2.232c.058-.094-.01-.171-.152-.171-.141 0-.305.077-.363.171-.059.095.01.172.151.172.142 0 .305-.077.364-.172zm3.003-1.802c0-.317-.017-.317-.624 0l-.492.256h.558c.382.002.558-.08.558-.256zm3.087-1.865c0-.083-.113-.055-.253.062-.141.116-.209.289-.15.382.106.173.397-.15.403-.445zm-43.002-.3c-.111-.18-.416-.036-.416.197 0 .085.115.111.256.057.141-.054.213-.169.16-.255zm42.677-.085c.2-.24.187-.27-.093-.215-.178.035-.356.16-.395.277-.102.306.216.266.488-.062zm-18.427-.41c-.014-.188-.125-.343-.247-.343-.277 0-.28.12-.006.43.28.317.284.316.254-.087zm-24.666-.61c0-.148-.077-.22-.172-.162-.094.058-.171.179-.171.268 0 .088.077.161.171.161.095 0 .172-.12.172-.267zm43.533-.17c.139-.362-.093-.557-.291-.244-.21.332-.206.51.012.51.097 0 .223-.12.279-.265zm-46.966-.936c0-.094-.034-.171-.075-.171-.042 0-.124.077-.182.171-.058.095-.024.172.076.172s.181-.077.181-.172zm-4.691-.9c-.048-.119-.087-.022-.087.214s.04.332.087.214a.662.662 0 0 0 0-.429zm47.811-.712c.428-.324.372-.5-.128-.405-.236.045-.43.018-.43-.06 0-.079-.115-.099-.257-.044-.141.054-.257.165-.257.246 0 .082.129.099.287.038.218-.083.26-.04.177.177-.133.347.183.372.608.048zm2.703-.004c0-.04.045-.188.1-.33.074-.195.01-.236-.258-.166-.407.107-.488.568-.099.568.142 0 .257-.032.257-.072zm-4.276-.271c.087 0 .157-.12.157-.268 0-.147-.07-.223-.157-.17-.087.054-.31-.095-.496-.331l-.338-.43-.083.557c-.086.577.13.873.53.726.126-.046.3-.084.387-.084zm4.791-.687c0-.094-.034-.171-.075-.171-.042 0-.124.077-.182.171-.058.095-.024.172.076.172s.181-.077.181-.172zm-12.7-.6c0-.142-.077-.258-.171-.258-.095 0-.172.116-.172.258 0 .141.077.257.172.257.094 0 .171-.116.171-.257zm12.357.181c0-.041-.077-.123-.172-.181-.094-.059-.171-.025-.171.075s.077.182.171.182c.095 0 .172-.034.172-.076zm-2.972-.471c-.055-.137-.095-.097-.104.103-.007.181.033.283.09.225.057-.057.064-.205.014-.328zm-1.602-.655c-.289-.58-.424-.66-.354-.214.06.39.276.73.463.73.081 0 .033-.233-.109-.516zm-7.679-.125c-.174-.174-.318.088-.175.32.108.175.148.175.206 0 .04-.119.026-.263-.031-.32zm3.844-.218c0-.094-.082-.172-.182-.172-.1 0-.134.078-.076.172.058.094.14.172.182.172.041 0 .076-.078.076-.172zm-9.783-.172a.172.172 0 0 0-.171-.171.172.172 0 0 0-.172.171.172.172 0 0 0 .343 0zm-22.402-.677c.056-.09-.056-.247-.247-.35-.297-.159-.348-.134-.348.163 0 .355.411.484.595.187zm35.1-.32c-.002-.25-.026-.254-.17-.032-.217.336-.217.563 0 .429.095-.059.171-.237.17-.397zm1.547-.032c0-.095-.034-.172-.076-.172-.042 0-.123.077-.182.172-.058.094-.024.171.076.171s.182-.077.182-.171zm-1.545-.515a.172.172 0 0 0-.171-.172.172.172 0 0 0-.172.172.172.172 0 0 0 .343 0zm-3.776-.258c0-.141-.125-.257-.278-.257-.228 0-.24.046-.065.257.118.142.243.258.279.258.035 0 .064-.116.064-.258zm-.585-.556c-.119-.12-.444.123-.444.33 0 .114.098.1.261-.035.144-.119.227-.252.183-.295zm9.541-.425c-.123-.123-.203-.133-.203-.026 0 .23.203.432.318.318.048-.049-.003-.18-.115-.292zm-3.464-.134c0-.095-.034-.172-.075-.172-.042 0-.124.077-.182.172-.058.094-.024.171.076.171s.181-.077.181-.171zm-1.427-1.234c-.055-.137-.095-.096-.104.104-.007.18.033.282.09.225.057-.057.064-.205.014-.329zm-5.511-.041c.333-.333.308-.441-.098-.441-.229 0-.343.114-.343.343 0 .406.108.43.44.098zm6.423-.27c0-.094-.034-.171-.075-.171-.042 0-.124.077-.182.171-.058.095-.024.172.076.172s.181-.077.181-.172zm2.918-.182c0-.194-.077-.305-.172-.247-.094.058-.171.217-.171.353 0 .136.077.248.171.248.095 0 .172-.16.172-.354zm-36.727.01c0-.094-.034-.171-.076-.171-.041 0-.123.077-.181.172-.059.094-.025.171.075.171s.182-.077.182-.171zm-2.062-.643c-.001-.07-.068-.232-.148-.358-.11-.174-.167-.143-.239.129-.062.237-.012.358.148.358.133 0 .24-.058.239-.13zm7.21-.558a.172.172 0 0 0-.17-.171.172.172 0 0 0-.173.171.172.172 0 0 0 .343 0zm25.478.012c-.09-.087-.395-.204-.678-.258l-.515-.099.515.25c.6.293.919.343.678.107zm-6.599-1.385c0-.094-.034-.171-.076-.171-.041 0-.123.077-.181.171-.059.095-.025.172.075.172s.182-.077.182-.172zm-22.31-.848c0-.314-.287-.639-.434-.492-.118.118.123.825.282.825.083 0 .151-.15.151-.333zm-3.402-.219c-.123-.123-.203-.133-.203-.025 0 .229.203.432.318.317.048-.049-.003-.18-.115-.292zm2.543.037a.172.172 0 0 0-.171-.171.172.172 0 0 0-.172.171.172.172 0 0 0 .343 0zm9.354-.686c.058-.094.024-.172-.076-.172s-.182.078-.182.172c0 .094.034.172.076.172.041 0 .123-.078.182-.172zm-4.221-1.044c.116-.388.163-.754.104-.813-.158-.158-.414.33-.312.596.048.125-.036.276-.187.334-.152.058-.276.3-.276.537 0 .63.404.236.67-.654zm-2.46.627c.32-.321.314-.784-.013-.784a.263.263 0 0 1-.257-.268c0-.149-.083-.216-.187-.152-.134.083-.134.167 0 .302.234.234.245.804.015.804a.172.172 0 0 0-.171.172c0 .25.329.21.613-.074zm12.43-.105c.214-.144.15-.266-.386-.727-.354-.304-.644-.654-.644-.778 0-.123-.075-.178-.168-.12-.092.057-.331.016-.53-.09-.475-.255-1.21-.077-1.082.26.073.189.278.225.841.148.728-.1.75-.088 1.005.52.143.342.36.624.483.625.16.002.151.05-.034.169-.229.148-.229.166 0 .166.142 0 .373-.078.515-.173zM22.326 8.76c.04.022.019-.026-.045-.108-.17-.214-.491.033-.485.373.006.269.022.268.232-.007.124-.164.258-.28.298-.257zm13.565-.032c.279-.491.276-.501-.154-.609-.59-.148-.928.19-.388.39.263.098.332.192.201.273-.11.069-.2.197-.2.286 0 .316.26.152.54-.34zm7.524.33c0-.095-.034-.172-.075-.172-.042 0-.124.077-.182.172-.058.094-.024.171.076.171s.181-.077.181-.171zm1.988.022c-.051-.082-.307-.193-.568-.245a6.08 6.08 0 0 1-.804-.223c-.228-.088-.291-.067-.206.07.067.11.37.27.671.358.727.21 1.02.223.907.04zm-21.236-.442c.038-.196-.024-.278-.171-.23-.127.043-.258.215-.29.384-.039.195.023.278.17.229.128-.043.259-.215.291-.383zm16.752.26c.055-.088.02-.208-.075-.267-.096-.06-.175.012-.175.16 0 .3.103.345.25.107zm1.92-.27c.014-.235-.036-.428-.11-.428-.186 0-.366.51-.248.702.175.283.333.162.358-.273zm4.524-.106c0-.19-.19-.188-.494.004-.13.082-.182.24-.114.349.093.15.182.15.365-.002.134-.11.243-.269.243-.352zm-12.186.193a.172.172 0 0 0-.171-.172.172.172 0 0 0-.172.172.172.172 0 0 0 .343 0zM25.91 8.37a.172.172 0 0 0-.172-.171.172.172 0 0 0-.171.171c0 .095.077.172.171.172a.172.172 0 0 0 .172-.172zm.464-.429c-.01-.33-.07-.6-.135-.6-.217 0-.317.752-.13.978.265.318.284.292.265-.378zm5.543.238c0-.095-.078-.124-.172-.066-.094.058-.172.183-.172.278 0 .094.078.124.172.065.094-.058.172-.183.172-.277zm9.971-.031c-.22-.22-.443-.05-.28.214.063.102.193.137.29.078.117-.073.114-.169-.01-.292zm3.243.318c0-.041-.077-.123-.171-.181-.095-.059-.172-.025-.172.075s.077.182.172.182c.094 0 .171-.034.171-.076zm-13.867-.473c-.113-.113-.205-.283-.205-.378 0-.095.091-.08.205.035.114.113.403.2.644.195.426-.011.423-.019-.11-.284-.507-.253-.582-.25-1.01.03-.362.237-.41.335-.224.452.13.083.388.152.572.153.26.002.289-.043.128-.203zm4.085-.31c0-.094-.082-.17-.182-.17-.1 0-.134.076-.075.17.058.095.14.173.181.173.042 0 .076-.078.076-.172zm-7.723-.075c0-.041-.077-.123-.172-.182-.094-.058-.171-.024-.171.076s.077.182.171.182c.095 0 .172-.034.172-.076zm.858-.267c0-.095-.082-.172-.182-.172-.1 0-.134.077-.075.172.058.094.14.171.182.171.041 0 .075-.077.075-.171zm16.64-.187c-.106-.197-.226-.323-.268-.282-.12.12.124.64.3.64.088 0 .073-.16-.032-.358zm1.724-.07c0-.142-.077-.258-.172-.258-.094 0-.172.116-.172.257 0 .142.078.258.172.258.094 0 .172-.116.172-.258zm3.57.05c.281-.281.259-.49-.042-.374-.138.053-.34-.056-.46-.246-.116-.187-.314-.301-.439-.253-.147.056-.23-.056-.239-.318-.01-.376-.021-.38-.148-.061-.075.189-.078.366-.006.394.071.028.088.221.036.43-.094.374-.091.374.275.05.369-.325.37-.324.37.129 0 .483.304.599.653.25zm-18.845-.232c0-.148-.078-.22-.174-.16-.096.06-.13.18-.076.267.147.238.25.194.25-.107zm20.672-.136l.374-.404-.483-.182c-.266-.1-.483-.305-.483-.455 0-.15-.114-.272-.254-.272-.21 0-.194.109.085.606.382.678.42.837.17.681-.192-.118-.238.135-.058.315.176.176.247.145.65-.29zm-26.507-.144c0-.226-.39-.085-.475.172-.042.125.036.164.203.1.15-.058.272-.18.272-.272zm7.38.032c0-.189-.06-.343-.135-.343-.074 0-.135.154-.135.343 0 .19.061.344.135.344.074 0 .135-.155.135-.344zm11.33.124c.32-.26.697-1.083.558-1.222-.225-.225-.424-.084-.34.24.058.22.005.343-.146.343-.145 0-.196.105-.131.273.08.208.011.258-.29.214-.217-.032-.427.039-.468.157-.093.274.473.27.816-.005zm-17.423-.295c.06-.19.24-.35.398-.357.237-.011.242-.031.031-.112a.932.932 0 0 1-.383-.286c-.09-.136-.127-.135-.129.006-.001.107-.163.236-.358.287-.302.079-.327.148-.166.45.24.449.467.453.607.012zm2.146-.086c.119-.144.137-.258.042-.258s-.268.116-.386.258c-.119.143-.137.257-.042.257s.268-.116.386-.257zm4.805.086c0-.095-.082-.172-.182-.172-.1 0-.134.077-.075.172.058.094.14.171.181.171.042 0 .076-.077.076-.171zm2.574 0c0-.095-.072-.172-.161-.172-.089 0-.21.077-.268.172-.058.094.015.171.162.171.147 0 .267-.077.267-.171zm3.473-.166c.236-.186.472-.294.526-.24.053.053.055-.066.003-.264s-.206-.36-.342-.36c-.138 0-.195.084-.13.19.065.105-.104.373-.376.595-.594.486-.294.56.319.079zm6.937.072c.16-.416-.063-.49-.276-.093-.133.249-.135.358-.008.358.1 0 .229-.119.285-.265zm-9.551-.184c0-.036-.155-.066-.344-.066-.189 0-.343.07-.343.156s.154.115.343.066c.19-.05.344-.12.344-.156zm.858-.171c0-.194.104-.25.345-.188.358.094.835-.48.589-.708-.068-.063-.158-.018-.2.1-.042.118-.205.217-.363.22-.157.003-.424.196-.594.43-.265.363-.27.423-.043.423a.272.272 0 0 0 .266-.277zm10.125.105a.172.172 0 0 0-.171-.171.172.172 0 0 0-.172.171.172.172 0 0 0 .343 0zm2.317 0c-.058-.094-.179-.171-.267-.171-.09 0-.162.077-.162.171 0 .095.12.172.268.172.147 0 .22-.077.161-.172zm-19.495-.237c.15-.182.14-.26-.049-.331-.284-.11-.45.015-.45.34 0 .297.248.292.499-.01zm-.842-.106a.172.172 0 0 0-.172-.171.172.172 0 0 0-.171.171c0 .095.077.172.171.172a.172.172 0 0 0 .172-.172zm17.647-.23c.08-.408-.456-.559-.792-.222-.26.26-.26.28.013.28.162 0 .294.084.294.186 0 .29.423.078.485-.243zm-13.957.059c.058-.095-.019-.172-.172-.172-.152 0-.23.077-.171.172.058.094.135.171.171.171.036 0 .114-.077.172-.171zm1.065-.59c-.147-.148-.351-.269-.452-.269-.208 0-.249-.393-.06-.58.068-.069.125-.288.128-.488.004-.256.156-.405.51-.5.892-.24 1.31.462.525.882-.433.232-.574.515-.257.515.094 0 .171.106.171.236 0 .389.494.712.728.477.15-.15.116-.198-.142-.198-.217 0-.34-.116-.34-.318 0-.22.093-.293.306-.237.468.122 1.165-.417 1.165-.903 0-.301-.073-.392-.256-.321-.149.057-.293-.017-.344-.177l-.172-.544c-.046-.147-.17-.215-.275-.15-.137.085-.132.155.02.249.115.071.169.235.119.364-.058.147-.175.027-.316-.323-.22-.545-.493-.748-.493-.366 0 .109-.152.151-.353.099-.204-.053-.39 0-.438.126-.05.128-.257.186-.502.139-.602-.115-.744.384-.228.801.397.322.398.332.077.686-.18.199-.236.36-.127.36.11 0 .198.11.198.246 0 .135.155.295.344.354.188.06.343.197.343.304 0 .144.05.144.195 0 .145-.146.127-.264-.074-.464zm1.08-.783c0-.095.12-.172.268-.172.147 0 .22.077.161.172-.058.094-.179.171-.267.171-.09 0-.162-.077-.162-.171zm-2.06-1.03a.172.172 0 0 1 .343 0 .172.172 0 0 1-.17.171.172.172 0 0 1-.172-.171zm-6.35 2.06c0-.095-.081-.172-.181-.172-.1 0-.134.077-.076.171.059.095.14.172.182.172.042 0 .076-.077.076-.172zm16.06-.456c-.094-.249-.145-.262-.263-.07-.197.317-.02.778.21.548.094-.094.119-.31.054-.478zm-6.105.112c0-.094-.034-.172-.076-.172-.042 0-.123.078-.182.172-.058.094-.024.172.076.172s.182-.078.182-.172zm.515 0c0-.094-.034-.172-.076-.172-.042 0-.123.078-.182.172-.058.094-.024.172.076.172s.182-.078.182-.172zm1.16-.774c-.024-.118.148-.382.384-.587l.43-.373-.422.117c-.57.16-.778.412-.806.98-.02.393.019.442.218.277.133-.11.221-.297.196-.414zm-14.204-.98c0-.094-.122-.124-.271-.066-.15.057-.342.104-.43.104-.086 0-.157.066-.157.148 0 .08.193.11.43.065.235-.045.428-.158.428-.252zm16.751-.087c-.174-.175-.318.088-.175.32.108.174.149.175.207 0 .04-.12.025-.263-.032-.32zm-3.493.011a.662.662 0 0 0-.429 0c-.118.048-.021.087.215.087s.332-.04.214-.087zm-1.244-1.108c0-.094-.077-.124-.172-.065-.094.058-.171.183-.171.277 0 .095.077.124.171.066.095-.058.172-.183.172-.278zm1.095-.616c-.211-.155-.357-.164-.516-.032-.121.1-.301.133-.4.072-.098-.06-.18-.027-.18.074 0 .101.25.336.556.522l.555.337.14-.378c.103-.277.06-.438-.155-.595zm8.687 2.524a.172.172 0 0 1 .343 0 .172.172 0 0 1-.171.172.172.172 0 0 1-.172-.172zm1.545-.241c0-.207-.093-.47-.206-.582-.29-.29.057-.257.49.046.545.382.608.858.118.888-.307.019-.402-.064-.402-.352zm1.115-.102c.059-.094.14-.172.182-.172.042 0 .076.078.076.172 0 .094-.082.172-.182.172-.1 0-.134-.078-.076-.172zm-3.12-.339c.066-.434.218-.583.45-.44.127.08.129.214.004.446-.231.433-.521.43-.455-.006zm.632.096c0-.15.122-.272.272-.272.15 0 .24.092.203.204-.106.318-.475.371-.475.068zm1.888-.443c0-.095.082-.172.182-.172.1 0 .134.077.075.172-.058.094-.14.171-.182.171-.041 0-.075-.077-.075-.171zm-2.964-.365c.117-.117.255-.17.308-.117.053.053-.042.149-.211.213-.245.093-.265.074-.097-.096zm-3.827-.513c-.143-.23.238-.497.543-.38.274.106.114.571-.196.571a.453.453 0 0 1-.347-.19zm3.53.04c0-.095.077-.22.172-.278.094-.058.171-.029.171.065 0 .095-.077.22-.171.278-.095.058-.172.029-.172-.065zm.686-.02c0-.095.116-.172.258-.172.141 0 .257.077.257.171 0 .095-.116.172-.257.172-.142 0-.258-.077-.258-.172zm-2.917-.172c-.172-.111-.186-.167-.043-.17.425-.004.207-.495-.244-.548-.253-.03-.49-.146-.526-.259-.069-.209.668-.194 2.066.042.802.135.752.506-.068.506-.738 0-1.16.23-.817.448.128.08.155.147.06.147-.093 0-.287-.075-.428-.166zm3.947-.01c0-.1.077-.134.172-.076.094.058.171.14.171.182 0 .041-.077.075-.171.075-.095 0-.172-.081-.172-.181zm-1.201-.333c0-.095.077-.172.171-.172a.172.172 0 0 1 0 .343.172.172 0 0 1-.171-.171zm-4.248-.47c-.347-.12-.245-.56.129-.56.189 0 .342.058.34.129-.004.266-.262.503-.469.431z"/></svg>