<svg xmlns="http://www.w3.org/2000/svg" width="256" height="256" viewBox="0 0 67.733 67.733"><g transform="translate(0 -229.267)" fill="#57d277"><circle cx="20.32" cy="236.04" r="5.419"/><circle cx="33.867" cy="236.04" r="5.419"/><circle cx="47.413" cy="236.04" r="5.419"/><circle cx="60.96" cy="236.04" r="5.419"/><circle cx="60.96" cy="249.587" r="5.419"/><circle cx="47.413" cy="249.587" r="5.419"/><circle cx="33.867" cy="249.587" r="5.419"/><circle cx="6.773" cy="249.587" r="5.419"/><circle cx="6.773" cy="263.133" r="5.419"/><circle cx="20.32" cy="263.133" r="5.419"/><circle cx="47.413" cy="263.133" r="5.419"/><circle cx="60.96" cy="263.133" r="5.419"/><circle cx="60.96" cy="276.68" r="5.419"/><circle cx="33.867" cy="276.68" r="5.419"/><circle cx="20.32" cy="276.68" r="5.419"/><circle cx="6.773" cy="276.68" r="5.419"/><circle cx="6.773" cy="290.227" r="5.419"/><circle cx="20.32" cy="290.227" r="5.419"/><circle cx="33.867" cy="290.227" r="5.419"/><circle cx="47.413" cy="290.227" r="5.419"/></g><g font-weight="800" font-family="EB Garamond" letter-spacing="0" word-spacing="0"><g style="line-height:1.25;-inkscape-font-specification:'EB Garamond Ultra-Bold'"><path d="M2.993 11.989q-.097 0-.193-.064-.096-.08-.096-.177 0-.273.305-.353.626-.129.835-.322.225-.208.225-.69V3.092q0-.514-.193-.723-.193-.225-.77-.353-.338-.08-.338-.338 0-.112.08-.176.096-.08.241-.08.578 0 1.205.048.803.032 1.108.032h2.987q.45 0 1.43-.113.577-.064.754-.064.144 0 .273.08.128.08.144.257.08 1.365.08 2.28 0 .145-.063.242-.049.08-.145.08-.096 0-.209-.064-.096-.08-.128-.209-.145-.482-.29-.803-.128-.321-.32-.53-.418-.418-1.189-.418H7.714q-.401 0-.658.21-.257.192-.257.53v2.858q0 .385.417.385H8.71q.385 0 .562-.209.193-.208.37-.658.128-.289.337-.289.08 0 .144.112.064.097.048.257-.08.771-.08 1.22 0 .467.064 1.109v.128q0 .322-.16.322-.113 0-.225-.113-.113-.112-.16-.273-.145-.482-.338-.658-.177-.193-.482-.193H7.12q-.353 0-.353.37l.016 1.51q.016.513.016 1.509 0 .481.257.674.273.193.996.354.16.032.224.112.08.08.08.225 0 .24-.256.24l-1.398-.031-1.3-.033q-.29 0-1.157.033-.642.048-1.252.048z" style="-inkscape-font-specification:'EB Garamond Ultra-Bold'" aria-label="F" font-size="40"/></g><path d="M16.344 25.695q-.146 0-.226-.081-.081-.081-.081-.178 0-.098.08-.195.098-.097.243-.146.567-.162.762-.356.21-.194.21-.664v-7.387q0-.518-.194-.729-.194-.226-.778-.356-.34-.081-.34-.34 0-.114.081-.178.097-.081.243-.081.583 0 1.215.048.81.033 1.118.033 2.17 0 3.774-.049.502 0 .842-.065.357-.065.405-.065.146 0 .276.081.13.081.146.26.048.534.145.988.13.907.13 1.198 0 .146-.065.243-.048.081-.146.081-.097 0-.194-.064-.081-.081-.146-.211-.243-.6-.356-.826-.114-.227-.276-.389-.226-.227-.502-.372-.275-.146-.68-.146h-1.02q-.405 0-.665.21-.259.195-.259.535v2.98q0 .39.421.39h1.377q.373 0 .551-.244.194-.243.389-.761.13-.292.34-.292.08 0 .146.114.064.097.048.259-.08.777-.08 1.344 0 .697.064 1.345v.13q0 .323-.162.323-.113 0-.227-.113-.113-.113-.162-.275-.145-.551-.34-.81-.194-.26-.486-.26h-1.522q-.357 0-.357.373v3.062q0 .437.178.631.195.195.616.195h1.442q.745 0 1.182-.373.47-.389.923-1.296.098-.194.308-.194.162 0 .162.324 0 .292-.08.632-.082.34-.26.89l-.178.616q-.065.195-.389.195l-.632-.017q-3.158-.048-4.681-.048-.55 0-1.183.048-.842.033-1.15.033z" aria-label="E" font-size="40"/><g style="line-height:1.25;-inkscape-font-specification:'EB Garamond Ultra-Bold'"><path d="M28.627 39.307q-.413 0-.413-.27 0-.143.08-.206.095-.08.27-.143.475-.127.808-.396.349-.27.507-.619 1.507-3.504 2.712-6.882.19-.523.301-.936.111-.428.143-.428.682-.159 1.19-.333.269-.095.507-.254.238-.158.365-.301.126-.063.158-.063.08 0 .127.11.111.238.174.445.984 3.203 2.173 6.818l.587 1.824q.222.73 1.268 1.015.175.063.254.127.095.063.095.206 0 .111-.095.175-.08.063-.206.063-.317 0-1.269-.032-.983-.032-1.364-.032-.317 0-1.205.032-.73.048-1.332.048-.143 0-.238-.064-.095-.063-.095-.174 0-.27.35-.349.554-.111.808-.27.27-.174.27-.475 0-.159-.032-.254l-.492-1.84q-.032-.142-.095-.206-.048-.063-.159-.063H32.02q-.127 0-.174.063-.048.064-.095.206l-.222.682q-.048.175-.143.46-.095.286-.159.508-.063.206-.063.412 0 .301.222.476.238.158.824.301.35.08.35.349 0 .222-.334.222-.364 0-.935-.032l-.857-.016q-.444 0-.872.048-.143.016-.428.032-.285.015-.507.015zm5.82-4.647q.237 0 .237-.11 0-.017-.031-.175l-1.015-3.505q-.048-.158-.096-.158-.031 0-.095.158l-1.22 3.505q-.032.063-.032.127 0 .079.079.126.08.032.19.032z" style="-inkscape-font-specification:'EB Garamond Ultra-Bold'" aria-label="A" font-size="15.858" stroke-width=".396"/></g><g style="line-height:1.25;-inkscape-font-specification:'EB Garamond Ultra-Bold'"><path d="M47.09 52.783q-1.483 0-2.568-.654-.271-.16-.367-.399-.287-.75-.287-1.945 0-.335.016-.51 0-.208.303-.208.16 0 .223.048.064.032.128.16.383 1.243 1.1 1.993.718.75 1.66.75.685 0 1.052-.447.367-.463.367-1.02 0-.67-.4-1.085-.398-.415-1.419-.973-.893-.479-1.435-.877-.542-.4-.925-1.021-.367-.638-.367-1.515 0-.925.51-1.627.51-.718 1.388-1.1.877-.383 1.914-.383.574 0 1.148.127.59.112.973.271.208.08.287.176.08.095.16.35.16.639.16 1.93 0 .08-.08.144-.08.064-.224.064-.143 0-.255-.064-.112-.08-.143-.191-.256-.973-.798-1.484-.542-.51-1.324-.51-1.42 0-1.42 1.356 0 .494.495.94.51.431 1.643 1.101 1.356.814 1.85 1.563.51.734.51 1.802 0 1.643-1.036 2.44-1.021.798-2.84.798z" style="-inkscape-font-specification:'EB Garamond Ultra-Bold'" aria-label="S" font-size="15.949" stroke-width=".399"/></g><path d="M58.677 66.158q-.102 0-.205-.059-.102-.073-.102-.16 0-.25.322-.323.586-.132.806-.308.234-.19.234-.615V58.57q0-.762-.058-.967-.044-.22-.162-.293-.175-.103-.6-.103h-.25q-.468 0-.908.25-.439.234-.717.6-.25.337-.455.556-.205.22-.395.22-.234 0-.234-.263 0-.19.102-.396.308-.615.44-1.01.131-.411.175-.924.044-.38.381-.38.088 0 .264.234.117.176.234.263.132.103.47.176.35.059.585.059l5.596-.015q.308 0 .557-.058.249-.074.366-.147.088-.044.337-.264.234-.234.396-.234.175 0 .175.234 0 .074-.029.279-.03.102-.132.469-.102.366-.16.659-.045.293-.045.527v.308q0 .278-.058.41-.06.132-.19.132-.147 0-.25-.132-.088-.132-.19-.44-.19-.6-.528-.85-.322-.263-.937-.263h-.601q-.264 0-.41.117-.132.118-.205.454-.073.337-.073.967v5.933q0 .396.205.586.22.176.82.352.161.058.234.117.088.059.088.19 0 .103-.088.162-.073.058-.19.058-.308 0-1.216-.029l-1.128-.03q-.264 0-1.084.03-.63.044-1.187.044z" aria-label="T" font-size="14.649" stroke-width=".366"/><text style="line-height:1.25;-inkscape-font-specification:'EB Garamond Ultra-Bold'" x="-27.093" y="36.576" font-size="10.583" stroke-width=".265"/></g></svg>