<?xml version="1.0" encoding="UTF-8" standalone="no"?>
<!-- Created with Inkscape (http://www.inkscape.org/) -->

<svg
   xmlns:dc="http://purl.org/dc/elements/1.1/"
   xmlns:cc="http://creativecommons.org/ns#"
   xmlns:rdf="http://www.w3.org/1999/02/22-rdf-syntax-ns#"
   xmlns:svg="http://www.w3.org/2000/svg"
   xmlns="http://www.w3.org/2000/svg"
   xmlns:sodipodi="http://sodipodi.sourceforge.net/DTD/sodipodi-0.dtd"
   xmlns:inkscape="http://www.inkscape.org/namespaces/inkscape"
   width="256"
   height="256"
   viewBox="0 0 67.733332 67.733332"
   version="1.1"
   id="svg8"
   inkscape:version="0.92.4 5da689c313, 2019-01-14"
   sodipodi:docname="FEAST.svg">
  <defs
     id="defs2" />
  <sodipodi:namedview
     id="base"
     pagecolor="#ffffff"
     bordercolor="#666666"
     borderopacity="1.0"
     inkscape:pageopacity="0.0"
     inkscape:pageshadow="2"
     inkscape:zoom="3.959798"
     inkscape:cx="78.607755"
     inkscape:cy="117.03099"
     inkscape:document-units="mm"
     inkscape:current-layer="layer2"
     showgrid="true"
     units="px"
     width="64px"
     showguides="false"
     inkscape:window-width="2560"
     inkscape:window-height="1407"
     inkscape:window-x="1920"
     inkscape:window-y="0"
     inkscape:window-maximized="1">
    <inkscape:grid
       type="xygrid"
       id="grid815"
       spacingx="1.3546666"
       spacingy="1.3546666"
       empspacing="10" />
  </sodipodi:namedview>
  <metadata
     id="metadata5">
    <rdf:RDF>
      <cc:Work
         rdf:about="">
        <dc:format>image/svg+xml</dc:format>
        <dc:type
           rdf:resource="http://purl.org/dc/dcmitype/StillImage" />
        <dc:title />
      </cc:Work>
    </rdf:RDF>
  </metadata>
  <g
     inkscape:label="Layer 1"
     inkscape:groupmode="layer"
     id="layer1"
     transform="translate(0,-229.26667)">
    <circle
       style="fill:#57d277;fill-opacity:1;stroke:none;stroke-width:0.34983793;stroke-miterlimit:4;stroke-dasharray:none;stroke-dashoffset:0;stroke-opacity:1"
       id="path832"
       cx="20.319998"
       cy="236.04001"
       r="5.4186664" />
    <circle
       style="fill:#57d277;fill-opacity:1;stroke:none;stroke-width:0.34983793;stroke-miterlimit:4;stroke-dasharray:none;stroke-dashoffset:0;stroke-opacity:1"
       id="path832-3"
       cx="33.866665"
       cy="236.04001"
       r="5.4186664" />
    <circle
       style="fill:#57d277;fill-opacity:1;stroke:none;stroke-width:0.34983793;stroke-miterlimit:4;stroke-dasharray:none;stroke-dashoffset:0;stroke-opacity:1"
       id="path832-6"
       cx="47.41333"
       cy="236.04001"
       r="5.4186664" />
    <circle
       style="fill:#57d277;fill-opacity:1;stroke:none;stroke-width:0.34983793;stroke-miterlimit:4;stroke-dasharray:none;stroke-dashoffset:0;stroke-opacity:1"
       id="path832-7"
       cx="60.959995"
       cy="236.04001"
       r="5.4186664" />
    <circle
       style="fill:#57d277;fill-opacity:1;stroke:none;stroke-width:0.34983793;stroke-miterlimit:4;stroke-dasharray:none;stroke-dashoffset:0;stroke-opacity:1"
       id="path832-5"
       cx="60.959995"
       cy="249.58667"
       r="5.4186664" />
    <circle
       style="fill:#57d277;fill-opacity:1;stroke:none;stroke-width:0.34983793;stroke-miterlimit:4;stroke-dasharray:none;stroke-dashoffset:0;stroke-opacity:1"
       id="path832-35"
       cx="47.41333"
       cy="249.58667"
       r="5.4186664" />
    <circle
       style="fill:#57d277;fill-opacity:1;stroke:none;stroke-width:0.34983793;stroke-miterlimit:4;stroke-dasharray:none;stroke-dashoffset:0;stroke-opacity:1"
       id="path832-62"
       cx="33.866665"
       cy="249.58667"
       r="5.4186664" />
    <circle
       style="fill:#57d277;fill-opacity:1;stroke:none;stroke-width:0.34983793;stroke-miterlimit:4;stroke-dasharray:none;stroke-dashoffset:0;stroke-opacity:1"
       id="path832-1"
       cx="6.7733316"
       cy="249.58667"
       r="5.4186664" />
    <circle
       style="fill:#57d277;fill-opacity:1;stroke:none;stroke-width:0.34983793;stroke-miterlimit:4;stroke-dasharray:none;stroke-dashoffset:0;stroke-opacity:1"
       id="path832-2"
       cx="6.7733316"
       cy="263.13333"
       r="5.4186664" />
    <circle
       style="fill:#57d277;fill-opacity:1;stroke:none;stroke-width:0.34983793;stroke-miterlimit:4;stroke-dasharray:none;stroke-dashoffset:0;stroke-opacity:1"
       id="path832-70"
       cx="20.319998"
       cy="263.13333"
       r="5.4186664" />
    <circle
       style="fill:#57d277;fill-opacity:1;stroke:none;stroke-width:0.34983793;stroke-miterlimit:4;stroke-dasharray:none;stroke-dashoffset:0;stroke-opacity:1"
       id="path832-9"
       cx="47.41333"
       cy="263.13333"
       r="5.4186664" />
    <circle
       style="fill:#57d277;fill-opacity:1;stroke:none;stroke-width:0.34983793;stroke-miterlimit:4;stroke-dasharray:none;stroke-dashoffset:0;stroke-opacity:1"
       id="path832-36"
       cx="60.959995"
       cy="263.13333"
       r="5.4186664" />
    <circle
       style="fill:#57d277;fill-opacity:1;stroke:none;stroke-width:0.34983793;stroke-miterlimit:4;stroke-dasharray:none;stroke-dashoffset:0;stroke-opacity:1"
       id="path832-0"
       cx="60.959995"
       cy="276.67999"
       r="5.4186664" />
    <circle
       style="fill:#57d277;fill-opacity:1;stroke:none;stroke-width:0.34983793;stroke-miterlimit:4;stroke-dasharray:none;stroke-dashoffset:0;stroke-opacity:1"
       id="path832-626"
       cx="33.866665"
       cy="276.67999"
       r="5.4186664" />
    <circle
       style="fill:#57d277;fill-opacity:1;stroke:none;stroke-width:0.34983793;stroke-miterlimit:4;stroke-dasharray:none;stroke-dashoffset:0;stroke-opacity:1"
       id="path832-18"
       cx="20.319998"
       cy="276.67999"
       r="5.4186664" />
    <circle
       style="fill:#57d277;fill-opacity:1;stroke:none;stroke-width:0.34983793;stroke-miterlimit:4;stroke-dasharray:none;stroke-dashoffset:0;stroke-opacity:1"
       id="path832-79"
       cx="6.7733316"
       cy="276.67999"
       r="5.4186664" />
    <circle
       style="fill:#57d277;fill-opacity:1;stroke:none;stroke-width:0.34983793;stroke-miterlimit:4;stroke-dasharray:none;stroke-dashoffset:0;stroke-opacity:1"
       id="path832-20"
       cx="6.7733316"
       cy="290.22668"
       r="5.4186664" />
    <circle
       style="fill:#57d277;fill-opacity:1;stroke:none;stroke-width:0.34983793;stroke-miterlimit:4;stroke-dasharray:none;stroke-dashoffset:0;stroke-opacity:1"
       id="path832-23"
       cx="20.319998"
       cy="290.22668"
       r="5.4186664" />
    <circle
       style="fill:#57d277;fill-opacity:1;stroke:none;stroke-width:0.34983793;stroke-miterlimit:4;stroke-dasharray:none;stroke-dashoffset:0;stroke-opacity:1"
       id="path832-75"
       cx="33.866665"
       cy="290.22668"
       r="5.4186664" />
    <circle
       style="fill:#57d277;fill-opacity:1;stroke:none;stroke-width:0.34983793;stroke-miterlimit:4;stroke-dasharray:none;stroke-dashoffset:0;stroke-opacity:1"
       id="path832-92"
       cx="47.41333"
       cy="290.22668"
       r="5.4186664" />
    <flowRoot
       xml:space="preserve"
       id="flowRoot982"
       style="font-style:normal;font-weight:normal;font-size:40px;line-height:1.25;font-family:sans-serif;letter-spacing:0px;word-spacing:0px;fill:#000000;fill-opacity:1;stroke:none"><flowRegion
         id="flowRegion984"><rect
           id="rect986"
           width="40.959999"
           height="40.959999"
           x="5.1199999"
           y="5.1200123" /></flowRegion><flowPara
         id="flowPara988" /></flowRoot>  </g>
  <g
     inkscape:groupmode="layer"
     id="layer2"
     inkscape:label="Layer 2">
    <g
       aria-label="F"
       transform="matrix(0.40149526,0,0,0.40149526,2.4626996,-2.4594244)"
       style="font-style:normal;font-variant:normal;font-weight:800;font-stretch:normal;font-size:40px;line-height:1.25;font-family:'EB Garamond';-inkscape-font-specification:'EB Garamond Ultra-Bold';letter-spacing:0px;word-spacing:0px;fill:#000000;fill-opacity:1;stroke:none"
       id="flowRoot999">
      <path
         d="m 1.32,35.9859 q -0.24,0 -0.48,-0.16 -0.24,-0.2 -0.24,-0.44 0,-0.68 0.76,-0.88 1.56,-0.32 2.08,-0.8 0.56,-0.52 0.56,-1.72 v -18.16 q 0,-1.28 -0.48,-1.8 -0.48,-0.56 -1.92,-0.88 -0.84,-0.2 -0.84,-0.84 0,-0.28 0.2,-0.4399996 0.24,-0.2 0.6,-0.2 1.44,0 3,0.12 2,0.08 2.76,0.08 h 7.44 q 1.12,0 3.56,-0.28 1.44,-0.16 1.88,-0.16 0.36,0 0.68,0.2 0.32,0.2 0.36,0.6399996 0.2,3.4 0.2,5.68 0,0.36 -0.16,0.6 -0.12,0.2 -0.36,0.2 -0.24,0 -0.52,-0.16 -0.24,-0.2 -0.32,-0.52 -0.36,-1.2 -0.72,-2 -0.32,-0.8 -0.8,-1.32 -1.04,-1.04 -2.96,-1.04 h -2.52 q -1,0 -1.64,0.52 -0.64,0.48 -0.64,1.32 v 3.24 3.88 q 0,0.96 1.04,0.96 h 3.72 q 0.96,0 1.4,-0.52 0.48,-0.52 0.92,-1.64 0.32,-0.72 0.84,-0.72 0.2,0 0.36,0.28 0.16,0.24 0.12,0.64 -0.2,1.92 -0.2,3.04 0,1.16 0.16,2.76 v 0.32 q 0,0.8 -0.4,0.8 -0.28,0 -0.56,-0.28 -0.28,-0.28 -0.4,-0.68 -0.36,-1.2 -0.84,-1.64 -0.44,-0.48 -1.2,-0.48 H 13.92 11.6 q -0.88,0 -0.88,0.92 l 0.04,3.76 q 0.04,1.28 0.04,3.76 0,1.2 0.64,1.68 0.68,0.48 2.48,0.88 0.4,0.08 0.56,0.28 0.2,0.2 0.2,0.56 0,0.6 -0.64,0.6 l -3.48,-0.08 -3.24,-0.08 q -0.72,0 -2.88,0.08 -1.6,0.12 -3.12,0.12 z"
         style="font-style:normal;font-variant:normal;font-weight:800;font-stretch:normal;font-family:'EB Garamond';-inkscape-font-specification:'EB Garamond Ultra-Bold'"
         id="path4565"
         inkscape:connector-curvature="0" />
    </g>
    <g
       aria-label="E"
       transform="matrix(0.4049646,0,0,0.4049646,-4.9565363,-9.6445601)"
       style="font-style:normal;font-variant:normal;font-weight:800;font-stretch:normal;font-size:40px;line-height:1.25;font-family:'EB Garamond';-inkscape-font-specification:'EB Garamond Ultra-Bold';letter-spacing:0px;word-spacing:0px;fill:#000000;fill-opacity:1;stroke:none"
       id="flowRoot1007">
      <path
         d="m 52.599219,87.265119 q -0.36,0 -0.56,-0.2 -0.2,-0.2 -0.2,-0.44 0,-0.24 0.2,-0.48 0.24,-0.24 0.6,-0.36 1.4,-0.4 1.88,-0.88 0.52,-0.48 0.52,-1.64 v -18.24 q 0,-1.28 -0.48,-1.8 -0.48,-0.56 -1.92,-0.88 -0.84,-0.2 -0.84,-0.84 0,-0.28 0.2,-0.44 0.24,-0.2 0.6,-0.2 1.44,0 3,0.12 2,0.08 2.76,0.08 5.36,0 9.32,-0.12 1.24,0 2.08,-0.16 0.88,-0.16 1,-0.16 0.36,0 0.68,0.2 0.32,0.2 0.36,0.64 0.12,1.32 0.36,2.44 0.32,2.24 0.32,2.96 0,0.36 -0.16,0.6 -0.12,0.2 -0.36,0.2 -0.24,0 -0.48,-0.16 -0.2,-0.2 -0.36,-0.52 -0.6,-1.48 -0.88,-2.04 -0.28,-0.56 -0.68,-0.96 -0.56,-0.56 -1.24,-0.92 -0.68,-0.36 -1.68,-0.36 h -2.52 q -1,0 -1.64,0.52 -0.64,0.48 -0.64,1.32 v 7.36 q 0,0.96 1.04,0.96 h 3.4 q 0.92,0 1.36,-0.6 0.48,-0.6 0.96,-1.88 0.32,-0.72 0.84,-0.72 0.2,0 0.36,0.28 0.16,0.24 0.12,0.64 -0.2,1.92 -0.2,3.32 0,1.72 0.16,3.32 v 0.32 q 0,0.8 -0.4,0.8 -0.28,0 -0.56,-0.28 -0.28,-0.28 -0.4,-0.68 -0.36,-1.36 -0.84,-2 -0.48,-0.64 -1.2,-0.64 h -3.76 q -0.88,0 -0.88,0.92 v 7.56 q 0,1.08 0.44,1.56 0.48,0.48 1.52,0.48 h 3.56 q 1.84,0 2.92,-0.92 1.16,-0.96 2.28,-3.2 0.24,-0.48 0.76,-0.48 0.4,0 0.4,0.8 0,0.72 -0.2,1.56 -0.2,0.84 -0.64,2.2 l -0.44,1.52 q -0.16,0.48 -0.96,0.48 l -1.56,-0.04 q -7.8,-0.12 -11.56,-0.12 -1.36,0 -2.92,0.12 -2.08,0.08 -2.84,0.08 z"
         id="path4568"
         inkscape:connector-curvature="0" />
    </g>
    <g
       aria-label="A"
       style="font-style:normal;font-variant:normal;font-weight:800;font-stretch:normal;font-size:15.85786533px;line-height:1.25;font-family:'EB Garamond';-inkscape-font-specification:'EB Garamond Ultra-Bold';letter-spacing:0px;word-spacing:0px;fill:#000000;fill-opacity:1;stroke:none;stroke-width:0.39644662"
       id="text1017">
      <path
         d="m 28.626524,39.306508 q -0.412305,0 -0.412305,-0.269584 0,-0.142721 0.07929,-0.206152 0.09515,-0.07929 0.269583,-0.142721 0.475736,-0.126863 0.808751,-0.396446 0.348873,-0.269584 0.507452,-0.618457 1.506497,-3.504588 2.711695,-6.882314 0.190294,-0.523309 0.301299,-0.935614 0.111006,-0.428162 0.142721,-0.428162 0.681888,-0.158579 1.18934,-0.333015 0.269584,-0.09515 0.507452,-0.253726 0.237868,-0.158579 0.364731,-0.3013 0.126863,-0.06343 0.158578,-0.06343 0.07929,0 0.126863,0.111005 0.111005,0.237868 0.174437,0.44402 0.983188,3.203289 2.172527,6.818882 l 0.586741,1.823655 q 0.222011,0.729462 1.26863,1.014903 0.174436,0.06343 0.253725,0.126863 0.09515,0.06343 0.09515,0.206152 0,0.111005 -0.09515,0.174437 -0.07929,0.06343 -0.206152,0.06343 -0.317157,0 -1.268629,-0.03172 -0.983188,-0.03172 -1.363776,-0.03172 -0.317158,0 -1.205198,0.03172 -0.729462,0.04757 -1.332061,0.04757 -0.142721,0 -0.237868,-0.06343 -0.09515,-0.06343 -0.09515,-0.174437 0,-0.269583 0.348873,-0.348873 0.555025,-0.111005 0.808751,-0.269584 0.269584,-0.174436 0.269584,-0.475735 0,-0.158579 -0.03172,-0.253726 l -0.491594,-1.839513 q -0.03172,-0.14272 -0.09515,-0.206152 -0.04757,-0.06343 -0.158579,-0.06343 h -2.759268 q -0.126863,0 -0.174437,0.06343 -0.04757,0.06343 -0.09515,0.206152 l -0.22201,0.681889 q -0.04757,0.174436 -0.142721,0.459878 -0.09515,0.285441 -0.158578,0.507451 -0.06343,0.206153 -0.06343,0.412305 0,0.301299 0.22201,0.475736 0.237868,0.158578 0.824609,0.301299 0.348873,0.07929 0.348873,0.348873 0,0.22201 -0.333015,0.22201 -0.364731,0 -0.935614,-0.03172 l -0.856325,-0.01586 q -0.44402,0 -0.872182,0.04757 -0.142721,0.01586 -0.428163,0.03172 -0.285441,0.01586 -0.507451,0.01586 z m 5.819836,-4.646355 q 0.237868,0 0.237868,-0.111005 0,-0.01586 -0.03171,-0.174436 l -1.014904,-3.504588 q -0.04757,-0.158579 -0.09515,-0.158579 -0.03172,0 -0.09515,0.158579 l -1.221056,3.504588 q -0.03172,0.06343 -0.03172,0.126863 0,0.07929 0.07929,0.126863 0.07929,0.03171 0.190294,0.03171 z"
         style="font-style:normal;font-variant:normal;font-weight:800;font-stretch:normal;font-family:'EB Garamond';-inkscape-font-specification:'EB Garamond Ultra-Bold';stroke-width:0.39644662"
         id="path4571"
         inkscape:connector-curvature="0" />
    </g>
    <g
       aria-label="S"
       style="font-style:normal;font-variant:normal;font-weight:800;font-stretch:normal;font-size:15.94914532px;line-height:1.25;font-family:'EB Garamond';-inkscape-font-specification:'EB Garamond Ultra-Bold';letter-spacing:0px;word-spacing:0px;fill:#000000;fill-opacity:1;stroke:none;stroke-width:0.39872864"
       id="text1021">
      <path
         d="m 47.089832,52.783049 q -1.48327,0 -2.567812,-0.653915 -0.271136,-0.159491 -0.366831,-0.398729 -0.287084,-0.749609 -0.287084,-1.945795 0,-0.334932 0.01595,-0.510373 0,-0.207339 0.303034,-0.207339 0.159491,0 0.223288,0.04785 0.0638,0.0319 0.127593,0.159491 0.382779,1.244033 1.100491,1.993643 0.717711,0.74961 1.658711,0.74961 0.685813,0 1.052644,-0.446576 0.36683,-0.462525 0.36683,-1.020745 0,-0.669864 -0.398729,-1.084542 -0.398728,-0.414678 -1.419474,-0.972898 -0.893152,-0.478474 -1.435423,-0.877203 -0.542271,-0.398729 -0.92505,-1.020745 -0.36683,-0.637966 -0.36683,-1.515169 0,-0.925051 0.510372,-1.626813 0.510373,-0.717711 1.387576,-1.100491 0.877203,-0.382779 1.913897,-0.382779 0.574169,0 1.148339,0.127593 0.590118,0.111644 0.972898,0.271135 0.207338,0.07975 0.287084,0.175441 0.07975,0.09569 0.159492,0.350881 0.159491,0.637966 0.159491,1.929847 0,0.07974 -0.07975,0.143542 -0.07974,0.0638 -0.223288,0.0638 -0.143542,0 -0.255186,-0.0638 -0.111644,-0.07975 -0.143542,-0.19139 -0.255187,-0.972898 -0.797458,-1.48327 -0.54227,-0.510373 -1.323779,-0.510373 -1.419474,0 -1.419474,1.355677 0,0.494424 0.494424,0.941 0.510373,0.430627 1.642762,1.100491 1.355677,0.813406 1.850101,1.563016 0.510372,0.733661 0.510372,1.802254 0,1.642762 -1.036694,2.440219 -1.020745,0.797457 -2.838948,0.797457 z"
         style="font-style:normal;font-variant:normal;font-weight:800;font-stretch:normal;font-family:'EB Garamond';-inkscape-font-specification:'EB Garamond Ultra-Bold';stroke-width:0.39872864"
         inkscape:connector-curvature="0"
         id="path4574" />
    </g>
    <g
       aria-label="T"
       style="font-style:normal;font-variant:normal;font-weight:800;font-stretch:normal;font-size:14.64939976px;line-height:1.25;font-family:'EB Garamond';-inkscape-font-specification:'EB Garamond Ultra-Bold';letter-spacing:0px;word-spacing:0px;fill:#000000;fill-opacity:1;stroke:none;stroke-width:0.36623499"
       id="text1025">
      <path
         d="m 58.677358,66.157924 q -0.102545,0 -0.205091,-0.0586 -0.102546,-0.07325 -0.102546,-0.161143 0,-0.24904 0.322287,-0.322287 0.585976,-0.131845 0.805717,-0.307637 0.23439,-0.190443 0.23439,-0.615275 v -6.123449 q 0,-0.761769 -0.0586,-0.966861 -0.04395,-0.219741 -0.161144,-0.292988 -0.175793,-0.102546 -0.600625,-0.102546 h -0.24904 q -0.468781,0 -0.908263,0.24904 -0.439482,0.234391 -0.71782,0.600626 -0.24904,0.336936 -0.454132,0.556677 -0.205091,0.219741 -0.395533,0.219741 -0.234391,0 -0.234391,-0.263689 0,-0.190443 0.102546,-0.395534 0.307637,-0.615275 0.439482,-1.010809 0.131845,-0.410183 0.175793,-0.922912 0.04395,-0.380884 0.380884,-0.380884 0.0879,0 0.263689,0.23439 0.117195,0.175793 0.234391,0.263689 0.131844,0.102546 0.46878,0.175793 0.351586,0.0586 0.585976,0.0586 l 5.596071,-0.01465 q 0.307638,0 0.556677,-0.0586 0.24904,-0.07325 0.366235,-0.146494 0.0879,-0.04395 0.336937,-0.26369 0.23439,-0.23439 0.395533,-0.23439 0.175793,0 0.175793,0.23439 0,0.07325 -0.0293,0.278339 -0.0293,0.102546 -0.131844,0.468781 -0.102546,0.366235 -0.161144,0.659223 -0.04395,0.292988 -0.04395,0.527378 v 0.307638 q 0,0.278338 -0.0586,0.410183 -0.0586,0.131844 -0.190443,0.131844 -0.146494,0 -0.249039,-0.131844 -0.0879,-0.131845 -0.190443,-0.439482 -0.190442,-0.600626 -0.527378,-0.849665 -0.322287,-0.26369 -0.937562,-0.26369 h -0.600625 q -0.263689,0 -0.410183,0.117196 -0.131845,0.117195 -0.205092,0.454131 -0.07325,0.336936 -0.07325,0.96686 v 5.933007 q 0,0.395534 0.205092,0.585976 0.219741,0.175793 0.820366,0.351586 0.161144,0.0586 0.234391,0.117195 0.0879,0.0586 0.0879,0.190442 0,0.102546 -0.0879,0.161144 -0.07325,0.0586 -0.190443,0.0586 -0.307637,0 -1.2159,-0.0293 l -1.128004,-0.0293 q -0.263689,0 -1.084055,0.0293 -0.629924,0.04395 -1.186602,0.04395 z"
         style="stroke-width:0.36623499"
         id="path4577"
         inkscape:connector-curvature="0" />
    </g>
    <text
       xml:space="preserve"
       style="font-style:normal;font-variant:normal;font-weight:800;font-stretch:normal;font-size:10.58333302px;line-height:1.25;font-family:'EB Garamond';-inkscape-font-specification:'EB Garamond Ultra-Bold';letter-spacing:0px;word-spacing:0px;fill:#000000;fill-opacity:1;stroke:none;stroke-width:0.26458332"
       x="-27.093328"
       y="36.576"
       id="text1029"><tspan
         sodipodi:role="line"
         id="tspan1027"
         x="-27.093328"
         y="46.065521"
         style="stroke-width:0.26458332" /></text>
  </g>
</svg>
